<?xml version="1.0" encoding="UTF-8"?>
<svg id="Layer_1" data-name="Layer 1" xmlns="http://www.w3.org/2000/svg" viewBox="0 0 100 60">
  <defs>
    <style>
      .cls-1 {
        fill: #fff;
      }

      .cls-2 {
        fill: #b6b4b5;
      }
    </style>
  </defs>
  <rect width="100" height="60"/>
  <g>
    <path class="cls-1" d="M2.35,.41c2.65,0,5.3,0,7.95-.02,3.32,0,5.78,1.71,5.78,3.48V21.2c.04,1.95-2.46,2.94-4.44,2.94-1.02,0-2.84,0-4.22,0H2.35V.41h0Zm8,18.52V5.34c0-.9-.93-.93-2.27-.93v15.76c1.44,0,2.27-.29,2.27-1.23h0Z"/>
    <path class="cls-1" d="M18.88,19.79V.4h6.01V19.24c0,1.14,0,1.43,.89,1.43s.87-.31,.87-1.43l.02-18.84h6.05c0,6.38,0,13.1,0,19.39,0,1.1-.19,4.93-6.98,4.93s-6.86-3.79-6.86-4.93h0Z"/>
    <path class="cls-1" d="M35.35,.38c1.34,0,3.37,0,4.95,0,.94,3.22,2.4,7.36,3.71,10.79V.38h4.96V24.17h-5.18c-1.16-3.49-2.34-6.97-3.49-10.74v10.74h-4.95V.38h0Z"/>
    <path class="cls-1" d="M51.78,.41c2.65,0,5.3,0,7.95-.02,3.32,0,5.78,1.71,5.78,3.48V21.2c.04,1.95-2.46,2.94-4.44,2.94-1.02,0-2.84,0-4.22,0h-5.06V.41h0Zm8,18.52V5.34c0-.9-.93-.93-2.27-.93v15.76c1.44,0,2.27-.29,2.27-1.23h0Z"/>
    <path class="cls-1" d="M68.38,.36h10.13V4.97h-4.05v4.95h3.77v4.05h-3.77v5.51h4.33v4.62h-10.41V.36h0Z"/>
    <path class="cls-1" d="M80.95,24.17V.56c3.27,0,5.8,.07,7.74,.07,3.88,0,5.83,1.05,5.83,6.3,0,4.16-.54,4.04-3.2,4.81,1.29,.14,3.16,1.32,3.16,2.54l.04,9.89h-5.54c0-3.33-.07-6.9-.07-10.18-.38-.4-.63-.57-1.93-.57v10.74h-6.03Zm8.03-15.08c0-1.28,.01-4.15,.01-4.15-.31-.4-.67-.56-1.26-.57h-.75v5.56h.57c.63,.01,1.12-.31,1.44-.85h0Z"/>
    <path class="cls-1" d="M0,50.21V26.64c2.69,0,5.42,0,8.1,0,.23,2.36,1.41,9.53,1.6,10.84l1.6-10.84h7.82v23.57h-5.38v-15.92l-2.16,15.92h-3.77c-.46-2.76-1.69-10.97-2.38-15.61,0,4.4,.02,10.65,.02,15.61H0Z"/>
    <path class="cls-1" d="M21.78,26.52h6v23.72h-6V26.52h0Z"/>
    <path class="cls-1" d="M30.41,26.46h10.46v4.62h-4.33v4.71h3.77v4.33h-3.77v10.08h-6.12V26.46h0Z"/>
    <path class="cls-1" d="M42.47,26.46h10.46v4.62h-4.33v4.71h3.77v4.33h-3.77v10.08h-6.12V26.46h0Z"/>
    <path class="cls-1" d="M54.55,26.48h6.03v19.13h3.77v4.62h-9.8V26.48h0Z"/>
    <path class="cls-1" d="M65.93,26.52h6v23.72h-6V26.52h0Z"/>
    <path class="cls-1" d="M74.72,26.32c1.34,0,3.37,0,4.95,0,.94,3.22,2.4,7.36,3.71,10.79v-10.79h4.96v23.79h-5.18c-1.16-3.49-2.34-6.97-3.49-10.74v10.74h-4.95V26.32h0Z"/>
  </g>
  <g>
    <rect class="cls-2" x="89.55" y="26.45" width="10.15" height="2.6"/>
    <path class="cls-2" d="M89.56,30.22h10.14v2.31l-4.07,1.19,4.07-.02v2.6h-10.14v-2.6l4.35-1.17h-4.34s0-2.32,0-2.32h0Z"/>
    <path class="cls-2" d="M95.36,43.55v-2.6h2.6s.31,.01,.31-.58-.29-.59-.29-.59h-6.66s-.31,.02-.31,.59,.29,.58,.29,.58h2.3v2.59h-2.6s-1.72,0-1.72-3.07,1.72-3.3,1.72-3.3h7.25s1.75-.05,1.75,3.19-1.74,3.18-1.74,3.18h-2.9Z"/>
  </g>
  <g>
    <path class="cls-1" d="M90.12,45.59h4.08v3.77c0,1.35-2.06,4.06-4.06,4.06v-1.73c.37,0,1.15-1.11,1.15-1.47h-1.16v-4.63s0,0,0,0Z"/>
    <path class="cls-1" d="M8.49,54.54l-.13,.23c-.77,1.37-1.76,3.2-2.58,4.66l-.13,.22h.25s.84-.02,.84-.02h.08l.05-.07,.62-1.09h2.11l.6,1.08,.05,.07h1.17l-.13-.22-2.67-4.64-.13-.22h0Zm.05,1.8l.63,1.27h-1.24c.21-.43,.41-.87,.61-1.27h0Z"/>
    <path class="cls-1" d="M75.67,54.54l-.13,.23c-.77,1.37-1.76,3.2-2.58,4.66l-.13,.22h.25s.84-.02,.84-.02h.08l.05-.07,.61-1.09h2.11l.61,1.08,.05,.07h1.17l-.13-.22-2.67-4.64-.13-.22h0Zm.05,1.79l.63,1.28h-1.24c.21-.43,.41-.88,.61-1.28h0Z"/>
    <path class="cls-1" d="M81.74,54.58v4.94h.14l.85,.03h.15v-3.02l2.94,2.95,.05,.04h1.08v-4.94h-1.17v3.01l-2.94-2.96-.04-.05h-1.07Z"/>
    <path class="cls-1" d="M43.45,54.59c-.47,0-1.14,.12-1.71,.48s-1.03,1-1.03,1.98,.44,1.65,1,2.05,1.23,.54,1.73,.54c.97,0,1.54-.32,1.54-.32l.07-.05v-1.03l-.23,.14c-.42,.26-.65,.43-1.23,.43-.27,0-.81-.14-1.25-.44s-.78-.74-.78-1.33,.27-.98,.63-1.22,.84-.34,1.19-.34c.73,0,.96,.09,1.44,.39l.23,.14v-.92l-.07-.04c-.41-.24-.61-.46-1.52-.46h0Z"/>
    <path class="cls-1" d="M89.98,54.59l.15,.23,1.71,2.53v2.19h1.21v-2.11l1.72-2.61,.14-.23h-1.23l-.05,.06-1.18,1.58-1.18-1.58-.05-.06h-1.26Z"/>
    <path class="cls-1" d="M21.56,54.7v4.94h3.22v-.72h-2.36v-1.62h2.06v-.82h-2.06v-1.03h2.36v-.74h-3.22Z"/>
    <path class="cls-1" d="M51.43,54.72c-.7,0-1.42,.23-1.97,.63s-.92,.99-.92,1.69,.37,1.35,.92,1.83,1.25,.78,1.96,.78,1.43-.3,1.98-.78,.93-1.13,.93-1.83-.38-1.28-.93-1.68-1.27-.63-1.97-.63h0Zm0,.74c.46,0,.98,.17,1.37,.46s.64,.67,.64,1.11-.26,.87-.65,1.21-.89,.55-1.34,.55-.98-.21-1.38-.54-.67-.78-.67-1.22,.26-.82,.65-1.11,.91-.45,1.38-.45h0Z"/>
    <path class="cls-1" d="M.1,54.75v4.58H.95v-1.69H1.98s0,0,0,0c0,0,.01,0,.02,0,.01,0,.03,0,.05,0,.03,0,.07-.01,.13-.03,.11-.03,.25-.08,.4-.18,.29-.2,.57-.59,.57-1.25s-.2-1.02-.42-1.21c-.11-.1-.22-.15-.31-.17-.04-.01-.08-.02-.11-.03-.01,0-.02,0-.03,0,0,0-.01,.07-.02,.14,0,0,0,0,0,0v-.14H.1Zm.87,.85h.69s.01,0,.02,0c.02,0,.05,.01,.08,.02,.07,0,.15,.02,.23,.05,.16,.07,.31,.18,.31,.49s-.17,.43-.36,.52c-.1,.04-.2,.07-.27,.08-.04,0-.07,0-.09,0-.01,0-.02,0-.03,0h0s0,0,0,0H.97v-1.17h0Z"/>
    <path class="cls-1" d="M14.59,54.75v4.58h.85v-1.69h1.03s0,0,0,0c0,0,.01,0,.02,0,.01,0,.03,0,.05,0,.03,0,.08-.01,.14-.03,.11-.03,.25-.08,.39-.18,.29-.2,.58-.59,.58-1.25s-.2-1.02-.43-1.21c-.11-.1-.22-.15-.31-.17-.04-.01-.08-.02-.11-.03-.01,0-.02,0-.03,0,0,0,0,.07,0,.14,0,0,0,0,0,0v-.14h-2.17Zm.87,.85h.69s.01,0,.02,0c.02,0,.05,.01,.08,.02,.07,0,.16,.02,.24,.05,.16,.07,.3,.18,.3,.49s-.17,.43-.36,.52c-.1,.04-.2,.07-.27,.08-.04,0-.07,0-.09,0-.01,0-.02,0-.03,0,0,0-.01,0-.02,0h-.55v-1.17h0Z"/>
    <path class="cls-1" d="M28.52,54.75v4.58h.85v-1.69h.38s1.16,1.64,1.16,1.64l.04,.06h.88s.31,0,.31,0l-.19-.24-1.28-1.52c.1-.03,.21-.07,.34-.15,.29-.2,.57-.59,.57-1.25s-.2-1.02-.42-1.21c-.11-.1-.22-.15-.31-.17-.04-.01-.08-.02-.11-.03-.01,0-.02,0-.03,0,0,0-.01,.07-.02,.14,0,0,0,0,0,0v-.14h-2.17Zm.87,.85h.69s.01,0,.02,0c.02,0,.05,.01,.08,.02,.07,0,.15,.02,.23,.05,.16,.07,.31,.18,.31,.49s-.17,.43-.36,.52c-.1,.04-.2,.07-.27,.08-.04,0-.07,0-.09,0-.01,0-.02,0-.03,0,0,0-.01,0-.02,0h-.55v-1.17h0Z"/>
    <path class="cls-1" d="M67.08,54.75v4.58h.86v-1.69h1.03s0,0,0,0c0,0,0,0,0,0,.01,0,.03,0,.05,0,.03,0,.08-.01,.14-.03,.11-.03,.25-.08,.4-.18,.29-.2,.57-.59,.57-1.25s-.2-1.02-.43-1.21c-.11-.1-.22-.15-.31-.17-.04-.01-.07-.02-.1-.03-.01,0-.03,0-.04,0v.14s-.02,0-.02,0v-.14h-2.17Zm.88,.85h.68s.02,0,.03,0c.02,0,.05,.01,.08,.02,.07,0,.15,.02,.23,.05,.16,.07,.3,.18,.3,.49s-.17,.43-.36,.52c-.1,.04-.2,.07-.27,.08-.04,0-.07,0-.09,0-.01,0-.02,0-.03,0,0,0-.01,0-.02,0h-.54v-1.17h0Z"/>
    <path class="cls-1" d="M62.68,55l-.04,.06-1.65,2.29-1.65-2.28-.05-.06h-1.05v4.5h.87s0-.14,0-.14v-3.04l1.76,2.27,.11,.14,.12-.14,1.76-2.28v3.22h.9v-4.54h-1.08Z"/>
  </g>
</svg>