<?xml version="1.0" encoding="UTF-8"?>
<svg id="Layer_1" data-name="Layer 1" xmlns="http://www.w3.org/2000/svg" viewBox="0 0 500 280">
  <defs>
    <style>
      .cls-1 {
        fill: #fff;
      }

      .cls-2 {
        stroke-dasharray: 0 0 3.45 3.45;
      }

      .cls-2, .cls-3, .cls-4, .cls-5, .cls-6, .cls-7, .cls-8, .cls-9, .cls-10 {
        fill: none;
        stroke: #000;
        stroke-miterlimit: 10;
        stroke-width: .86px;
      }

      .cls-11 {
        fill: #b2b2b2;
      }

      .cls-3 {
        stroke-dasharray: 0 0 3.47 3.47;
      }

      .cls-4 {
        stroke-dasharray: 0 0 3.45 3.45;
      }

      .cls-5 {
        stroke-dasharray: 0 0 3.45 3.45;
      }

      .cls-6 {
        stroke-dasharray: 0 0 3.47 3.47;
      }

      .cls-7 {
        stroke-dasharray: 0 0 3.47 3.47;
      }

      .cls-8 {
        stroke-dasharray: 0 0 3.45 3.45;
      }

      .cls-9 {
        stroke-dasharray: 0 0 3.47 3.47;
      }
    </style>
  </defs>
  <path class="cls-11" d="M38.11,22.22H118.93V62.63c0,22.3-18.11,40.41-40.41,40.41h0c-22.3,0-40.41-18.11-40.41-40.41V22.22h0Z"/>
  <path d="M55,186h47.04v23.52c0,12.98-10.54,23.52-23.52,23.52h0c-12.98,0-23.52-10.54-23.52-23.52v-23.52h0Z"/>
  <path class="cls-11" d="M207.48,23.84h80.82v40.41c0,22.3-18.11,40.41-40.41,40.41h0c-22.3,0-40.41-18.11-40.41-40.41V23.84h0Z"/>
  <g>
    <path class="cls-1" d="M210.02,102.21h-5.07v-37.96c0-23.68,19.27-42.95,42.95-42.95h40.41v5.07h-40.41c-20.88,0-37.87,16.99-37.87,37.87v37.96Z"/>
    <g>
      <polyline class="cls-10" points="210.02 100.49 210.02 102.21 208.3 102.21"/>
      <polyline class="cls-10" points="206.66 102.21 204.94 102.21 204.94 100.49"/>
      <path class="cls-3" d="M204.94,97.02v-32.77c0-23.68,19.27-42.95,42.95-42.95h36.95"/>
      <polyline class="cls-10" points="286.58 21.3 288.3 21.3 288.3 23.02"/>
      <polyline class="cls-10" points="288.3 24.65 288.3 26.38 286.58 26.38"/>
      <path class="cls-2" d="M283.13,26.38h-35.24c-20.88,0-37.87,16.99-37.87,37.87v34.52"/>
    </g>
  </g>
  <g>
    <path class="cls-1" d="M221.64,113.83h-5.07v-37.96c0-23.68,19.27-42.95,42.95-42.95h40.41v5.07h-40.41c-20.88,0-37.87,16.99-37.87,37.87v37.96Z"/>
    <g>
      <polyline class="cls-10" points="221.64 112.11 221.64 113.83 219.92 113.83"/>
      <polyline class="cls-10" points="218.28 113.83 216.56 113.83 216.56 112.11"/>
      <path class="cls-7" d="M216.56,108.64v-32.77c0-23.68,19.27-42.95,42.95-42.95h36.95"/>
      <polyline class="cls-10" points="298.2 32.92 299.92 32.92 299.92 34.64"/>
      <polyline class="cls-10" points="299.92 36.27 299.92 37.99 298.2 37.99"/>
      <path class="cls-8" d="M294.75,37.99h-35.24c-20.88,0-37.87,16.99-37.87,37.87v34.52"/>
    </g>
  </g>
  <g>
    <path class="cls-1" d="M233.26,125.45h-5.07v-37.96c0-23.68,19.27-42.95,42.95-42.95h40.41v5.07h-40.41c-20.88,0-37.87,16.99-37.87,37.87v37.96Z"/>
    <g>
      <polyline class="cls-10" points="233.26 123.73 233.26 125.45 231.54 125.45"/>
      <polyline class="cls-10" points="229.9 125.45 228.18 125.45 228.18 123.73"/>
      <path class="cls-9" d="M228.18,120.26v-32.77c0-23.68,19.27-42.95,42.94-42.95h36.95"/>
      <polyline class="cls-10" points="309.82 44.54 311.54 44.54 311.54 46.26"/>
      <polyline class="cls-10" points="311.54 47.89 311.54 49.61 309.82 49.61"/>
      <path class="cls-4" d="M306.37,49.61h-35.24c-20.88,0-37.87,16.99-37.87,37.87v34.52"/>
    </g>
  </g>
  <g>
    <path class="cls-1" d="M244.88,137.07h-5.07v-37.96c0-23.68,19.27-42.95,42.95-42.95h40.41v5.07h-40.41c-20.88,0-37.87,16.99-37.87,37.87v37.96Z"/>
    <g>
      <polyline class="cls-10" points="244.88 135.35 244.88 137.07 243.16 137.07"/>
      <polyline class="cls-10" points="241.52 137.07 239.8 137.07 239.8 135.35"/>
      <path class="cls-7" d="M239.8,131.88v-32.77c0-23.68,19.26-42.95,42.94-42.95h36.95"/>
      <polyline class="cls-10" points="321.44 56.16 323.16 56.16 323.16 57.88"/>
      <polyline class="cls-10" points="323.16 59.51 323.16 61.23 321.44 61.23"/>
      <path class="cls-8" d="M317.99,61.23h-35.24c-20.88,0-37.87,16.99-37.87,37.87v34.52"/>
    </g>
  </g>
  <g>
    <path class="cls-1" d="M256.5,148.69h-5.07v-37.96c0-23.68,19.27-42.95,42.95-42.95h40.41v5.07h-40.41c-20.88,0-37.87,16.99-37.87,37.87v37.96Z"/>
    <g>
      <polyline class="cls-10" points="256.5 146.97 256.5 148.69 254.78 148.69"/>
      <polyline class="cls-10" points="253.14 148.69 251.42 148.69 251.42 146.97"/>
      <path class="cls-6" d="M251.42,143.5v-32.77c0-23.68,19.27-42.94,42.95-42.94h36.95"/>
      <polyline class="cls-10" points="333.06 67.78 334.78 67.78 334.78 69.5"/>
      <polyline class="cls-10" points="334.78 71.13 334.78 72.85 333.06 72.85"/>
      <path class="cls-5" d="M329.61,72.85h-35.24c-20.88,0-37.87,16.99-37.87,37.87v34.52"/>
    </g>
  </g>
  <g>
    <path class="cls-11" d="M383.18,48.09V22.22h25.86c-12,4.33-21.53,13.87-25.86,25.87Z"/>
    <path class="cls-11" d="M464,24.76v6.54h-28.79c-23.68,0-42.95,19.27-42.95,42.95v13.91c-2.76-3.39-4.99-7.23-6.55-11.41v-14.12c0-20.88,16.99-37.87,37.87-37.87h40.41Z"/>
    <path class="cls-11" d="M464,36.38v6.55h-17.17c-23.68,0-42.95,19.27-42.95,42.95v12.04c-2.34-1.3-4.53-2.84-6.55-4.57v-19.1c0-20.88,16.99-37.87,37.87-37.87h28.79Z"/>
    <path class="cls-11" d="M464,48v6.55h-5.55c-23.68,0-42.95,19.27-42.95,42.95v4.73c-2.25-.46-4.44-1.1-6.54-1.92v-14.44c0-20.88,16.99-37.87,37.87-37.87h17.17Z"/>
    <path class="cls-11" d="M462.92,71.91c-3.49,14.86-15.18,26.56-30.05,30.05,2.91-15.16,14.88-27.14,30.05-30.05Z"/>
    <path class="cls-11" d="M464,59.62v3.01c0,1.34-.07,2.67-.19,3.99h0c-18.67,2.74-33.48,17.55-36.22,36.22-1.31,.13-2.65,.2-4,.2-1.01,0-2.02-.04-3.01-.11v-5.43c0-20.88,16.99-37.87,37.87-37.87h5.55Z"/>
  </g>
  <path d="M70.02,245.59h2.41v9.12c0,1.35,.31,2.37,.94,3.05,.63,.68,1.56,1.02,2.8,1.02s2.17-.34,2.79-1.02c.63-.68,.94-1.7,.94-3.05v-9.12h2.44v9.34c0,2.03-.51,3.55-1.54,4.56-1.03,1.01-2.57,1.51-4.63,1.51s-3.61-.5-4.62-1.51-1.53-2.53-1.53-4.56v-9.34Z"/>
  <path class="cls-11" d="M227.7,201.52v-15.29h15.29c-7.1,2.56-12.73,8.2-15.29,15.29Z"/>
  <path d="M275.48,187.72v3.87h-17.02c-14,0-25.39,11.39-25.39,25.39v8.22c-1.63-2-2.95-4.28-3.87-6.74v-8.35c0-12.35,10.05-22.39,22.39-22.39h23.89Z"/>
  <path d="M275.48,194.59v3.87h-10.15c-14,0-25.39,11.39-25.39,25.39v7.12c-1.38-.77-2.68-1.68-3.87-2.7v-11.29c0-12.35,10.04-22.39,22.39-22.39h17.02Z"/>
  <path d="M275.48,201.46v3.87h-3.28c-14,0-25.39,11.39-25.39,25.39v2.8c-1.33-.27-2.63-.65-3.87-1.13v-8.54c0-12.35,10.04-22.39,22.39-22.39h10.15Z"/>
  <path class="cls-11" d="M274.85,215.6c-2.06,8.78-8.98,15.7-17.76,17.76,1.72-8.96,8.8-16.04,17.76-17.76Z"/>
  <path class="cls-11" d="M275.48,208.33v1.78c0,.79-.04,1.58-.11,2.36h0c-11.04,1.62-19.79,10.37-21.41,21.41-.78,.08-1.57,.12-2.36,.12-.6,0-1.19-.02-1.78-.07v-3.21c0-12.35,10.05-22.39,22.39-22.39h3.28Z"/>
  <path d="M246.38,260.6v-15.01h8.38v2.07h-5.94v3.74h5.94v2.14h-5.94v7.05h-2.44Z"/>
  <g>
    <path d="M401.7,201.52v-15.29h15.29c-7.1,2.56-12.73,8.2-15.29,15.29Z"/>
    <path d="M449.48,187.72v3.87h-17.02c-14,0-25.39,11.39-25.39,25.39v8.22c-1.63-2-2.95-4.28-3.87-6.74v-8.35c0-12.35,10.05-22.39,22.39-22.39h23.89Z"/>
    <path d="M449.48,194.59v3.87h-10.15c-14,0-25.39,11.39-25.39,25.39v7.12c-1.38-.77-2.68-1.68-3.87-2.7v-11.29c0-12.35,10.04-22.39,22.39-22.39h17.02Z"/>
    <path d="M449.48,201.46v3.87h-3.28c-14,0-25.39,11.39-25.39,25.39v2.8c-1.33-.27-2.63-.65-3.87-1.13v-8.54c0-12.35,10.04-22.39,22.39-22.39h10.15Z"/>
    <path d="M448.85,215.6c-2.06,8.78-8.98,15.7-17.76,17.76,1.72-8.96,8.8-16.04,17.76-17.76Z"/>
    <path d="M449.48,208.33v1.78c0,.79-.04,1.58-.11,2.36h0c-11.04,1.62-19.79,10.37-21.41,21.41-.78,.08-1.57,.12-2.36,.12-.6,0-1.19-.02-1.78-.07v-3.21c0-12.35,10.05-22.39,22.39-22.39h3.28Z"/>
  </g>
  <g>
    <path d="M405.76,245.59h2.41v9.12c0,1.35,.31,2.37,.94,3.05,.63,.68,1.56,1.02,2.8,1.02s2.17-.34,2.79-1.02c.63-.68,.94-1.7,.94-3.05v-9.12h2.44v9.34c0,2.03-.51,3.55-1.54,4.56-1.03,1.01-2.57,1.51-4.63,1.51s-3.61-.5-4.62-1.51-1.53-2.53-1.53-4.56v-9.34Z"/>
    <path d="M427.6,248.08h1.74v5.4h5.27v1.7h-5.27v5.41h-1.74v-5.41h-5.27v-1.7h5.27v-5.4Z"/>
    <path d="M438.94,260.6v-15.01h8.38v2.07h-5.94v3.74h5.94v2.14h-5.94v7.05h-2.44Z"/>
  </g>
</svg>