<?xml version="1.0" encoding="UTF-8"?>
<svg id="Layer_1" data-name="Layer 1" xmlns="http://www.w3.org/2000/svg" viewBox="0 0 500 280">
  <defs>
    <style>
      .cls-1 {
        fill: #140000;
      }
    </style>
  </defs>
  <g>
    <path class="cls-1" d="M196.6,123.76c-12.92,0-23.43,10.51-23.43,23.43v11.81c1.25,1.07,2.61,2.02,4.05,2.83v-7.45c0-14.65,11.92-26.57,26.57-26.57h10.62v-4.05h-17.81Z"/>
    <path class="cls-1" d="M210.98,135h3.43v-4.05h-10.62c-12.92,0-23.43,10.51-23.43,23.43v8.92c1.3,.51,2.65,.91,4.05,1.2v-2.93c0-14.65,11.92-26.57,26.57-26.57Z"/>
    <path class="cls-1" d="M165.98,140v8.73c.96,2.58,2.34,4.96,4.05,7.06v-8.6c0-14.65,11.92-26.57,26.57-26.57h17.81v-4.05h-25c-12.92,0-23.43,10.51-23.43,23.43Z"/>
    <path class="cls-1" d="M214.29,142.47c.08-.81,.12-1.64,.12-2.47v-1.86h-3.43c-12.92,0-23.43,10.51-23.43,23.43v3.36c.62,.05,1.24,.08,1.86,.08h0c.83,0,1.66-.04,2.47-.12,1.7-11.55,10.85-20.71,22.4-22.4Z"/>
    <path class="cls-1" d="M195.16,164.33c9.19-2.16,16.41-9.39,18.58-18.58-9.37,1.8-16.78,9.2-18.58,18.58Z"/>
    <path class="cls-1" d="M180.42,115h-16.01v16.01c2.68-7.43,8.58-13.33,16.01-16.01Z"/>
  </g>
  <g>
    <g>
      <path class="cls-1" d="M240.15,128.07c0,1.76-.41,3.08-1.22,3.96s-2.02,1.32-3.63,1.32-2.83-.44-3.64-1.32-1.22-2.2-1.22-3.96v-11.84h-3.13v12.13c0,2.65,.66,4.62,1.98,5.93,1.32,1.3,3.32,1.96,6.01,1.96s4.69-.65,6.02-1.96c1.33-1.31,2-3.28,2-5.92v-12.13h-3.17v11.84Z"/>
      <path class="cls-1" d="M262.19,129.75c-.38-.48-.75-.91-1.09-1.29s-.69-.74-1.03-1.08l-12.38-11.92v20.27h2.92v-13.56c.28,.4,.58,.78,.9,1.15s.64,.71,.98,1.04l12.64,12.13v-20.25h-2.93v13.52Z"/>
      <rect class="cls-1" x="269.64" y="116.24" width="3.17" height="19.49"/>
      <path class="cls-1" d="M296.6,129.84c.5-1.21,.75-2.49,.75-3.84s-.26-2.69-.79-3.93-1.28-2.33-2.26-3.3c-.98-.96-2.1-1.69-3.36-2.2s-2.6-.77-4.01-.77-2.76,.26-4.03,.77-2.39,1.25-3.36,2.2c-.99,.96-1.74,2.06-2.26,3.29-.52,1.23-.78,2.55-.78,3.94s.26,2.71,.78,3.94,1.27,2.33,2.26,3.29c.95,.93,2.06,1.66,3.33,2.18,1.27,.52,2.57,.79,3.89,.79,.98,0,1.91-.12,2.81-.35s1.78-.58,2.65-1.05l2.54,2.76h3.78l-4.14-4.47c.96-.95,1.69-2.03,2.19-3.24Zm-2.96-1.32c-.28,.78-.71,1.52-1.3,2.24l-1.88-2.01h-3.85l3.49,3.76c-.5,.26-1,.45-1.5,.57s-1.03,.18-1.58,.18c-2.04,0-3.75-.7-5.13-2.1-1.38-1.4-2.07-3.12-2.07-5.16,0-.99,.18-1.93,.53-2.81,.36-.88,.87-1.66,1.54-2.34,.67-.69,1.45-1.23,2.32-1.6s1.78-.56,2.73-.56,1.85,.19,2.72,.56,1.65,.91,2.33,1.6c.67,.68,1.19,1.46,1.54,2.34s.53,1.82,.53,2.81c0,.91-.14,1.75-.41,2.52Z"/>
      <path class="cls-1" d="M313.75,128.07c0,1.76-.41,3.08-1.22,3.96s-2.02,1.32-3.63,1.32-2.83-.44-3.64-1.32c-.81-.88-1.22-2.2-1.22-3.96v-11.84h-3.13v12.13c0,2.65,.66,4.62,1.98,5.93,1.32,1.3,3.32,1.96,6.01,1.96s4.69-.65,6.02-1.96c1.33-1.31,2-3.28,2-5.92v-12.13h-3.17v11.84Z"/>
      <polygon class="cls-1" points="321.28 116.24 321.28 118.93 332.16 118.93 335.59 116.24 321.28 116.24"/>
      <polygon class="cls-1" points="321.28 135.73 332.16 135.73 332.16 132.9 324.46 132.9 324.46 126.6 332.16 126.6 332.16 123.81 321.28 123.81 321.28 135.73"/>
    </g>
    <g>
      <polygon class="cls-1" points="227.31 146.53 239.01 146.53 242.43 142.35 227.31 142.35 227.31 146.53"/>
      <polygon class="cls-1" points="227.31 161.43 232.38 161.43 232.38 153.94 238.63 153.94 238.63 149.84 227.31 149.84 227.31 161.43"/>
      <rect class="cls-1" x="241.96" y="142.35" width="5.25" height="19.08"/>
      <polygon class="cls-1" points="249.89 146.86 254.16 146.86 254.16 161.43 259.37 161.43 259.37 146.86 263.64 146.86 263.64 142.35 249.89 142.35 249.89 146.86"/>
      <path class="cls-1" d="M279.84,151.77c0,.48,.02,1.03,.07,1.64,.05,.62,.12,1.32,.23,2.11-.38-.83-.73-1.55-1.05-2.16-.32-.6-.55-1.01-.68-1.21l-7.21-9.81h-5.02v19.08h5.02v-9.42c0-.48-.02-1.03-.07-1.64-.05-.62-.12-1.32-.23-2.12,.37,.82,.72,1.53,1.04,2.13,.32,.6,.55,1.01,.7,1.21l7.21,9.85h4.99v-19.08h-4.99v9.42Z"/>
      <polygon class="cls-1" points="294 153.94 300.24 153.94 300.24 149.84 288.93 149.84 288.93 161.43 300.62 161.43 300.62 157.16 294 157.16 294 153.94"/>
      <polygon class="cls-1" points="288.93 146.53 300.62 146.53 304.05 142.35 288.93 142.35 288.93 146.53"/>
      <path class="cls-1" d="M315.27,151.34c-.67-.69-2.06-1.32-4.18-1.89l-.23-.07c-.98-.26-1.64-.53-1.99-.82s-.51-.67-.51-1.15,.2-.85,.59-1.15,.9-.45,1.53-.45,1.22,.13,1.84,.38c.62,.26,1.23,.64,1.82,1.14l1.63-3.74c-.84-.57-1.74-1-2.68-1.28-.94-.28-1.94-.42-2.99-.42-1.95,0-3.53,.58-4.75,1.73-1.22,1.15-1.83,2.64-1.83,4.46,0,1.41,.39,2.52,1.16,3.32,.77,.81,2.09,1.46,3.96,1.97,1.36,.36,2.24,.72,2.63,1.06,.39,.34,.58,.83,.58,1.47,0,.57-.22,1.05-.67,1.42-.45,.37-1.02,.56-1.71,.56-.75,0-1.5-.22-2.25-.65-.75-.43-1.51-1.09-2.29-1.97l-2.35,3.87c1.01,.96,2.06,1.67,3.15,2.12,1.09,.45,2.3,.68,3.63,.68,2.22,0,3.99-.61,5.32-1.84,1.33-1.23,1.99-2.86,1.99-4.88,0-.8-.12-1.53-.35-2.18-.23-.66-.58-1.22-1.03-1.69Z"/>
      <path class="cls-1" d="M331.81,153.03c-.23-.66-.58-1.22-1.03-1.69-.67-.69-2.06-1.32-4.18-1.89l-.23-.07c-.98-.26-1.64-.53-1.99-.82s-.51-.67-.51-1.15,.2-.85,.59-1.15,.9-.45,1.53-.45,1.22,.13,1.84,.38c.62,.26,1.23,.64,1.82,1.14l1.63-3.74c-.84-.57-1.74-1-2.68-1.28-.94-.28-1.94-.42-2.99-.42-1.95,0-3.53,.58-4.75,1.73-1.22,1.15-1.83,2.64-1.83,4.46,0,1.41,.39,2.52,1.16,3.32s2.09,1.46,3.96,1.97c1.36,.36,2.24,.72,2.63,1.06,.39,.34,.58,.83,.58,1.47,0,.57-.22,1.05-.67,1.42-.45,.37-1.02,.56-1.71,.56-.75,0-1.5-.22-2.25-.65-.75-.43-1.51-1.09-2.29-1.97l-2.35,3.87c1.01,.96,2.06,1.67,3.15,2.12,1.09,.45,2.3,.68,3.63,.68,2.22,0,3.99-.61,5.32-1.84,1.33-1.23,1.99-2.86,1.99-4.88,0-.8-.12-1.53-.35-2.18Z"/>
    </g>
  </g>
</svg>