<?xml version="1.0" encoding="UTF-8"?>
<svg id="Layer_1" data-name="Layer 1" xmlns="http://www.w3.org/2000/svg" viewBox="0 0 1080 607">
  <defs>
    <style>
      .cls-1 {
        fill: #0b3b83;
      }

      .cls-2 {
        fill: #3395ff;
      }
    </style>
  </defs>
  <g>
    <path class="cls-1" d="M418.02,424.21c0-1.95-.69-3.44-2.06-4.48-1.37-1.04-3.85-2.14-7.42-3.3-3.57-1.16-6.4-2.29-8.48-3.42-5.68-3.07-8.52-7.2-8.52-12.4,0-2.7,.76-5.11,2.28-7.23,1.52-2.12,3.71-3.77,6.56-4.96,2.85-1.19,6.05-1.79,9.6-1.79s6.75,.65,9.55,1.94c2.79,1.29,4.96,3.12,6.51,5.48,1.55,2.36,2.32,5.04,2.32,8.04h-10.3c0-2.29-.72-4.07-2.16-5.34s-3.47-1.91-6.08-1.91-4.48,.53-5.87,1.6c-1.4,1.06-2.09,2.47-2.09,4.21,0,1.63,.82,2.99,2.46,4.09,1.64,1.1,4.05,2.13,7.23,3.09,5.86,1.76,10.13,3.95,12.81,6.56s4.02,5.86,4.02,9.75c0,4.33-1.64,7.72-4.91,10.18-3.27,2.46-7.68,3.69-13.22,3.69-3.85,0-7.35-.7-10.51-2.11s-5.57-3.34-7.23-5.79c-1.66-2.45-2.49-5.29-2.49-8.52h10.34c0,5.52,3.3,8.28,9.89,8.28,2.45,0,4.36-.5,5.73-1.49s2.06-2.39,2.06-4.17Z"/>
    <path class="cls-1" d="M446.56,391.04v9.13h6.35v7.28h-6.35v18.54c0,1.37,.26,2.36,.79,2.95,.53,.6,1.53,.89,3.02,.89,1.1,0,2.07-.08,2.92-.24v7.52c-1.95,.59-3.95,.89-6.01,.89-6.96,0-10.51-3.51-10.65-10.54v-20.02h-5.43v-7.28h5.43v-9.13h9.92Z"/>
    <path class="cls-1" d="M479.32,409.48c-1.35-.18-2.54-.27-3.57-.27-3.76,0-6.22,1.27-7.38,3.81v24.31h-9.92v-37.16h9.38l.27,4.43c1.99-3.41,4.75-5.12,8.28-5.12,1.1,0,2.13,.15,3.09,.45l-.14,9.55Z"/>
    <path class="cls-1" d="M500.54,438.02c-5.45,0-9.88-1.67-13.31-5.01-3.42-3.34-5.13-7.8-5.13-13.36v-.96c0-3.73,.72-7.07,2.16-10.01,1.44-2.94,3.49-5.21,6.13-6.8,2.64-1.59,5.66-2.39,9.05-2.39,5.08,0,9.08,1.6,12,4.81,2.92,3.21,4.38,7.75,4.38,13.63v4.05h-23.66c.32,2.43,1.29,4.37,2.9,5.84,1.61,1.47,3.66,2.2,6.13,2.2,3.82,0,6.81-1.38,8.96-4.16l4.88,5.46c-1.49,2.11-3.5,3.75-6.04,4.93-2.54,1.18-5.36,1.77-8.45,1.77Zm-1.13-30.53c-1.97,0-3.57,.67-4.79,2-1.22,1.33-2.01,3.24-2.35,5.73h13.8v-.79c-.05-2.21-.64-3.91-1.79-5.12-1.15-1.21-2.77-1.81-4.88-1.81Z"/>
    <path class="cls-1" d="M542.99,437.33c-.46-.89-.79-2-1-3.33-2.4,2.68-5.53,4.02-9.38,4.02-3.64,0-6.66-1.05-9.05-3.16-2.39-2.11-3.59-4.76-3.59-7.97,0-3.94,1.46-6.96,4.38-9.07,2.92-2.11,7.14-3.17,12.65-3.19h4.57v-2.13c0-1.72-.44-3.09-1.32-4.12-.88-1.03-2.27-1.55-4.17-1.55-1.67,0-2.98,.4-3.93,1.2-.95,.8-1.43,1.9-1.43,3.3h-9.92c0-2.15,.66-4.14,1.99-5.98,1.33-1.83,3.21-3.27,5.63-4.31,2.43-1.04,5.15-1.56,8.17-1.56,4.58,0,8.21,1.15,10.9,3.45,2.69,2.3,4.04,5.53,4.04,9.7v16.11c.02,3.53,.52,6.19,1.48,8v.58h-10.03Zm-8.21-6.9c1.46,0,2.82-.33,4.05-.98s2.15-1.53,2.75-2.63v-6.39h-3.71c-4.97,0-7.61,1.72-7.93,5.15l-.03,.58c0,1.24,.43,2.26,1.3,3.06,.87,.8,2.06,1.2,3.57,1.2Z"/>
    <path class="cls-1" d="M568.47,400.17l.31,4.16c2.63-3.23,6.19-4.84,10.68-4.84,4.78,0,8.07,1.89,9.86,5.67,2.61-3.78,6.33-5.67,11.16-5.67,4.03,0,7.03,1.17,9,3.52,1.97,2.35,2.95,5.88,2.95,10.59v23.73h-9.96v-23.7c0-2.11-.41-3.65-1.24-4.62-.82-.97-2.28-1.46-4.36-1.46-2.98,0-5.04,1.42-6.18,4.26l.03,25.52h-9.92v-23.66c0-2.15-.42-3.71-1.27-4.67-.85-.96-2.29-1.44-4.33-1.44-2.82,0-4.85,1.17-6.11,3.5v26.27h-9.92v-37.16h9.31Z"/>
    <path class="cls-1" d="M637.15,438.02c-5.45,0-9.88-1.67-13.31-5.01-3.42-3.34-5.13-7.8-5.13-13.36v-.96c0-3.73,.72-7.07,2.16-10.01,1.44-2.94,3.49-5.21,6.13-6.8,2.64-1.59,5.66-2.39,9.05-2.39,5.08,0,9.08,1.6,12,4.81,2.92,3.21,4.38,7.75,4.38,13.63v4.05h-23.66c.32,2.43,1.29,4.37,2.9,5.84,1.61,1.47,3.66,2.2,6.13,2.2,3.82,0,6.81-1.38,8.96-4.16l4.88,5.46c-1.49,2.11-3.5,3.75-6.04,4.93-2.54,1.18-5.36,1.77-8.45,1.77Zm-1.13-30.53c-1.97,0-3.57,.67-4.79,2-1.22,1.33-2.01,3.24-2.35,5.73h13.8v-.79c-.05-2.21-.64-3.91-1.79-5.12-1.15-1.21-2.77-1.81-4.88-1.81Z"/>
    <path class="cls-1" d="M656.52,418.48c0-5.79,1.3-10.41,3.9-13.84,2.6-3.43,6.15-5.15,10.66-5.15,3.62,0,6.6,1.35,8.96,4.05v-18.96h9.96v52.75h-8.96l-.48-3.95c-2.47,3.09-5.65,4.64-9.55,4.64-4.37,0-7.88-1.72-10.53-5.17-2.64-3.45-3.97-8.24-3.97-14.37Zm9.92,.74c0,3.49,.61,6.16,1.82,8.01,1.21,1.86,2.98,2.79,5.29,2.79,3.07,0,5.23-1.3,6.49-3.89v-14.69c-1.24-2.59-3.38-3.89-6.42-3.89-4.79,0-7.18,3.89-7.18,11.66Z"/>
  </g>
  <g>
    <path class="cls-2" d="M505.44,168.98h117.7c11.34,0,20.53,9.19,20.53,20.53h0c0,11.34-9.19,20.53-20.53,20.53h-76.65c-11.34,0-20.53,9.19-20.53,20.53v28.06c0,11.34-9.19,20.53-20.53,20.53h-48.58c-11.34,0-20.53-9.19-20.53-20.53h0c0-11.34,9.19-20.53,20.53-20.53h7.53c11.34,0,20.53-9.19,20.53-20.53v-28.06c0-11.34,9.19-20.53,20.53-20.53Z"/>
    <path class="cls-1" d="M553.8,286.69v-28.06c0-11.34,9.19-20.53,20.53-20.53h48.82c11.34,0,20.53,9.19,20.53,20.53h0c0,11.34-9.19,20.53-20.53,20.53h-7.77c-11.34,0-20.53,9.19-20.53,20.53v28.06c0,11.34-9.19,20.53-20.53,20.53h-117.46c-11.34,0-20.53-9.19-20.53-20.53h0c0-11.34,9.19-20.53,20.53-20.53h76.41c11.34,0,20.53-9.19,20.53-20.53Z"/>
  </g>
</svg>