<?xml version="1.0" encoding="UTF-8"?>
<svg id="Layer_1" data-name="Layer 1" xmlns="http://www.w3.org/2000/svg" viewBox="0 0 500 500">
  <defs>
    <style>
      .cls-1 {
        fill: #0b3b83;
      }

      .cls-2 {
        fill: #ffb27b;
      }

      .cls-3 {
        fill: #e5f2fd;
      }

      .cls-4 {
        fill: #fff;
      }

      .cls-5 {
        opacity: .5;
      }

      .cls-5, .cls-6 {
        fill: #67b375;
      }

      .cls-7 {
        fill: #94d29d;
      }

      .cls-8 {
        fill: #d2e9f9;
      }

      .cls-9 {
        fill: #ffb92c;
      }

      .cls-10 {
        fill: #3395ff;
      }

      .cls-11 {
        fill: #f99156;
      }

      .cls-12 {
        fill: #e25345;
      }

      .cls-13 {
        fill: #0c3563;
      }

      .cls-14 {
        fill: #d54b41;
      }

      .cls-15 {
        fill: #ffa400;
      }

      .cls-16 {
        fill: #fc8100;
      }
    </style>
  </defs>
  <polygon class="cls-10" points="483.5 113.9 397.82 142.24 415.02 156.57 415.02 156.57 340.89 234.18 275.9 178.38 16.5 390.93 18.78 390.96 83.4 390.96 275.26 233.76 343.77 292.58 447.69 183.8 447.69 183.8 466.26 199.27 483.5 113.9"/>
  <g>
    <g>
      <path class="cls-6" d="M179.67,339.25l-19.68-1.69s1.14-12.13-2.32-28.32c-2.55-11.96-7.62-26.12-17.5-39.24-16.86-22.37-66.92-34.89-66.92-34.89v-2.9l1.8-.2s-.78-.54-1.8-.85v-6.85c1.48-.02,3.6,.07,5.69,.56-1.17-.29-3.67-.87-5.69-1.02v-3.6c72.53,1.94,96.18,45.75,103.59,79.65,4.75,21.7,2.84,39.34,2.84,39.34Z"/>
      <path class="cls-7" d="M265.81,332.88l-86.14,6.37c-.45-13.27-3.91-26.99-7.26-37.39-3.35-10.4-6.59-17.49-6.59-17.49-25.77-56.46-92.59-64.11-92.59-64.11l74.16-30.37c35.83,2.7,60.96,19.9,78.54,41.51,34.43,42.31,39.87,101.49,39.87,101.49Z"/>
    </g>
    <path class="cls-5" d="M265.81,332.88l-86.14,6.37-19.68-1.69s1.14-12.13-2.32-28.32c4.1-2.47,8.98-4.94,14.75-7.38,1.51-.64,2.99-1.29,4.42-1.95,54.84-25.31,49.74-64.74,49.11-68.52,34.43,42.31,39.87,101.49,39.87,101.49Z"/>
    <path class="cls-6" d="M259.03,339.51l-76.76-1.48,.27-1.48c.04-.22,3.98-22.73-5.22-48.32-5.39-14.99-14.18-28.11-26.13-38.98-14.96-13.62-34.96-23.76-59.44-30.14l-3.77-.98,59.92-23.84h.23c.65-.02,16.08-.25,35.92,9.13,11.63,5.5,22.33,13.18,31.82,22.84,11.83,12.05,21.79,27.21,29.59,45.07,.62,1.37,15.2,34.11,14.43,53.76v.02s-.84,14.41-.84,14.41Zm-73.75-3.98l71.35,1.38,.7-11.94c.31-7.85-2.05-19.43-6.81-33.47-3.61-10.67-7.37-19.06-7.4-19.14-7.66-17.55-17.42-32.43-29-44.24-9.26-9.44-19.69-16.95-31.03-22.33-12.3-5.84-23.02-7.87-29.23-8.58-3.26-.37-6.56,.07-9.6,1.28l-41.52,16.53c-2.17,.86-2.06,3.96,.16,4.67,20.19,6.5,37,15.8,50.08,27.73,12.26,11.17,21.27,24.65,26.79,40.06,4.91,13.7,6.09,26.42,6.21,34.67,.1,6.41-.39,11.12-.7,13.38Z"/>
    <path class="cls-6" d="M217.73,251.31c0,12.65-7.41,20.29-20.05,20.29s-25.74-7.64-25.74-20.29,7-20.21,19.65-20.21,26.15,7.56,26.15,20.21Z"/>
  </g>
  <g>
    <g>
      <path class="cls-9" d="M332.71,380.46v7.56c0,.6-.18,1.16-.5,1.63-.33,.49-.81,.87-1.37,1.09-.17,.07-.35,.12-.53,.15-.17,.03-.34,.05-.51,.05h-120.36c-1.55,0-2.83-1.23-2.91-2.76,0-.05,0-.1,0-.15v-7.56s0-.1,0-.15c.08-1.53,1.36-2.76,2.91-2.76h120.36c.18,0,.35,.02,.51,.05,.18,.03,.36,.08,.53,.15,.56,.22,1.04,.6,1.37,1.09,.32,.47,.5,1.02,.5,1.63Z"/>
      <path class="cls-15" d="M273.6,390.93h-64.48c-1.38,0-2.53-1.23-2.6-2.76,0-.05,0-.1,0-.15v-7.56s0-.1,0-.15c.07-1.53,1.21-2.76,2.6-2.76h56.56c.9,3.94,3.01,9.39,7.92,13.38Z"/>
      <g>
        <rect class="cls-15" x="316.69" y="377.55" width="1.37" height="13.38"/>
        <rect class="cls-15" x="312.06" y="377.55" width="1.37" height="13.38"/>
        <rect class="cls-15" x="306.51" y="377.55" width="1.37" height="13.38"/>
        <rect class="cls-15" x="298" y="377.55" width="1.37" height="13.38"/>
        <rect class="cls-15" x="289" y="377.55" width="1.37" height="13.38"/>
        <rect class="cls-15" x="275.2" y="377.55" width="1.37" height="13.38"/>
        <rect class="cls-15" x="262.28" y="377.55" width="1.37" height="13.38"/>
        <rect class="cls-15" x="250.74" y="377.55" width="1.37" height="13.38"/>
        <rect class="cls-15" x="321.1" y="377.55" width="1.37" height="13.38"/>
        <rect class="cls-15" x="324.01" y="377.55" width="1.37" height="13.38"/>
        <rect class="cls-15" x="326.82" y="377.55" width="1.37" height="13.38"/>
        <path class="cls-15" d="M330.31,377.6v13.29c-.17,.03-.34,.05-.51,.05h-.85v-13.38h.85c.18,0,.35,.02,.51,.05Z"/>
        <path class="cls-15" d="M332.21,378.83v10.81c-.33,.49-.81,.87-1.37,1.09v-12.99c.56,.22,1.04,.6,1.37,1.09Z"/>
      </g>
    </g>
    <g>
      <path class="cls-9" d="M319.84,367.08v7.56c0,.6-.18,1.16-.5,1.63-.33,.49-.81,.87-1.37,1.09-.17,.07-.35,.12-.53,.15-.17,.03-.34,.05-.51,.05h-120.36c-1.55,0-2.83-1.23-2.91-2.76,0-.05,0-.1,0-.15v-7.56s0-.1,0-.15c.08-1.53,1.36-2.76,2.91-2.76h120.36c.08,0,.15,0,.23,0,.03,0,.07,0,.1,.01,.04,0,.07,0,.11,.01,.03,0,.05,0,.08,.01,.18,.03,.36,.08,.53,.15,.03,0,.05,.02,.08,.03,.02,0,.05,.02,.07,.03,.05,.02,.1,.05,.15,.07,.03,.01,.06,.03,.08,.05,.03,.01,.05,.03,.07,.04,.05,.03,.09,.06,.14,.09,.05,.04,.1,.07,.15,.11,.04,.03,.08,.06,.11,.09,0,0,0,0,0,0,.02,.02,.05,.04,.07,.07,.07,.07,.14,.14,.21,.22,.02,.02,.04,.04,.06,.07,.02,.02,.04,.05,.06,.07,.04,.05,.07,.1,.11,.15,.32,.47,.5,1.02,.5,1.63Z"/>
      <path class="cls-15" d="M260.73,377.55h-64.48c-1.39,0-2.53-1.23-2.6-2.76,0-.05,0-.1,0-.15v-7.56s0-.1,0-.15c.07-1.53,1.21-2.76,2.6-2.76h56.56c.03,.11,.05,.22,.08,.33,.95,3.91,3.07,9.17,7.84,13.05Z"/>
      <g>
        <rect class="cls-15" x="303.82" y="364.17" width="1.37" height="13.38"/>
        <rect class="cls-15" x="299.19" y="364.17" width="1.37" height="13.38"/>
        <rect class="cls-15" x="293.64" y="364.17" width="1.37" height="13.38"/>
        <rect class="cls-15" x="285.13" y="364.17" width="1.37" height="13.38"/>
        <rect class="cls-15" x="276.13" y="364.17" width="1.37" height="13.38"/>
        <rect class="cls-15" x="262.33" y="364.17" width="1.37" height="13.38"/>
        <rect class="cls-15" x="249.41" y="364.17" width="1.37" height="13.38"/>
        <rect class="cls-15" x="237.87" y="364.17" width="1.37" height="13.38"/>
        <rect class="cls-15" x="308.23" y="364.17" width="1.37" height="13.38"/>
        <rect class="cls-15" x="311.14" y="364.17" width="1.37" height="13.38"/>
        <rect class="cls-15" x="313.95" y="364.17" width="1.37" height="13.38"/>
        <path class="cls-15" d="M317.44,364.21v13.29c-.17,.03-.34,.05-.51,.05h-.85v-13.38h.85c.18,0,.35,.02,.51,.05Z"/>
        <path class="cls-15" d="M319.34,365.45v10.81c-.33,.49-.81,.87-1.37,1.09v-12.99c.56,.22,1.04,.6,1.37,1.09Z"/>
      </g>
    </g>
    <g>
      <path class="cls-9" d="M326.06,354.03v7.56c0,.6-.18,1.16-.5,1.63-.33,.49-.81,.87-1.37,1.09-.17,.07-.35,.12-.53,.15-.17,.03-.34,.05-.51,.05h-120.36c-.48,0-.94-.12-1.34-.33-.85-.45-1.46-1.3-1.56-2.3,0-.04,0-.09,0-.13,0-.05,0-.1,0-.15v-7.56s0-.1,0-.15c.08-1.53,1.36-2.76,2.91-2.76h120.36c.18,0,.35,.02,.51,.05,.18,.03,.36,.08,.53,.15,.56,.22,1.03,.6,1.37,1.09,.32,.47,.5,1.02,.5,1.63Z"/>
      <path class="cls-15" d="M266.95,364.5h-64.48c-.43,0-.84-.12-1.2-.33-.76-.45-1.3-1.3-1.39-2.3,0-.04,0-.09,0-.13,0-.05,0-.1,0-.15v-7.56s0-.1,0-.15c.07-1.53,1.21-2.76,2.6-2.76h56.56c.88,3.83,2.89,9.09,7.52,13.05,.13,.11,.26,.22,.4,.33Z"/>
      <g>
        <rect class="cls-15" x="310.04" y="351.12" width="1.37" height="13.38"/>
        <rect class="cls-15" x="305.41" y="351.12" width="1.37" height="13.38"/>
        <rect class="cls-15" x="299.86" y="351.12" width="1.37" height="13.38"/>
        <rect class="cls-15" x="291.35" y="351.12" width="1.37" height="13.38"/>
        <rect class="cls-15" x="282.35" y="351.12" width="1.37" height="13.38"/>
        <rect class="cls-15" x="268.55" y="351.12" width="1.37" height="13.38"/>
        <rect class="cls-15" x="255.63" y="351.12" width="1.37" height="13.38"/>
        <rect class="cls-15" x="244.09" y="351.12" width="1.37" height="13.38"/>
        <rect class="cls-15" x="314.45" y="351.12" width="1.37" height="13.38"/>
        <rect class="cls-15" x="317.36" y="351.12" width="1.37" height="13.38"/>
        <rect class="cls-15" x="320.17" y="351.12" width="1.37" height="13.38"/>
        <path class="cls-15" d="M323.66,351.16v13.29c-.17,.03-.34,.05-.51,.05h-.85v-13.38h.85c.18,0,.35,.02,.51,.05Z"/>
        <path class="cls-15" d="M325.56,352.4v10.81c-.33,.49-.81,.87-1.37,1.09v-12.99c.56,.22,1.04,.6,1.37,1.09Z"/>
      </g>
    </g>
    <g>
      <path class="cls-9" d="M328.94,340.65v7.56c0,.6-.18,1.16-.5,1.63-.33,.49-.81,.87-1.37,1.09-.17,.07-.35,.12-.53,.15-.17,.03-.34,.05-.51,.05h-120.36c-1.55,0-2.83-1.23-2.91-2.76,0-.05,0-.1,0-.15v-7.56c0-.05,0-.1,0-.15,.07-1.42,1.17-2.58,2.56-2.74,.11-.01,.23-.02,.34-.02h120.36c.18,0,.35,.02,.51,.05,.18,.03,.36,.08,.53,.15,.56,.22,1.04,.6,1.37,1.09,.32,.47,.5,1.02,.5,1.63Z"/>
      <path class="cls-15" d="M269.84,351.12h-64.48c-1.38,0-2.53-1.23-2.6-2.76,0-.05,0-.1,0-.15v-7.56c0-.05,0-.1,0-.15,.06-1.42,1.05-2.58,2.29-2.74,.1-.01,.2-.02,.31-.02h56.56s0,.01,0,.02c.91,3.94,3.01,9.37,7.91,13.36Z"/>
      <g>
        <rect class="cls-15" x="312.93" y="337.74" width="1.37" height="13.38"/>
        <rect class="cls-15" x="308.29" y="337.74" width="1.37" height="13.38"/>
        <rect class="cls-15" x="302.74" y="337.74" width="1.37" height="13.38"/>
        <rect class="cls-15" x="294.23" y="337.74" width="1.37" height="13.38"/>
        <rect class="cls-15" x="285.23" y="337.74" width="1.37" height="13.38"/>
        <rect class="cls-15" x="271.43" y="337.74" width="1.37" height="13.38"/>
        <rect class="cls-15" x="258.51" y="337.74" width="1.37" height="13.38"/>
        <rect class="cls-15" x="246.98" y="337.74" width="1.37" height="13.38"/>
        <rect class="cls-15" x="317.33" y="337.74" width="1.37" height="13.38"/>
        <rect class="cls-15" x="320.25" y="337.74" width="1.37" height="13.38"/>
        <rect class="cls-15" x="323.06" y="337.74" width="1.37" height="13.38"/>
        <path class="cls-15" d="M326.54,337.78v13.29c-.17,.03-.34,.05-.51,.05h-.85v-13.38h.85c.18,0,.35,.02,.51,.05Z"/>
        <path class="cls-15" d="M328.44,339.02v10.81c-.33,.49-.81,.87-1.37,1.09v-12.99c.56,.22,1.04,.6,1.37,1.09Z"/>
      </g>
    </g>
    <g>
      <path class="cls-9" d="M320.09,327.29v7.56c0,.6-.18,1.16-.5,1.63-.33,.49-.81,.87-1.37,1.09-.17,.07-.35,.12-.53,.15-.06,0-.11,.02-.17,.03-.03,0-.06,0-.09,0-.03,0-.06,0-.09,0-.05,0-.1,0-.15,0h-120.36c-1.55,0-2.83-1.23-2.91-2.76,0-.05,0-.1,0-.15v-7.56s0-.1,0-.15c0-.04,0-.08,0-.12,.12-1.23,1.01-2.25,2.18-2.55,.03,0,.06-.01,.09-.02,.2-.04,.41-.07,.63-.07h120.36c.09,0,.18,0,.26,.01,.04,0,.08,0,.12,.01h0s.09,.01,.14,.02c.18,.03,.36,.08,.53,.15,.56,.22,1.03,.6,1.37,1.09,.32,.47,.5,1.02,.5,1.63Z"/>
      <path class="cls-15" d="M260.99,337.76h-64.48c-1.38,0-2.53-1.23-2.6-2.76,0-.05,0-.1,0-.15v-7.56s0-.1,0-.15c0-.04,0-.08,0-.12,.1-1.26,.94-2.29,2.02-2.57,.04-.01,.07-.02,.11-.03,.15-.03,.3-.05,.46-.05h56.56s.01,.06,.02,.1c.91,3.92,3.02,9.3,7.87,13.26,0,0,.02,.01,.03,.02Z"/>
      <g>
        <rect class="cls-15" x="304.08" y="324.38" width="1.37" height="13.38"/>
        <rect class="cls-15" x="299.45" y="324.38" width="1.37" height="13.38"/>
        <rect class="cls-15" x="293.89" y="324.38" width="1.37" height="13.38"/>
        <rect class="cls-15" x="285.38" y="324.38" width="1.37" height="13.38"/>
        <rect class="cls-15" x="276.38" y="324.38" width="1.37" height="13.38"/>
        <rect class="cls-15" x="262.58" y="324.38" width="1.37" height="13.38"/>
        <rect class="cls-15" x="249.66" y="324.38" width="1.37" height="13.38"/>
        <rect class="cls-15" x="238.13" y="324.38" width="1.37" height="13.38"/>
        <rect class="cls-15" x="308.48" y="324.38" width="1.37" height="13.38"/>
        <rect class="cls-15" x="311.4" y="324.38" width="1.37" height="13.38"/>
        <rect class="cls-15" x="314.21" y="324.38" width="1.37" height="13.38"/>
        <path class="cls-15" d="M317.69,324.42v13.29c-.17,.03-.34,.05-.51,.05h-.85v-13.38h.85c.18,0,.35,.02,.51,.05Z"/>
        <path class="cls-15" d="M319.59,325.66v10.81c-.33,.49-.81,.87-1.37,1.09v-12.99c.56,.22,1.04,.6,1.37,1.09Z"/>
      </g>
    </g>
    <g>
      <path class="cls-9" d="M319.84,314v7.56c0,.6-.18,1.16-.5,1.63-.33,.49-.81,.87-1.37,1.09-.13,.05-.27,.09-.42,.13h0s-.08,.02-.11,.02c-.17,.03-.34,.05-.51,.05h-120.36c-.13,0-.25,0-.38-.03-.05,0-.1-.01-.14-.02-1.31-.24-2.32-1.36-2.39-2.71,0-.05,0-.1,0-.15v-7.56s0-.1,0-.15c.08-1.53,1.36-2.76,2.91-2.76h120.36c.08,0,.15,0,.23,0,.03,0,.07,0,.1,0,.04,0,.07,0,.11,.01,.03,0,.05,0,.08,.01,.18,.03,.36,.08,.53,.15,.03,0,.05,.02,.08,.03,.02,0,.05,.02,.07,.03,.05,.02,.1,.05,.15,.07,.05,.03,.11,.06,.16,.09,.05,.03,.09,.06,.14,.09,.05,.04,.1,.07,.15,.11,.04,.03,.08,.06,.11,.09,0,0,0,0,0,0,.02,.02,.05,.04,.07,.07,.07,.07,.14,.14,.21,.22,.02,.02,.04,.04,.06,.07,.02,.02,.04,.05,.06,.07,.04,.05,.07,.1,.11,.15,.32,.47,.5,1.02,.5,1.63Z"/>
      <path class="cls-15" d="M260.73,324.47h-64.48c-.05,0-.1,0-.15,0-.06,0-.11,0-.17-.02-1.24-.17-2.21-1.33-2.28-2.74,0-.05,0-.1,0-.15v-7.56s0-.1,0-.15c.07-1.53,1.21-2.76,2.6-2.76h56.56c.03,.11,.05,.22,.08,.33,.94,3.88,3.03,9.08,7.73,12.96,.04,.03,.08,.06,.12,.1Z"/>
      <g>
        <rect class="cls-15" x="303.82" y="311.09" width="1.37" height="13.38"/>
        <rect class="cls-15" x="299.19" y="311.09" width="1.37" height="13.38"/>
        <rect class="cls-15" x="293.64" y="311.09" width="1.37" height="13.38"/>
        <rect class="cls-15" x="285.13" y="311.09" width="1.37" height="13.38"/>
        <rect class="cls-15" x="276.13" y="311.09" width="1.37" height="13.38"/>
        <rect class="cls-15" x="262.33" y="311.09" width="1.37" height="13.38"/>
        <rect class="cls-15" x="249.41" y="311.09" width="1.37" height="13.38"/>
        <rect class="cls-15" x="237.87" y="311.09" width="1.37" height="13.38"/>
        <rect class="cls-15" x="308.23" y="311.09" width="1.37" height="13.38"/>
        <rect class="cls-15" x="311.14" y="311.09" width="1.37" height="13.38"/>
        <rect class="cls-15" x="313.95" y="311.09" width="1.37" height="13.38"/>
        <path class="cls-15" d="M317.44,311.14v13.29c-.17,.03-.34,.05-.51,.05h-.85v-13.38h.85c.18,0,.35,.02,.51,.05Z"/>
        <path class="cls-15" d="M319.34,312.38v10.81c-.33,.49-.81,.87-1.37,1.09v-12.99c.56,.22,1.04,.6,1.37,1.09Z"/>
      </g>
    </g>
    <g>
      <path class="cls-9" d="M326.06,300.95v7.56c0,.6-.18,1.16-.5,1.63-.33,.49-.81,.87-1.37,1.09-.17,.07-.35,.12-.53,.15-.17,.03-.34,.05-.51,.05h-120.36c-.48,0-.94-.12-1.34-.33-.85-.45-1.46-1.3-1.56-2.3,0-.04,0-.09,0-.13,0-.05,0-.1,0-.15v-7.56s0-.1,0-.15c.08-1.53,1.36-2.76,2.91-2.76h120.36c.18,0,.35,.02,.51,.05,.18,.03,.36,.08,.53,.15,.56,.22,1.03,.6,1.37,1.09,.32,.47,.5,1.02,.5,1.63Z"/>
      <path class="cls-15" d="M266.95,311.42h-64.48c-.43,0-.84-.12-1.2-.33-.76-.45-1.3-1.3-1.39-2.3,0-.04,0-.09,0-.13,0-.05,0-.1,0-.15v-7.56s0-.1,0-.15c.07-1.53,1.21-2.76,2.6-2.76h56.56c.88,3.83,2.89,9.09,7.52,13.05,.13,.11,.26,.22,.4,.33Z"/>
      <g>
        <rect class="cls-15" x="310.04" y="298.04" width="1.37" height="13.38"/>
        <rect class="cls-15" x="305.41" y="298.04" width="1.37" height="13.38"/>
        <rect class="cls-15" x="299.86" y="298.04" width="1.37" height="13.38"/>
        <rect class="cls-15" x="291.35" y="298.04" width="1.37" height="13.38"/>
        <rect class="cls-15" x="282.35" y="298.04" width="1.37" height="13.38"/>
        <rect class="cls-15" x="268.55" y="298.04" width="1.37" height="13.38"/>
        <rect class="cls-15" x="255.63" y="298.04" width="1.37" height="13.38"/>
        <rect class="cls-15" x="244.09" y="298.04" width="1.37" height="13.38"/>
        <rect class="cls-15" x="314.45" y="298.04" width="1.37" height="13.38"/>
        <rect class="cls-15" x="317.36" y="298.04" width="1.37" height="13.38"/>
        <rect class="cls-15" x="320.17" y="298.04" width="1.37" height="13.38"/>
        <path class="cls-15" d="M323.66,298.09v13.29c-.17,.03-.34,.05-.51,.05h-.85v-13.38h.85c.18,0,.35,.02,.51,.05Z"/>
        <path class="cls-15" d="M325.56,299.33v10.81c-.33,.49-.81,.87-1.37,1.09v-12.99c.56,.22,1.04,.6,1.37,1.09Z"/>
      </g>
    </g>
    <g>
      <path class="cls-9" d="M335.89,287.57v7.56c0,.6-.18,1.16-.5,1.63-.33,.49-.81,.87-1.37,1.09-.17,.07-.35,.12-.53,.15-.17,.03-.34,.05-.51,.05h-120.36c-1.55,0-2.83-1.23-2.91-2.76,0-.05,0-.1,0-.15v-7.56s0-.1,0-.15c.07-1.42,1.17-2.58,2.56-2.74,.11-.01,.23-.02,.34-.02h120.36c.18,0,.35,.02,.51,.05,.18,.03,.36,.08,.53,.15,.56,.22,1.04,.6,1.37,1.09,.32,.47,.5,1.02,.5,1.63Z"/>
      <path class="cls-15" d="M276.79,298.04h-64.48c-1.38,0-2.53-1.23-2.6-2.76,0-.05,0-.1,0-.15v-7.56s0-.1,0-.15c.06-1.42,1.05-2.58,2.29-2.74,.1-.01,.2-.02,.31-.02h56.56s0,.01,0,.02c.91,3.94,3.01,9.37,7.91,13.36Z"/>
      <g>
        <rect class="cls-15" x="319.88" y="284.66" width="1.37" height="13.38"/>
        <rect class="cls-15" x="315.25" y="284.66" width="1.37" height="13.38"/>
        <rect class="cls-15" x="309.7" y="284.66" width="1.37" height="13.38"/>
        <rect class="cls-15" x="301.18" y="284.66" width="1.37" height="13.38"/>
        <rect class="cls-15" x="292.18" y="284.66" width="1.37" height="13.38"/>
        <rect class="cls-15" x="278.39" y="284.66" width="1.37" height="13.38"/>
        <rect class="cls-15" x="265.47" y="284.66" width="1.37" height="13.38"/>
        <rect class="cls-15" x="253.93" y="284.66" width="1.37" height="13.38"/>
        <rect class="cls-15" x="324.29" y="284.66" width="1.37" height="13.38"/>
        <rect class="cls-15" x="327.2" y="284.66" width="1.37" height="13.38"/>
        <rect class="cls-15" x="330.01" y="284.66" width="1.37" height="13.38"/>
        <path class="cls-15" d="M333.49,284.71v13.29c-.17,.03-.34,.05-.51,.05h-.85v-13.38h.85c.18,0,.35,.02,.51,.05Z"/>
        <path class="cls-15" d="M335.39,285.95v10.81c-.33,.49-.81,.87-1.37,1.09v-12.99c.56,.22,1.03,.6,1.37,1.09Z"/>
      </g>
    </g>
    <g>
      <path class="cls-9" d="M320.09,274.21v7.56c0,.6-.18,1.16-.5,1.63-.33,.49-.81,.87-1.37,1.09-.17,.07-.35,.12-.53,.15-.06,0-.11,.02-.17,.03-.05,0-.09,0-.14,.01-.02,0-.04,0-.07,0-.05,0-.09,0-.14,0h-120.36c-1.55,0-2.83-1.23-2.91-2.76,0-.05,0-.1,0-.15v-7.56s0-.1,0-.15c.08-1.53,1.36-2.76,2.91-2.76h120.36c.05,0,.1,0,.15,0,.12,0,.24,.02,.36,.04,.18,.03,.36,.08,.53,.15,.09,.03,.17,.07,.25,.11,.05,.03,.1,.05,.15,.08,0,0,.01,0,.02,0,.05,.03,.1,.06,.15,.09,0,0,.02,.01,.02,.02,.05,.03,.09,.06,.13,.09,.1,.08,.2,.16,.29,.25,.03,.03,.06,.06,.08,.09,0,0,0,0,.01,.02,.02,.02,.03,.04,.05,.05,0,0,0,0,0,.01,.03,.03,.06,.07,.09,.11,.04,.05,.08,.1,.12,.16,.32,.47,.5,1.02,.5,1.63Z"/>
      <path class="cls-15" d="M260.99,284.68h-64.48c-1.38,0-2.53-1.23-2.6-2.76,0-.05,0-.1,0-.15v-7.56s0-.1,0-.15c.07-1.53,1.21-2.76,2.6-2.76h56.56c.02,.1,.05,.2,.07,.31,.94,3.9,3.05,9.16,7.82,13.05,0,0,.02,.01,.03,.02Z"/>
      <g>
        <rect class="cls-15" x="304.08" y="271.3" width="1.37" height="13.38"/>
        <rect class="cls-15" x="299.45" y="271.3" width="1.37" height="13.38"/>
        <rect class="cls-15" x="293.89" y="271.3" width="1.37" height="13.38"/>
        <rect class="cls-15" x="285.38" y="271.3" width="1.37" height="13.38"/>
        <rect class="cls-15" x="276.38" y="271.3" width="1.37" height="13.38"/>
        <rect class="cls-15" x="262.58" y="271.3" width="1.37" height="13.38"/>
        <rect class="cls-15" x="249.66" y="271.3" width="1.37" height="13.38"/>
        <rect class="cls-15" x="238.13" y="271.3" width="1.37" height="13.38"/>
        <rect class="cls-15" x="308.48" y="271.3" width="1.37" height="13.38"/>
        <rect class="cls-15" x="311.4" y="271.3" width="1.37" height="13.38"/>
        <rect class="cls-15" x="314.21" y="271.3" width="1.37" height="13.38"/>
        <path class="cls-15" d="M317.69,271.35v13.29c-.17,.03-.34,.05-.51,.05h-.85v-13.38h.85c.18,0,.35,.02,.51,.05Z"/>
        <path class="cls-15" d="M319.59,272.59v10.81c-.33,.49-.81,.87-1.37,1.09v-12.99c.56,.22,1.04,.6,1.37,1.09Z"/>
      </g>
    </g>
    <g>
      <path class="cls-9" d="M328.94,261.14v7.56c0,.6-.18,1.16-.5,1.63-.33,.49-.81,.87-1.37,1.09-.17,.07-.35,.12-.53,.15-.17,.03-.34,.05-.51,.05h-120.36c-.47,0-.91-.11-1.3-.31-.88-.44-1.51-1.31-1.6-2.33,0-.04,0-.08,0-.12,0-.05,0-.1,0-.15v-7.56s0-.1,0-.15c.07-1.42,1.17-2.58,2.56-2.74,.11-.01,.23-.02,.34-.02h120.36c.18,0,.35,.02,.51,.05,.18,.03,.36,.08,.53,.15,.56,.22,1.04,.6,1.37,1.09,.32,.47,.5,1.02,.5,1.63Z"/>
      <path class="cls-15" d="M269.84,271.61h-64.48c-.42,0-.81-.11-1.16-.31-.78-.44-1.34-1.31-1.43-2.33,0-.04,0-.08,0-.12,0-.05,0-.1,0-.15v-7.56s0-.1,0-.15c.06-1.42,1.05-2.58,2.29-2.74,.1-.01,.2-.02,.31-.02h56.56s0,.01,0,.02c.88,3.84,2.91,9.1,7.54,13.05,.12,.1,.24,.21,.37,.31Z"/>
      <g>
        <rect class="cls-15" x="312.93" y="258.23" width="1.37" height="13.38"/>
        <rect class="cls-15" x="308.29" y="258.23" width="1.37" height="13.38"/>
        <rect class="cls-15" x="302.74" y="258.23" width="1.37" height="13.38"/>
        <rect class="cls-15" x="294.23" y="258.23" width="1.37" height="13.38"/>
        <rect class="cls-15" x="285.23" y="258.23" width="1.37" height="13.38"/>
        <rect class="cls-15" x="271.43" y="258.23" width="1.37" height="13.38"/>
        <rect class="cls-15" x="258.51" y="258.23" width="1.37" height="13.38"/>
        <rect class="cls-15" x="246.98" y="258.23" width="1.37" height="13.38"/>
        <rect class="cls-15" x="317.33" y="258.23" width="1.37" height="13.38"/>
        <rect class="cls-15" x="320.25" y="258.23" width="1.37" height="13.38"/>
        <rect class="cls-15" x="323.06" y="258.23" width="1.37" height="13.38"/>
        <path class="cls-15" d="M326.54,258.28v13.29c-.17,.03-.34,.05-.51,.05h-.85v-13.38h.85c.18,0,.35,.02,.51,.05Z"/>
        <path class="cls-15" d="M328.44,259.51v10.81c-.33,.49-.81,.87-1.37,1.09v-12.99c.56,.22,1.04,.6,1.37,1.09Z"/>
      </g>
    </g>
    <g>
      <path class="cls-9" d="M320.09,247.78v7.56c0,.6-.18,1.16-.5,1.63-.33,.49-.81,.87-1.37,1.09-.17,.07-.35,.12-.53,.15-.06,0-.11,.02-.17,.03-.03,0-.06,0-.09,0-.03,0-.06,0-.09,0-.05,0-.1,0-.15,0h-120.36c-1.55,0-2.83-1.23-2.91-2.76,0-.05,0-.1,0-.15v-7.56s0-.1,0-.15c.08-1.53,1.36-2.76,2.91-2.76h120.36c.18,0,.35,.02,.51,.05,.18,.03,.36,.08,.53,.15,.56,.22,1.03,.6,1.37,1.09,.32,.47,.5,1.02,.5,1.63Z"/>
      <path class="cls-15" d="M260.99,258.25h-64.48c-1.38,0-2.53-1.23-2.6-2.76,0-.05,0-.1,0-.15v-7.56s0-.1,0-.15c.07-1.53,1.21-2.76,2.6-2.76h56.56c.9,3.93,3,9.37,7.89,13.36,0,0,.02,.01,.03,.02Z"/>
      <g>
        <rect class="cls-15" x="304.08" y="244.87" width="1.37" height="13.38"/>
        <rect class="cls-15" x="299.45" y="244.87" width="1.37" height="13.38"/>
        <rect class="cls-15" x="293.89" y="244.87" width="1.37" height="13.38"/>
        <rect class="cls-15" x="285.38" y="244.87" width="1.37" height="13.38"/>
        <rect class="cls-15" x="276.38" y="244.87" width="1.37" height="13.38"/>
        <rect class="cls-15" x="262.58" y="244.87" width="1.37" height="13.38"/>
        <rect class="cls-15" x="249.66" y="244.87" width="1.37" height="13.38"/>
        <rect class="cls-15" x="238.13" y="244.87" width="1.37" height="13.38"/>
        <rect class="cls-15" x="308.48" y="244.87" width="1.37" height="13.38"/>
        <rect class="cls-15" x="311.4" y="244.87" width="1.37" height="13.38"/>
        <rect class="cls-15" x="314.21" y="244.87" width="1.37" height="13.38"/>
        <path class="cls-15" d="M317.69,244.92v13.29c-.17,.03-.34,.05-.51,.05h-.85v-13.38h.85c.18,0,.35,.02,.51,.05Z"/>
        <path class="cls-15" d="M319.59,246.16v10.81c-.33,.49-.81,.87-1.37,1.09v-12.99c.56,.22,1.04,.6,1.37,1.09Z"/>
      </g>
    </g>
  </g>
  <g>
    <circle class="cls-16" cx="209.49" cy="322.84" r="68.12" transform="translate(-138.48 487.26) rotate(-82.31)"/>
    <circle class="cls-9" cx="203.55" cy="322.84" r="68.12" transform="translate(-149.91 466.82) rotate(-79.93)"/>
    <path class="cls-15" d="M203.55,385.71c-16.58,0-32.16-6.46-43.89-18.18-11.72-11.72-18.18-27.31-18.18-43.89s6.46-32.16,18.18-43.89c11.72-11.72,27.31-18.18,43.89-18.18s32.16,6.46,43.89,18.18c11.72,11.72,18.18,27.31,18.18,43.89s-6.46,32.16-18.18,43.89c-11.72,11.72-27.31,18.18-43.89,18.18Zm0-120.42c-15.59,0-30.24,6.07-41.27,17.09-11.02,11.02-17.09,25.68-17.09,41.27s6.07,30.24,17.09,41.27c11.02,11.02,25.68,17.09,41.27,17.09s30.24-6.07,41.27-17.09c11.02-11.02,17.09-25.68,17.09-41.27s-6.07-30.24-17.09-41.27c-11.02-11.02-25.68-17.09-41.27-17.09Z"/>
    <path class="cls-15" d="M212.09,341.66c.16-1.34,.11-2.54-.15-3.6-.26-1.06-.76-2.06-1.52-2.99-.76-.93-1.78-1.83-3.05-2.69-1.27-.86-2.85-1.74-4.72-2.64-3.22-1.58-6.13-3.18-8.72-4.79-2.59-1.62-4.76-3.39-6.52-5.31-1.76-1.92-3.04-4.08-3.85-6.47-.81-2.39-1.03-5.15-.66-8.27,.32-2.71,1.09-5.12,2.32-7.24,1.22-2.12,2.83-3.9,4.81-5.34,1.98-1.45,4.28-2.54,6.89-3.28,2.61-.74,5.48-1.07,8.6-.99l1.21-10.23,8.23,.98-1.23,10.37c2.9,.73,5.49,1.83,7.75,3.29,2.26,1.46,4.12,3.24,5.58,5.32,1.46,2.08,2.49,4.46,3.09,7.13,.6,2.67,.72,5.6,.34,8.79l-14.87-1.76c.45-3.82-.06-6.78-1.53-8.88-1.47-2.1-3.63-3.32-6.48-3.65-1.54-.18-2.9-.13-4.06,.17-1.17,.3-2.15,.78-2.96,1.44-.81,.66-1.45,1.49-1.91,2.46-.46,.98-.77,2.06-.91,3.24-.14,1.18-.1,2.27,.13,3.26,.23,1,.72,1.95,1.46,2.86,.74,.91,1.77,1.81,3.07,2.69,1.3,.88,2.94,1.83,4.91,2.84,3.18,1.64,6.06,3.27,8.63,4.9,2.57,1.63,4.73,3.41,6.49,5.35,1.75,1.94,3.04,4.1,3.85,6.49,.81,2.39,1.03,5.13,.67,8.22-.33,2.8-1.12,5.26-2.36,7.38-1.24,2.12-2.85,3.88-4.83,5.29-1.98,1.41-4.28,2.47-6.92,3.15-2.64,.69-5.52,.99-8.64,.91l-1.13,9.51-8.18-.97,1.12-9.46c-2.81-.62-5.49-1.57-8.04-2.84-2.55-1.27-4.74-2.93-6.59-4.97-1.84-2.04-3.22-4.51-4.13-7.4-.91-2.89-1.14-6.24-.68-10.07l14.87,1.76c-.27,2.26-.18,4.19,.28,5.78,.45,1.59,1.16,2.9,2.12,3.94,.96,1.03,2.09,1.82,3.4,2.34,1.31,.53,2.67,.87,4.08,1.04,1.61,.19,3.05,.15,4.32-.12,1.27-.27,2.36-.72,3.27-1.36,.91-.63,1.63-1.43,2.16-2.39,.53-.95,.87-2.02,1.01-3.2Z"/>
  </g>
  <g>
    <path class="cls-2" d="M132.57,149.58v1.84s-.49,5.76,6.6,6.6c7.09,.84,12.9,.73,12.71-3.71-.64-3.44-1.78-8.78-1.83-11.62-.02-1.06,.05-2.18,.25-3.45l-13.73-.27-4.05,.66,.05,9.96Z"/>
    <path class="cls-11" d="M132.52,139.63l.05,9.96c1.46,.68,3.11,1.09,4.95,1.09,6.31,0,10.39-4.63,12.52-7.99-.02-1.06,.05-2.18,.25-3.45l-13.73-.27-4.05,.66Z"/>
    <path class="cls-2" d="M151.35,137.03c-1.59,8.58-12.66,8.29-17.44,7.76-1.35-.15-2.19-.32-2.19-.32-1.52-.41-2.36-2.8-2.76-5.93-.78-6.2,.21-15.29,1.25-17.62,1.58-3.5,4.54-7.29,15.69-4.55,11.15,2.73,7.5,9.68,5.45,20.66Z"/>
    <path class="cls-13" d="M160.4,390.93h-15.68c.12-.82,.52-3.32,1.25-5.63,.25-.8,.55-1.58,.89-2.26,1.52-3.04,11.21-1.11,11.21-1.11,0,0,.9,.77,1.6,3.72,.31,1.3,.59,3.02,.73,5.28Z"/>
    <path class="cls-13" d="M113.02,385.99c-.04,2.13-.31,4.15-1.09,4.95h-31.02c.39-1.12,1.51-2.81,4.69-3.33,3.62-.59,9.26-2.33,12.55-5.81,1.17-1.24,2.05-2.7,2.43-4.4,1.46-6.5,12.07,1.99,12.07,1.99,0,0,.43,3.42,.36,6.6Z"/>
    <path class="cls-1" d="M133.65,315.76c-.43,2.38-.71,4.33-.78,5.73-.99,19.23-16.19,63.21-18.91,64.23-4.21,1.59-10.83-1.79-14.3-2.89-1.44-.46-2.41-1.91-2.09-3.38,7.53-34.61,10.3-84.45,11.3-113.96,.51-14.86,3.06-25.13,3.06-25.13,0,0,37.08-9.89,37.3,2.62,.2,11.07-12.28,54.51-15.59,72.78Z"/>
    <path class="cls-13" d="M133.65,315.76l-24.77-50.27c.51-14.86,3.06-25.13,3.06-25.13,0,0,37.08-9.89,37.3,2.62,.2,11.07-12.28,54.51-15.59,72.78Z"/>
    <path class="cls-1" d="M125.4,243.03l19.6,142.07s8.61,2.08,15.3,.41c0,0,5.74-75.56,5.26-93.83-.48-18.27,4.12-48.88-1.05-52.26-5.17-3.38-39.12,3.6-39.12,3.6Z"/>
    <path class="cls-13" d="M126.79,112.76s4.91-.38,10.69-2.89c4.7-2.04,10.62,.21,12.54,1.22-.05-.31-.18-.73-.47-1.16,0,0,.86,.61,.99,1.47,.09,.07,.13,.11,.11,.13,0,0,.98-.18,1.61,.1,0,0-.44-.06-.6,.22-.02,.03-.04,.06-.07,.08,7.32,3.54,8,15.12,5.64,17.79-2.84,3.22-6.24,10.48-6.24,10.48,0,0-1.24-1.71-.72-4.55,.52-2.84-1.93-2.84-5.03-4.13-3.09-1.29-.52-4.9-3.22-7.09-2.71-2.19-12.63-.9-12.5-2.58-3.68-1.34-2.73-8.72-2.73-9.1Z"/>
    <path class="cls-3" d="M153.54,156.78l-4.51,96.83s-37.67,.62-36.59-7.91c1.08-8.52,13.58-85.96,13.58-85.96l27.53-2.97h0Z"/>
    <path class="cls-1" d="M166.99,211.67c-2.24,6.72,1.98,29.28,3.49,36.92,.33,1.62,.55,2.57,.55,2.57-5.22,8.49-24.32,8.38-24.32,8.38-3.67-16.24-5.58-42.1-5.58-42.1l14.66-64.26,18.44,17.05s-1.4,10.4-3.12,20.98c-1.36,8.38-2.9,16.9-4.11,20.46Z"/>
    <path class="cls-4" d="M135.65,138.44s-.36,1.11-3.15,.7c0,0-2.34-.34-2.17-1.57,0,0,2.36-.69,5.32,.87Z"/>
    <path class="cls-1" d="M114.47,158.16s0,.02,0,.04c-.89,.86-26.04,25.28-30.91,34.84-4.96,9.7,22.67,29.02,22.67,29.02,0,0,1.78,.7,3.01,.43-1.3,10.73-2.77,20.62-1.9,24.85,1.57,7.63,8.63,10.2,8.63,9.61,0-.19,1.82-27.84,3.99-42.12,4.81-31.7,10.54-61.45,10.54-61.45-8.22,.85-16.02,4.79-16.02,4.79Zm-14.97,39.07s-.04-.11-.04-.15c0-1.4,5.33-4.48,11.1-8.12,.07-.07,.11-.11,.11-.11,0,0,0,0,.01,0-.1,2.97-.09,5.89,.09,8.6,.33,5.03-.04,11.05-.65,17.18-2.75-4.29-10.08-15.81-10.62-17.39Z"/>
    <g>
      <path class="cls-8" d="M154.61,153.06c.05-.92-4.33-2.2-4.33-2.2,0,0-5.01,6.95-13.26,7.07,0,0,2.35,4.58,5.12,5.76,0,0,12.2-5.14,12.47-10.63Z"/>
      <g>
        <path class="cls-12" d="M125.42,223.37c.2,2.26,1.24,4.37,2.91,5.91l2.63,2.42c.66,.61,1.7,.52,2.25-.18l3.25-4.13c.87-1.11,1.28-2.51,1.15-3.91-.3-3.13-.87-9.15-1.33-14.96-.37-4.71-.67-9.29-.69-12.07-.07-8.89,1.69-37.24,1.69-37.24l-2.13,.11s-5.29,11-8.06,25.97c-.68,3.69-1.21,7.61-1.47,11.67,0,0-1.11,16.19-.2,26.41Z"/>
        <path class="cls-14" d="M125.42,223.37c.2,2.26,1.24,4.37,2.91,5.91l2.63,2.42c.66,.61,1.7,.52,2.25-.18l3.25-4.13c.87-1.11,1.28-2.51,1.15-3.91-.3-3.13-.87-9.15-1.33-14.96-5.89-6.62-8.28-15.76-9.19-23.22-.68,3.69-1.21,7.61-1.47,11.67,0,0-1.11,16.19-.2,26.41Z"/>
      </g>
      <path class="cls-8" d="M137.02,157.76s-4.37-2.59-4.39-5.4c0,0-2.82-.35-4.06,1.02,0,0-1.04,4.82,.34,7.61,0,0,6.3-.96,8.11-3.23Z"/>
      <path class="cls-14" d="M139.98,157.35l-5.93-1.42s-.77,.07-.75,1.03c.02,.97,1.67,3.79,2.4,4.01,.73,.23,5.68-1.67,4.28-3.63Z"/>
      <path class="cls-3" d="M153.92,152.58c.05-.92-2.92-2.83-2.92-2.83,0,0-5.73,6.7-13.99,6.82,0,0,2.35,4.58,5.12,5.76,0,0,11.51-4.27,11.78-9.76Z"/>
      <path class="cls-3" d="M137.02,156.58s-4.42-2.34-4.44-5.15c0,0-2.67,1.17-3.9,2.54,0,0-1.14,3.04,.23,5.84,0,0,6.3-.96,8.11-3.23Z"/>
    </g>
    <path class="cls-2" d="M104.46,223.64c0-2.47,2.17-4.45,4.61-4.08,.68,.1,1.29,.38,1.71,.95,1.68,2.24,3.28,8.74,.3,9.04-1.21,.12-2.77-.73-3.97-1.64-1.22-.93-2.66-2.37-2.66-3.9v-.37Z"/>
    <path class="cls-13" d="M170.48,248.59c-5.4-5.62-14.73-16.68-14.4-25.76,.44-12.71,15.03-31.63,15.03-31.63-1.36,8.38-2.9,16.9-4.11,20.46-2.24,6.72,1.98,29.28,3.49,36.92Z"/>
    <path class="cls-2" d="M170.31,226.48s-3.88,1.94-6.24,.97c-2.36-.97-5.13-1.7-7.76,1.3-2.63,3-3.19,5.08-2.63,6.19,.55,1.11,6.7,.69,7.72,0,1.02-.69,2.63-2.4,3.65-2.1,2.82,.82,5.2-1.33,6.53-3.05,.8-1.03-1.36-1.54-1.26-3.31Z"/>
    <path class="cls-1" d="M155.79,153.18s15.46,1.71,19.11,8.45c3.65,6.73,22.61,34.03,21.99,45.37-.62,11.34-25.87,24.06-25.87,24.06,0,0-5.59-2.36-5.68-4.91-.08-2.54,17.45-17.74,16.39-20.57-1.06-2.84-20.37-25.26-22.24-32.66-1.86-7.39-3.71-19.74-3.71-19.74Z"/>
    <path class="cls-13" d="M110.67,188.85s-.04,.04-.11,.11c-5.77,3.64-11.1,6.72-11.1,8.12-.77-2.46,6.72-12.75,9.15-14.84,2.46-2.13,2.06,6.61,2.06,6.61Z"/>
    <path class="cls-13" d="M151,149.76s-11.74,49.17-9.87,67.69c0,0,4.32-19.79,14.7-36.01,0,0-3.79-3.33-3.58-4.56,0,0,2.81-.83,5.54-.27,0,0-.3-21.19-2-23.43-1.7-2.24-4.79-3.42-4.79-3.42Z"/>
    <path class="cls-13" d="M132.58,151.42c.16,.07-11.63,48.05-12.63,63.4,0,0,1.18-27.4,1.06-35.3,0,0,4.88-2.58,4.88-3.49s-5.2-3.35-5.2-3.35c0,0,3.29-16.87,5.09-18.73,1.8-1.86,6.8-2.53,6.8-2.53Z"/>
  </g>
  <g>
    <rect class="cls-13" x="260.77" y="215.72" width="47.36" height="29.15" rx="7.61" ry="7.61" transform="translate(-.27 .33) rotate(-.07)"/>
    <path class="cls-1" d="M302.87,219.33h0c-1.2-2.09-3.37-3.56-5.87-3.81h0s0,0,0,0c-.25-.02-.49-.04-.75-.04h-6.4s0-3,0-3c0-.67-.26-1.3-.74-1.78-.48-.48-1.11-.74-1.78-.74h-1.67s-6.72,0-6.72,0h-1.21c-1.39,0-2.52,1.13-2.52,2.52v3.01s-11.05,.01-11.05,.01c-4.2,0-7.63,3.44-7.63,7.64l.02,14.09c0,4.2,3.44,7.63,7.64,7.63l32.09-.04c.57,0,1.12-.06,1.65-.18h0s0,0,0,0c.85-.19,1.65-.52,2.37-.97,2.17-1.35,3.61-3.76,3.61-6.49l-.02-14.09c0-1.37-.37-2.66-1.01-3.78Zm-26.1-6.83c0-.42,.28-.78,.66-.9,.09-.03,.18-.04,.28-.04h1.43s5.29,0,5.29,0h2.88c.52,0,.94,.42,.94,.94v3.01s-11.48,.01-11.48,.01v-3Z"/>
  </g>
</svg>