<?xml version="1.0" encoding="UTF-8"?>
<svg id="Layer_1" data-name="Layer 1" xmlns="http://www.w3.org/2000/svg" viewBox="0 0 500 281.02">
  <defs>
    <style>
      .cls-1 {
        fill: #0b3b83;
      }

      .cls-2 {
        fill: #3395ff;
      }
    </style>
  </defs>
  <g>
    <path class="cls-1" d="M205.71,146.5c0-1.39-.49-2.46-1.47-3.2-.98-.74-2.75-1.53-5.3-2.36-2.55-.83-4.57-1.64-6.06-2.44-4.06-2.19-6.08-5.14-6.08-8.86,0-1.93,.54-3.65,1.63-5.16,1.09-1.51,2.65-2.69,4.69-3.54,2.04-.85,4.32-1.28,6.86-1.28s4.82,.46,6.82,1.39c2,.92,3.54,2.23,4.65,3.91,1.1,1.68,1.66,3.6,1.66,5.74h-7.36c0-1.64-.52-2.91-1.55-3.81-1.03-.91-2.48-1.36-4.34-1.36s-3.2,.38-4.19,1.14c-1,.76-1.5,1.76-1.5,3.01,0,1.16,.58,2.13,1.75,2.92,1.17,.79,2.89,1.52,5.16,2.21,4.19,1.26,7.24,2.82,9.15,4.69,1.91,1.86,2.87,4.19,2.87,6.97,0,3.09-1.17,5.52-3.51,7.27-2.34,1.76-5.49,2.64-9.44,2.64-2.75,0-5.25-.5-7.51-1.51-2.26-1.01-3.98-2.38-5.16-4.13-1.19-1.75-1.78-3.78-1.78-6.08h7.38c0,3.94,2.36,5.91,7.07,5.91,1.75,0,3.12-.36,4.1-1.07s1.47-1.7,1.47-2.98Z"/>
    <path class="cls-1" d="M226.09,122.8v6.53h4.54v5.2h-4.54v13.25c0,.98,.19,1.68,.56,2.11,.38,.43,1.1,.64,2.16,.64,.79,0,1.48-.06,2.09-.17v5.37c-1.39,.43-2.82,.64-4.29,.64-4.97,0-7.51-2.51-7.6-7.53v-14.3h-3.88v-5.2h3.88v-6.53h7.09Z"/>
    <path class="cls-1" d="M249.5,135.98c-.97-.13-1.82-.2-2.55-.2-2.68,0-4.44,.91-5.27,2.72v17.37h-7.09v-26.54h6.7l.2,3.16c1.42-2.44,3.39-3.66,5.91-3.66,.79,0,1.52,.11,2.21,.32l-.1,6.82Z"/>
    <path class="cls-1" d="M264.66,156.36c-3.89,0-7.06-1.19-9.51-3.58-2.45-2.39-3.67-5.57-3.67-9.54v-.69c0-2.67,.52-5.05,1.55-7.15,1.03-2.1,2.49-3.72,4.38-4.86,1.89-1.14,4.04-1.7,6.46-1.7,3.63,0,6.49,1.14,8.57,3.43,2.09,2.29,3.13,5.54,3.13,9.74v2.89h-16.9c.23,1.73,.92,3.12,2.07,4.17,1.15,1.05,2.61,1.57,4.38,1.57,2.73,0,4.87-.99,6.4-2.97l3.48,3.9c-1.06,1.5-2.5,2.68-4.32,3.52-1.82,.84-3.83,1.26-6.03,1.26Zm-.81-21.81c-1.41,0-2.55,.48-3.42,1.43-.87,.95-1.44,2.32-1.68,4.09h9.86v-.57c-.03-1.58-.46-2.8-1.28-3.66-.82-.86-1.98-1.29-3.48-1.29Z"/>
    <path class="cls-1" d="M294.98,155.87c-.33-.64-.56-1.43-.71-2.38-1.72,1.91-3.95,2.87-6.7,2.87-2.6,0-4.76-.75-6.46-2.26-1.71-1.5-2.56-3.4-2.56-5.69,0-2.81,1.04-4.97,3.13-6.48,2.09-1.5,5.1-2.26,9.04-2.28h3.26v-1.52c0-1.23-.32-2.21-.94-2.94-.63-.74-1.62-1.1-2.98-1.1-1.19,0-2.13,.29-2.81,.86-.68,.57-1.02,1.36-1.02,2.36h-7.09c0-1.54,.47-2.96,1.42-4.27,.95-1.31,2.29-2.33,4.02-3.08,1.73-.74,3.68-1.12,5.84-1.12,3.27,0,5.87,.82,7.79,2.47,1.92,1.64,2.88,3.95,2.88,6.93v11.51c.02,2.52,.37,4.42,1.05,5.72v.42h-7.16Zm-5.86-4.93c1.05,0,2.01-.23,2.89-.7,.88-.47,1.54-1.09,1.96-1.88v-4.56h-2.65c-3.55,0-5.44,1.23-5.67,3.68l-.02,.42c0,.88,.31,1.61,.93,2.18,.62,.57,1.47,.86,2.55,.86Z"/>
    <path class="cls-1" d="M313.18,129.33l.22,2.97c1.88-2.31,4.42-3.46,7.63-3.46,3.42,0,5.76,1.35,7.04,4.05,1.86-2.7,4.52-4.05,7.97-4.05,2.88,0,5.02,.84,6.43,2.51,1.41,1.68,2.11,4.2,2.11,7.57v16.95h-7.11v-16.93c0-1.5-.29-2.6-.88-3.3-.59-.69-1.63-1.04-3.12-1.04-2.13,0-3.6,1.01-4.42,3.04l.02,18.23h-7.09v-16.9c0-1.54-.3-2.65-.91-3.34-.61-.69-1.64-1.03-3.09-1.03-2.01,0-3.47,.83-4.37,2.5v18.77h-7.09v-26.54h6.65Z"/>
    <path class="cls-1" d="M362.25,156.36c-3.89,0-7.06-1.19-9.51-3.58-2.45-2.39-3.67-5.57-3.67-9.54v-.69c0-2.67,.52-5.05,1.55-7.15,1.03-2.1,2.49-3.72,4.38-4.86,1.89-1.14,4.04-1.7,6.46-1.7,3.63,0,6.49,1.14,8.57,3.43,2.09,2.29,3.13,5.54,3.13,9.74v2.89h-16.9c.23,1.73,.92,3.12,2.07,4.17,1.15,1.05,2.61,1.57,4.38,1.57,2.73,0,4.87-.99,6.4-2.97l3.48,3.9c-1.06,1.5-2.5,2.68-4.32,3.52-1.82,.84-3.83,1.26-6.03,1.26Zm-.81-21.81c-1.41,0-2.55,.48-3.42,1.43-.87,.95-1.44,2.32-1.68,4.09h9.86v-.57c-.03-1.58-.46-2.8-1.28-3.66-.82-.86-1.98-1.29-3.48-1.29Z"/>
    <path class="cls-1" d="M376.08,142.41c0-4.14,.93-7.43,2.78-9.89,1.86-2.45,4.39-3.68,7.62-3.68,2.58,0,4.72,.97,6.4,2.89v-13.54h7.11v37.68h-6.4l-.34-2.82c-1.77,2.21-4.04,3.31-6.82,3.31-3.12,0-5.63-1.23-7.52-3.69-1.89-2.46-2.83-5.88-2.83-10.27Zm7.09,.53c0,2.49,.43,4.4,1.3,5.72,.87,1.33,2.13,1.99,3.78,1.99,2.19,0,3.74-.93,4.64-2.78v-10.49c-.88-1.85-2.41-2.78-4.59-2.78-3.42,0-5.13,2.78-5.13,8.33Z"/>
  </g>
  <g>
    <path class="cls-2" d="M121.49,112.64h36.59c3.52,0,6.38,2.86,6.38,6.38h0c0,3.52-2.86,6.38-6.38,6.38h-23.83c-3.52,0-6.38,2.86-6.38,6.38v8.72c0,3.52-2.86,6.38-6.38,6.38h-15.1c-3.52,0-6.38-2.86-6.38-6.38h0c0-3.52,2.86-6.38,6.38-6.38h2.34c3.52,0,6.38-2.86,6.38-6.38v-8.72c0-3.52,2.86-6.38,6.38-6.38Z"/>
    <path class="cls-1" d="M136.52,149.23v-8.72c0-3.52,2.86-6.38,6.38-6.38h15.18c3.52,0,6.38,2.86,6.38,6.38h0c0,3.52-2.86,6.38-6.38,6.38h-2.41c-3.52,0-6.38,2.86-6.38,6.38v8.72c0,3.52-2.86,6.38-6.38,6.38h-36.52c-3.52,0-6.38-2.86-6.38-6.38h0c0-3.52,2.86-6.38,6.38-6.38h23.76c3.52,0,6.38-2.86,6.38-6.38Z"/>
  </g>
</svg>