<?xml version="1.0" encoding="UTF-8"?>
<svg id="Layer_1" data-name="Layer 1" xmlns="http://www.w3.org/2000/svg" xmlns:xlink="http://www.w3.org/1999/xlink" viewBox="0 0 500 500">
  <defs>
    <style>
      .cls-1 {
        fill: url(#linear-gradient-2);
      }

      .cls-2 {
        fill: #ffe619;
      }

      .cls-3 {
        fill: url(#linear-gradient-17);
      }

      .cls-4 {
        fill: #ff9c9c;
      }

      .cls-5 {
        fill: #ffe519;
      }

      .cls-6 {
        fill: url(#linear-gradient-15);
      }

      .cls-7 {
        fill: url(#linear-gradient-18);
      }

      .cls-8 {
        fill: #ef8e1d;
      }

      .cls-9 {
        fill: #db2f19;
      }

      .cls-10 {
        fill: #d18e19;
      }

      .cls-11 {
        fill: url(#linear-gradient-28);
      }

      .cls-12 {
        fill: url(#linear-gradient-14);
      }

      .cls-13 {
        fill: url(#linear-gradient-20);
      }

      .cls-14 {
        fill: url(#linear-gradient-6);
      }

      .cls-15 {
        fill: #513019;
      }

      .cls-16 {
        fill: #c65446;
      }

      .cls-17 {
        fill: #ffa237;
      }

      .cls-18 {
        fill: #2020c4;
      }

      .cls-19 {
        opacity: .39;
      }

      .cls-20 {
        fill: #1c1c75;
      }

      .cls-21 {
        fill: url(#linear-gradient-11);
      }

      .cls-22 {
        fill: #964c19;
      }

      .cls-23 {
        opacity: .3;
        stroke: #1e1ea8;
      }

      .cls-23, .cls-24, .cls-25, .cls-26, .cls-27, .cls-28 {
        fill: none;
      }

      .cls-23, .cls-25 {
        stroke-width: 1.01px;
      }

      .cls-23, .cls-26, .cls-27, .cls-28 {
        stroke-linecap: round;
        stroke-linejoin: round;
      }

      .cls-29 {
        fill: url(#linear-gradient-10);
      }

      .cls-30 {
        fill: url(#radial-gradient);
      }

      .cls-31 {
        fill: #7339ff;
      }

      .cls-32 {
        fill: #9e4f19;
      }

      .cls-33 {
        fill: url(#linear-gradient-16);
      }

      .cls-34 {
        fill: url(#linear-gradient-21);
      }

      .cls-35 {
        fill: url(#linear-gradient-25);
      }

      .cls-36 {
        fill: url(#linear-gradient-5);
      }

      .cls-37 {
        fill: #824319;
      }

      .cls-38 {
        fill: #511e29;
      }

      .cls-39 {
        fill: #e5e3ff;
      }

      .cls-40 {
        fill: url(#radial-gradient-2);
      }

      .cls-24 {
        stroke: #c65446;
      }

      .cls-24, .cls-25 {
        stroke-miterlimit: 10;
      }

      .cls-24, .cls-26 {
        stroke-width: .51px;
      }

      .cls-41 {
        fill: #2121e8;
      }

      .cls-42 {
        fill: url(#radial-gradient-3);
      }

      .cls-43 {
        fill: url(#linear-gradient-7);
      }

      .cls-44 {
        fill: #2323c4;
      }

      .cls-45 {
        fill: url(#linear-gradient-24);
      }

      .cls-25, .cls-27 {
        stroke: #fff;
      }

      .cls-46 {
        fill: url(#linear-gradient-9);
      }

      .cls-26 {
        stroke: #191f8c;
      }

      .cls-47 {
        fill: url(#linear-gradient-22);
      }

      .cls-48 {
        fill: url(#linear-gradient-3);
      }

      .cls-27 {
        stroke-width: .85px;
      }

      .cls-28 {
        stroke: #ffb619;
        stroke-width: 1.54px;
      }

      .cls-49 {
        fill: url(#linear-gradient);
      }

      .cls-50 {
        fill: #ad6b1f;
      }

      .cls-51 {
        fill: url(#linear-gradient-27);
      }

      .cls-52, .cls-53 {
        fill: #1e1ea8;
      }

      .cls-54 {
        fill: #bc5b19;
      }

      .cls-55 {
        fill: url(#linear-gradient-23);
      }

      .cls-56 {
        fill: url(#linear-gradient-19);
      }

      .cls-57 {
        fill: url(#linear-gradient-4);
      }

      .cls-58 {
        fill: url(#linear-gradient-8);
      }

      .cls-59 {
        fill: url(#linear-gradient-12);
      }

      .cls-60 {
        fill: url(#linear-gradient-13);
      }

      .cls-61 {
        fill: url(#linear-gradient-26);
      }

      .cls-53 {
        opacity: .31;
      }
    </style>
    <linearGradient id="linear-gradient" x1="-445.62" y1="159.42" x2="-445.62" y2="220.57" gradientTransform="translate(916.32 104.98) rotate(10.67)" gradientUnits="userSpaceOnUse">
      <stop offset="0" stop-color="#80a9ff"/>
      <stop offset=".23" stop-color="#7798ff"/>
      <stop offset=".68" stop-color="#626dff"/>
      <stop offset="1" stop-color="#524cff"/>
    </linearGradient>
    <linearGradient id="linear-gradient-2" x1="-439.97" y1="152.14" x2="-439.97" y2="183" gradientTransform="translate(916.32 104.98) rotate(10.67)" gradientUnits="userSpaceOnUse">
      <stop offset="0" stop-color="#524cff"/>
      <stop offset=".1" stop-color="#534dff" stop-opacity=".98"/>
      <stop offset=".22" stop-color="#5953ff" stop-opacity=".91"/>
      <stop offset=".36" stop-color="#625cff" stop-opacity=".81"/>
      <stop offset=".51" stop-color="#6e69ff" stop-opacity=".66"/>
      <stop offset=".67" stop-color="#7e79ff" stop-opacity=".48"/>
      <stop offset=".84" stop-color="#918dff" stop-opacity=".25"/>
      <stop offset="1" stop-color="#a7a3ff" stop-opacity="0"/>
    </linearGradient>
    <linearGradient id="linear-gradient-3" x1="-1839.77" y1="477.61" x2="-1839.77" y2="524.37" gradientTransform="translate(-1499.7 186.32) rotate(165.66) scale(1 -1)" xlink:href="#linear-gradient"/>
    <linearGradient id="linear-gradient-4" x1="-1835.45" y1="472.05" x2="-1835.45" y2="495.65" gradientTransform="translate(-1499.7 186.32) rotate(165.66) scale(1 -1)" xlink:href="#linear-gradient-2"/>
    <linearGradient id="linear-gradient-5" x1="435.57" y1="296.46" x2="435.57" y2="365.53" gradientTransform="translate(-19.95)" xlink:href="#linear-gradient-2"/>
    <linearGradient id="linear-gradient-6" x1="124.53" y1="-65.5" x2="233.91" y2="132.3" gradientTransform="translate(-19.95)" xlink:href="#linear-gradient-2"/>
    <linearGradient id="linear-gradient-7" x1="109.12" y1="201.18" x2="109.12" y2="348.98" gradientTransform="translate(-19.95)" xlink:href="#linear-gradient-2"/>
    <linearGradient id="linear-gradient-8" x1="120.17" y1="308.82" x2="120.17" y2="128.06" gradientTransform="translate(-19.95)" gradientUnits="userSpaceOnUse">
      <stop offset="0" stop-color="#f2f1ff"/>
      <stop offset=".97" stop-color="#a7a3ff"/>
    </linearGradient>
    <linearGradient id="linear-gradient-9" x1="290.85" y1="413.17" x2="199.41" y2="477.28" gradientTransform="translate(580.73 66.82) rotate(73.16)" gradientUnits="userSpaceOnUse">
      <stop offset="0" stop-color="#f2f1ff" stop-opacity="0"/>
      <stop offset=".97" stop-color="#a7a3ff"/>
    </linearGradient>
    <linearGradient id="linear-gradient-10" x1="319.28" y1="408.44" x2="420.12" y2="408.44" gradientTransform="translate(114.19 -89.57) rotate(16.84)" xlink:href="#linear-gradient-9"/>
    <linearGradient id="linear-gradient-11" x1="394.68" y1="168.74" x2="394.68" y2="184.2" gradientTransform="translate(-19.95)" gradientUnits="userSpaceOnUse">
      <stop offset="0" stop-color="#80a9ff"/>
      <stop offset=".21" stop-color="#7798fc"/>
      <stop offset=".63" stop-color="#606df4"/>
      <stop offset="1" stop-color="#4943ed"/>
    </linearGradient>
    <radialGradient id="radial-gradient" cx="395.59" cy="189.4" fx="395.59" fy="189.4" r="35.85" gradientTransform="translate(-19.95)" gradientUnits="userSpaceOnUse">
      <stop offset="0" stop-color="#ffe519" stop-opacity="0"/>
      <stop offset="1" stop-color="#ffbf19"/>
    </radialGradient>
    <radialGradient id="radial-gradient-2" cx="395.31" cy="165.32" fx="395.31" fy="165.32" r="12.91" gradientTransform="translate(-19.95)" gradientUnits="userSpaceOnUse">
      <stop offset="0" stop-color="#ffe519" stop-opacity="0"/>
      <stop offset="1" stop-color="#ffe519"/>
    </radialGradient>
    <linearGradient id="linear-gradient-12" x1="335.5" y1="64.61" x2="306.63" y2="9.45" gradientTransform="translate(-19.95)" gradientUnits="userSpaceOnUse">
      <stop offset="0" stop-color="#524cff"/>
      <stop offset=".07" stop-color="#5852ff" stop-opacity=".93"/>
      <stop offset=".53" stop-color="#827dff" stop-opacity=".43"/>
      <stop offset=".85" stop-color="#9c98ff" stop-opacity=".12"/>
      <stop offset="1" stop-color="#a7a3ff" stop-opacity="0"/>
    </linearGradient>
    <linearGradient id="linear-gradient-13" x1="263.22" y1="41.98" x2="263.22" y2="323.36" gradientTransform="translate(-19.95)" xlink:href="#linear-gradient-2"/>
    <linearGradient id="linear-gradient-14" x1="86.35" y1="270.66" x2="146.08" y2="393.65" gradientTransform="translate(-19.95)" gradientUnits="userSpaceOnUse">
      <stop offset="0" stop-color="#80a9ff"/>
      <stop offset=".29" stop-color="#7ea6ff"/>
      <stop offset=".48" stop-color="#7a9dff"/>
      <stop offset=".64" stop-color="#728eff"/>
      <stop offset=".79" stop-color="#6878ff"/>
      <stop offset=".93" stop-color="#5a5dff"/>
      <stop offset="1" stop-color="#524cff"/>
    </linearGradient>
    <linearGradient id="linear-gradient-15" x1="223.1" y1="149.75" x2="270.81" y2="239.92" gradientTransform="translate(-19.95)" gradientUnits="userSpaceOnUse">
      <stop offset="0" stop-color="#fff"/>
      <stop offset=".28" stop-color="#fcfdff"/>
      <stop offset=".45" stop-color="#f3f7ff"/>
      <stop offset=".59" stop-color="#e5edff"/>
      <stop offset=".72" stop-color="#d1dfff"/>
      <stop offset=".83" stop-color="#b6ceff"/>
      <stop offset=".94" stop-color="#96b8ff"/>
      <stop offset="1" stop-color="#80a9ff"/>
    </linearGradient>
    <linearGradient id="linear-gradient-16" x1="255.65" y1="263.33" x2="298.59" y2="332.51" gradientTransform="translate(-19.95)" gradientUnits="userSpaceOnUse">
      <stop offset="0" stop-color="#fff"/>
      <stop offset=".15" stop-color="#f9fbff"/>
      <stop offset=".34" stop-color="#e9f0ff"/>
      <stop offset=".55" stop-color="#cedeff"/>
      <stop offset=".78" stop-color="#a9c5ff"/>
      <stop offset="1" stop-color="#80a9ff"/>
    </linearGradient>
    <linearGradient id="linear-gradient-17" x1="254.5" y1="317.02" x2="276.77" y2="360.88" xlink:href="#linear-gradient-16"/>
    <linearGradient id="linear-gradient-18" x1="251.83" y1="336.35" x2="245.08" y2="358.79" gradientTransform="translate(-19.95)" gradientUnits="userSpaceOnUse">
      <stop offset="0" stop-color="#663819"/>
      <stop offset="1" stop-color="#663819" stop-opacity="0"/>
    </linearGradient>
    <linearGradient id="linear-gradient-19" x1="234.89" y1="279.22" x2="213.64" y2="291.75" gradientTransform="translate(-19.95)" gradientUnits="userSpaceOnUse">
      <stop offset=".11" stop-color="#c65446"/>
      <stop offset="1" stop-color="#c65446" stop-opacity="0"/>
    </linearGradient>
    <linearGradient id="linear-gradient-20" x1="271.42" y1="292.73" x2="295.15" y2="292.73" gradientTransform="translate(-19.95)" gradientUnits="userSpaceOnUse">
      <stop offset=".08" stop-color="#1e1e74"/>
      <stop offset="1" stop-color="#262688" stop-opacity="0"/>
    </linearGradient>
    <linearGradient id="linear-gradient-21" x1="251.3" y1="258.25" x2="246.68" y2="268.56" xlink:href="#linear-gradient-19"/>
    <linearGradient id="linear-gradient-22" x1="266.83" y1="301.25" x2="260.75" y2="333.65" gradientTransform="translate(-19.95)" gradientUnits="userSpaceOnUse">
      <stop offset="0" stop-color="#aa681b"/>
      <stop offset="1" stop-color="#c1721f" stop-opacity="0"/>
    </linearGradient>
    <linearGradient id="linear-gradient-23" x1="245.89" y1="366.6" x2="236.06" y2="407.63" xlink:href="#linear-gradient-18"/>
    <linearGradient id="linear-gradient-24" x1="369.6" y1="381.12" x2="399.43" y2="381.12" xlink:href="#linear-gradient-20"/>
    <linearGradient id="linear-gradient-25" x1="362.45" y1="304.22" x2="359.29" y2="335.22" xlink:href="#linear-gradient-20"/>
    <linearGradient id="linear-gradient-26" x1="388.88" y1="244.49" x2="409.63" y2="269.8" xlink:href="#linear-gradient-20"/>
    <linearGradient id="linear-gradient-27" x1="345.91" y1="271.65" x2="367" y2="324.12" xlink:href="#linear-gradient-20"/>
    <linearGradient id="linear-gradient-28" x1="149.55" y1="428.93" x2="149.55" y2="479.73" gradientUnits="userSpaceOnUse">
      <stop offset="0" stop-color="#ef8e1d"/>
      <stop offset="1" stop-color="#a7a3ff" stop-opacity="0"/>
    </linearGradient>
    <radialGradient id="radial-gradient-3" cx="169.71" cy="368.64" fx="169.71" fy="368.64" r="57.72" gradientTransform="translate(-19.95)" gradientUnits="userSpaceOnUse">
      <stop offset="0" stop-color="#ef8e1d"/>
      <stop offset="1" stop-color="#ffe519"/>
    </radialGradient>
  </defs>
  <path class="cls-39" d="M195.18,51.76c63.26-33.68,164.09-13.73,179.67,76.38,13.96,80.71,19.29,138.45,52.2,178.65,32.92,40.2,32.28,103.67-39.33,147.94-64.31,39.76-240,72.7-318.38-16.73-78.38-89.44,5.34-248.62,30.35-290.79,25.01-42.17,58.01-75.49,95.48-95.44Z"/>
  <g>
    <path class="cls-49" d="M463.41,200.28c-13.49,5.9-19.72,17.14-22.48,24.67l1.98-10.52c.76-4.04,2.59-7.8,5.3-10.89,3-3.43,6.23-6.62,8.32-10.36,4.33-7.78-.46-21.35,1.76-27.19,0,0-14.03,10.05-17.08,22.55-2.32,9.52-1.24,20.75-.6,25.56,.11,.84,.09,1.68-.06,2.51l-2.14,11.34c-.37-7.95-2.83-18.81-11.92-27.88,0,0-1.3,4.14-2.13,11.31-1.4,12.09,9.74,17.85,12.59,24.31l-5.1,27.05,1.89,.36,5.06-26.84c.84-4.47,3.7-8.28,7.75-10.35,5.62-2.87,12.54-5.95,14.73-14.31,1.83-6.98,2.13-11.31,2.13-11.31Z"/>
    <path class="cls-1" d="M442.9,214.43c.76-4.04,2.59-7.8,5.3-10.89,3-3.43,6.23-6.62,8.32-10.36,4.33-7.78-.46-21.35,1.76-27.19-7.78,10.47-12.12,29.5-15.37,48.45Z"/>
  </g>
  <g>
    <path class="cls-48" d="M391.08,210.38c10.58,3.84,15.89,12.12,18.37,17.73l-2.03-7.93c-.78-3.05-2.36-5.83-4.57-8.06-2.46-2.47-5.08-4.75-6.85-7.5-3.69-5.72-.7-16.32-2.67-20.67,0,0,11.2,6.98,14.14,16.38,2.24,7.16,1.96,15.77,1.71,19.48-.04,.64,.01,1.29,.17,1.91l2.18,8.55c-.11-6.09,1.24-14.49,7.74-21.87,0,0,1.19,3.1,2.18,8.53,1.66,9.16-6.56,14.1-8.42,19.17l5.21,20.4-1.42,.36-5.17-20.24c-.86-3.37-3.23-6.14-6.42-7.52-4.43-1.91-9.86-3.93-11.95-10.2-1.74-5.24-2.18-8.53-2.18-8.53Z"/>
    <path class="cls-57" d="M407.42,220.18c-.78-3.05-2.36-5.83-4.57-8.06-2.46-2.47-5.08-4.75-6.85-7.5-3.69-5.72-.7-16.32-2.67-20.67,6.45,7.61,10.69,21.92,14.1,36.23Z"/>
  </g>
  <g>
    <path class="cls-36" d="M455.55,336.5v-5.26h0c-.04-5.92-3.96-11.83-11.78-16.35-15.65-9.03-40.94-9.03-56.48,0-7.78,4.52-11.64,10.45-11.6,16.37v5.24c0,.24,.05,.47,.06,.71-.02,.28-.06,.55-.06,.83v5.24c0,.24,.05,.47,.06,.71-.02,.28-.06,.55-.06,.83v5.24c.03,5.93,3.96,11.85,11.79,16.37,15.65,9.03,40.93,9.03,56.48,0,7.77-4.52,11.64-10.44,11.6-16.37h0v-5.26h0c0-.24-.05-.47-.06-.7,.01-.27,.06-.54,.06-.81h0v-5.26h0c0-.24-.05-.47-.06-.7,.01-.27,.06-.54,.06-.81h0Z"/>
    <g>
      <g>
        <path class="cls-50" d="M455.55,314.17h-1.12c-1.66-4.06-5.18-7.91-10.66-11.08-15.65-9.03-40.94-9.03-56.48,0-5.45,3.17-8.93,7.02-10.54,11.09h-1.06v5.26c.03,5.93,3.96,11.85,11.79,16.37,15.65,9.03,40.93,9.03,56.48,0,7.77-4.52,11.64-10.44,11.6-16.37h0v-5.26Z"/>
        <path class="cls-5" d="M443.77,297.83c-15.65-9.03-40.94-9.03-56.48,0-15.55,9.03-15.46,23.69,.18,32.72,15.65,9.03,40.93,9.03,56.48,0,15.53-9.03,15.46-23.67-.18-32.71"/>
        <path class="cls-10" d="M438.18,301.07c-12.54-7.24-32.8-7.23-45.25,0-12.46,7.24-12.41,18.98,.13,26.22,12.53,7.23,32.8,7.23,45.26,0,12.45-7.23,12.38-18.98-.15-26.21"/>
        <path class="cls-50" d="M428.17,319.13c.77-.84,1.35-1.61,1.7-2.31,.35-.69,.51-1.34,.43-1.93-.07-.61-.37-1.18-.85-1.71-.51-.53-1.21-1.07-2.13-1.6-1.51-.88-3.16-1.35-4.96-1.41-1.8-.06-3.97,.27-6.53,.99l-2.28,.65c-.8,.23-1.55,.33-2.27,.35-.7,0-1.26-.1-1.64-.32-.42-.24-.57-.61-.45-1.06,.13-.47,.57-.9,1.3-1.33,1.19-.69,2.86-1.11,5.03-1.28v-1.27l-.93-.42-1.07-1.94c-2.31,.31-4.61,.99-6.9,2.07l-3.49-2.03-2.66,.27v1.27l3.49,2.03c-.91,.63-1.52,1.27-1.85,1.94-.3,.66-.41,1.3-.31,1.94,.12,.63,.45,1.24,.96,1.83,.53,.58,1.2,1.11,2.02,1.59,.78,.45,1.59,.8,2.4,1.03,.81,.22,1.68,.34,2.6,.37,.92,.03,1.92-.06,2.97-.25,1.05-.19,2.24-.48,3.5-.87l2.17-.64c1.66-.49,2.89-.5,3.75,0,.61,.35,.84,.8,.7,1.31-.14,.53-.58,1-1.29,1.41-1.4,.81-3.37,1.31-5.88,1.54l-1.79-1.14v1.27l2.01,3.87c.7,0,1.5-.09,2.37-.24,.91-.14,1.77-.33,2.67-.57,.89-.24,1.75-.52,2.58-.82,.81-.31,1.5-.63,2.1-.98l3.42,1.99,2.66-1.54v-1.27l-3.56-.8Z"/>
        <path class="cls-50" d="M392.93,302.12c12.45-7.23,32.71-7.24,45.25,0,6.05,3.49,9.17,8.04,9.4,12.62,.23-4.93-2.89-9.9-9.4-13.66-12.54-7.24-32.8-7.23-45.25,0-6.45,3.75-9.51,8.69-9.27,13.6,.21-4.56,3.28-9.08,9.27-12.56Z"/>
        <path class="cls-5" d="M400.48,304.85l2.66-1.54,3.49,2.03c2.29-1.08,4.58-1.76,6.9-2.07l2.01,3.63c-2.17,.17-3.84,.6-5.03,1.28-.74,.43-1.18,.86-1.3,1.33-.13,.45,.03,.81,.45,1.06,.37,.22,.93,.33,1.64,.32,.72-.02,1.47-.13,2.27-.35l2.28-.65c2.56-.72,4.74-1.06,6.53-.99,1.79,.06,3.45,.53,4.96,1.41,.92,.53,1.62,1.07,2.13,1.6,.48,.53,.77,1.1,.85,1.71,.07,.59-.09,1.24-.43,1.93-.35,.71-.93,1.47-1.7,2.31l3.56,2.07-2.66,1.54-3.42-1.99c-.6,.34-1.28,.67-2.1,.98-.83,.3-1.69,.58-2.58,.82-.91,.24-1.77,.42-2.67,.57-.88,.14-1.67,.23-2.37,.24l-2.01-3.87c3.4-.13,5.95-.68,7.67-1.67,.7-.41,1.14-.88,1.29-1.41,.14-.52-.09-.96-.7-1.31-.86-.5-2.09-.49-3.75,0l-2.17,.64c-1.27,.39-2.45,.68-3.5,.87-1.05,.19-2.05,.28-2.97,.25-.92-.03-1.79-.15-2.6-.37-.81-.24-1.62-.58-2.4-1.03-.82-.48-1.49-1.01-2.02-1.59-.51-.59-.84-1.19-.96-1.83-.11-.64,0-1.28,.31-1.94,.33-.66,.94-1.3,1.85-1.94l-3.49-2.03"/>
      </g>
      <g>
        <path class="cls-50" d="M455.55,307.39h-1.12c-1.66-4.06-5.18-7.91-10.66-11.08-15.65-9.03-40.94-9.03-56.48,0-5.45,3.17-8.93,7.02-10.54,11.09h-1.06v5.26c.03,5.93,3.96,11.85,11.79,16.37,15.65,9.03,40.93,9.03,56.48,0,7.77-4.52,11.64-10.44,11.6-16.37h0v-5.26Z"/>
        <path class="cls-5" d="M443.77,291.05c-15.65-9.03-40.94-9.03-56.48,0-15.55,9.03-15.46,23.69,.18,32.72,15.65,9.03,40.93,9.03,56.48,0,15.53-9.03,15.46-23.67-.18-32.71"/>
        <path class="cls-10" d="M438.18,294.3c-12.54-7.24-32.8-7.23-45.25,0-12.46,7.24-12.41,18.98,.13,26.22,12.53,7.23,32.8,7.23,45.26,0,12.45-7.23,12.38-18.98-.15-26.21"/>
        <path class="cls-50" d="M428.17,312.35c.77-.84,1.35-1.61,1.7-2.31,.35-.69,.51-1.34,.43-1.93-.07-.61-.37-1.18-.85-1.71-.51-.53-1.21-1.07-2.13-1.6-1.51-.88-3.16-1.35-4.96-1.41-1.8-.06-3.97,.27-6.53,.99l-2.28,.65c-.8,.23-1.55,.33-2.27,.35-.7,0-1.26-.1-1.64-.32-.42-.24-.57-.61-.45-1.06,.13-.47,.57-.9,1.3-1.33,1.19-.69,2.86-1.11,5.03-1.28v-1.27l-.93-.42-1.07-1.94c-2.31,.31-4.61,.99-6.9,2.07l-3.49-2.03-2.66,.27v1.27l3.49,2.03c-.91,.63-1.52,1.27-1.85,1.94-.3,.66-.41,1.3-.31,1.94,.12,.63,.45,1.24,.96,1.83,.53,.58,1.2,1.11,2.02,1.59,.78,.45,1.59,.8,2.4,1.03,.81,.22,1.68,.34,2.6,.37,.92,.03,1.92-.06,2.97-.25,1.05-.19,2.24-.48,3.5-.87l2.17-.64c1.66-.49,2.89-.5,3.75,0,.61,.35,.84,.8,.7,1.31-.14,.53-.58,1-1.29,1.41-1.4,.81-3.37,1.31-5.88,1.54l-1.79-1.14v1.27l2.01,3.87c.7,0,1.5-.09,2.37-.24,.91-.14,1.77-.33,2.67-.57,.89-.24,1.75-.52,2.58-.82,.81-.31,1.5-.63,2.1-.98l3.42,1.99,2.66-1.54v-1.27l-3.56-.8Z"/>
        <path class="cls-50" d="M392.93,295.34c12.45-7.23,32.71-7.24,45.25,0,6.05,3.49,9.17,8.04,9.4,12.62,.23-4.93-2.89-9.9-9.4-13.66-12.54-7.24-32.8-7.23-45.25,0-6.45,3.75-9.51,8.69-9.27,13.6,.21-4.56,3.28-9.08,9.27-12.56Z"/>
        <path class="cls-5" d="M400.48,298.08l2.66-1.54,3.49,2.03c2.29-1.09,4.58-1.76,6.9-2.07l2.01,3.64c-2.17,.17-3.84,.6-5.03,1.28-.74,.42-1.18,.86-1.3,1.33-.13,.45,.03,.81,.45,1.06,.37,.22,.93,.33,1.64,.32,.72-.02,1.47-.13,2.27-.35l2.28-.65c2.56-.72,4.74-1.06,6.53-.99,1.79,.06,3.45,.53,4.96,1.41,.92,.53,1.62,1.07,2.13,1.6,.48,.53,.77,1.1,.85,1.71,.07,.59-.09,1.24-.43,1.93-.35,.71-.93,1.47-1.7,2.31l3.56,2.07-2.66,1.54-3.42-1.99c-.6,.34-1.28,.67-2.1,.98-.83,.3-1.69,.58-2.58,.82-.91,.24-1.77,.43-2.67,.57-.88,.14-1.67,.23-2.37,.24l-2.01-3.87c3.4-.13,5.95-.68,7.67-1.67,.7-.41,1.14-.88,1.29-1.41,.14-.52-.09-.96-.7-1.31-.86-.5-2.09-.49-3.75,0l-2.17,.64c-1.27,.39-2.45,.68-3.5,.87-1.05,.19-2.05,.28-2.97,.25-.92-.03-1.79-.15-2.6-.37-.81-.24-1.62-.58-2.4-1.03-.82-.48-1.49-1.01-2.02-1.59-.51-.59-.84-1.19-.96-1.83-.11-.64,0-1.28,.31-1.94,.33-.66,.94-1.3,1.85-1.94l-3.49-2.03"/>
      </g>
      <g>
        <path class="cls-50" d="M455.55,300.62h-1.12c-1.66-4.06-5.18-7.91-10.66-11.08-15.65-9.03-40.94-9.03-56.48,0-5.45,3.17-8.93,7.02-10.54,11.09h-1.06v5.26c.03,5.93,3.96,11.85,11.79,16.37,15.65,9.03,40.93,9.03,56.48,0,7.77-4.52,11.64-10.44,11.6-16.37h0v-5.26Z"/>
        <path class="cls-5" d="M443.77,284.27c-15.65-9.03-40.94-9.03-56.48,0-15.55,9.03-15.46,23.69,.18,32.72,15.65,9.03,40.93,9.03,56.48,0,15.53-9.03,15.46-23.67-.18-32.71"/>
        <path class="cls-10" d="M438.18,287.52c-12.54-7.24-32.8-7.23-45.25,0-12.46,7.24-12.41,18.98,.13,26.22,12.53,7.23,32.8,7.23,45.26,0,12.45-7.23,12.38-18.98-.15-26.21"/>
        <path class="cls-50" d="M428.17,305.57c.77-.84,1.35-1.61,1.7-2.31,.35-.69,.51-1.34,.43-1.93-.07-.61-.37-1.18-.85-1.71-.51-.53-1.21-1.07-2.13-1.6-1.51-.88-3.16-1.35-4.96-1.41-1.8-.06-3.97,.27-6.53,.99l-2.28,.65c-.8,.23-1.55,.33-2.27,.35-.7,0-1.26-.1-1.64-.32-.42-.24-.57-.61-.45-1.06,.13-.47,.57-.9,1.3-1.33,1.19-.69,2.86-1.11,5.03-1.28v-1.27l-.93-.42-1.07-1.94c-2.31,.31-4.61,.99-6.9,2.07l-3.49-2.03-2.66,.27v1.27l3.49,2.03c-.91,.63-1.52,1.27-1.85,1.94-.3,.66-.41,1.3-.31,1.94,.12,.63,.45,1.24,.96,1.83,.53,.58,1.2,1.11,2.02,1.59,.78,.45,1.59,.8,2.4,1.03,.81,.22,1.68,.34,2.6,.37,.92,.03,1.92-.06,2.97-.25,1.05-.19,2.24-.48,3.5-.87l2.17-.64c1.66-.49,2.89-.5,3.75,0,.61,.35,.84,.8,.7,1.31-.14,.53-.58,1-1.29,1.41-1.4,.81-3.37,1.31-5.88,1.54l-1.79-1.14v1.27l2.01,3.87c.7,0,1.5-.09,2.37-.24,.91-.14,1.77-.33,2.67-.57,.89-.24,1.75-.52,2.58-.82,.81-.31,1.5-.63,2.1-.98l3.42,1.99,2.66-1.54v-1.27l-3.56-.8Z"/>
        <path class="cls-50" d="M392.93,288.56c12.45-7.23,32.71-7.24,45.25,0,6.05,3.49,9.17,8.04,9.4,12.62,.23-4.93-2.89-9.9-9.4-13.66-12.54-7.24-32.8-7.23-45.25,0-6.45,3.75-9.51,8.69-9.27,13.6,.21-4.56,3.28-9.08,9.27-12.56Z"/>
        <path class="cls-5" d="M400.48,291.3l2.66-1.54,3.49,2.03c2.29-1.09,4.58-1.76,6.9-2.07l2.01,3.64c-2.17,.17-3.84,.6-5.03,1.28-.74,.42-1.18,.86-1.3,1.33-.13,.45,.03,.81,.45,1.06,.37,.22,.93,.33,1.64,.32,.72-.02,1.47-.13,2.27-.35l2.28-.65c2.56-.72,4.74-1.06,6.53-.99,1.79,.06,3.45,.53,4.96,1.41,.92,.53,1.62,1.07,2.13,1.6,.48,.53,.77,1.1,.85,1.71,.07,.59-.09,1.24-.43,1.93-.35,.71-.93,1.47-1.7,2.31l3.56,2.07-2.66,1.54-3.42-1.99c-.6,.34-1.28,.67-2.1,.98-.83,.3-1.69,.58-2.58,.82-.91,.24-1.77,.42-2.67,.57-.88,.14-1.67,.23-2.37,.24l-2.01-3.87c3.4-.13,5.95-.68,7.67-1.67,.7-.41,1.14-.88,1.29-1.41,.14-.52-.09-.96-.7-1.31-.86-.5-2.09-.49-3.75,0l-2.17,.64c-1.27,.39-2.45,.68-3.5,.87-1.05,.19-2.05,.28-2.97,.25-.92-.03-1.79-.15-2.6-.37-.81-.24-1.62-.58-2.4-1.03-.82-.48-1.49-1.01-2.02-1.59-.51-.59-.84-1.19-.96-1.83-.11-.64,0-1.28,.31-1.94,.33-.66,.94-1.3,1.85-1.94l-3.49-2.03"/>
      </g>
      <g>
        <path class="cls-50" d="M455.55,293.84h-1.12c-1.66-4.06-5.18-7.91-10.66-11.08-15.65-9.03-40.94-9.03-56.48,0-5.45,3.17-8.93,7.02-10.54,11.09h-1.06v5.26c.03,5.93,3.96,11.85,11.79,16.37,15.65,9.03,40.93,9.03,56.48,0,7.77-4.52,11.64-10.44,11.6-16.37h0v-5.26Z"/>
        <path class="cls-5" d="M443.77,277.5c-15.65-9.03-40.94-9.03-56.48,0-15.55,9.03-15.46,23.69,.18,32.72,15.65,9.03,40.93,9.03,56.48,0,15.53-9.03,15.46-23.67-.18-32.71"/>
        <path class="cls-10" d="M438.18,280.74c-12.54-7.24-32.8-7.23-45.25,0-12.46,7.24-12.41,18.98,.13,26.22,12.53,7.23,32.8,7.23,45.26,0,12.45-7.23,12.38-18.98-.15-26.21"/>
        <path class="cls-50" d="M428.17,298.8c.77-.84,1.35-1.61,1.7-2.31,.35-.69,.51-1.34,.43-1.93-.07-.61-.37-1.18-.85-1.71-.51-.53-1.21-1.07-2.13-1.6-1.51-.88-3.16-1.35-4.96-1.41-1.8-.06-3.97,.27-6.53,.99l-2.28,.65c-.8,.23-1.55,.33-2.27,.35-.7,0-1.26-.1-1.64-.32-.42-.24-.57-.61-.45-1.06,.13-.47,.57-.9,1.3-1.33,1.19-.69,2.86-1.11,5.03-1.28v-1.27l-.93-.42-1.07-1.94c-2.31,.31-4.61,.99-6.9,2.07l-3.49-2.03-2.66,.27v1.27l3.49,2.03c-.91,.63-1.52,1.27-1.85,1.94-.3,.66-.41,1.3-.31,1.94,.12,.63,.45,1.24,.96,1.83,.53,.58,1.2,1.11,2.02,1.59,.78,.45,1.59,.8,2.4,1.03,.81,.22,1.68,.34,2.6,.37,.92,.03,1.92-.06,2.97-.25,1.05-.19,2.24-.48,3.5-.87l2.17-.64c1.66-.49,2.89-.5,3.75,0,.61,.35,.84,.8,.7,1.31-.14,.53-.58,1-1.29,1.41-1.4,.81-3.37,1.31-5.88,1.54l-1.79-1.14v1.27l2.01,3.87c.7,0,1.5-.09,2.37-.24,.91-.14,1.77-.33,2.67-.57,.89-.24,1.75-.52,2.58-.82,.81-.31,1.5-.63,2.1-.98l3.42,1.99,2.66-1.54v-1.27l-3.56-.8Z"/>
        <path class="cls-50" d="M392.93,281.79c12.45-7.23,32.71-7.24,45.25,0,6.05,3.49,9.17,8.04,9.4,12.62,.23-4.93-2.89-9.9-9.4-13.66-12.54-7.24-32.8-7.23-45.25,0-6.45,3.75-9.51,8.69-9.27,13.6,.21-4.56,3.28-9.08,9.27-12.56Z"/>
        <path class="cls-5" d="M400.48,284.52l2.66-1.54,3.49,2.03c2.29-1.08,4.58-1.76,6.9-2.07l2.01,3.63c-2.17,.17-3.84,.6-5.03,1.28-.74,.43-1.18,.86-1.3,1.33-.13,.45,.03,.81,.45,1.06,.37,.22,.93,.33,1.64,.32,.72-.02,1.47-.13,2.27-.35l2.28-.65c2.56-.72,4.74-1.06,6.53-.99,1.79,.06,3.45,.53,4.96,1.41,.92,.53,1.62,1.07,2.13,1.6,.48,.53,.77,1.1,.85,1.71,.07,.59-.09,1.24-.43,1.93-.35,.71-.93,1.47-1.7,2.31l3.56,2.07-2.66,1.54-3.42-1.99c-.6,.34-1.28,.67-2.1,.98-.83,.3-1.69,.58-2.58,.82-.91,.24-1.77,.42-2.67,.57-.88,.14-1.67,.23-2.37,.24l-2.01-3.87c3.4-.13,5.95-.68,7.67-1.67,.7-.41,1.14-.88,1.29-1.41,.14-.52-.09-.96-.7-1.31-.86-.5-2.09-.49-3.75,0l-2.17,.64c-1.27,.39-2.45,.68-3.5,.87-1.05,.19-2.05,.28-2.97,.25-.92-.03-1.79-.15-2.6-.37-.81-.24-1.62-.58-2.4-1.03-.82-.48-1.49-1.01-2.02-1.59-.51-.59-.84-1.19-.96-1.83-.11-.64,0-1.28,.31-1.94,.33-.66,.94-1.3,1.85-1.94l-3.49-2.03"/>
      </g>
      <g>
        <path class="cls-50" d="M455.55,287.06h-1.12c-1.66-4.06-5.18-7.91-10.66-11.08-15.65-9.03-40.94-9.03-56.48,0-5.45,3.17-8.93,7.02-10.54,11.09h-1.06v5.26c.03,5.93,3.96,11.85,11.79,16.37,15.65,9.03,40.93,9.03,56.48,0,7.77-4.52,11.64-10.44,11.6-16.37h0v-5.26Z"/>
        <path class="cls-5" d="M443.77,270.72c-15.65-9.03-40.94-9.03-56.48,0-15.55,9.03-15.46,23.69,.18,32.72,15.65,9.03,40.93,9.03,56.48,0,15.53-9.03,15.46-23.67-.18-32.71"/>
        <path class="cls-10" d="M438.18,273.97c-12.54-7.24-32.8-7.23-45.25,0-12.46,7.24-12.41,18.98,.13,26.22,12.53,7.23,32.8,7.23,45.26,0,12.45-7.23,12.38-18.98-.15-26.21"/>
        <path class="cls-50" d="M428.17,292.02c.77-.84,1.35-1.61,1.7-2.31,.35-.69,.51-1.34,.43-1.93-.07-.61-.37-1.18-.85-1.71-.51-.53-1.21-1.07-2.13-1.6-1.51-.88-3.16-1.35-4.96-1.41-1.8-.06-3.97,.27-6.53,.99l-2.28,.65c-.8,.23-1.55,.33-2.27,.35-.7,0-1.26-.1-1.64-.32-.42-.24-.57-.61-.45-1.06,.13-.47,.57-.9,1.3-1.33,1.19-.69,2.86-1.11,5.03-1.28v-1.27l-.93-.42-1.07-1.94c-2.31,.31-4.61,.99-6.9,2.07l-3.49-2.03-2.66,.27v1.27l3.49,2.03c-.91,.63-1.52,1.27-1.85,1.94-.3,.66-.41,1.3-.31,1.94,.12,.63,.45,1.24,.96,1.83,.53,.58,1.2,1.11,2.02,1.59,.78,.45,1.59,.8,2.4,1.03,.81,.22,1.68,.34,2.6,.37,.92,.03,1.92-.06,2.97-.25,1.05-.19,2.24-.48,3.5-.87l2.17-.64c1.66-.49,2.89-.5,3.75,0,.61,.35,.84,.8,.7,1.31-.14,.53-.58,1-1.29,1.41-1.4,.81-3.37,1.31-5.88,1.54l-1.79-1.14v1.27l2.01,3.87c.7,0,1.5-.09,2.37-.24,.91-.14,1.77-.33,2.67-.57,.89-.24,1.75-.52,2.58-.82,.81-.31,1.5-.63,2.1-.98l3.42,1.99,2.66-1.54v-1.27l-3.56-.8Z"/>
        <path class="cls-50" d="M392.93,275.01c12.45-7.23,32.71-7.24,45.25,0,6.05,3.49,9.17,8.04,9.4,12.62,.23-4.93-2.89-9.9-9.4-13.66-12.54-7.24-32.8-7.23-45.25,0-6.45,3.75-9.51,8.69-9.27,13.6,.21-4.56,3.28-9.08,9.27-12.56Z"/>
        <path class="cls-5" d="M400.48,277.75l2.66-1.54,3.49,2.03c2.29-1.09,4.58-1.76,6.9-2.07l2.01,3.64c-2.17,.17-3.84,.6-5.03,1.28-.74,.42-1.18,.86-1.3,1.33-.13,.45,.03,.81,.45,1.06,.37,.22,.93,.33,1.64,.32,.72-.02,1.47-.13,2.27-.35l2.28-.65c2.56-.72,4.74-1.06,6.53-.99,1.79,.06,3.45,.53,4.96,1.41,.92,.53,1.62,1.07,2.13,1.6,.48,.53,.77,1.1,.85,1.71,.07,.59-.09,1.24-.43,1.93-.35,.71-.93,1.47-1.7,2.31l3.56,2.07-2.66,1.54-3.42-1.99c-.6,.34-1.28,.67-2.1,.98-.83,.3-1.69,.58-2.58,.82-.91,.24-1.77,.43-2.67,.57-.88,.14-1.67,.23-2.37,.24l-2.01-3.87c3.4-.13,5.95-.68,7.67-1.67,.7-.41,1.14-.88,1.29-1.41,.14-.52-.09-.96-.7-1.31-.86-.5-2.09-.49-3.75,0l-2.17,.64c-1.27,.39-2.45,.68-3.5,.87-1.05,.19-2.05,.28-2.97,.25-.92-.03-1.79-.15-2.6-.37-.81-.24-1.62-.58-2.4-1.03-.82-.48-1.49-1.01-2.02-1.59-.51-.59-.84-1.19-.96-1.83-.11-.64,0-1.28,.31-1.94,.33-.66,.94-1.3,1.85-1.94l-3.49-2.03"/>
      </g>
      <g>
        <path class="cls-50" d="M455.55,280.29h-1.12c-1.66-4.06-5.18-7.91-10.66-11.08-15.65-9.03-40.94-9.03-56.48,0-5.45,3.17-8.93,7.02-10.54,11.09h-1.06v5.26c.03,5.93,3.96,11.85,11.79,16.37,15.65,9.03,40.93,9.03,56.48,0,7.77-4.52,11.64-10.44,11.6-16.37h0v-5.26Z"/>
        <path class="cls-5" d="M443.77,263.94c-15.65-9.03-40.94-9.03-56.48,0-15.55,9.03-15.46,23.69,.18,32.72,15.65,9.03,40.93,9.03,56.48,0,15.53-9.03,15.46-23.67-.18-32.71"/>
        <path class="cls-10" d="M438.18,267.19c-12.54-7.24-32.8-7.23-45.25,0-12.46,7.24-12.41,18.98,.13,26.22,12.53,7.23,32.8,7.23,45.26,0,12.45-7.23,12.38-18.98-.15-26.21"/>
        <path class="cls-50" d="M428.17,285.24c.77-.84,1.35-1.61,1.7-2.31,.35-.69,.51-1.34,.43-1.93-.07-.61-.37-1.18-.85-1.71-.51-.53-1.21-1.07-2.13-1.6-1.51-.88-3.16-1.35-4.96-1.41-1.8-.06-3.97,.27-6.53,.99l-2.28,.65c-.8,.23-1.55,.33-2.27,.35-.7,0-1.26-.1-1.64-.32-.42-.24-.57-.61-.45-1.06,.13-.47,.57-.9,1.3-1.33,1.19-.69,2.86-1.11,5.03-1.28v-1.27l-.93-.42-1.07-1.94c-2.31,.31-4.61,.99-6.9,2.07l-3.49-2.03-2.66,.27v1.27l3.49,2.03c-.91,.63-1.52,1.27-1.85,1.93-.3,.66-.41,1.3-.31,1.94,.12,.63,.45,1.24,.96,1.83,.53,.58,1.2,1.11,2.02,1.59,.78,.45,1.59,.8,2.4,1.03,.81,.22,1.68,.34,2.6,.37,.92,.03,1.92-.06,2.97-.25,1.05-.19,2.24-.48,3.5-.87l2.17-.64c1.66-.49,2.89-.5,3.75,0,.61,.35,.84,.8,.7,1.31-.14,.53-.58,1-1.29,1.41-1.4,.81-3.37,1.31-5.88,1.54l-1.79-1.14v1.27l2.01,3.87c.7,0,1.5-.09,2.37-.24,.91-.14,1.77-.33,2.67-.57,.89-.24,1.75-.52,2.58-.82,.81-.31,1.5-.63,2.1-.98l3.42,1.99,2.66-1.54v-1.27l-3.56-.8Z"/>
        <path class="cls-50" d="M392.93,268.23c12.45-7.23,32.71-7.24,45.25,0,6.05,3.49,9.17,8.04,9.4,12.62,.23-4.93-2.89-9.9-9.4-13.66-12.54-7.24-32.8-7.23-45.25,0-6.45,3.75-9.51,8.69-9.27,13.6,.21-4.56,3.28-9.08,9.27-12.56Z"/>
        <path class="cls-5" d="M400.48,270.97l2.66-1.54,3.49,2.03c2.29-1.09,4.58-1.76,6.9-2.07l2.01,3.64c-2.17,.17-3.84,.6-5.03,1.28-.74,.42-1.18,.86-1.3,1.33-.13,.45,.03,.81,.45,1.06,.37,.22,.93,.33,1.64,.32,.72-.02,1.47-.13,2.27-.35l2.28-.65c2.56-.72,4.74-1.06,6.53-.99,1.79,.06,3.45,.53,4.96,1.41,.92,.53,1.62,1.07,2.13,1.6,.48,.53,.77,1.1,.85,1.71,.07,.59-.09,1.24-.43,1.93-.35,.71-.93,1.47-1.7,2.31l3.56,2.07-2.66,1.54-3.42-1.99c-.6,.34-1.28,.67-2.1,.98-.83,.3-1.69,.58-2.58,.82-.91,.24-1.77,.42-2.67,.57-.88,.14-1.67,.23-2.37,.24l-2.01-3.87c3.4-.13,5.95-.68,7.67-1.67,.7-.41,1.14-.88,1.29-1.41,.14-.52-.09-.96-.7-1.31-.86-.5-2.09-.49-3.75,0l-2.17,.64c-1.27,.39-2.45,.68-3.5,.87-1.05,.19-2.05,.28-2.97,.25-.92-.03-1.79-.15-2.6-.37-.81-.24-1.62-.58-2.4-1.03-.82-.48-1.49-1.01-2.02-1.59-.51-.59-.84-1.19-.96-1.83-.11-.64,0-1.28,.31-1.94,.33-.66,.94-1.3,1.85-1.94l-3.49-2.03"/>
      </g>
      <g>
        <path class="cls-50" d="M455.55,273.51h-1.12c-1.66-4.06-5.18-7.91-10.66-11.08-15.65-9.03-40.94-9.03-56.48,0-5.45,3.17-8.93,7.02-10.54,11.09h-1.06v5.26c.03,5.93,3.96,11.85,11.79,16.37,15.65,9.03,40.93,9.03,56.48,0,7.77-4.52,11.64-10.44,11.6-16.37h0v-5.26Z"/>
        <path class="cls-5" d="M443.77,257.16c-15.65-9.03-40.94-9.03-56.48,0-15.55,9.03-15.46,23.69,.18,32.72,15.65,9.03,40.93,9.03,56.48,0,15.53-9.03,15.46-23.67-.18-32.71"/>
        <path class="cls-10" d="M438.18,260.41c-12.54-7.24-32.8-7.23-45.25,0-12.46,7.24-12.41,18.98,.13,26.22,12.53,7.23,32.8,7.23,45.26,0,12.45-7.23,12.38-18.98-.15-26.21"/>
        <path class="cls-50" d="M428.17,278.46c.77-.84,1.35-1.61,1.7-2.31,.35-.69,.51-1.34,.43-1.93-.07-.61-.37-1.18-.85-1.71-.51-.53-1.21-1.07-2.13-1.6-1.51-.88-3.16-1.35-4.96-1.41-1.8-.06-3.97,.27-6.53,.99l-2.28,.65c-.8,.23-1.55,.33-2.27,.35-.7,0-1.26-.1-1.64-.32-.42-.24-.57-.61-.45-1.06,.13-.47,.57-.9,1.3-1.33,1.19-.69,2.86-1.11,5.03-1.28v-1.27l-.93-.42-1.07-1.94c-2.31,.31-4.61,.99-6.9,2.07l-3.49-2.03-2.66,.27v1.27l3.49,2.03c-.91,.63-1.52,1.27-1.85,1.94-.3,.66-.41,1.3-.31,1.94,.12,.63,.45,1.24,.96,1.83,.53,.58,1.2,1.11,2.02,1.59,.78,.45,1.59,.8,2.4,1.03,.81,.22,1.68,.34,2.6,.37,.92,.03,1.92-.06,2.97-.25,1.05-.19,2.24-.48,3.5-.87l2.17-.64c1.66-.49,2.89-.5,3.75,0,.61,.35,.84,.8,.7,1.31-.14,.53-.58,1-1.29,1.41-1.4,.81-3.37,1.31-5.88,1.54l-1.79-1.14v1.27l2.01,3.87c.7,0,1.5-.09,2.37-.24,.91-.14,1.77-.33,2.67-.57,.89-.24,1.75-.52,2.58-.82,.81-.31,1.5-.63,2.1-.98l3.42,1.99,2.66-1.54v-1.27l-3.56-.8Z"/>
        <path class="cls-50" d="M392.93,261.46c12.45-7.23,32.71-7.24,45.25,0,6.05,3.49,9.17,8.04,9.4,12.62,.23-4.93-2.89-9.9-9.4-13.66-12.54-7.24-32.8-7.23-45.25,0-6.45,3.75-9.51,8.69-9.27,13.6,.21-4.56,3.28-9.08,9.27-12.56Z"/>
        <path class="cls-5" d="M400.48,264.19l2.66-1.54,3.49,2.03c2.29-1.08,4.58-1.76,6.9-2.07l2.01,3.63c-2.17,.17-3.84,.6-5.03,1.28-.74,.43-1.18,.86-1.3,1.33-.13,.45,.03,.81,.45,1.06,.37,.22,.93,.33,1.64,.32,.72-.02,1.47-.13,2.27-.35l2.28-.65c2.56-.72,4.74-1.06,6.53-.99,1.79,.06,3.45,.53,4.96,1.41,.92,.53,1.62,1.07,2.13,1.6,.48,.53,.77,1.1,.85,1.71,.07,.59-.09,1.24-.43,1.93-.35,.71-.93,1.47-1.7,2.31l3.56,2.07-2.66,1.54-3.42-1.99c-.6,.34-1.28,.67-2.1,.98-.83,.3-1.69,.58-2.58,.82-.91,.24-1.77,.42-2.67,.57-.88,.14-1.67,.23-2.37,.24l-2.01-3.87c3.4-.13,5.95-.68,7.67-1.67,.7-.41,1.14-.88,1.29-1.41,.14-.52-.09-.96-.7-1.31-.86-.5-2.09-.49-3.75,0l-2.17,.64c-1.27,.39-2.45,.68-3.5,.87-1.05,.19-2.05,.28-2.97,.25-.92-.03-1.79-.15-2.6-.37-.81-.24-1.62-.58-2.4-1.03-.82-.48-1.49-1.01-2.02-1.59-.51-.59-.84-1.19-.96-1.83-.11-.64,0-1.28,.31-1.94,.33-.66,.94-1.3,1.85-1.94l-3.49-2.03"/>
      </g>
      <g>
        <path class="cls-50" d="M455.55,266.73h-1.12c-1.66-4.06-5.18-7.91-10.66-11.08-15.65-9.03-40.94-9.03-56.48,0-5.45,3.17-8.93,7.02-10.54,11.09h-1.06v5.26c.03,5.93,3.96,11.85,11.79,16.37,15.65,9.03,40.93,9.03,56.48,0,7.77-4.52,11.64-10.44,11.6-16.37h0v-5.26Z"/>
        <path class="cls-5" d="M443.77,250.39c-15.65-9.03-40.94-9.03-56.48,0-15.55,9.03-15.46,23.69,.18,32.72,15.65,9.03,40.93,9.03,56.48,0,15.53-9.03,15.46-23.67-.18-32.71"/>
        <path class="cls-10" d="M438.18,253.64c-12.54-7.24-32.8-7.23-45.25,0-12.46,7.24-12.41,18.98,.13,26.22,12.53,7.23,32.8,7.23,45.26,0,12.45-7.23,12.38-18.98-.15-26.21"/>
        <path class="cls-50" d="M428.17,271.69c.77-.84,1.35-1.61,1.7-2.31,.35-.69,.51-1.34,.43-1.93-.07-.61-.37-1.18-.85-1.71-.51-.53-1.21-1.07-2.13-1.6-1.51-.88-3.16-1.35-4.96-1.41-1.8-.06-3.97,.27-6.53,.99l-2.28,.65c-.8,.23-1.55,.33-2.27,.35-.7,0-1.26-.1-1.64-.32-.42-.24-.57-.61-.45-1.06,.13-.47,.57-.9,1.3-1.33,1.19-.69,2.86-1.11,5.03-1.28v-1.27l-.93-.42-1.07-1.94c-2.31,.31-4.61,.99-6.9,2.07l-3.49-2.03-2.66,.27v1.27l3.49,2.03c-.91,.63-1.52,1.27-1.85,1.94-.3,.66-.41,1.3-.31,1.94,.12,.63,.45,1.24,.96,1.83,.53,.58,1.2,1.11,2.02,1.59,.78,.45,1.59,.8,2.4,1.03,.81,.22,1.68,.34,2.6,.37,.92,.03,1.92-.06,2.97-.25,1.05-.19,2.24-.48,3.5-.87l2.17-.64c1.66-.49,2.89-.5,3.75,0,.61,.35,.84,.8,.7,1.31-.14,.53-.58,1-1.29,1.41-1.4,.81-3.37,1.31-5.88,1.54l-1.79-1.14v1.27l2.01,3.87c.7,0,1.5-.09,2.37-.24,.91-.14,1.77-.33,2.67-.57,.89-.24,1.75-.52,2.58-.82,.81-.31,1.5-.63,2.1-.98l3.42,1.99,2.66-1.54v-1.27l-3.56-.8Z"/>
        <path class="cls-50" d="M392.93,254.68c12.45-7.23,32.71-7.24,45.25,0,6.05,3.49,9.17,8.04,9.4,12.62,.23-4.93-2.89-9.9-9.4-13.66-12.54-7.24-32.8-7.23-45.25,0-6.45,3.75-9.51,8.69-9.27,13.6,.21-4.56,3.28-9.08,9.27-12.56Z"/>
        <path class="cls-5" d="M400.48,257.42l2.66-1.54,3.49,2.03c2.29-1.09,4.58-1.76,6.9-2.07l2.01,3.64c-2.17,.17-3.84,.6-5.03,1.28-.74,.42-1.18,.86-1.3,1.33-.13,.45,.03,.81,.45,1.06,.37,.22,.93,.33,1.64,.32,.72-.02,1.47-.13,2.27-.35l2.28-.65c2.56-.72,4.74-1.06,6.53-.99,1.79,.06,3.45,.53,4.96,1.41,.92,.53,1.62,1.07,2.13,1.6,.48,.53,.77,1.1,.85,1.71,.07,.59-.09,1.24-.43,1.93-.35,.71-.93,1.47-1.7,2.31l3.56,2.07-2.66,1.54-3.42-1.99c-.6,.34-1.28,.67-2.1,.98-.83,.3-1.69,.58-2.58,.82-.91,.24-1.77,.43-2.67,.57-.88,.14-1.67,.23-2.37,.24l-2.01-3.87c3.4-.13,5.95-.68,7.67-1.67,.7-.41,1.14-.88,1.29-1.41,.14-.52-.09-.96-.7-1.31-.86-.5-2.09-.49-3.75,0l-2.17,.64c-1.27,.39-2.45,.68-3.5,.87-1.05,.19-2.05,.28-2.97,.25-.92-.03-1.79-.15-2.6-.37-.81-.24-1.62-.58-2.4-1.03-.82-.48-1.49-1.01-2.02-1.59-.51-.59-.84-1.19-.96-1.83-.11-.64,0-1.28,.31-1.94,.33-.66,.94-1.3,1.85-1.94l-3.49-2.03"/>
      </g>
      <g>
        <path class="cls-50" d="M455.55,259.96h-1.12c-1.66-4.06-5.18-7.91-10.66-11.08-15.65-9.03-40.94-9.03-56.48,0-5.45,3.17-8.93,7.02-10.54,11.09h-1.06v5.26c.03,5.93,3.96,11.85,11.79,16.37,15.65,9.03,40.93,9.03,56.48,0,7.77-4.52,11.64-10.44,11.6-16.37h0v-5.26Z"/>
        <path class="cls-5" d="M443.77,243.61c-15.65-9.03-40.94-9.03-56.48,0-15.55,9.03-15.46,23.69,.18,32.72,15.65,9.03,40.93,9.03,56.48,0,15.53-9.03,15.46-23.67-.18-32.71"/>
        <path class="cls-10" d="M438.18,246.86c-12.54-7.24-32.8-7.23-45.25,0-12.46,7.24-12.41,18.98,.13,26.22,12.53,7.23,32.8,7.23,45.26,0,12.45-7.23,12.38-18.98-.15-26.21"/>
        <path class="cls-50" d="M428.17,264.91c.77-.84,1.35-1.61,1.7-2.31,.35-.69,.51-1.34,.43-1.93-.07-.61-.37-1.18-.85-1.71-.51-.53-1.21-1.07-2.13-1.6-1.51-.88-3.16-1.35-4.96-1.41-1.8-.06-3.97,.27-6.53,.99l-2.28,.65c-.8,.23-1.55,.33-2.27,.35-.7,0-1.26-.1-1.64-.32-.42-.24-.57-.61-.45-1.06,.13-.47,.57-.9,1.3-1.33,1.19-.69,2.86-1.11,5.03-1.28v-1.27l-.93-.42-1.07-1.94c-2.31,.31-4.61,.99-6.9,2.07l-3.49-2.03-2.66,.27v1.27l3.49,2.03c-.91,.63-1.52,1.27-1.85,1.94-.3,.66-.41,1.3-.31,1.94,.12,.63,.45,1.24,.96,1.83,.53,.58,1.2,1.11,2.02,1.59,.78,.45,1.59,.8,2.4,1.03,.81,.22,1.68,.34,2.6,.37,.92,.03,1.92-.06,2.97-.25,1.05-.19,2.24-.48,3.5-.87l2.17-.64c1.66-.49,2.89-.5,3.75,0,.61,.35,.84,.8,.7,1.31-.14,.53-.58,1-1.29,1.41-1.4,.81-3.37,1.31-5.88,1.54l-1.79-1.14v1.27l2.01,3.87c.7,0,1.5-.09,2.37-.24,.91-.14,1.77-.33,2.67-.57,.89-.24,1.75-.52,2.58-.82,.81-.31,1.5-.63,2.1-.98l3.42,1.99,2.66-1.54v-1.27l-3.56-.8Z"/>
        <path class="cls-50" d="M392.93,247.9c12.45-7.23,32.71-7.24,45.25,0,6.05,3.49,9.17,8.04,9.4,12.62,.23-4.93-2.89-9.9-9.4-13.66-12.54-7.24-32.8-7.23-45.25,0-6.45,3.75-9.51,8.69-9.27,13.6,.21-4.56,3.28-9.08,9.27-12.56Z"/>
        <path class="cls-5" d="M400.48,250.64l2.66-1.54,3.49,2.03c2.29-1.09,4.58-1.76,6.9-2.07l2.01,3.63c-2.17,.17-3.84,.6-5.03,1.28-.74,.42-1.18,.86-1.3,1.33-.13,.45,.03,.81,.45,1.06,.37,.22,.93,.33,1.64,.32,.72-.02,1.47-.13,2.27-.35l2.28-.65c2.56-.72,4.74-1.06,6.53-.99,1.79,.06,3.45,.53,4.96,1.41,.92,.53,1.62,1.07,2.13,1.6,.48,.53,.77,1.1,.85,1.71,.07,.59-.09,1.24-.43,1.93-.35,.71-.93,1.47-1.7,2.31l3.56,2.07-2.66,1.54-3.42-1.99c-.6,.34-1.28,.67-2.1,.98-.83,.3-1.69,.58-2.58,.82-.91,.24-1.77,.42-2.67,.57-.88,.14-1.67,.23-2.37,.24l-2.01-3.87c3.4-.13,5.95-.68,7.67-1.67,.7-.41,1.14-.88,1.29-1.41,.14-.52-.09-.96-.7-1.31-.86-.5-2.09-.49-3.75,0l-2.17,.64c-1.27,.39-2.45,.68-3.5,.87-1.05,.19-2.05,.28-2.97,.25-.92-.03-1.79-.15-2.6-.37-.81-.24-1.62-.58-2.4-1.03-.82-.48-1.49-1.01-2.02-1.59-.51-.59-.84-1.19-.96-1.83-.11-.64,0-1.28,.31-1.94,.33-.66,.94-1.3,1.85-1.94l-3.49-2.03"/>
      </g>
      <g>
        <path class="cls-50" d="M455.55,253.18h-1.12c-1.66-4.06-5.18-7.91-10.66-11.08-15.65-9.03-40.94-9.03-56.48,0-5.45,3.17-8.93,7.02-10.54,11.09h-1.06v5.26c.03,5.93,3.96,11.85,11.79,16.37,15.65,9.03,40.93,9.03,56.48,0,7.77-4.52,11.64-10.44,11.6-16.37h0v-5.26Z"/>
        <path class="cls-5" d="M443.77,236.83c-15.65-9.03-40.94-9.03-56.48,0-15.55,9.03-15.46,23.69,.18,32.72,15.65,9.03,40.93,9.03,56.48,0,15.53-9.03,15.46-23.67-.18-32.71"/>
        <path class="cls-10" d="M438.18,240.08c-12.54-7.24-32.8-7.23-45.25,0-12.46,7.24-12.41,18.98,.13,26.22,12.53,7.23,32.8,7.23,45.26,0,12.45-7.23,12.38-18.98-.15-26.21"/>
        <path class="cls-50" d="M428.17,258.13c.77-.84,1.35-1.61,1.7-2.31,.35-.69,.51-1.34,.43-1.93-.07-.61-.37-1.18-.85-1.71-.51-.53-1.21-1.07-2.13-1.6-1.51-.88-3.16-1.35-4.96-1.41-1.8-.06-3.97,.27-6.53,.99l-2.28,.65c-.8,.23-1.55,.33-2.27,.35-.7,0-1.26-.1-1.64-.32-.42-.24-.57-.61-.45-1.06,.13-.47,.57-.9,1.3-1.33,1.19-.69,2.86-1.11,5.03-1.28v-1.27l-.93-.42-1.07-1.94c-2.31,.31-4.61,.99-6.9,2.07l-3.49-2.03-2.66,.27v1.27l3.49,2.03c-.91,.63-1.52,1.27-1.85,1.94-.3,.66-.41,1.3-.31,1.94,.12,.63,.45,1.24,.96,1.83,.53,.58,1.2,1.11,2.02,1.59,.78,.45,1.59,.8,2.4,1.03,.81,.22,1.68,.34,2.6,.37,.92,.03,1.92-.06,2.97-.25,1.05-.19,2.24-.48,3.5-.87l2.17-.64c1.66-.49,2.89-.5,3.75,0,.61,.35,.84,.8,.7,1.31-.14,.53-.58,1-1.29,1.41-1.4,.81-3.37,1.31-5.88,1.54l-1.79-1.14v1.27l2.01,3.87c.7,0,1.5-.09,2.37-.24,.91-.14,1.77-.33,2.67-.57,.89-.24,1.75-.52,2.58-.82,.81-.31,1.5-.63,2.1-.98l3.42,1.99,2.66-1.54v-1.27l-3.56-.8Z"/>
        <path class="cls-50" d="M392.93,241.13c12.45-7.23,32.71-7.24,45.25,0,6.05,3.49,9.17,8.04,9.4,12.62,.23-4.93-2.89-9.9-9.4-13.66-12.54-7.24-32.8-7.23-45.25,0-6.45,3.75-9.51,8.69-9.27,13.6,.21-4.56,3.28-9.08,9.27-12.56Z"/>
        <path class="cls-5" d="M400.48,243.86l2.66-1.54,3.49,2.03c2.29-1.09,4.58-1.76,6.9-2.07l2.01,3.63c-2.17,.17-3.84,.6-5.03,1.28-.74,.42-1.18,.86-1.3,1.33-.13,.45,.03,.81,.45,1.06,.37,.22,.93,.33,1.64,.32,.72-.02,1.47-.13,2.27-.35l2.28-.65c2.56-.72,4.74-1.06,6.53-.99,1.79,.06,3.45,.53,4.96,1.41,.92,.53,1.62,1.07,2.13,1.6,.48,.53,.77,1.1,.85,1.71,.07,.59-.09,1.24-.43,1.93-.35,.71-.93,1.47-1.7,2.31l3.56,2.07-2.66,1.54-3.42-1.99c-.6,.34-1.28,.67-2.1,.98-.83,.3-1.69,.58-2.58,.82-.91,.24-1.77,.42-2.67,.57-.88,.14-1.67,.23-2.37,.24l-2.01-3.87c3.4-.13,5.95-.68,7.67-1.67,.7-.41,1.14-.88,1.29-1.41,.14-.52-.09-.96-.7-1.31-.86-.5-2.09-.49-3.75,0l-2.17,.64c-1.27,.39-2.45,.68-3.5,.87-1.05,.19-2.05,.28-2.97,.25-.92-.03-1.79-.15-2.6-.37-.81-.24-1.62-.58-2.4-1.03-.82-.48-1.49-1.01-2.02-1.59-.51-.59-.84-1.19-.96-1.83-.11-.64,0-1.28,.31-1.94,.33-.66,.94-1.3,1.85-1.93l-3.49-2.03"/>
      </g>
      <g>
        <path class="cls-50" d="M455.55,246.4h-1.12c-1.66-4.06-5.18-7.91-10.66-11.08-15.65-9.03-40.94-9.03-56.48,0-5.45,3.17-8.93,7.02-10.54,11.09h-1.06v5.26c.03,5.93,3.96,11.85,11.79,16.37,15.65,9.03,40.93,9.03,56.48,0,7.77-4.52,11.64-10.44,11.6-16.37h0v-5.26Z"/>
        <path class="cls-5" d="M443.77,230.06c-15.65-9.03-40.94-9.03-56.48,0-15.55,9.03-15.46,23.69,.18,32.72,15.65,9.03,40.93,9.03,56.48,0,15.53-9.03,15.46-23.67-.18-32.71"/>
        <path class="cls-10" d="M438.18,233.31c-12.54-7.24-32.8-7.23-45.25,0-12.46,7.24-12.41,18.98,.13,26.22,12.53,7.23,32.8,7.23,45.26,0,12.45-7.23,12.38-18.98-.15-26.21"/>
        <path class="cls-50" d="M428.17,251.36c.77-.84,1.35-1.61,1.7-2.31,.35-.69,.51-1.34,.43-1.93-.07-.61-.37-1.18-.85-1.71-.51-.53-1.21-1.07-2.13-1.6-1.51-.88-3.16-1.35-4.96-1.41-1.8-.06-3.97,.27-6.53,.99l-2.28,.65c-.8,.23-1.55,.33-2.27,.35-.7,0-1.26-.1-1.64-.32-.42-.24-.57-.61-.45-1.06,.13-.47,.57-.9,1.3-1.33,1.19-.69,2.86-1.11,5.03-1.28v-1.27l-.93-.42-1.07-1.94c-2.31,.31-4.61,.99-6.9,2.07l-3.49-2.03-2.66,.27v1.27l3.49,2.03c-.91,.63-1.52,1.27-1.85,1.94-.3,.66-.41,1.3-.31,1.94,.12,.63,.45,1.24,.96,1.83,.53,.58,1.2,1.11,2.02,1.59,.78,.45,1.59,.8,2.4,1.03,.81,.22,1.68,.34,2.6,.37,.92,.03,1.92-.06,2.97-.25,1.05-.19,2.24-.48,3.5-.87l2.17-.64c1.66-.49,2.89-.5,3.75,0,.61,.35,.84,.8,.7,1.31-.14,.53-.58,1-1.29,1.41-1.4,.81-3.37,1.31-5.88,1.54l-1.79-1.14v1.27l2.01,3.87c.7,0,1.5-.09,2.37-.24,.91-.14,1.77-.33,2.67-.57,.89-.24,1.75-.52,2.58-.82,.81-.31,1.5-.63,2.1-.98l3.42,1.99,2.66-1.54v-1.27l-3.56-.8Z"/>
        <path class="cls-50" d="M392.93,234.35c12.45-7.23,32.71-7.24,45.25,0,6.05,3.49,9.17,8.04,9.4,12.62,.23-4.93-2.89-9.9-9.4-13.66-12.54-7.24-32.8-7.23-45.25,0-6.45,3.75-9.51,8.69-9.27,13.6,.21-4.56,3.28-9.08,9.27-12.56Z"/>
        <path class="cls-5" d="M400.48,237.09l2.66-1.54,3.49,2.03c2.29-1.08,4.58-1.76,6.9-2.07l2.01,3.64c-2.17,.17-3.84,.6-5.03,1.28-.74,.42-1.18,.86-1.3,1.33-.13,.45,.03,.81,.45,1.06,.37,.22,.93,.33,1.64,.32,.72-.02,1.47-.13,2.27-.35l2.28-.65c2.56-.72,4.74-1.06,6.53-.99,1.79,.06,3.45,.53,4.96,1.41,.92,.53,1.62,1.07,2.13,1.6,.48,.53,.77,1.1,.85,1.71,.07,.59-.09,1.24-.43,1.93-.35,.71-.93,1.47-1.7,2.31l3.56,2.07-2.66,1.54-3.42-1.99c-.6,.34-1.28,.67-2.1,.98-.83,.3-1.69,.58-2.58,.82-.91,.24-1.77,.43-2.67,.57-.88,.14-1.67,.23-2.37,.24l-2.01-3.87c3.4-.13,5.95-.68,7.67-1.67,.7-.41,1.14-.88,1.29-1.41,.14-.52-.09-.96-.7-1.31-.86-.5-2.09-.49-3.75,0l-2.17,.64c-1.27,.39-2.45,.68-3.5,.87-1.05,.19-2.05,.28-2.97,.25-.92-.03-1.79-.15-2.6-.37-.81-.24-1.62-.58-2.4-1.03-.82-.48-1.49-1.01-2.02-1.59-.51-.59-.84-1.19-.96-1.83-.11-.64,0-1.28,.31-1.94,.33-.66,.94-1.3,1.85-1.94l-3.49-2.03"/>
      </g>
    </g>
  </g>
  <path class="cls-14" d="M196.66,22.2c-38.1,22-68.87,75.29-68.74,119.07s31.09,61.48,69.19,39.48c38.1-22,68.91-75.36,68.78-119.14-.12-43.78-31.13-61.41-69.23-39.41"/>
  <g>
    <polyline class="cls-43" points="88.94 121.88 50.81 224.47 61.86 231.56 70.77 212.94 71.01 332.24 82.06 339.33 107.82 310.99 107.58 191.69 127.54 180.17 99.99 128.97 88.94 121.88"/>
    <polyline class="cls-58" points="99.99 128.97 61.86 231.56 81.82 220.04 82.06 339.33 118.87 318.08 118.62 198.79 138.59 187.26 99.99 128.97"/>
  </g>
  <ellipse class="cls-46" cx="235.37" cy="438.08" rx="23.13" ry="46.31" transform="translate(-252.1 536.49) rotate(-73.16)"/>
  <ellipse class="cls-29" cx="349.75" cy="408.44" rx="52.13" ry="26.03" transform="translate(-103.3 118.8) rotate(-16.84)"/>
  <g>
    <g>
      <path class="cls-52" d="M378.89,183.08c0,2.2-1.86,3.99-4.16,3.99s-4.16-1.79-4.16-3.99,1.86-3.99,4.16-3.99,4.16,1.79,4.16,3.99Z"/>
      <path class="cls-21" d="M381.16,168.88c-3.54-2.04-9.32-2.04-12.86,0-1.77,1.02-2.65,2.37-2.65,3.71h0v7.13h0c0,1.35,.88,2.69,2.65,3.71,3.54,2.04,9.32,2.04,12.86,0,1.77-1.02,2.65-2.37,2.65-3.71h0v-7.13h0c0-1.35-.88-2.69-2.65-3.71Z"/>
    </g>
    <path class="cls-30" d="M374.73,136.5c-8.25,0-14.94,6.69-14.94,14.94,0,9.08,4.56,11.26,5.86,21.15,.18,1.33,.88,2.69,2.65,3.71,1.77,1.02,4.1,1.53,6.43,1.53s4.66-.51,6.43-1.53c1.77-1.02,2.48-2.38,2.65-3.71,1.3-9.89,5.86-12.07,5.86-21.15,0-8.25-6.69-14.94-14.94-14.94Z"/>
    <path class="cls-10" d="M368.3,176.3c-3.54-2.04-3.54-5.38,0-7.42,3.54-2.04,9.32-2.04,12.86,0s3.54,5.38,0,7.42c-3.54,2.04-9.32,2.04-12.86,0Z"/>
    <path class="cls-40" d="M369.92,175.37c-2.65-1.53-2.65-4.03,0-5.56,2.65-1.53,6.98-1.53,9.62,0,2.65,1.53,2.65,4.03,0,5.56-2.65,1.53-6.98,1.53-9.62,0Z"/>
    <path class="cls-27" d="M379.16,155.37c0-.86-.59-1.56-1.31-1.56-.43,0-.8,.25-1.04,.62-.24-.38-.61-.62-1.04-.62s-.8,.25-1.04,.62c-.24-.38-.61-.62-1.04-.62s-.8,.25-1.04,.62c-.24-.38-.61-.62-1.04-.62-.72,0-1.31,.7-1.31,1.56"/>
    <g>
      <line class="cls-28" x1="374.55" y1="130.38" x2="374.55" y2="121.27"/>
      <line class="cls-28" x1="364.45" y1="133.24" x2="359.89" y2="125.35"/>
      <g>
        <line class="cls-28" x1="357.13" y1="140.77" x2="349.24" y2="136.21"/>
        <line class="cls-28" x1="399.96" y1="165.49" x2="392.06" y2="160.94"/>
      </g>
      <g>
        <line class="cls-28" x1="354.56" y1="150.95" x2="345.45" y2="150.95"/>
        <line class="cls-28" x1="404.01" y1="150.95" x2="394.9" y2="150.95"/>
      </g>
      <g>
        <line class="cls-28" x1="357.42" y1="161.05" x2="349.53" y2="165.6"/>
        <line class="cls-28" x1="400.24" y1="136.32" x2="392.35" y2="140.88"/>
      </g>
      <line class="cls-28" x1="389.67" y1="125.54" x2="385.12" y2="133.43"/>
    </g>
  </g>
  <path class="cls-59" d="M309.96,7.18c-7.27,4.19-13.36,13.31-15.26,22.05-1.54-.25-3.36,.15-5.31,1.28-5.23,3.02-9.5,10.17-9.82,16.29l-4.16,2.4c-4.51,2.6-8.15,8.9-8.13,14.08,.01,5.17,3.68,7.27,8.18,4.66l56.76-32.77c4.51-2.6,8.15-8.92,8.13-14.08-.01-5.18-3.68-7.27-8.18-4.66l-.37,.21c.04-.39,.08-.78,.08-1.16-.01-4.43-3.01-6.34-6.79-4.5-2.14-6.04-8.1-7.85-15.13-3.79"/>
  <polygon class="cls-60" points="336.65 299.24 149.9 413.16 145.45 410.56 145.45 155.15 336.65 43.83 341.1 46.42 336.65 299.24"/>
  <g>
    <path class="cls-12" d="M196.88,354.91L51.46,438s-3.54-55.76,6.55-69.08c10.09-13.32,18.71-1.4,24.3-19.34,8.01-25.73,6.46-70.08,20.07-80.1s12.11,35.27,22.02,44c9.91,8.73,20.89-39.71,31.75-31.87,10.86,7.84,2.93,64.54,15.49,53.74,27.11-23.31,25.25,19.57,25.25,19.57Z"/>
    <line class="cls-25" x1="102.3" y1="283.74" x2="108.71" y2="405.29"/>
    <line class="cls-25" x1="94.7" y1="314.15" x2="104.69" y2="329.03"/>
    <line class="cls-25" x1="121.44" y1="317.65" x2="107.44" y2="381.3"/>
    <line class="cls-25" x1="66.34" y1="378.9" x2="82.25" y2="420.4"/>
    <line class="cls-25" x1="83.91" y1="356.85" x2="76.46" y2="405.3"/>
    <line class="cls-25" x1="58.69" y1="390.06" x2="71.67" y2="392.82"/>
    <line class="cls-25" x1="152.24" y1="303.84" x2="142.37" y2="386.06"/>
    <line class="cls-25" x1="144.41" y1="309.89" x2="149.46" y2="326.98"/>
    <polyline class="cls-25" points="130.42 340.35 143.96 372.77 157.43 344.99"/>
  </g>
  <g>
    <polygon class="cls-6" points="341.1 301.83 149.9 413.16 149.9 157.75 341.1 46.42 341.1 301.83"/>
    <polygon class="cls-33" points="341.1 301.83 149.9 413.16 149.9 256.4 341.1 145.08 341.1 301.83"/>
    <polygon class="cls-3" points="341.1 301.83 149.9 413.16 149.9 375.35 341.1 264.02 341.1 301.83"/>
    <g>
      <g>
        <path class="cls-2" d="M204.26,150.4c-17.62,10.26-31.9,32.85-31.9,50.47s14.28,23.58,31.9,13.33c17.62-10.26,31.9-32.85,31.9-50.47s-14.28-23.58-31.9-13.33Zm0,37.88c-3.3,1.92-5.98,.8-5.98-2.5s2.68-7.54,5.98-9.46c3.3-1.92,5.98-.8,5.98,2.5s-2.68,7.54-5.98,9.46Z"/>
        <path class="cls-17" d="M204.26,150.4h0v25.92h0c3.14-1.83,5.68-.88,5.93,2.04l25.83-17.14c-1.32-15.64-15.02-20.57-31.77-10.82Z"/>
        <path class="cls-9" d="M231.06,183.94c3.21-6.84,5.09-13.85,5.09-20.21,0-1.73-.18-3.32-.44-4.82l-25.57,19.02c.05,.28,.1,.57,.1,.9,0,1.19-.36,2.51-.96,3.79l21.79,1.33Z"/>
        <path class="cls-31" d="M231.08,183.9l-21.8-1.3c-.54,1.15-1.29,2.27-2.17,3.26l12.45,15.52c4.69-5.3,8.64-11.32,11.52-17.48Z"/>
        <path class="cls-44" d="M207.59,185.33c-.95,1.19-2.1,2.23-3.33,2.95-3.3,1.92-5.98,.8-5.98-2.5,0-1.07,.3-2.24,.8-3.4l-22.57,.38c-2.63,6.17-4.15,12.4-4.15,18.1,0,17.62,14.28,23.58,31.9,13.33,6.58-3.83,12.68-9.38,17.76-15.74l-14.43-13.13Z"/>
      </g>
      <g>
        <g>
          <polygon class="cls-2" points="269.98 170.98 264.47 174.19 264.47 154.42 269.98 151.22 269.98 170.98"/>
          <polygon class="cls-9" points="281.19 164.46 275.68 167.66 275.68 138.07 281.19 134.87 281.19 164.46"/>
          <polygon class="cls-31" points="292.4 157.93 286.89 161.13 286.89 150.41 292.4 147.21 292.4 157.93"/>
          <polygon class="cls-17" points="303.61 151.4 298.1 154.61 298.1 116.78 303.61 113.58 303.61 151.4"/>
          <polygon class="cls-44" points="314.82 144.88 309.31 148.08 309.31 94.18 314.82 90.98 314.82 144.88"/>
        </g>
        <polyline class="cls-23" points="257.98 177.97 318.65 142.64 318.65 78.32"/>
      </g>
    </g>
    <g>
      <g>
        <path class="cls-44" d="M180.92,255.78c0,2.93-2.38,6.7-5.31,8.41-2.93,1.71-5.31,.71-5.31-2.22s2.38-6.7,5.31-8.41c2.93-1.71,5.31-.71,5.31,2.22Z"/>
        <path class="cls-53" d="M239.68,224.23l-50.25,29.25c-1.47,.85-2.66,.36-2.66-1.11h0c0-1.47,1.19-3.35,2.66-4.2l50.25-29.25c1.47-.85,2.66-.36,2.66,1.11h0c0,1.47-1.19,3.35-2.66,4.2Z"/>
        <path class="cls-17" d="M180.92,275.47c0,2.93-2.38,6.7-5.31,8.41-2.93,1.71-5.31,.71-5.31-2.22s2.38-6.7,5.31-8.41c2.93-1.71,5.31-.71,5.31,2.22Z"/>
        <path class="cls-53" d="M239.68,243.91l-50.25,29.25c-1.47,.85-2.66,.36-2.66-1.11h0c0-1.47,1.19-3.35,2.66-4.2l50.25-29.25c1.47-.85,2.66-.36,2.66,1.11h0c0,1.47-1.19,3.35-2.66,4.2Z"/>
        <path class="cls-2" d="M180.92,295.15c0,2.93-2.38,6.7-5.31,8.41-2.93,1.71-5.31,.71-5.31-2.22s2.38-6.7,5.31-8.41c2.93-1.71,5.31-.71,5.31,2.22Z"/>
        <path class="cls-53" d="M239.68,263.59l-50.25,29.25c-1.47,.85-2.66,.36-2.66-1.11h0c0-1.47,1.19-3.35,2.66-4.2l50.25-29.25c1.47-.85,2.66-.36,2.66,1.11h0c0,1.47-1.19,3.35-2.66,4.2Z"/>
        <path class="cls-9" d="M180.92,314.83c0,2.93-2.38,6.7-5.31,8.41-2.93,1.71-5.31,.71-5.31-2.22s2.38-6.7,5.31-8.41c2.93-1.71,5.31-.71,5.31,2.22Z"/>
        <path class="cls-53" d="M239.68,283.28l-50.25,29.25c-1.47,.85-2.66,.36-2.66-1.11h0c0-1.47,1.19-3.35,2.66-4.2l50.25-29.25c1.47-.85,2.66-.36,2.66,1.11h0c0,1.47-1.19,3.35-2.66,4.2Z"/>
        <path class="cls-31" d="M180.92,334.51c0,2.93-2.38,6.7-5.31,8.41-2.93,1.71-5.31,.71-5.31-2.22s2.38-6.7,5.31-8.41c2.93-1.71,5.31-.71,5.31,2.22Z"/>
        <path class="cls-53" d="M239.68,302.96l-50.25,29.25c-1.47,.85-2.66,.36-2.66-1.11h0c0-1.47,1.19-3.35,2.66-4.2l50.25-29.25c1.47-.85,2.66-.36,2.66,1.11h0c0,1.47-1.19,3.35-2.66,4.2Z"/>
      </g>
      <g>
        <path class="cls-53" d="M318.05,178.6l-50.25,29.25c-1.47,.85-2.66,.36-2.66-1.11h0c0-1.47,1.19-3.35,2.66-4.2l50.25-29.25c1.47-.85,2.66-.36,2.66,1.11h0c0,1.47-1.19,3.35-2.66,4.2Z"/>
        <g>
          <polygon class="cls-2" points="320.71 255.78 265.15 288.13 265.15 219.58 320.71 187.23 320.71 255.78"/>
          <g class="cls-19">
            <path class="cls-52" d="M300.14,210.37c-.24,0-.48-.12-.61-.35-.2-.34-.08-.77,.25-.96l12.92-7.52c.33-.2,.76-.08,.96,.25,.2,.34,.08,.77-.25,.96l-12.92,7.52c-.11,.07-.23,.1-.35,.1Z"/>
            <path class="cls-52" d="M272.81,232.83c-.24,0-.48-.12-.61-.35-.2-.34-.08-.77,.25-.96l40.25-23.44c.33-.2,.76-.08,.96,.25,.2,.34,.08,.77-.25,.96l-40.25,23.43c-.11,.07-.23,.1-.35,.1Z"/>
            <path class="cls-52" d="M272.81,239.38c-.24,0-.48-.12-.61-.35-.2-.34-.08-.77,.25-.96l40.25-23.44c.33-.2,.76-.08,.96,.25,.2,.34,.08,.77-.25,.96l-40.25,23.43c-.11,.07-.23,.1-.35,.1Z"/>
            <path class="cls-52" d="M272.81,245.92c-.24,0-.48-.13-.61-.35-.2-.34-.08-.77,.25-.96l40.25-23.44c.33-.2,.76-.08,.96,.25,.2,.34,.08,.77-.25,.96l-40.25,23.44c-.11,.07-.23,.1-.35,.1Z"/>
            <path class="cls-52" d="M272.81,252.47c-.24,0-.48-.13-.61-.35-.2-.34-.08-.77,.25-.96l40.25-23.44c.33-.2,.76-.08,.96,.25,.2,.34,.08,.77-.25,.96l-40.25,23.43c-.11,.07-.23,.1-.35,.1Z"/>
            <path class="cls-52" d="M272.81,259.01c-.24,0-.48-.13-.61-.35-.2-.34-.08-.77,.25-.96l40.25-23.43c.33-.2,.76-.08,.96,.25,.2,.34,.08,.77-.25,.96l-40.25,23.43c-.11,.07-.23,.1-.35,.1Z"/>
            <path class="cls-52" d="M272.81,265.56c-.24,0-.48-.13-.61-.35-.2-.34-.08-.77,.25-.96l40.25-23.43c.33-.2,.76-.08,.96,.25,.2,.34,.08,.77-.25,.96l-40.25,23.43c-.11,.07-.23,.1-.35,.1Z"/>
          </g>
        </g>
      </g>
    </g>
    <line class="cls-23" x1="254.37" y1="201.02" x2="254.37" y2="306.96"/>
  </g>
  <g>
    <path class="cls-4" d="M243.98,428.54s1.41,10.1,1.02,13.62c-.39,3.52-1.1,5.22,.07,6.47,1.17,1.24,7.15-2.93,11.67-5.3,4.51-2.37,5.45-5.03,4.51-5.87s-10.32-.22-10.32-.22l-.51-9.94-6.43,1.24Z"/>
    <path class="cls-4" d="M211.3,416.33s-1.11,9.18-1.45,12.28c-.34,3.09-.97,4.59,.06,5.68,1.03,1.09,6.28-2.58,10.25-4.66,3.96-2.08,4.78-4.42,3.96-5.15-.82-.74-8.25,.18-8.25,.18l1.22-9.1-5.8,.78Z"/>
    <path class="cls-22" d="M235.37,339.09s-2.15,42.13-16.64,79.57c0,0-11.31,1.9-10.72,0,.58-1.9,2.02-25.41,8.81-36.37,0,0-3.84-37.94-3.41-48.58l21.96,5.38Z"/>
    <path class="cls-54" d="M248.8,336.18s5.27,35.55,2.53,92.56c0,0-6,3.82-7.69,2.85-1.69-.97-6.56-26.35-4-38.41l-14.08-56.06,23.24-.94Z"/>
    <path class="cls-7" d="M249.5,341.84c-.41-3.7-.7-5.66-.7-5.66l-21.7,.88-13.69-3.36c-.14,3.46,.17,9.81,.66,16.8,16.25,2.46,29.91-5.01,35.43-8.67Z"/>
    <path class="cls-4" d="M210.92,270.83l-15.19,16.98-6.69-16.82h0c.1-1.45,.2-3.83-.1-5.35-.46-2.3,.15-5.68-.61-5.68s-.38,3.68-1.23,4.07c-.84,.38-3.53-5.68-3.61-7.44-.08-1.76-1.3,.69-1.46,2.53-.15,1.84-.69,5.68,.54,8.05,.95,1.83,2.3,3.48,2.89,4.85,0,.41-.1,27.27,7.92,28.56,8.08,1.3,21.63-14.87,21.63-14.87l-4.09-14.87Z"/>
    <path class="cls-56" d="M215.01,285.7l-4.09-14.87-8.85,9.89c-.29,4.85-.35,11.11,.58,16.52,6.38-4.41,12.36-11.53,12.36-11.53Z"/>
    <polygon class="cls-44" points="247.48 267.67 239.61 294.96 267.35 310.98 275.2 283.7 247.48 267.67"/>
    <polygon class="cls-13" points="259.35 274.48 251.47 301.78 267.35 310.98 275.2 283.7 259.35 274.48"/>
    <path class="cls-4" d="M236.68,250.24s.43,3.08,1.39,7.32c.96,4.23,.52,7.87-1.39,8.22s-3.65,0-3.65,0v10.34l-9-.91-.98-24.02,13.64-.96Z"/>
    <path class="cls-34" d="M230.57,264.53l-7.16-4.37,.36,8.71c.09,.1,.17,.19,.26,.28,5.01,5.1,7.89,2.66,9,1.15v-4.51c-2.06-.64-2.46-1.26-2.46-1.26Z"/>
    <path class="cls-8" d="M212.01,269.83s27.75,5.08,31.01,9.64c3.26,4.56,4.3,39.09,4.3,39.09l5.47,19.02s-7.82,8.08-20.98,4.82c-13.16-3.26-21.11-7.04-21.11-7.04l5.34-20.98s-4.99-17.84-7.3-28.14c-2.82-12.64,3.26-16.42,3.26-16.42Z"/>
    <path class="cls-47" d="M252.79,337.58l-5.47-19.02s-1.04-34.53-4.3-39.09c-.17-.24-.43-.49-.73-.73l-4.08,.86-2.15,40.28-4.51,22.45c.09,.02,.18,.05,.27,.07,13.16,3.26,20.98-4.82,20.98-4.82Z"/>
    <path class="cls-4" d="M241.35,278.09c5.97,1.77,8.18,8.03,8.71,15.97s1.63,17.97,1.63,17.97l5.48-6.93,5.07,2.92s-5.74,17.1-13.97,16.3c-5.77-.57-8.65-16.94-9.7-26.32-1.04-9.38-2.78-21.56,2.79-19.91Z"/>
    <path class="cls-52" d="M244.97,442.39c-.4,3.36-1.05,5.03,.1,6.24,1.17,1.24,7.15-2.93,11.67-5.3,4.51-2.37,5.45-5.03,4.51-5.87-.93-.84-10.32-.22-10.32-.22,0,0,2.32,2.71-5.96,5.15Z"/>
    <path class="cls-52" d="M220.16,429.62c3.96-2.08,4.78-4.42,3.96-5.15-.82-.74-8.25,.18-8.25,.18-.81,1.86-.95,5.65-6.24,5.52-.31,2.06-.57,3.23,.27,4.11,1.03,1.09,6.28-2.58,10.25-4.66Z"/>
    <path class="cls-55" d="M218.73,418.65c6.22-16.06,10.16-32.97,12.64-47.06-4.93,10.2-13.35,25.13-19.04,21.92-3.03,11.07-3.9,23.77-4.32,25.15-.58,1.9,10.72,0,10.72,0Z"/>
    <path class="cls-54" d="M236.1,242.79c7.21,1.25,3.81,9.95-3.44,12.53l-1.11,4.67s-1.6-2.09-2.46,0c-.86,2.09,1.47,4.54,1.47,4.54,0,0-.86,1.23,0,5.65,.86,4.42,4.3,11.79,.74,15.23-3.56,3.44-11.79,7.12-19.65,0-7.86-7.12-.74-17.48-.74-17.48,0,0-1.23-5.91,2.58-10.36,0,0-3.56-19.32,22.6-14.77Z"/>
  </g>
  <g>
    <path class="cls-54" d="M328.63,416.81c-2.32,.2-10.37,.83-13.7-.06-3.91-1.04-.91,5.86,3.91,7.04,4.82,1.17,8.34,.39,10.42,2.08,2.08,1.69,4.82,.65,5.21-.78,.39-1.43-1.04-6.51-1.04-6.51l-3.24-2.77-1.56,1Z"/>
    <path class="cls-54" d="M374.28,397.92c-2.32,.2-10.37,.83-13.7-.06-3.91-1.04-.91,5.86,3.91,7.04,4.82,1.17,8.34,.39,10.42,2.08,2.08,1.69,4.82,.65,5.21-.78,.39-1.43-1.04-6.51-1.04-6.51l-3.24-2.77-1.56,1Z"/>
    <g>
      <polygon class="cls-32" points="403.1 361.92 397.86 364.56 356.12 334.69 351.24 301.51 356.12 298.66 403.1 325.9 403.1 361.92"/>
      <g>
        <polygon class="cls-54" points="398.22 364.77 351.24 337.53 351.24 301.51 398.22 328.74 398.22 364.77"/>
        <g>
          <polygon class="cls-15" points="364.11 335.36 358.94 332.37 358.94 318.74 364.11 321.74 364.11 335.36"/>
          <polygon class="cls-15" points="390.52 350.67 385.35 347.68 385.35 334.05 390.52 337.05 390.52 350.67"/>
        </g>
        <path class="cls-37" d="M390.5,340l-31.55-18.29c-4.26-2.47-7.72-7.93-7.72-12.19v-8.01l46.98,27.23v8.01c0,4.26-3.45,5.71-7.72,3.24Z"/>
      </g>
      <polygon class="cls-15" points="403.1 325.9 398.22 328.74 351.24 301.51 356.12 298.66 403.1 325.9"/>
      <path class="cls-38" d="M382.91,317.75c-.46,0-.82-.37-.82-.82v-4.24c0-1.24-.67-2.4-1.74-3.02l-7-4.06c-.33-.19-.62-.06-.73,0-.11,.06-.37,.25-.37,.63v4.03c0,.46-.37,.82-.82,.82s-.82-.37-.82-.82v-4.03c0-.86,.45-1.63,1.19-2.06,.74-.43,1.64-.43,2.38,0l7,4.06c1.58,.92,2.56,2.62,2.56,4.45v4.24c0,.46-.37,.82-.82,.82Z"/>
    </g>
    <path class="cls-18" d="M364.46,300.93l-3.55,48.21s11.24,10.73,18.57,50.79c0,0-4.65,2.38-7.33-.95-2.68-3.34-16.99-23.85-23.91-40.78-6.92-16.93-10.16-54.25-10.16-54.25l26.37-3.03Z"/>
    <path class="cls-45" d="M379.48,399.93c-1.34-7.31-2.81-13.63-4.31-19.09l-25.52-19.35c7.29,16.2,19.98,34.37,22.49,37.49,2.68,3.34,7.33,.95,7.33,.95Z"/>
    <path class="cls-4" d="M377.28,296.43s-1.04,3.91-2.15,5.02c-1.11,1.11-4.19,4.29-2.48,6.25,1.36,1.56,2.15,1.04,2.15,1.04,0,0,3.58,4.24,5.02,2.15,4.3-6.25,1.43-13.94,1.43-13.94l-3.97-.52Z"/>
    <path class="cls-41" d="M355.46,303.95l-17.46,58.21s3.65,16.68-3.69,59.15c0,0-4.65,2.35-6.21-2.61-1.56-4.95-6.25-46.38-7.04-64.88-.78-18.5,0-52.9,0-52.9l34.4,3.03Z"/>
    <path class="cls-35" d="M364.46,300.93l-18.83,2.16-24.56-2.16s-.13,5.58-.23,13.45c23.02,5.58,37.62-3.45,43.22-8.02l.4-5.43Z"/>
    <path class="cls-24" d="M376.56,302.55l-1.76,2.35s3.58,2.15,0,3.84"/>
    <path class="cls-4" d="M296.4,259.01s-4.31-13.41-7.72-13.09c-1.45,.13,1.36,2.4,2.5,5.46,0,0-1.65-1.1-3.38-.71-1.73,.39-3.19,3.65-2.41,5.8,.78,2.15,2.67,.94,2.67,.94,0,0,.99,2.81,3.68,2.28l2.83,3.06,1.82-3.75Z"/>
    <path class="cls-41" d="M370.18,230.26c8.13,8.04,17.76,30.88,16.89,42.69-.87,11.81-5.11,24.9-5.11,24.9,0,0-3.57,1.07-5.31-1.36l.04-25.54s-8.03-12.42-13.42-20.24c-5.39-7.82-.95-28.23,6.91-20.46Z"/>
    <path class="cls-61" d="M370.18,230.26c-7.86-7.78-12.29,12.64-6.91,20.46,3.2,4.64,7.32,10.89,10.15,15.21h0c-.99-7.52,11.92,1.41,13.54,2.56-1.22-12.4-9.58-31.11-16.78-38.23Z"/>
    <path class="cls-4" d="M354.85,226.92l-1.74-5.99-5.6-16.89-8.25-.43s.52,4.82-.48,7.82c-1,3-.83,5.69,0,8.34,.82,2.65,3.91,2,3.91,2l-.61,9.25,12.77-4.08Z"/>
    <path class="cls-16" d="M353.11,220.93l-.7-2.11c-1.42-1.37-3.89-2.76-3.89-2.76l-2.69,1.24s-2.09,4.71-5.48,4.24c1.11,.47,2.34,.22,2.34,.22l-.24,3.63c2.38-.85,9.28-3.36,10.66-4.45Z"/>
    <path class="cls-41" d="M358.26,224.58c-11.13-1.77-20.16,6.43-20.16,6.43l-10.61,6.17s-.17,31.44-4.86,46.56c-4.69,15.11-6.6,18.76-6.6,18.76,0,0,24.84,16.5,52.46-.87l-2.61-18.24s6.43-31.1,8.16-41.34c1.74-10.25-7.6-16.16-15.79-17.46Z"/>
    <path class="cls-51" d="M354.57,306.92c-25.34-25.03-6.48-64.02-24.37-70.25-3.32-1.16-3.29,16.63-3.29,16.63-.6,10.03-1.82,22.48-4.28,30.42-4.69,15.11-6.6,18.76-6.6,18.76,0,0,17.4,11.55,39.27,5.13-.23-.23-.48-.45-.73-.7Z"/>
    <path class="cls-41" d="M293.05,262.49c.91-4.17,2.87-4.43,2.87-4.43l17.47,11.6c4.32-19.02,8.1-28.99,14.1-32.48,4.94-2.87,9.29,6.74,5.2,26.88-4.09,20.14-9.41,23.97-19.3,20.68-9.07-3.02-20.34-22.24-20.34-22.24Z"/>
    <path class="cls-26" d="M340.34,231c14-6.41,19-4.86,19-4.86"/>
    <path class="cls-20" d="M359.28,201.47c2.95-5.99-5.47-7.56-10.08-6.6s-4.95-2.08-7.99-3.65c-3.04-1.56-8.86,.61-8.51,7.82,.35,7.21,10.08,6.6,10.08,6.6-.13,2.75,.14,4.99,.64,6.84,.72-1.22,1.86-2.68,2.88-1.93,1.49,1.1,.99,4.89-.46,6.75,3.06,3.62,7.28,3.63,7.28,3.63,.69-3.91,3.91-4.34,7.3-9.47,3.39-5.12-1.13-9.99-1.13-9.99Z"/>
  </g>
  <path class="cls-11" d="M172.55,490.93c-.83-.5-1.04-1.82-.52-3.35,.53-1.51,.98-3.02,1.34-4.54,.37-1.51,1.43-2.97,2.63-3.66l8.34-4.82c.33-2.45,.53-4.87,.53-7.22,0-2.37-.23-4.54-.56-6.59l-8.45-4.84-3.26,1.88,5.77-10.01c-1.15-1.2-2.44-2.2-3.84-3.01l.07-.07-8.34-4.71-.02,.04c-1.49-.88-3.11-1.55-4.85-1.96l-5.81,10.04v-3.74s-8.46-4.84-8.46-4.84c-1.95,.75-3.95,1.66-6.01,2.84-2.04,1.18-4.04,2.58-6.01,4.1l.03,9.59c0,1.37-.73,3.02-1.87,4.11-1.12,1.06-2.21,2.22-3.25,3.43-.39,.45-.81,.8-1.23,1.04-.72,.42-1.43,.5-1.97,.19l-5.93-3.38c-2.47,3.44-4.7,7.08-6.63,10.85,8.26,4.18,16.91,7.7,25.87,10.64,2.37-4.32,5.75-8.12,9.51-10.3,1.39-.81,2.74-1.32,4-1.58,.4,1.21,.63,2.62,.63,4.21,0,3.55-1.07,7.42-2.86,11.02,6.92,1.85,13.99,3.38,21.15,4.62Z"/>
  <g>
    <path class="cls-8" d="M184.3,374.24l-8.45-4.84-8.34,4.82c-1.2,.69-2.26,.43-2.64-.64-.37-1.1-.83-2.09-1.36-2.98-.53-.91-.33-2.51,.52-3.96l2.34-4.06,2.52,.73,5.71-5.11-8.34-4.71-.02,.04c-1.49-.88-3.11-1.55-4.85-1.96l-5.9,10.2c-.53,.92-1.23,1.65-1.95,2.07-.42,.24-.84,.37-1.23,.37-.76,0-1.55,.07-2.35,.2l5.61-6.54-8.45-4.84c-1.95,.75-3.95,1.66-6.01,2.84-2.04,1.18-4.04,2.58-6.01,4.1l.03,9.59c0,1.37-.73,3.02-1.87,4.11-1.12,1.06-2.21,2.22-3.25,3.43-.39,.45-.81,.8-1.23,1.04-.72,.42-1.43,.5-1.97,.19l-5.92-3.38c-3.29,4.59-6.16,9.54-8.47,14.67l5.92,3.39c.84,.48,1.07,1.82,.54,3.35-.53,1.51-.98,3.02-1.35,4.55-.37,1.51-1.43,2.99-2.61,3.67l-8.36,4.83c-.33,2.44-.53,4.86-.53,7.22,0,2.35,.23,4.52,.56,6.59l8.45,4.84,3.77-2.91c-.11,.27-.22,.55-.38,.82l-5.89,10.2c1.23,1.3,2.62,2.35,4.14,3.18v.02s8.29,4.73,8.29,4.73l4.59-8.93-3.93-2.04,1.33-2.3c.54-.93,1.24-1.66,1.96-2.07,.42-.24,.84-.37,1.23-.38,1.05,0,2.14-.1,3.26-.31,1.14-.24,1.88,.57,1.89,1.93l.03,9.59,8.45,4.84,5.9-8.31-2.33-6.45-.02-6.61c0-1.36,.75-3.03,1.87-4.09,1.75-1.69,3.42-3.54,4.97-5.52l7.41,4.21c3.28-4.56,6.15-9.53,8.47-14.67l-5.92-3.38c-.85-.48-1.07-1.82-.54-3.37,.53-1.51,.98-3.02,1.34-4.54,.37-1.51,1.43-2.97,2.63-3.66l8.34-4.82c.01-.11,.02-.22,.04-.33l2.5,.09,5.87-8.74Zm-58.74,42.29h-.06s0-.09,0-.09c.02,.03,.04,.06,.07,.09Zm15.71-5.24c-7.19,4.15-13.06,.81-13.08-7.45-.02-8.28,5.8-18.37,12.99-22.53,7.21-4.16,13.06-.81,13.08,7.47,.02,8.26-5.79,18.35-13,22.51Z"/>
    <path class="cls-5" d="M173.36,396.53c.37-1.51,1.43-2.97,2.63-3.66l8.34-4.82c.33-2.45,.53-4.87,.53-7.22,0-2.37-.23-4.54-.57-6.59l-8.34,4.82c-1.2,.69-2.26,.43-2.64-.64-.37-1.1-.83-2.09-1.36-2.98-.53-.91-.33-2.51,.52-3.96l5.89-10.21c-2.34-2.45-5.23-4.07-8.52-4.86l-5.9,10.2c-.53,.92-1.23,1.65-1.95,2.07-.42,.24-.84,.37-1.23,.37-1.05,0-2.14,.1-3.28,.34-1.12,.21-1.88-.57-1.89-1.94l-.03-9.59c-1.95,.75-3.95,1.66-6.01,2.84-2.04,1.18-4.04,2.58-6.01,4.1l.03,9.59c0,1.37-.73,3.02-1.87,4.11-1.12,1.06-2.21,2.22-3.25,3.43-.39,.45-.81,.8-1.23,1.04-.72,.42-1.43,.5-1.97,.19l-5.93-3.38c-3.29,4.59-6.16,9.54-8.47,14.67l5.92,3.39c.84,.48,1.07,1.82,.54,3.35-.53,1.51-.98,3.02-1.35,4.55-.37,1.51-1.43,2.99-2.61,3.67l-8.36,4.83c-.33,2.44-.53,4.86-.53,7.22,0,2.35,.23,4.52,.57,6.59l8.36-4.83c1.18-.68,2.24-.44,2.63,.63,.38,1.09,.84,2.08,1.37,2.97,.53,.93,.31,2.52-.52,3.98l-5.89,10.2c2.33,2.46,5.21,4.1,8.52,4.86l5.89-10.2c.54-.93,1.24-1.66,1.96-2.07,.42-.24,.84-.37,1.23-.38,1.05,0,2.14-.1,3.26-.31,1.14-.24,1.88,.57,1.89,1.93l.03,9.59c1.97-.74,3.97-1.65,6.01-2.83,2.06-1.19,4.06-2.59,6.01-4.11l-.03-9.59c0-1.36,.75-3.03,1.87-4.09,1.75-1.69,3.42-3.54,4.97-5.52l7.41,4.21c3.28-4.56,6.15-9.53,8.47-14.67l-5.92-3.38c-.85-.49-1.07-1.82-.54-3.37,.53-1.51,.98-3.02,1.34-4.54Zm-23.74-10.38c7.21-4.16,13.06-.81,13.08,7.47,.02,8.26-5.79,18.35-13,22.51-7.19,4.15-13.06,.81-13.08-7.45-.02-8.28,5.8-18.37,13-22.53Zm-15.63,35.22h-.06s0-.09,0-.09c.02,.03,.04,.06,.07,.09Z"/>
    <path class="cls-42" d="M149.73,422.39c-10.19,5.88-18.52,1.14-18.55-10.57-.03-11.73,8.24-26.05,18.43-31.94,10.21-5.89,18.53-1.15,18.56,10.58,.03,11.71-8.24,26.04-18.44,31.93m-.13-44.37c-11.08,6.4-20.08,21.98-20.04,34.73,.04,12.74,9.09,17.9,20.17,11.5,11.1-6.41,20.09-21.99,20.06-34.73-.04-12.75-9.09-17.91-20.19-11.51"/>
  </g>
</svg>