<?xml version="1.0" encoding="UTF-8"?>
<svg id="Layer_1" data-name="Layer 1" xmlns="http://www.w3.org/2000/svg" viewBox="0 0 1080 607">
  <defs>
    <style>
      .cls-1 {
        fill: #3f3f3f;
      }

      .cls-2 {
        fill: #bfbfbf;
      }

      .cls-3, .cls-4, .cls-5 {
        stroke-width: 1.86px;
      }

      .cls-3, .cls-4, .cls-5, .cls-6, .cls-7 {
        fill: none;
        stroke: #3f3f3f;
        stroke-miterlimit: 10;
      }

      .cls-4 {
        stroke-dasharray: 0 0 11.24 11.24;
      }

      .cls-5 {
        stroke-dasharray: 0 11.18;
      }

      .cls-6 {
        stroke-dasharray: 0 0 9.64 9.64;
      }

      .cls-6, .cls-7 {
        stroke-width: 1.59px;
      }
    </style>
  </defs>
  <g>
    <path class="cls-2" d="M470.54,134.11h236.59c22.79,0,41.26,18.47,41.26,41.26h0c0,22.79-18.47,41.26-41.26,41.26h-154.07c-22.79,0-41.26,18.47-41.26,41.26v56.4c0,22.79-18.47,41.26-41.26,41.26h-97.66c-22.79,0-41.26-18.47-41.26-41.26h0c0-22.79,18.47-41.26,41.26-41.26h15.14c22.79,0,41.26-18.47,41.26-41.26v-56.4c0-22.79,18.47-41.26,41.26-41.26Z"/>
    <path class="cls-2" d="M567.73,370.71v-56.4c0-22.79,18.47-41.26,41.26-41.26h98.13c22.79,0,41.26,18.47,41.26,41.26h0c0,22.79-18.47,41.26-41.26,41.26h-15.61c-22.79,0-41.26,18.47-41.26,41.26v56.4c0,22.79-18.47,41.26-41.26,41.26h-236.12c-22.79,0-41.26-18.47-41.26-41.26h0c0-22.79,18.47-41.26,41.26-41.26h153.6c22.79,0,41.26-18.47,41.26-41.26Z"/>
  </g>
  <g>
    <line class="cls-3" x1="158.01" y1="133.93" x2="163.6" y2="133.93"/>
    <line class="cls-4" x1="174.84" y1="133.93" x2="910.78" y2="133.93"/>
    <line class="cls-3" x1="916.4" y1="133.93" x2="921.99" y2="133.93"/>
  </g>
  <g>
    <line class="cls-7" x1="331.3" y1="603.5" x2="331.3" y2="598.72"/>
    <line class="cls-6" x1="331.3" y1="589.08" x2="331.3" y2="54.1"/>
    <line class="cls-7" x1="331.3" y1="49.28" x2="331.3" y2="44.49"/>
  </g>
  <g>
    <line class="cls-7" x1="429.13" y1="603.5" x2="429.13" y2="598.72"/>
    <line class="cls-6" x1="429.13" y1="589.08" x2="429.13" y2="54.1"/>
    <line class="cls-7" x1="429.13" y1="49.28" x2="429.13" y2="44.49"/>
  </g>
  <g>
    <line class="cls-7" x1="650.87" y1="603.5" x2="650.87" y2="598.72"/>
    <line class="cls-6" x1="650.87" y1="589.08" x2="650.87" y2="54.1"/>
    <line class="cls-7" x1="650.87" y1="49.28" x2="650.87" y2="44.49"/>
  </g>
  <g>
    <line class="cls-7" x1="748.7" y1="603.5" x2="748.7" y2="598.72"/>
    <line class="cls-6" x1="748.7" y1="589.08" x2="748.7" y2="54.1"/>
    <line class="cls-7" x1="748.7" y1="49.28" x2="748.7" y2="44.49"/>
  </g>
  <g>
    <line class="cls-7" x1="511.12" y1="603.5" x2="511.12" y2="598.72"/>
    <line class="cls-6" x1="511.12" y1="589.08" x2="511.12" y2="54.1"/>
    <line class="cls-7" x1="511.12" y1="49.28" x2="511.12" y2="44.49"/>
  </g>
  <g>
    <line class="cls-7" x1="567.95" y1="603.5" x2="567.95" y2="598.72"/>
    <line class="cls-6" x1="567.95" y1="589.08" x2="567.95" y2="54.1"/>
    <line class="cls-7" x1="567.95" y1="49.28" x2="567.95" y2="44.49"/>
  </g>
  <g>
    <line class="cls-3" x1="158.01" y1="215.92" x2="163.6" y2="215.92"/>
    <line class="cls-4" x1="174.84" y1="215.92" x2="910.78" y2="215.92"/>
    <line class="cls-3" x1="916.4" y1="215.92" x2="921.99" y2="215.92"/>
  </g>
  <g>
    <line class="cls-3" x1="158.01" y1="272.75" x2="163.6" y2="272.75"/>
    <line class="cls-4" x1="174.84" y1="272.75" x2="910.78" y2="272.75"/>
    <line class="cls-3" x1="916.4" y1="272.75" x2="921.99" y2="272.75"/>
  </g>
  <g>
    <line class="cls-3" x1="158.01" y1="354.74" x2="163.6" y2="354.74"/>
    <line class="cls-4" x1="174.84" y1="354.74" x2="910.78" y2="354.74"/>
    <line class="cls-3" x1="916.4" y1="354.74" x2="921.99" y2="354.74"/>
  </g>
  <g>
    <line class="cls-3" x1="158.01" y1="411.57" x2="163.6" y2="411.57"/>
    <line class="cls-4" x1="174.84" y1="411.57" x2="910.78" y2="411.57"/>
    <line class="cls-3" x1="916.4" y1="411.57" x2="921.99" y2="411.57"/>
  </g>
  <g>
    <line class="cls-3" x1="158.01" y1="493.56" x2="163.6" y2="493.56"/>
    <line class="cls-4" x1="174.84" y1="493.56" x2="910.78" y2="493.56"/>
    <line class="cls-3" x1="916.4" y1="493.56" x2="921.99" y2="493.56"/>
  </g>
  <circle class="cls-5" cx="374.16" cy="314.21" r="41.46"/>
  <circle class="cls-5" cx="388.6" cy="231.3" r="41.46"/>
  <circle class="cls-5" cx="471.52" cy="175.39" r="41.46"/>
  <circle class="cls-5" cx="471.52" cy="314.21" r="41.46"/>
  <circle class="cls-5" cx="374.63" cy="453.03" r="41.46"/>
  <circle class="cls-5" cx="707.24" cy="314.21" r="41.46"/>
  <circle class="cls-5" cx="707.24" cy="175.39" r="41.46"/>
  <circle class="cls-5" cx="609.41" cy="453.03" r="41.46"/>
  <circle class="cls-5" cx="609.41" cy="314.21" r="41.46"/>
  <circle class="cls-5" cx="609.41" cy="44.96" r="41.46"/>
  <circle class="cls-5" cx="690.47" cy="396.2" r="41.46"/>
  <circle class="cls-5" cx="526.49" cy="370.11" r="41.46"/>
  <circle class="cls-5" cx="552.58" cy="258.31" r="41.46"/>
  <g>
    <line class="cls-3" x1="574.53" y1="45.43" x2="644.29" y2="45.43"/>
    <polygon class="cls-1" points="567.95 45.43 577.22 49.21 575.02 45.43 577.22 41.64 567.95 45.43"/>
    <polygon class="cls-1" points="650.87 45.43 641.6 49.21 643.8 45.43 641.6 41.64 650.87 45.43"/>
  </g>
</svg>