<?xml version="1.0" encoding="UTF-8"?>
<svg id="Layer_1" data-name="Layer 1" xmlns="http://www.w3.org/2000/svg" viewBox="0 0 500 500">
  <defs>
    <style>
      .cls-1 {
        fill: #0b3b83;
      }

      .cls-2 {
        fill: #3395ff;
      }
    </style>
  </defs>
  <path class="cls-2" d="M168.33,38.15H446.49c26.79,0,48.51,21.72,48.51,48.51h0c0,26.79-21.72,48.51-48.51,48.51h-181.14c-26.79,0-48.51,21.72-48.51,48.51v66.32c0,26.79-21.72,48.51-48.51,48.51H53.51c-26.79,0-48.51-21.72-48.51-48.51h0c0-26.79,21.72-48.51,48.51-48.51h17.8c26.79,0,48.51-21.72,48.51-48.51V86.66c0-26.79,21.72-48.51,48.51-48.51Z"/>
  <path class="cls-1" d="M282.6,316.32v-66.32c0-26.79,21.72-48.51,48.51-48.51h115.38c26.79,0,48.51,21.72,48.51,48.51h0c0,26.79-21.72,48.51-48.51,48.51h-18.36c-26.79,0-48.51,21.72-48.51,48.51v66.32c0,26.79-21.72,48.51-48.51,48.51H53.51c-26.79,0-48.51-21.72-48.51-48.51h0c0-26.79,21.72-48.51,48.51-48.51H234.09c26.79,0,48.51-21.72,48.51-48.51Z"/>
</svg>