<?xml version="1.0" encoding="UTF-8"?>
<svg xmlns="http://www.w3.org/2000/svg" xmlns:xlink="http://www.w3.org/1999/xlink" viewBox="0 0 1080 607">
  <defs>
    <style>
      .cls-1 {
        fill: url(#radial-gradient-23);
      }

      .cls-1, .cls-2, .cls-3, .cls-4, .cls-5, .cls-6, .cls-7, .cls-8, .cls-9, .cls-10, .cls-11, .cls-12, .cls-13, .cls-14, .cls-15, .cls-16, .cls-17, .cls-18, .cls-19, .cls-20, .cls-21, .cls-22, .cls-23, .cls-24, .cls-25, .cls-26, .cls-27, .cls-28, .cls-29, .cls-30, .cls-31, .cls-32, .cls-33, .cls-34, .cls-35, .cls-36, .cls-37, .cls-38 {
        mix-blend-mode: color-dodge;
      }

      .cls-2 {
        fill: url(#radial-gradient-24);
      }

      .cls-39 {
        fill: url(#linear-gradient-2);
      }

      .cls-40 {
        fill: url(#linear-gradient-22);
      }

      .cls-40, .cls-41, .cls-42, .cls-43 {
        opacity: .9;
      }

      .cls-44 {
        fill: #fff;
      }

      .cls-3 {
        fill: url(#radial-gradient-7);
      }

      .cls-4 {
        fill: url(#radial-gradient-19);
      }

      .cls-5 {
        fill: url(#radial-gradient-14);
      }

      .cls-6 {
        fill: url(#radial-gradient-34);
      }

      .cls-45 {
        fill: url(#linear-gradient-15);
      }

      .cls-46 {
        fill: url(#White_Black_Radial-4);
      }

      .cls-46, .cls-47, .cls-48, .cls-49, .cls-50, .cls-51, .cls-52, .cls-53, .cls-54 {
        mix-blend-mode: screen;
      }

      .cls-7 {
        fill: url(#Radial_Gradient_1-2);
      }

      .cls-55 {
        fill: url(#New_Gradient_Swatch_copy_9);
      }

      .cls-55, .cls-56, .cls-57 {
        opacity: .95;
      }

      .cls-58 {
        fill: url(#linear-gradient-18);
      }

      .cls-59 {
        fill: url(#linear-gradient-40);
      }

      .cls-8 {
        fill: url(#Radial_Gradient_1-3);
      }

      .cls-9 {
        fill: url(#radial-gradient-29);
      }

      .cls-60 {
        fill: url(#linear-gradient-28);
      }

      .cls-10 {
        fill: url(#radial-gradient-28);
      }

      .cls-61 {
        fill: url(#linear-gradient-14);
      }

      .cls-62 {
        fill: url(#linear-gradient-17);
      }

      .cls-62, .cls-63, .cls-64, .cls-65, .cls-66, .cls-67, .cls-68, .cls-69 {
        mix-blend-mode: multiply;
      }

      .cls-70 {
        fill: url(#linear-gradient-36);
      }

      .cls-71 {
        fill: url(#linear-gradient-20);
      }

      .cls-72 {
        fill: url(#linear-gradient-6);
      }

      .cls-73 {
        isolation: isolate;
      }

      .cls-11 {
        fill: url(#radial-gradient-21);
      }

      .cls-12 {
        fill: url(#radial-gradient-17);
      }

      .cls-13 {
        fill: url(#radial-gradient-35);
      }

      .cls-74 {
        fill: url(#linear-gradient-35);
      }

      .cls-75 {
        fill: url(#linear-gradient-32);
      }

      .cls-14 {
        fill: url(#radial-gradient-15);
      }

      .cls-15 {
        fill: url(#radial-gradient-18);
      }

      .cls-76 {
        fill: url(#linear-gradient-11);
      }

      .cls-16 {
        fill: url(#radial-gradient-3);
      }

      .cls-47 {
        fill: url(#White_Black_Radial-7);
      }

      .cls-77 {
        fill: url(#radial-gradient-22);
      }

      .cls-78 {
        fill: url(#linear-gradient-10);
      }

      .cls-17 {
        fill: url(#radial-gradient-27);
      }

      .cls-18 {
        fill: url(#radial-gradient-5);
      }

      .cls-19 {
        fill: url(#Radial_Gradient_1-4);
      }

      .cls-79 {
        fill: url(#linear-gradient-37);
      }

      .cls-20 {
        fill: url(#Radial_Gradient_1);
      }

      .cls-80 {
        fill: url(#linear-gradient-16);
      }

      .cls-21 {
        fill: url(#radial-gradient-11);
      }

      .cls-22 {
        fill: url(#radial-gradient-25);
      }

      .cls-81 {
        fill: url(#New_Gradient_Swatch_copy_18);
      }

      .cls-82 {
        fill: url(#linear-gradient-31);
      }

      .cls-48 {
        fill: url(#White_Black_Radial-5);
      }

      .cls-23 {
        fill: url(#radial-gradient-16);
      }

      .cls-63 {
        fill: url(#linear-gradient-30);
      }

      .cls-64 {
        fill: url(#linear-gradient-8);
      }

      .cls-83 {
        fill: url(#linear-gradient-41);
      }

      .cls-24 {
        fill: url(#radial-gradient-20);
      }

      .cls-49 {
        fill: url(#White_Black_Radial-8);
      }

      .cls-65 {
        fill: url(#linear-gradient-39);
      }

      .cls-25 {
        fill: url(#radial-gradient-13);
      }

      .cls-84 {
        fill: url(#New_Gradient_Swatch_copy_36-3);
      }

      .cls-84, .cls-85 {
        opacity: .85;
      }

      .cls-86 {
        fill: url(#linear-gradient-25);
      }

      .cls-26 {
        fill: url(#radial-gradient-10);
      }

      .cls-27 {
        fill: url(#radial-gradient-31);
      }

      .cls-87 {
        fill: url(#linear-gradient-5);
      }

      .cls-88 {
        fill: url(#New_Gradient_Swatch_copy_36-5);
      }

      .cls-50 {
        fill: url(#White_Black_Radial);
      }

      .cls-51 {
        fill: url(#linear-gradient-23);
        opacity: .7;
      }

      .cls-28 {
        fill: url(#radial-gradient-33);
      }

      .cls-29 {
        fill: url(#radial-gradient-12);
      }

      .cls-30 {
        fill: url(#radial-gradient-4);
      }

      .cls-42 {
        fill: url(#New_Gradient_Swatch_copy_36-2);
      }

      .cls-89 {
        fill: url(#linear-gradient-34);
      }

      .cls-52 {
        fill: url(#White_Black_Radial-3);
      }

      .cls-31 {
        fill: url(#radial-gradient-6);
      }

      .cls-90 {
        fill: #3395ff;
      }

      .cls-32 {
        fill: url(#radial-gradient-8);
      }

      .cls-66 {
        fill: url(#radial-gradient-30);
      }

      .cls-91 {
        fill: url(#linear-gradient-7);
      }

      .cls-92 {
        fill: #fdd65b;
      }

      .cls-33 {
        fill: url(#radial-gradient-9);
      }

      .cls-93 {
        fill: #10054d;
      }

      .cls-85 {
        fill: url(#New_Gradient_Swatch_copy_36-4);
      }

      .cls-43 {
        fill: url(#linear-gradient-21);
      }

      .cls-53 {
        fill: url(#White_Black_Radial-6);
      }

      .cls-94 {
        fill: url(#linear-gradient-24);
      }

      .cls-95 {
        fill: url(#linear-gradient-9);
      }

      .cls-96 {
        fill: url(#New_Gradient_Swatch_copy_36);
      }

      .cls-97 {
        mask: url(#mask);
      }

      .cls-98 {
        fill: url(#linear-gradient-3);
      }

      .cls-34 {
        fill: url(#radial-gradient-32);
      }

      .cls-99 {
        fill: url(#linear-gradient);
      }

      .cls-100 {
        fill: url(#linear-gradient-27);
      }

      .cls-101 {
        fill: url(#linear-gradient-33);
      }

      .cls-102 {
        fill: url(#linear-gradient-38);
      }

      .cls-103 {
        fill: url(#linear-gradient-29);
      }

      .cls-54 {
        fill: url(#White_Black_Radial-2);
      }

      .cls-57 {
        fill: url(#New_Gradient_Swatch_copy_18-2);
      }

      .cls-104 {
        fill: url(#linear-gradient-19);
      }

      .cls-67 {
        fill: url(#radial-gradient-26);
      }

      .cls-105 {
        fill: url(#linear-gradient-4);
      }

      .cls-35 {
        fill: url(#radial-gradient);
      }

      .cls-35, .cls-38 {
        opacity: .5;
      }

      .cls-36 {
        fill: url(#radial-gradient-2);
      }

      .cls-69 {
        fill: url(#radial-gradient-37);
        opacity: .3;
      }

      .cls-37 {
        fill: url(#radial-gradient-36);
      }

      .cls-106 {
        fill: url(#linear-gradient-12);
      }

      .cls-107 {
        fill: url(#linear-gradient-13);
      }

      .cls-38 {
        fill: url(#New_Gradient_Swatch_copy);
      }

      .cls-108 {
        fill: url(#linear-gradient-26);
      }
    </style>
    <radialGradient id="radial-gradient" cx="540.67" cy="325.59" fx="540.67" fy="325.59" r="239.33" gradientUnits="userSpaceOnUse">
      <stop offset="0" stop-color="#fa45c1"/>
      <stop offset=".21" stop-color="#cb389d"/>
      <stop offset=".67" stop-color="#571843"/>
      <stop offset="1" stop-color="#000"/>
    </radialGradient>
    <radialGradient id="radial-gradient-2" cx="415.18" cy="355.29" fx="415.18" fy="355.29" r="24.68" gradientUnits="userSpaceOnUse">
      <stop offset="0" stop-color="#b4299a"/>
      <stop offset=".3" stop-color="#851e84"/>
      <stop offset=".99" stop-color="#11054d"/>
      <stop offset="1" stop-color="#10054d"/>
    </radialGradient>
    <radialGradient id="radial-gradient-3" cx="450.12" cy="293.41" fx="450.12" fy="293.41" r="24.09" xlink:href="#radial-gradient-2"/>
    <radialGradient id="radial-gradient-4" cx="666.58" cy="358" fx="666.58" fy="358" r="19.2" xlink:href="#radial-gradient-2"/>
    <radialGradient id="radial-gradient-5" cx="396.63" cy="431.31" fx="396.63" fy="431.31" r="27.34" xlink:href="#radial-gradient-2"/>
    <radialGradient id="radial-gradient-6" cx="432.4" cy="454.86" fx="432.4" fy="454.86" r="24.56" xlink:href="#radial-gradient-2"/>
    <radialGradient id="radial-gradient-7" cx="497.26" cy="550.38" fx="497.26" fy="550.38" r="47.61" xlink:href="#radial-gradient-2"/>
    <radialGradient id="radial-gradient-8" cx="635.33" cy="457.55" fx="635.33" fy="457.55" r="13.35" xlink:href="#radial-gradient-2"/>
    <radialGradient id="radial-gradient-9" cx="680.16" cy="434.35" fx="680.16" fy="434.35" r="29.3" xlink:href="#radial-gradient-2"/>
    <radialGradient id="radial-gradient-10" cx="5235.28" cy="438.47" fx="5235.28" fy="438.47" r="28.51" gradientTransform="translate(5960.16) rotate(-180) scale(1 -1)" xlink:href="#radial-gradient-2"/>
    <radialGradient id="radial-gradient-11" cx="680.01" cy="420.02" fx="680.01" fy="420.02" r="15.98" gradientTransform="translate(210.65 -226.92) rotate(22.34)" gradientUnits="userSpaceOnUse">
      <stop offset=".09" stop-color="#ff63ce"/>
      <stop offset=".11" stop-color="#832d85"/>
      <stop offset=".13" stop-color="#25054d"/>
      <stop offset=".17" stop-color="#1c033c"/>
      <stop offset=".25" stop-color="#120226"/>
      <stop offset=".34" stop-color="#0a0114"/>
      <stop offset=".45" stop-color="#040008"/>
      <stop offset=".6" stop-color="#000001"/>
      <stop offset="1" stop-color="#000"/>
    </radialGradient>
    <radialGradient id="radial-gradient-12" cx="672.69" cy="542.98" fx="672.69" fy="542.98" r="31.25" xlink:href="#radial-gradient-2"/>
    <radialGradient id="radial-gradient-13" cx="335.67" cy="18228.14" fx="335.67" fy="18228.14" r="24.2" gradientTransform="translate(0 18654.71) scale(1 -1)" xlink:href="#radial-gradient-2"/>
    <radialGradient id="radial-gradient-14" cx="669.58" cy="529.14" fx="669.58" fy="529.14" r="15.98" gradientTransform="matrix(1, 0, 0, 1, 0, 0)" xlink:href="#radial-gradient-11"/>
    <radialGradient id="radial-gradient-15" cx="657.3" cy="360.69" fx="657.3" fy="360.69" r="15.98" gradientTransform="matrix(1, 0, 0, 1, 0, 0)" xlink:href="#radial-gradient-11"/>
    <radialGradient id="radial-gradient-16" cx="416.44" cy="353.22" fx="416.44" fy="353.22" r="15.98" gradientTransform="translate(371.74 -191.01) rotate(45)" xlink:href="#radial-gradient-11"/>
    <radialGradient id="radial-gradient-17" cx="498.34" cy="543.34" fx="498.34" fy="543.34" r="15.98" gradientTransform="translate(918.36 -62.58) rotate(77.26)" xlink:href="#radial-gradient-11"/>
    <radialGradient id="radial-gradient-18" cx="494.71" cy="465.78" fx="494.71" fy="465.78" r="24.31" xlink:href="#radial-gradient-2"/>
    <radialGradient id="radial-gradient-19" cx="557.74" cy="466.8" fx="557.74" fy="466.8" r="14.36" xlink:href="#radial-gradient-2"/>
    <radialGradient id="radial-gradient-20" cx="491.28" cy="462.03" fx="491.28" fy="462.03" r="15.98" gradientTransform="translate(868.97 -96.71) rotate(80.82)" xlink:href="#radial-gradient-11"/>
    <radialGradient id="radial-gradient-21" cx="407.07" cy="426.16" fx="407.07" fy="426.16" r="15.98" gradientTransform="matrix(1, 0, 0, 1, 0, 0)" xlink:href="#radial-gradient-11"/>
    <radialGradient id="radial-gradient-22" cx="541.79" cy="663.49" fx="541.79" fy="663.49" r="152.92" gradientTransform="translate(0 -394.64) scale(1 1.07)" gradientUnits="userSpaceOnUse">
      <stop offset=".59" stop-color="#fff"/>
      <stop offset=".65" stop-color="#f7f7f8"/>
      <stop offset=".73" stop-color="#e3e4e4"/>
      <stop offset=".84" stop-color="#c2c3c5"/>
      <stop offset=".95" stop-color="#959699"/>
      <stop offset="1" stop-color="#808285"/>
    </radialGradient>
    <mask id="mask" x="420.51" y="218.22" width="238.71" height="266.79" maskUnits="userSpaceOnUse">
      <rect class="cls-77" x="420.51" y="218.22" width="238.71" height="266.79"/>
    </mask>
    <linearGradient id="New_Gradient_Swatch_copy_36" data-name="New Gradient Swatch copy 36" x1="625.46" y1="302.16" x2="545.89" y2="400.9" gradientUnits="userSpaceOnUse">
      <stop offset=".1" stop-color="#45108a"/>
      <stop offset="1" stop-color="#7c1dc9"/>
    </linearGradient>
    <linearGradient id="New_Gradient_Swatch_copy_36-2" data-name="New Gradient Swatch copy 36" x1="439.56" y1="296.58" x2="503.83" y2="424.31" xlink:href="#New_Gradient_Swatch_copy_36"/>
    <linearGradient id="linear-gradient" x1="506.38" y1="355.7" x2="580.03" y2="355.7" gradientUnits="userSpaceOnUse">
      <stop offset=".1" stop-color="#45108a"/>
      <stop offset=".62" stop-color="#7c1dc9"/>
      <stop offset=".9" stop-color="#5c15a5"/>
      <stop offset="1" stop-color="#501397"/>
    </linearGradient>
    <linearGradient id="linear-gradient-2" x1="506.61" y1="408.23" x2="580.47" y2="408.23" gradientUnits="userSpaceOnUse">
      <stop offset="0" stop-color="#ffbb96"/>
      <stop offset=".23" stop-color="#fffbc9"/>
      <stop offset=".54" stop-color="#f9b673"/>
      <stop offset=".64" stop-color="#f9b876"/>
      <stop offset=".72" stop-color="#fabe81"/>
      <stop offset=".81" stop-color="#fcc892"/>
      <stop offset=".86" stop-color="#fed2a3"/>
      <stop offset=".97" stop-color="#ffc28c"/>
    </linearGradient>
    <linearGradient id="linear-gradient-3" x1="506.25" y1="401.19" x2="506.27" y2="401.19" xlink:href="#linear-gradient-2"/>
    <linearGradient id="linear-gradient-4" x1="506.61" y1="412.5" x2="580.47" y2="412.5" xlink:href="#linear-gradient-2"/>
    <linearGradient id="linear-gradient-5" x1="581.29" y1="401.19" x2="581.3" y2="401.19" xlink:href="#linear-gradient-2"/>
    <linearGradient id="linear-gradient-6" x1="613.11" y1="322.23" x2="539.71" y2="396.1" gradientUnits="userSpaceOnUse">
      <stop offset=".04" stop-color="#ffba78"/>
      <stop offset=".4" stop-color="#fec986"/>
      <stop offset="1" stop-color="#feeca8"/>
    </linearGradient>
    <radialGradient id="White_Black_Radial" data-name="White, Black Radial" cx="527.65" cy="408.08" fx="527.65" fy="408.08" r="47.16" gradientUnits="userSpaceOnUse">
      <stop offset="0" stop-color="#fff"/>
      <stop offset="1" stop-color="#000"/>
    </radialGradient>
    <linearGradient id="linear-gradient-7" x1="573.93" y1="361.66" x2="519.06" y2="416.88" xlink:href="#linear-gradient-6"/>
    <radialGradient id="White_Black_Radial-2" data-name="White, Black Radial" cx="556.98" cy="374.11" fx="556.98" fy="374.11" r="20.75" xlink:href="#White_Black_Radial"/>
    <linearGradient id="linear-gradient-8" x1="584.03" y1="349.71" x2="532.25" y2="401.81" xlink:href="#linear-gradient-2"/>
    <radialGradient id="radial-gradient-23" cx="53894.01" cy="-7077.36" fx="53894.01" fy="-7077.36" r="53.26" gradientTransform="translate(-50.97 8754.48) rotate(-71.21) scale(.15 .3) skewX(-.04)" gradientUnits="userSpaceOnUse">
      <stop offset="0" stop-color="#f49587"/>
      <stop offset=".12" stop-color="#bc7368"/>
      <stop offset=".24" stop-color="#8b544c"/>
      <stop offset=".36" stop-color="#603a35"/>
      <stop offset=".48" stop-color="#3d2522"/>
      <stop offset=".61" stop-color="#221513"/>
      <stop offset=".74" stop-color="#0f0908"/>
      <stop offset=".86" stop-color="#030202"/>
      <stop offset="1" stop-color="#000"/>
    </radialGradient>
    <radialGradient id="radial-gradient-24" cx="54177.47" cy="-6995.45" fx="54177.47" fy="-6995.45" r="53.26" xlink:href="#radial-gradient-23"/>
    <linearGradient id="linear-gradient-9" x1="529.77" y1="392.22" x2="557.73" y2="392.22" xlink:href="#linear-gradient-2"/>
    <linearGradient id="linear-gradient-10" x1="571.15" y1="376.16" x2="547.31" y2="389.17" xlink:href="#linear-gradient-6"/>
    <radialGradient id="radial-gradient-25" cx="524.61" cy="393.12" fx="524.61" fy="393.12" r="25.03" gradientTransform="matrix(1, 0, 0, 1, 0, 0)" xlink:href="#radial-gradient-23"/>
    <radialGradient id="radial-gradient-26" cx="7166.91" cy="-10290.31" fx="7166.91" fy="-10290.31" r="23.72" gradientTransform="translate(9007.29 5436.43) rotate(-180) scale(1.18 -.49)" gradientUnits="userSpaceOnUse">
      <stop offset=".19" stop-color="#785c5d"/>
      <stop offset="1" stop-color="#fff"/>
    </radialGradient>
    <linearGradient id="linear-gradient-11" y1="365.21" y2="365.21" xlink:href="#linear-gradient-2"/>
    <linearGradient id="linear-gradient-12" x1="506.25" y1="358.18" x2="506.27" y2="358.18" xlink:href="#linear-gradient-2"/>
    <linearGradient id="linear-gradient-13" x1="506.61" y1="369.49" x2="580.47" y2="369.49" xlink:href="#linear-gradient-2"/>
    <linearGradient id="linear-gradient-14" x1="581.29" y1="358.18" x2="581.3" y2="358.18" xlink:href="#linear-gradient-2"/>
    <linearGradient id="linear-gradient-15" x1="613.11" y1="279.22" x2="539.71" y2="353.08" xlink:href="#linear-gradient-6"/>
    <radialGradient id="White_Black_Radial-3" data-name="White, Black Radial" cy="365.06" fy="365.06" r="47.16" xlink:href="#White_Black_Radial"/>
    <linearGradient id="linear-gradient-16" x1="573.93" y1="318.65" x2="519.06" y2="373.86" xlink:href="#linear-gradient-6"/>
    <radialGradient id="White_Black_Radial-4" data-name="White, Black Radial" cx="556.98" cy="331.09" fx="556.98" fy="331.09" r="20.75" xlink:href="#White_Black_Radial"/>
    <linearGradient id="linear-gradient-17" x1="584.03" y1="306.69" x2="532.25" y2="358.8" xlink:href="#linear-gradient-2"/>
    <radialGradient id="radial-gradient-27" cx="54165.5" cy="-7123.11" fx="54165.5" fy="-7123.11" r="53.26" xlink:href="#radial-gradient-23"/>
    <radialGradient id="radial-gradient-28" cx="54448.96" cy="-7041.2" fx="54448.96" fy="-7041.2" r="53.26" xlink:href="#radial-gradient-23"/>
    <linearGradient id="linear-gradient-18" x1="529.77" y1="349.2" x2="557.73" y2="349.2" xlink:href="#linear-gradient-2"/>
    <linearGradient id="linear-gradient-19" x1="571.15" y1="333.14" x2="547.31" y2="346.15" xlink:href="#linear-gradient-6"/>
    <radialGradient id="radial-gradient-29" cx="524.61" cy="350.1" fx="524.61" fy="350.1" r="25.03" gradientTransform="matrix(1, 0, 0, 1, 0, 0)" xlink:href="#radial-gradient-23"/>
    <linearGradient id="New_Gradient_Swatch_copy_36-3" data-name="New Gradient Swatch copy 36" x1="455.02" y1="387.03" x2="641.97" y2="387.03" xlink:href="#New_Gradient_Swatch_copy_36"/>
    <linearGradient id="New_Gradient_Swatch_copy_36-4" data-name="New Gradient Swatch copy 36" x1="563.22" y1="368.37" x2="641.12" y2="439.16" xlink:href="#New_Gradient_Swatch_copy_36"/>
    <radialGradient id="Radial_Gradient_1" data-name="Radial Gradient 1" cx="606.48" cy="349.9" fx="606.48" fy="349.9" r="30.09" gradientUnits="userSpaceOnUse">
      <stop offset="0" stop-color="#fff"/>
      <stop offset="1" stop-color="#000"/>
    </radialGradient>
    <linearGradient id="New_Gradient_Swatch_copy_36-5" data-name="New Gradient Swatch copy 36" x1="625.46" y1="226.84" x2="545.89" y2="325.59" xlink:href="#New_Gradient_Swatch_copy_36"/>
    <radialGradient id="Radial_Gradient_1-2" data-name="Radial Gradient 1" cx="551.51" cy="300.6" fx="551.51" fy="300.6" r="49.15" xlink:href="#Radial_Gradient_1"/>
    <radialGradient id="radial-gradient-30" cy="-10379.04" fy="-10379.04" r="23.72" xlink:href="#radial-gradient-26"/>
    <linearGradient id="New_Gradient_Swatch_copy_18" data-name="New Gradient Swatch copy 18" x1="543.23" y1="408.91" x2="569.72" y2="408.91" gradientUnits="userSpaceOnUse">
      <stop offset=".04" stop-color="#9f19ab"/>
      <stop offset=".16" stop-color="#ae24b0"/>
      <stop offset=".41" stop-color="#d643bf"/>
      <stop offset=".63" stop-color="#ff63ce"/>
      <stop offset=".87" stop-color="#dc48c1"/>
    </linearGradient>
    <linearGradient id="New_Gradient_Swatch_copy_18-2" data-name="New Gradient Swatch copy 18" x1="443.2" y1="430.19" x2="640.29" y2="430.19" xlink:href="#New_Gradient_Swatch_copy_18"/>
    <linearGradient id="New_Gradient_Swatch_copy_9" data-name="New Gradient Swatch copy 9" x1="624.62" y1="344.59" x2="555.63" y2="440.47" gradientUnits="userSpaceOnUse">
      <stop offset=".04" stop-color="#9f19ab"/>
      <stop offset=".24" stop-color="#ae24b0"/>
      <stop offset=".65" stop-color="#d643bf"/>
      <stop offset="1" stop-color="#ff63ce"/>
    </linearGradient>
    <radialGradient id="Radial_Gradient_1-3" data-name="Radial Gradient 1" cx="577.28" cy="425.93" fx="577.28" fy="425.93" r="29.61" xlink:href="#Radial_Gradient_1"/>
    <linearGradient id="linear-gradient-20" x1="506.38" y1="390.41" x2="543.34" y2="390.41" gradientUnits="userSpaceOnUse">
      <stop offset="0" stop-color="#671ab9"/>
      <stop offset=".34" stop-color="#ad34f1"/>
      <stop offset="1" stop-color="#5513ab"/>
    </linearGradient>
    <linearGradient id="linear-gradient-21" x1="442.56" y1="408.69" x2="643.58" y2="408.69" xlink:href="#linear-gradient-20"/>
    <linearGradient id="linear-gradient-22" x1="551" y1="311.28" x2="478.68" y2="402.8" gradientUnits="userSpaceOnUse">
      <stop offset="0" stop-color="#5513ab"/>
      <stop offset="1" stop-color="#be3bff"/>
    </linearGradient>
    <radialGradient id="Radial_Gradient_1-4" data-name="Radial Gradient 1" cx="496.15" cy="395.49" fx="496.15" fy="395.49" r="39.79" xlink:href="#Radial_Gradient_1"/>
    <radialGradient id="New_Gradient_Swatch_copy" data-name="New Gradient Swatch copy" cx="4869.07" cy="5547.46" fx="4869.07" fy="5547.46" r="40.1" gradientTransform="translate(-1832.65 7696.21) rotate(-90) scale(1.51 .43)" gradientUnits="userSpaceOnUse">
      <stop offset="0" stop-color="#972a74"/>
      <stop offset=".04" stop-color="#8a266a"/>
      <stop offset=".19" stop-color="#601a49"/>
      <stop offset=".35" stop-color="#3d112f"/>
      <stop offset=".51" stop-color="#22091a"/>
      <stop offset=".67" stop-color="#0f040b"/>
      <stop offset=".83" stop-color="#030102"/>
      <stop offset="1" stop-color="#000"/>
    </radialGradient>
    <linearGradient id="linear-gradient-23" x1="543.78" y1="331.07" x2="543.78" y2="135.07" gradientUnits="userSpaceOnUse">
      <stop offset="0" stop-color="#fdd65b"/>
      <stop offset=".01" stop-color="#f6d058"/>
      <stop offset=".13" stop-color="#bda044"/>
      <stop offset=".25" stop-color="#8b7532"/>
      <stop offset=".37" stop-color="#605122"/>
      <stop offset=".49" stop-color="#3d3416"/>
      <stop offset=".62" stop-color="#221d0c"/>
      <stop offset=".74" stop-color="#0f0c05"/>
      <stop offset=".87" stop-color="#030301"/>
      <stop offset="1" stop-color="#000"/>
    </linearGradient>
    <linearGradient id="linear-gradient-24" y1="320.19" y2="320.19" xlink:href="#linear-gradient-2"/>
    <linearGradient id="linear-gradient-25" x1="506.25" y1="313.15" x2="506.27" y2="313.15" xlink:href="#linear-gradient-2"/>
    <linearGradient id="linear-gradient-26" x1="506.61" y1="324.46" x2="580.47" y2="324.46" xlink:href="#linear-gradient-2"/>
    <linearGradient id="linear-gradient-27" x1="581.29" y1="313.15" x2="581.3" y2="313.15" xlink:href="#linear-gradient-2"/>
    <linearGradient id="linear-gradient-28" x1="613.11" y1="234.2" x2="539.71" y2="308.06" xlink:href="#linear-gradient-6"/>
    <radialGradient id="White_Black_Radial-5" data-name="White, Black Radial" cy="320.04" fy="320.04" r="47.16" xlink:href="#White_Black_Radial"/>
    <linearGradient id="linear-gradient-29" x1="573.93" y1="273.62" x2="519.06" y2="328.84" xlink:href="#linear-gradient-6"/>
    <radialGradient id="White_Black_Radial-6" data-name="White, Black Radial" cx="556.98" cy="286.07" fx="556.98" fy="286.07" r="20.75" xlink:href="#White_Black_Radial"/>
    <linearGradient id="linear-gradient-30" x1="584.03" y1="261.67" x2="532.25" y2="313.77" xlink:href="#linear-gradient-2"/>
    <radialGradient id="radial-gradient-31" cx="54449.64" cy="-7171" fx="54449.64" fy="-7171" xlink:href="#radial-gradient-23"/>
    <radialGradient id="radial-gradient-32" cx="54733.11" cy="-7089.09" fx="54733.11" fy="-7089.09" r="53.26" xlink:href="#radial-gradient-23"/>
    <linearGradient id="linear-gradient-31" x1="529.77" y1="304.18" x2="557.73" y2="304.18" xlink:href="#linear-gradient-2"/>
    <linearGradient id="linear-gradient-32" x1="571.15" y1="288.12" x2="547.31" y2="301.13" xlink:href="#linear-gradient-6"/>
    <radialGradient id="radial-gradient-33" cx="524.61" cy="305.08" fx="524.61" fy="305.08" r="25.03" gradientTransform="matrix(1, 0, 0, 1, 0, 0)" xlink:href="#radial-gradient-23"/>
    <linearGradient id="linear-gradient-33" y1="259.86" y2="259.86" xlink:href="#linear-gradient-2"/>
    <linearGradient id="linear-gradient-34" x1="506.25" y1="252.83" x2="506.27" y2="252.83" xlink:href="#linear-gradient-2"/>
    <linearGradient id="linear-gradient-35" x1="506.61" y1="264.14" x2="580.47" y2="264.14" xlink:href="#linear-gradient-2"/>
    <linearGradient id="linear-gradient-36" x1="581.29" y1="252.83" x2="581.3" y2="252.83" xlink:href="#linear-gradient-2"/>
    <linearGradient id="linear-gradient-37" x1="613.11" y1="173.87" x2="539.71" y2="247.73" xlink:href="#linear-gradient-6"/>
    <radialGradient id="White_Black_Radial-7" data-name="White, Black Radial" cy="259.71" fy="259.71" r="47.16" xlink:href="#White_Black_Radial"/>
    <linearGradient id="linear-gradient-38" x1="573.93" y1="213.3" x2="519.06" y2="268.51" xlink:href="#linear-gradient-6"/>
    <radialGradient id="White_Black_Radial-8" data-name="White, Black Radial" cx="556.98" cy="225.74" fx="556.98" fy="225.74" r="20.75" xlink:href="#White_Black_Radial"/>
    <linearGradient id="linear-gradient-39" x1="584.03" y1="201.34" x2="532.25" y2="253.44" xlink:href="#linear-gradient-2"/>
    <radialGradient id="radial-gradient-34" cx="54830.39" cy="-7235.16" fx="54830.39" fy="-7235.16" r="53.26" xlink:href="#radial-gradient-23"/>
    <radialGradient id="radial-gradient-35" cx="55113.85" cy="-7153.25" fx="55113.85" fy="-7153.25" r="53.26" xlink:href="#radial-gradient-23"/>
    <linearGradient id="linear-gradient-40" x1="529.77" y1="243.85" x2="557.73" y2="243.85" xlink:href="#linear-gradient-2"/>
    <linearGradient id="linear-gradient-41" x1="571.15" y1="227.79" x2="547.31" y2="240.8" xlink:href="#linear-gradient-6"/>
    <radialGradient id="radial-gradient-36" cx="524.61" cy="244.75" fx="524.61" fy="244.75" r="25.03" gradientTransform="matrix(1, 0, 0, 1, 0, 0)" xlink:href="#radial-gradient-23"/>
    <radialGradient id="radial-gradient-37" cy="-10457.4" fy="-10457.4" r="23.72" xlink:href="#radial-gradient-26"/>
  </defs>
  <g class="cls-73">
    <g id="Layer_1" data-name="Layer 1">
      <rect class="cls-93" y="-.25" width="1080" height="607.5"/>
      <g>
        <g>
          <path class="cls-44" d="M500.73,158.21c0-1.23-.43-2.18-1.3-2.84-.87-.66-2.44-1.36-4.7-2.09-2.26-.73-4.05-1.45-5.37-2.16-3.6-1.94-5.39-4.56-5.39-7.85,0-1.71,.48-3.24,1.45-4.58,.96-1.34,2.35-2.39,4.15-3.14,1.81-.75,3.83-1.13,6.08-1.13s4.28,.41,6.05,1.23c1.77,.82,3.14,1.98,4.12,3.47,.98,1.49,1.47,3.19,1.47,5.09h-6.52c0-1.45-.46-2.58-1.37-3.38-.91-.8-2.2-1.21-3.85-1.21s-2.83,.34-3.72,1.01c-.88,.67-1.33,1.56-1.33,2.66,0,1.03,.52,1.89,1.56,2.59,1.04,.7,2.56,1.35,4.58,1.96,3.71,1.12,6.42,2.5,8.11,4.15,1.7,1.65,2.54,3.71,2.54,6.18,0,2.74-1.04,4.89-3.11,6.45-2.07,1.56-4.86,2.34-8.37,2.34-2.44,0-4.65-.45-6.66-1.34s-3.53-2.11-4.58-3.66c-1.05-1.55-1.58-3.35-1.58-5.39h6.55c0,3.49,2.09,5.24,6.26,5.24,1.55,0,2.76-.32,3.63-.95s1.3-1.51,1.3-2.64Z"/>
          <path class="cls-44" d="M518.81,137.2v5.79h4.02v4.61h-4.02v11.74c0,.87,.17,1.49,.5,1.87,.33,.38,.97,.57,1.91,.57,.7,0,1.31-.05,1.85-.15v4.76c-1.23,.38-2.5,.57-3.81,.57-4.41,0-6.66-2.23-6.74-6.68v-12.68h-3.44v-4.61h3.44v-5.79h6.29Z"/>
          <path class="cls-44" d="M539.55,148.88c-.86-.12-1.61-.17-2.26-.17-2.38,0-3.94,.8-4.68,2.41v15.4h-6.29v-23.53h5.94l.17,2.81c1.26-2.16,3.01-3.24,5.24-3.24,.7,0,1.35,.09,1.96,.28l-.09,6.05Z"/>
          <path class="cls-44" d="M552.99,166.95c-3.45,0-6.26-1.06-8.43-3.18-2.17-2.12-3.25-4.94-3.25-8.46v-.61c0-2.36,.46-4.48,1.37-6.34,.91-1.86,2.21-3.3,3.88-4.31,1.67-1.01,3.58-1.51,5.73-1.51,3.22,0,5.75,1.02,7.6,3.04,1.85,2.03,2.77,4.91,2.77,8.63v2.57h-14.98c.2,1.54,.82,2.77,1.84,3.7,1.02,.93,2.32,1.39,3.88,1.39,2.42,0,4.31-.88,5.68-2.63l3.09,3.46c-.94,1.33-2.22,2.37-3.83,3.12-1.61,.75-3.39,1.12-5.35,1.12Zm-.72-19.33c-1.25,0-2.26,.42-3.03,1.27-.78,.84-1.27,2.05-1.49,3.63h8.74v-.5c-.03-1.4-.41-2.48-1.13-3.24-.73-.76-1.75-1.15-3.09-1.15Z"/>
          <path class="cls-44" d="M579.88,166.52c-.29-.57-.5-1.27-.63-2.11-1.52,1.7-3.5,2.54-5.94,2.54-2.31,0-4.22-.67-5.73-2-1.52-1.33-2.27-3.02-2.27-5.05,0-2.49,.92-4.41,2.77-5.74,1.85-1.33,4.52-2.01,8.01-2.02h2.89v-1.35c0-1.09-.28-1.96-.84-2.61-.56-.65-1.44-.98-2.64-.98-1.06,0-1.89,.25-2.49,.76-.6,.51-.9,1.2-.9,2.09h-6.29c0-1.36,.42-2.62,1.26-3.78,.84-1.16,2.03-2.07,3.57-2.73,1.54-.66,3.26-.99,5.18-.99,2.9,0,5.2,.73,6.91,2.19,1.7,1.46,2.56,3.51,2.56,6.14v10.2c.01,2.23,.33,3.92,.94,5.07v.37h-6.35Zm-5.2-4.37c.93,0,1.78-.21,2.57-.62s1.36-.97,1.74-1.66v-4.05h-2.35c-3.15,0-4.82,1.09-5.02,3.26l-.02,.37c0,.78,.28,1.43,.83,1.94,.55,.51,1.3,.76,2.26,.76Z"/>
          <path class="cls-44" d="M596.01,142.98l.2,2.63c1.67-2.04,3.92-3.07,6.76-3.07,3.03,0,5.11,1.2,6.24,3.59,1.65-2.39,4.01-3.59,7.07-3.59,2.55,0,4.45,.74,5.7,2.23,1.25,1.49,1.87,3.72,1.87,6.71v15.03h-6.31v-15.01c0-1.33-.26-2.31-.78-2.93-.52-.62-1.44-.92-2.76-.92-1.88,0-3.19,.9-3.91,2.7l.02,16.16h-6.29v-14.98c0-1.36-.27-2.35-.8-2.96-.54-.61-1.45-.91-2.74-.91-1.78,0-3.07,.74-3.87,2.22v16.64h-6.29v-23.53h5.89Z"/>
          <path class="cls-44" d="M639.51,166.95c-3.45,0-6.26-1.06-8.43-3.18-2.17-2.12-3.25-4.94-3.25-8.46v-.61c0-2.36,.46-4.48,1.37-6.34,.91-1.86,2.21-3.3,3.88-4.31,1.67-1.01,3.58-1.51,5.73-1.51,3.22,0,5.75,1.02,7.6,3.04,1.85,2.03,2.77,4.91,2.77,8.63v2.57h-14.98c.2,1.54,.82,2.77,1.84,3.7,1.02,.93,2.32,1.39,3.88,1.39,2.42,0,4.31-.88,5.68-2.63l3.09,3.46c-.94,1.33-2.22,2.37-3.83,3.12-1.61,.75-3.39,1.12-5.35,1.12Zm-.72-19.33c-1.25,0-2.26,.42-3.03,1.27-.78,.84-1.27,2.05-1.49,3.63h8.74v-.5c-.03-1.4-.41-2.48-1.13-3.24-.73-.76-1.75-1.15-3.09-1.15Z"/>
          <path class="cls-44" d="M651.78,154.58c0-3.67,.82-6.59,2.47-8.76,1.65-2.17,3.9-3.26,6.75-3.26,2.29,0,4.18,.86,5.68,2.57v-12.01h6.31v33.41h-5.68l-.3-2.5c-1.57,1.96-3.58,2.94-6.05,2.94-2.77,0-4.99-1.09-6.67-3.27-1.67-2.18-2.51-5.22-2.51-9.1Zm6.29,.47c0,2.21,.38,3.9,1.15,5.08,.77,1.18,1.88,1.76,3.35,1.76,1.94,0,3.31-.82,4.11-2.46v-9.3c-.78-1.64-2.14-2.46-4.07-2.46-3.03,0-4.55,2.46-4.55,7.38Z"/>
        </g>
        <g>
          <path class="cls-90" d="M426.07,128.19h32.44c3.12,0,5.66,2.53,5.66,5.66h0c0,3.12-2.53,5.66-5.66,5.66h-21.12c-3.12,0-5.66,2.53-5.66,5.66v7.73c0,3.12-2.53,5.66-5.66,5.66h-13.39c-3.12,0-5.66-2.53-5.66-5.66h0c0-3.12,2.53-5.66,5.66-5.66h2.08c3.12,0,5.66-2.53,5.66-5.66v-7.73c0-3.12,2.53-5.66,5.66-5.66Z"/>
          <path class="cls-90" d="M439.39,160.63v-7.73c0-3.12,2.53-5.66,5.66-5.66h13.46c3.12,0,5.66,2.53,5.66,5.66h0c0,3.12-2.53,5.66-5.66,5.66h-2.14c-3.12,0-5.66,2.53-5.66,5.66v7.73c0,3.12-2.53,5.66-5.66,5.66h-32.37c-3.12,0-5.66-2.53-5.66-5.66h0c0-3.12,2.53-5.66,5.66-5.66h21.06c3.12,0,5.66-2.53,5.66-5.66Z"/>
        </g>
      </g>
      <circle class="cls-35" cx="540.67" cy="325.59" r="239.33"/>
      <g>
        <path class="cls-36" d="M439.43,383.8c-.12,0-.25-.03-.36-.1l-1.8-1.09c-.33-.2-.44-.63-.24-.97,.2-.33,.64-.44,.97-.24l1.8,1.09c.33,.2,.44,.63,.24,.97-.13,.22-.36,.34-.6,.34Zm-4.21-2.54c-.12,0-.25-.03-.36-.1l-2.41-1.45c-.33-.2-.44-.63-.24-.97,.2-.33,.64-.44,.97-.24l2.41,1.45c.33,.2,.44,.63,.24,.97-.13,.22-.37,.34-.6,.34Zm-4.82-2.91c-.12,0-.25-.03-.36-.1l-2.41-1.45c-.33-.2-.44-.63-.24-.97,.2-.33,.64-.44,.97-.24l2.41,1.45c.33,.2,.44,.63,.24,.97-.13,.22-.37,.34-.6,.34Zm-4.82-2.91c-.13,0-.25-.03-.36-.1l-2.09-1.26c-.22-.13-.35-.36-.34-.62s.14-.48,.36-.6l.33-.18c.34-.19,.77-.06,.96,.28,.05,.1,.08,.21,.09,.32l1.42,.86c.33,.2,.44,.63,.24,.96-.13,.22-.36,.34-.6,.34Zm.7-2.8c-.25,0-.49-.13-.62-.36-.19-.34-.06-.77,.28-.95l2.46-1.36c.34-.19,.77-.06,.95,.28,.19,.34,.06,.77-.28,.95l-2.46,1.36c-.11,.06-.22,.09-.34,.09Zm4.93-2.72c-.25,0-.49-.13-.62-.36-.19-.34-.06-.77,.28-.95l2.46-1.36c.34-.19,.77-.06,.95,.28,.19,.34,.06,.77-.28,.95l-2.46,1.36c-.11,.06-.22,.09-.34,.09Zm4.93-2.71c-.25,0-.49-.13-.62-.36-.19-.34-.06-.77,.28-.95l2.46-1.36c.34-.19,.77-.06,.95,.28,.19,.34,.06,.77-.28,.95l-2.46,1.36c-.11,.06-.22,.09-.34,.09Zm-30.7-6.87c-.12,0-.24-.03-.35-.09l-.61-.34c-.34-.19-.46-.62-.26-.96,.19-.34,.62-.46,.96-.26l.26,.14,1.48-.86c.33-.19,.77-.08,.96,.26,.2,.34,.08,.77-.26,.96l-1.83,1.06c-.11,.06-.23,.09-.35,.09Zm35.81,4c-.25,0-.49-.13-.62-.36-.03-.05-.05-.11-.07-.17l-1.66-.91c-.34-.19-.47-.61-.28-.95s.62-.47,.95-.28l2.24,1.22c.23,.12,.37,.36,.37,.62s-.14,.49-.36,.62l-.23,.13c-.11,.06-.23,.09-.34,.09Zm-38.86-5.73c-.12,0-.24-.03-.35-.09l-2.44-1.39c-.34-.19-.45-.62-.26-.96,.19-.34,.62-.45,.96-.26l2.44,1.39c.34,.19,.45,.62,.26,.96-.13,.23-.37,.35-.61,.35Zm7.31-.73c-.24,0-.48-.12-.61-.35-.2-.34-.08-.77,.26-.96l2.43-1.41c.33-.2,.77-.08,.96,.26,.2,.34,.08,.77-.26,.96l-2.43,1.41c-.11,.06-.23,.09-.35,.09Zm27.07,3.77c-.12,0-.23-.03-.34-.09l-2.47-1.35c-.34-.19-.47-.61-.28-.95,.19-.34,.62-.46,.95-.28l2.47,1.35c.34,.19,.47,.61,.28,.95-.13,.23-.37,.37-.62,.37Zm-39.28-5.82c-.12,0-.24-.03-.35-.09l-2.44-1.39c-.34-.19-.45-.62-.26-.96,.19-.34,.62-.45,.96-.26l2.44,1.39c.34,.19,.45,.62,.26,.96-.13,.23-.37,.35-.61,.35Zm17.07-.77c-.24,0-.48-.13-.61-.35-.19-.34-.08-.77,.26-.96l2.43-1.41c.33-.2,.77-.08,.96,.26,.2,.34,.08,.77-.26,.96l-2.43,1.41c-.11,.06-.23,.09-.35,.09Zm17.27,3.89c-.12,0-.23-.03-.34-.09l-2.47-1.35c-.34-.19-.47-.61-.28-.95,.19-.34,.62-.46,.95-.28l2.47,1.35c.34,.19,.47,.61,.28,.95-.13,.23-.37,.37-.62,.37Zm-39.23-5.9c-.12,0-.24-.03-.35-.09l-2.44-1.39c-.34-.19-.46-.62-.26-.96,.19-.34,.62-.45,.96-.26l2.44,1.39c.34,.19,.46,.62,.26,.96-.13,.23-.37,.36-.61,.36Zm34.3,3.2c-.12,0-.23-.03-.34-.09l-2.47-1.35c-.34-.19-.47-.61-.28-.95,.19-.34,.62-.47,.95-.28l2.47,1.35c.34,.19,.47,.61,.28,.95-.13,.23-.37,.37-.62,.37Zm-39.18-5.98c-.12,0-.24-.03-.35-.09l-2.44-1.39c-.34-.19-.45-.62-.26-.96,.19-.34,.62-.45,.96-.26l2.44,1.39c.34,.19,.45,.62,.26,.96-.13,.23-.37,.35-.61,.35Zm34.25,3.28c-.12,0-.23-.03-.34-.09l-2.47-1.35c-.34-.19-.47-.61-.28-.95,.19-.34,.62-.46,.95-.28l2.47,1.35c.34,.19,.47,.61,.28,.95-.13,.23-.37,.37-.62,.37Z"/>
        <path class="cls-16" d="M446.29,309.4c-.12,0-.24-.03-.35-.09l-2.44-1.4c-.34-.19-.45-.62-.26-.96,.2-.34,.63-.45,.96-.26l2.44,1.4c.34,.19,.45,.62,.26,.96-.13,.23-.37,.35-.61,.35Zm-4.88-2.79c-.12,0-.24-.03-.35-.09l-2.44-1.4c-.34-.19-.45-.62-.26-.96,.19-.34,.63-.45,.96-.26l2.44,1.4c.34,.19,.45,.62,.26,.96-.13,.23-.37,.35-.61,.35Zm38.1-23.59c-.12,0-.24-.03-.35-.09l-2.44-1.4c-.34-.19-.45-.62-.26-.96,.19-.34,.63-.45,.96-.26l2.44,1.4c.34,.19,.45,.62,.26,.96-.13,.23-.37,.35-.61,.35Zm-4.88-2.79c-.12,0-.24-.03-.35-.09l-2.44-1.4c-.34-.19-.45-.62-.26-.96,.19-.34,.63-.45,.96-.26l2.44,1.4c.34,.19,.45,.62,.26,.96-.13,.23-.37,.35-.61,.35Zm-38.1,23.59c-.12,0-.24-.03-.35-.09l-2.44-1.4c-.34-.19-.45-.62-.26-.96,.19-.34,.63-.45,.96-.26l2.44,1.4c.34,.19,.45,.62,.26,.96-.13,.23-.37,.35-.61,.35Zm-4.88-2.79c-.12,0-.24-.03-.35-.09l-2.44-1.4c-.34-.19-.45-.62-.26-.96,.2-.34,.63-.45,.96-.26l2.44,1.4c.34,.19,.45,.62,.26,.96-.13,.23-.37,.35-.61,.35Zm-4.88-2.79c-.12,0-.24-.03-.35-.09l-2.44-1.4c-.34-.19-.45-.62-.26-.96,.19-.34,.63-.45,.96-.26l2.44,1.4c.34,.19,.45,.62,.26,.96-.13,.23-.37,.35-.61,.35Zm-4.89-2.79c-.12,0-.24-.03-.35-.09l-1.13-.65c-.22-.12-.35-.35-.35-.6,0-.25,.12-.48,.34-.61l1.29-.79c.33-.2,.76-.1,.97,.24,.2,.33,.1,.77-.24,.97l-.27,.17,.09,.05c.34,.19,.45,.62,.26,.96-.13,.23-.37,.35-.61,.35Zm2.57-2.89c-.24,0-.47-.12-.6-.34-.2-.33-.1-.77,.23-.97l2.4-1.46c.33-.2,.76-.1,.97,.23,.2,.33,.1,.77-.23,.97l-2.4,1.46c-.11,.07-.24,.1-.37,.1Zm4.81-2.92c-.24,0-.47-.12-.6-.34-.2-.33-.1-.77,.23-.97l2.4-1.46c.33-.2,.76-.1,.97,.23,.2,.33,.1,.77-.23,.97l-2.4,1.46c-.11,.07-.24,.1-.37,.1Zm25.95-1.9c-.14,0-.28-.04-.41-.13l-2.3-1.63c-.32-.23-.39-.66-.17-.98,.23-.32,.67-.39,.98-.17l2.3,1.63c.32,.23,.39,.66,.17,.98-.14,.19-.35,.3-.57,.3Zm2.36-.52c-.23,0-.46-.12-.6-.33-.2-.33-.1-.76,.23-.97l2.39-1.48c.33-.2,.76-.1,.97,.23,.2,.33,.1,.76-.23,.97l-2.39,1.48c-.12,.07-.24,.11-.37,.11Zm-23.5-.5c-.24,0-.47-.12-.6-.34-.2-.33-.1-.77,.23-.97l2.4-1.46c.33-.2,.76-.1,.97,.23,.2,.33,.1,.77-.23,.97l-2.4,1.46c-.11,.07-.24,.1-.37,.1Zm16.55-2.23c-.14,0-.28-.04-.41-.13l-2.3-1.63c-.32-.23-.39-.66-.17-.98,.23-.32,.67-.39,.98-.17l2.3,1.63c.32,.23,.39,.66,.17,.98-.14,.19-.35,.3-.57,.3Zm11.73-.23c-.23,0-.46-.12-.6-.33-.2-.33-.1-.76,.23-.97l2.39-1.48c.33-.2,.76-.1,.97,.23,.2,.33,.1,.76-.23,.97l-2.39,1.48c-.12,.07-.24,.11-.37,.11Zm-23.47-.46c-.24,0-.47-.12-.6-.34-.2-.33-.1-.77,.23-.97l2.4-1.46c.33-.2,.76-.1,.97,.23,.2,.33,.1,.77-.23,.97l-2.4,1.46c-.11,.07-.24,.1-.37,.1Zm28.25-2.51c-.23,0-.46-.12-.6-.33-.2-.33-.1-.76,.23-.97l2.39-1.48c.33-.2,.76-.1,.97,.23,.2,.33,.1,.76-.23,.97l-2.39,1.48c-.12,.07-.24,.11-.37,.11Zm-21.1-.05c-.14,0-.28-.04-.41-.13l-.98-.69-.59,.36c-.33,.2-.77,.1-.97-.23-.2-.33-.1-.77,.23-.97l.98-.6c.24-.15,.55-.13,.77,.03l1.36,.96c.32,.23,.39,.66,.17,.98-.14,.19-.35,.3-.57,.3Z"/>
        <path class="cls-30" d="M647.04,367.7c-.24,0-.48-.13-.61-.35-.19-.34-.08-.77,.26-.96l2.44-1.4c.33-.19,.77-.08,.96,.26,.19,.34,.08,.77-.26,.96l-2.44,1.4c-.11,.06-.23,.09-.35,.09Zm4.88-2.79c-.24,0-.48-.13-.61-.35-.19-.34-.08-.77,.26-.96l2.44-1.4c.33-.19,.77-.08,.96,.26,.19,.34,.08,.77-.26,.96l-2.44,1.4c-.11,.06-.23,.09-.35,.09Zm4.88-2.8c-.24,0-.48-.13-.61-.35-.19-.34-.08-.77,.26-.96l2.44-1.4c.33-.19,.77-.08,.96,.26,.19,.34,.08,.77-.26,.96l-2.44,1.4c-.11,.06-.23,.09-.35,.09Zm4.88-2.79c-.24,0-.48-.13-.61-.35-.19-.34-.08-.77,.26-.96l2.44-1.4c.33-.19,.77-.08,.96,.26,.19,.34,.08,.77-.26,.96l-2.44,1.4c-.11,.06-.23,.09-.35,.09Zm4.88-2.79c-.24,0-.48-.13-.61-.35-.19-.34-.08-.77,.26-.96l2.44-1.4c.33-.19,.77-.08,.96,.26,.19,.34,.08,.77-.26,.96l-2.44,1.4c-.11,.06-.23,.09-.35,.09Zm1.67-2.81c-.12,0-.24-.03-.35-.1l-2.43-1.42c-.34-.19-.45-.63-.25-.96,.19-.34,.63-.45,.96-.25l2.43,1.42c.34,.19,.45,.63,.25,.96-.13,.22-.37,.35-.61,.35Zm-4.86-2.84c-.12,0-.24-.03-.35-.1l-2.43-1.42c-.34-.2-.45-.63-.25-.96,.19-.34,.63-.45,.96-.25l2.43,1.42c.34,.2,.45,.63,.25,.96-.13,.22-.37,.35-.61,.35Zm-4.86-2.84c-.12,0-.24-.03-.35-.1l-2.43-1.42c-.34-.2-.45-.63-.25-.96,.2-.34,.63-.45,.96-.25l2.43,1.42c.34,.2,.45,.63,.25,.96-.13,.22-.37,.35-.61,.35Zm-4.86-2.84c-.12,0-.24-.03-.35-.1l-.7-.41c-.22-.13-.35-.36-.35-.62,0-.25,.14-.48,.36-.61l1.76-.97c.34-.19,.77-.06,.96,.27,.19,.34,.06,.77-.27,.96l-.78,.43c.11,.21,.11,.47-.01,.68-.13,.22-.37,.35-.61,.35Zm3.52-2.74c-.25,0-.49-.13-.62-.36-.19-.34-.06-.77,.27-.96l2.46-1.36c.34-.19,.77-.06,.96,.27,.19,.34,.06,.77-.27,.96l-2.46,1.36c-.11,.06-.23,.09-.34,.09Zm4.92-2.72c-.25,0-.49-.13-.62-.36-.19-.34-.06-.77,.27-.96l2.46-1.36c.34-.19,.77-.07,.96,.27,.19,.34,.06,.77-.27,.96l-2.46,1.36c-.11,.06-.23,.09-.34,.09Zm4.92-2.72c-.25,0-.49-.13-.62-.36-.19-.34-.06-.77,.27-.96l2.46-1.36c.34-.19,.77-.07,.96,.27,.19,.34,.06,.77-.27,.96l-2.46,1.36c-.11,.06-.23,.09-.34,.09Z"/>
        <path class="cls-18" d="M429.73,439.24c-.24,0-.48-.13-.61-.36-.19-.34-.07-.77,.27-.96l2.45-1.38c.34-.19,.77-.08,.96,.27,.19,.34,.07,.77-.27,.96l-2.45,1.38c-.11,.06-.23,.09-.35,.09Zm-2.43-.71c-.12,0-.24-.03-.36-.1l-2.42-1.43c-.34-.2-.45-.63-.25-.96,.2-.34,.63-.44,.96-.25l2.42,1.43c.34,.2,.45,.63,.25,.96-.13,.22-.37,.35-.61,.35Zm7.33-2.05c-.24,0-.48-.13-.61-.36-.19-.34-.07-.77,.27-.96l2.45-1.38c.34-.19,.77-.07,.96,.27,.19,.34,.07,.77-.27,.96l-2.45,1.38c-.11,.06-.23,.09-.35,.09Zm-12.17-.8c-.12,0-.24-.03-.36-.1l-2.42-1.43c-.34-.2-.45-.63-.25-.96,.2-.34,.63-.45,.96-.25l2.42,1.43c.34,.2,.45,.63,.25,.96-.13,.22-.37,.35-.61,.35Zm17.07-1.96c-.24,0-.48-.13-.61-.36-.19-.34-.07-.77,.27-.96l2.45-1.38c.34-.19,.77-.08,.96,.27,.19,.34,.07,.77-.27,.96l-2.45,1.38c-.11,.06-.23,.09-.35,.09Zm-21.92-.89c-.12,0-.24-.03-.36-.1l-2.42-1.43c-.34-.2-.45-.63-.25-.96,.2-.34,.63-.45,.96-.25l2.42,1.43c.34,.2,.45,.63,.25,.96-.13,.22-.37,.35-.61,.35Zm26.82-1.87c-.24,0-.48-.13-.61-.36-.19-.34-.07-.77,.27-.96l2.45-1.38c.34-.19,.77-.07,.96,.27,.19,.34,.07,.77-.27,.96l-2.45,1.38c-.11,.06-.23,.09-.35,.09Zm-31.66-.98c-.12,0-.25-.03-.36-.1l-2.42-1.43c-.34-.2-.45-.63-.25-.96,.2-.34,.63-.45,.96-.25l2.42,1.43c.34,.2,.45,.63,.25,.96-.13,.22-.37,.35-.61,.35Zm-4.85-2.86c-.12,0-.24-.03-.36-.1l-2.42-1.43c-.34-.2-.45-.63-.25-.96,.2-.34,.63-.44,.96-.25l2.42,1.43c.34,.2,.45,.63,.25,.96-.13,.22-.37,.35-.61,.35Zm-4.85-2.86c-.12,0-.24-.03-.36-.1l-2.42-1.43c-.34-.2-.45-.63-.25-.96,.2-.34,.63-.44,.96-.25l2.42,1.43c.34,.2,.45,.63,.25,.96-.13,.22-.37,.35-.61,.35Zm-4.85-2.86c-.12,0-.24-.03-.36-.1l-2.42-1.43c-.34-.2-.45-.63-.25-.96,.2-.34,.63-.44,.96-.25l2.42,1.43c.34,.2,.45,.63,.25,.96-.13,.22-.37,.35-.61,.35Zm-4.85-2.86c-.12,0-.25-.03-.36-.1l-2.42-1.43c-.34-.2-.45-.63-.25-.96,.2-.34,.63-.45,.96-.25l2.42,1.43c.34,.2,.45,.63,.25,.96-.13,.22-.37,.35-.61,.35Zm-4.85-2.86c-.12,0-.24-.03-.36-.1l-2.42-1.43c-.34-.2-.45-.63-.25-.96,.2-.34,.63-.44,.96-.25l2.42,1.43c.34,.2,.45,.63,.25,.96-.13,.22-.37,.35-.61,.35Z"/>
        <path class="cls-31" d="M399.91,465.08c-.24,0-.47-.12-.6-.34-.2-.33-.09-.77,.24-.96l2.41-1.44c.33-.2,.76-.09,.96,.24,.2,.33,.09,.77-.24,.96l-2.41,1.44c-.11,.07-.24,.1-.36,.1Zm4.83-2.89c-.24,0-.47-.12-.6-.34-.2-.33-.09-.77,.24-.96l2.41-1.44c.33-.2,.77-.09,.96,.24,.2,.33,.09,.77-.24,.96l-2.41,1.44c-.11,.07-.24,.1-.36,.1Zm4.83-2.89c-.24,0-.47-.12-.6-.34-.2-.33-.09-.77,.24-.96l2.41-1.44c.33-.2,.77-.09,.96,.24,.2,.33,.09,.77-.24,.96l-2.41,1.44c-.11,.07-.24,.1-.36,.1Zm4.83-2.89c-.24,0-.47-.12-.6-.34-.2-.33-.09-.77,.24-.96l2.41-1.44c.33-.2,.76-.09,.96,.24,.2,.33,.09,.77-.24,.96l-2.41,1.44c-.11,.07-.24,.1-.36,.1Zm4.83-2.89c-.24,0-.47-.12-.6-.34-.2-.33-.09-.77,.24-.96l2.41-1.44c.33-.2,.77-.09,.96,.24,.2,.33,.09,.77-.24,.96l-2.41,1.44c-.11,.07-.24,.1-.36,.1Zm16.3,7.3c-.13,0-.25-.03-.37-.1l-2.4-1.47c-.33-.2-.43-.64-.23-.97,.2-.33,.63-.44,.97-.23l2.4,1.47c.33,.2,.43,.64,.23,.97-.13,.22-.36,.34-.6,.34Zm-4.8-2.94c-.13,0-.25-.03-.37-.1l-2.4-1.47c-.33-.2-.43-.64-.23-.97,.2-.33,.63-.44,.97-.23l2.4,1.47c.33,.2,.43,.64,.23,.97-.13,.22-.36,.34-.6,.34Zm-4.8-2.94c-.13,0-.25-.03-.37-.1l-2.4-1.47c-.33-.2-.43-.64-.23-.97,.2-.33,.63-.44,.97-.23l2.4,1.47c.33,.2,.43,.64,.23,.97-.13,.22-.36,.34-.6,.34Zm12.15,6.54c-.24,0-.48-.13-.61-.35-.19-.34-.08-.77,.26-.96l2.44-1.4c.33-.19,.77-.08,.96,.26,.19,.34,.08,.77-.26,.96l-2.44,1.4c-.11,.06-.23,.09-.35,.09Zm4.88-2.81c-.24,0-.48-.13-.61-.35-.19-.34-.08-.77,.26-.96l2.44-1.4c.33-.19,.76-.08,.96,.26,.19,.34,.08,.77-.26,.96l-2.44,1.4c-.11,.06-.23,.09-.35,.09Zm4.88-2.81c-.24,0-.48-.13-.61-.35-.19-.34-.08-.77,.26-.96l2.44-1.4c.34-.19,.77-.08,.96,.26,.19,.34,.08,.77-.26,.96l-2.44,1.4c-.11,.06-.23,.09-.35,.09Zm4.87-2.81c-.24,0-.48-.13-.61-.35-.19-.34-.08-.77,.26-.96l2.44-1.4c.33-.19,.77-.08,.96,.26,.19,.34,.08,.77-.26,.96l-2.44,1.4c-.11,.06-.23,.09-.35,.09Zm4.88-2.81c-.24,0-.48-.13-.61-.35-.19-.34-.08-.77,.26-.96l2.44-1.4c.33-.19,.77-.08,.96,.26,.19,.34,.08,.77-.26,.96l-2.44,1.4c-.11,.06-.23,.09-.35,.09Zm4.88-2.81c-.24,0-.48-.13-.61-.35-.19-.34-.08-.77,.26-.96l2.44-1.4c.34-.19,.77-.08,.96,.26,.19,.34,.08,.77-.26,.96l-2.44,1.4c-.11,.06-.23,.09-.35,.09Z"/>
        <path class="cls-3" d="M525.98,560.36c-.12,0-.25-.03-.36-.1l-.34-.2c-.34-.2-.45-.63-.25-.96,.19-.34,.63-.45,.96-.25l1.75-.99c.34-.19,.77-.07,.96,.27,.19,.34,.07,.77-.27,.96l-2.1,1.19c-.11,.06-.23,.09-.35,.09Zm-2.77-1.63c-.12,0-.24-.03-.36-.1l-2.42-1.43c-.34-.2-.45-.63-.25-.96,.2-.34,.63-.44,.96-.25l2.42,1.43c.34,.2,.45,.63,.25,.96-.13,.22-.37,.35-.61,.35Zm7.32-.94c-.24,0-.48-.13-.61-.36-.19-.34-.07-.77,.27-.96l2.45-1.38c.33-.19,.77-.07,.96,.27,.19,.34,.07,.77-.27,.96l-2.45,1.38c-.11,.06-.23,.09-.34,.09Zm-12.17-1.92c-.12,0-.24-.03-.36-.1l-2.42-1.43c-.34-.2-.45-.63-.25-.96,.2-.34,.63-.44,.96-.25l2.42,1.43c.34,.2,.45,.63,.25,.96-.13,.22-.37,.35-.61,.35Zm17.07-.84c-.24,0-.48-.13-.61-.36-.19-.34-.07-.77,.27-.96l2.45-1.38c.33-.19,.77-.07,.96,.27,.19,.34,.07,.77-.27,.96l-2.45,1.38c-.11,.06-.23,.09-.34,.09Zm-21.91-2.02c-.12,0-.24-.03-.36-.1l-2.42-1.43c-.34-.2-.45-.63-.25-.96,.2-.34,.63-.45,.96-.25l2.42,1.43c.34,.2,.45,.63,.25,.96-.13,.22-.37,.35-.61,.35Zm26.82-.75c-.24,0-.48-.13-.61-.36-.19-.34-.07-.77,.27-.96l2.45-1.38c.33-.19,.77-.07,.96,.27,.19,.34,.07,.77-.27,.96l-2.45,1.38c-.11,.06-.23,.09-.34,.09Zm-31.66-2.11c-.12,0-.24-.03-.36-.1l-2.42-1.43c-.34-.2-.45-.63-.25-.96,.2-.34,.63-.45,.96-.25l2.42,1.43c.34,.2,.45,.63,.25,.96-.13,.22-.37,.35-.61,.35Zm36.56-.65c-.24,0-.48-.13-.61-.36-.19-.34-.07-.77,.27-.96l2.45-1.38c.33-.19,.77-.07,.96,.27,.19,.34,.07,.77-.27,.96l-2.45,1.38c-.11,.06-.23,.09-.34,.09Zm4.8-2.83c-.24,0-.48-.13-.61-.36-.19-.34-.07-.77,.27-.96l2.45-1.38c.33-.19,.77-.07,.96,.27,.19,.34,.07,.77-.27,.96l-2.45,1.38c-.11,.06-.23,.09-.34,.09Zm4.9-2.76c-.24,0-.48-.13-.61-.36-.19-.34-.07-.77,.27-.96l2.45-1.38c.33-.19,.77-.07,.96,.27,.19,.34,.07,.77-.27,.96l-2.45,1.38c-.11,.06-.23,.09-.34,.09Zm4.9-2.76c-.24,0-.48-.13-.61-.36-.19-.34-.07-.77,.27-.96l2.45-1.38c.33-.19,.77-.07,.96,.27,.19,.34,.07,.77-.27,.96l-2.45,1.38c-.11,.06-.23,.09-.34,.09Zm-56.01,6.15c-.12,0-.24-.03-.36-.1l-2.42-1.43c-.34-.2-.45-.63-.25-.96,.2-.34,.63-.44,.96-.25l2.42,1.43c.34,.2,.45,.63,.25,.96-.13,.22-.37,.35-.61,.35Zm-4.85-2.86c-.12,0-.24-.03-.36-.1l-2.42-1.43c-.34-.2-.45-.63-.25-.96,.2-.34,.63-.45,.96-.25l2.42,1.43c.34,.2,.45,.63,.25,.96-.13,.22-.37,.35-.61,.35Zm-4.85-2.86c-.12,0-.24-.03-.36-.1l-2.42-1.43c-.34-.2-.45-.63-.25-.96,.2-.34,.63-.45,.96-.25l2.42,1.43c.34,.2,.45,.63,.25,.96-.13,.22-.37,.35-.61,.35Zm-4.85-2.86c-.12,0-.24-.03-.36-.1l-2.42-1.43c-.34-.2-.45-.63-.25-.96,.2-.34,.63-.44,.96-.25l2.42,1.43c.34,.2,.45,.63,.25,.96-.13,.22-.37,.35-.61,.35Zm-4.85-2.86c-.12,0-.25-.03-.36-.1l-2.42-1.43c-.34-.2-.45-.63-.25-.96,.2-.34,.63-.44,.96-.25l2.42,1.43c.34,.2,.45,.63,.25,.96-.13,.22-.37,.35-.61,.35Zm-4.85-2.86c-.12,0-.24-.03-.36-.1l-2.42-1.43c-.34-.2-.45-.63-.25-.96,.2-.34,.63-.45,.96-.25l2.42,1.43c.34,.2,.45,.63,.25,.96-.13,.22-.37,.35-.61,.35Z"/>
        <path class="cls-32" d="M622.65,458.67c-.11,0-.23-.03-.34-.09l-2.47-1.34c-.34-.18-.47-.61-.28-.95,.18-.34,.61-.47,.95-.28l2.47,1.34c.34,.18,.47,.61,.28,.95-.13,.23-.37,.37-.62,.37Zm2.43-.83c-.24,0-.47-.12-.6-.34-.2-.33-.09-.77,.24-.96l2.41-1.44c.33-.2,.77-.09,.96,.24,.2,.33,.09,.77-.24,.96l-2.41,1.44c-.11,.07-.24,.1-.36,.1Zm-7.37-1.85c-.11,0-.23-.03-.34-.09l-2.47-1.34c-.34-.18-.47-.61-.28-.95,.18-.34,.61-.47,.95-.28l2.47,1.34c.34,.18,.47,.61,.28,.95-.13,.23-.37,.37-.62,.37Zm12.2-1.04c-.24,0-.47-.12-.6-.34-.2-.33-.09-.77,.24-.96l2.41-1.44c.33-.2,.76-.09,.96,.24,.2,.33,.09,.77-.24,.96l-2.41,1.44c-.11,.07-.24,.1-.36,.1Zm-17.15-1.64c-.11,0-.23-.03-.34-.09l-2.47-1.34c-.34-.18-.47-.61-.28-.95,.18-.34,.61-.47,.95-.28l2.47,1.34c.34,.18,.47,.61,.28,.95-.13,.23-.37,.37-.62,.37Zm21.98-1.25c-.24,0-.47-.12-.6-.34-.2-.33-.09-.77,.24-.96l2.41-1.44c.33-.2,.76-.09,.96,.24,.2,.33,.09,.77-.24,.96l-2.41,1.44c-.11,.07-.24,.1-.36,.1Zm7.24-1.59c-.12,0-.25-.03-.36-.1l-2-1.2c-.24,0-.52-.1-.66-.34-.2-.33-.09-.77,.24-.96l.13-.08c.22-.13,.5-.13,.72,0l2.29,1.37c.33,.2,.44,.63,.24,.96-.13,.22-.36,.34-.6,.34Z"/>
        <path class="cls-33" d="M645.95,440.19c-.12,0-.25-.03-.36-.1l-.93-.55c-.34-.2-.45-.63-.25-.96,.2-.34,.63-.45,.96-.25l.58,.34,1.15-.66c.34-.2,.77-.08,.96,.26,.19,.34,.08,.77-.26,.96l-1.5,.87c-.11,.06-.23,.09-.35,.09Zm-3.36-1.97c-.12,0-.24-.03-.36-.1l-2.43-1.42c-.34-.2-.45-.63-.25-.96,.2-.34,.63-.45,.96-.25l2.43,1.42c.34,.2,.45,.63,.25,.96-.13,.22-.37,.35-.61,.35Zm7.3-.3c-.24,0-.48-.13-.61-.35-.19-.34-.08-.77,.26-.96l2.44-1.41c.34-.2,.77-.08,.96,.26,.2,.34,.08,.77-.26,.96l-2.44,1.41c-.11,.06-.23,.09-.35,.09Zm-12.15-2.54c-.12,0-.24-.03-.36-.1l-2.43-1.42c-.34-.2-.45-.63-.25-.96,.2-.34,.63-.45,.96-.25l2.43,1.42c.34,.2,.45,.63,.25,.96-.13,.22-.37,.35-.61,.35Zm17.02-.27c-.24,0-.48-.13-.61-.35-.2-.34-.08-.77,.26-.96l2.44-1.41c.34-.2,.77-.08,.96,.26,.19,.34,.08,.77-.26,.96l-2.44,1.41c-.11,.06-.23,.09-.35,.09Zm4.87-2.81c-.24,0-.48-.13-.61-.35-.19-.34-.08-.77,.26-.96l2.44-1.41c.34-.2,.77-.08,.96,.26,.2,.34,.08,.77-.26,.96l-2.44,1.41c-.11,.06-.23,.09-.35,.09Zm4.87-2.81c-.24,0-.48-.13-.61-.35-.2-.34-.08-.77,.26-.96l2.44-1.41c.33-.2,.77-.08,.96,.26,.2,.34,.08,.77-.26,.96l-2.44,1.41c-.11,.06-.23,.09-.35,.09Zm4.87-2.81c-.24,0-.48-.13-.61-.35-.2-.34-.08-.77,.26-.96l2.44-1.41c.34-.2,.77-.08,.96,.26,.2,.34,.08,.77-.26,.96l-2.44,1.41c-.11,.06-.23,.09-.35,.09Zm4.87-2.81c-.24,0-.48-.13-.61-.35-.2-.34-.08-.77,.26-.96l2.44-1.41c.34-.2,.77-.08,.96,.26,.2,.34,.08,.77-.26,.96l-2.44,1.41c-.11,.06-.23,.09-.35,.09Zm4.87-2.81c-.24,0-.48-.13-.61-.35-.2-.34-.08-.77,.26-.96l2.44-1.41c.34-.2,.77-.08,.96,.26,.19,.34,.08,.77-.26,.96l-2.44,1.41c-.11,.06-.23,.09-.35,.09Zm4.87-2.81c-.24,0-.48-.13-.61-.35-.2-.34-.08-.77,.26-.96l2.44-1.41c.34-.2,.77-.08,.96,.26,.2,.34,.08,.77-.26,.96l-2.44,1.41c-.11,.06-.23,.09-.35,.09Zm4.87-2.81c-.24,0-.48-.13-.61-.35-.19-.34-.08-.77,.26-.96l2.44-1.41c.34-.2,.77-.08,.96,.26,.2,.34,.08,.77-.26,.96l-2.44,1.41c-.11,.06-.23,.09-.35,.09Zm4.87-2.81c-.24,0-.48-.13-.61-.35-.2-.34-.08-.77,.26-.96l2.44-1.41c.34-.2,.77-.08,.96,.26,.19,.34,.08,.77-.26,.96l-2.44,1.41c-.11,.06-.23,.09-.35,.09Zm4.87-2.81c-.24,0-.48-.13-.61-.35-.2-.34-.08-.77,.26-.96l2.44-1.41c.33-.2,.77-.08,.96,.26,.2,.34,.08,.77-.26,.96l-2.44,1.41c-.11,.06-.23,.09-.35,.09Z"/>
        <path class="cls-26" d="M708.43,455.54c-.2-.33-.09-.77,.25-.96l2.42-1.43c.33-.2,.77-.09,.96,.25,.2,.33,.09,.77-.25,.96l-2.42,1.43c-.11,.07-.24,.1-.36,.1-.24,0-.47-.12-.6-.34Zm4.84-2.87c-.2-.33-.09-.77,.25-.96l2.42-1.43c.33-.2,.77-.09,.96,.25,.2,.33,.09,.77-.25,.96l-2.42,1.43c-.11,.07-.24,.1-.36,.1-.24,0-.47-.12-.6-.34Zm4.84-2.87c-.2-.33-.09-.77,.25-.96l2.42-1.43c.33-.2,.77-.09,.96,.25,.2,.33,.09,.77-.25,.96l-2.42,1.43c-.11,.07-.24,.1-.36,.1-.24,0-.47-.12-.6-.34Zm-23.98,14.29c-.2-.33-.09-.77,.25-.96l2.42-1.43c.33-.2,.77-.09,.96,.25,.2,.33,.09,.77-.25,.96l-2.42,1.43c-.11,.07-.24,.1-.36,.1-.24,0-.47-.12-.6-.34Zm4.84-2.87c-.2-.33-.09-.77,.25-.96l2.42-1.43c.33-.2,.77-.09,.96,.25,.2,.33,.09,.77-.25,.96l-2.42,1.43c-.11,.07-.24,.1-.36,.1-.24,0-.47-.12-.6-.34Zm4.84-2.87c-.2-.33-.09-.77,.25-.96l2.42-1.43c.33-.2,.77-.09,.96,.25,.2,.33,.09,.77-.25,.96l-2.42,1.43c-.11,.07-.24,.1-.36,.1-.24,0-.47-.12-.6-.34Zm19.14-11.42c-.2-.33-.09-.77,.25-.96l2.42-1.43c.33-.2,.77-.09,.96,.25,.2,.33,.09,.77-.25,.96l-2.42,1.43c-.11,.07-.24,.1-.36,.1-.24,0-.47-.12-.6-.34Zm4.84-2.87c-.2-.33-.09-.77,.25-.96l2.42-1.43c.33-.2,.77-.09,.96,.25,.2,.33,.09,.77-.25,.96l-2.42,1.43c-.11,.07-.24,.1-.36,.1-.24,0-.47-.12-.6-.34Zm4.84-2.87c-.2-.33-.09-.77,.25-.96l2.42-1.43c.33-.2,.77-.09,.96,.25,.2,.33,.09,.77-.25,.96l-2.42,1.43c-.11,.07-.24,.1-.36,.1-.24,0-.47-.12-.6-.34Zm4.84-2.87c-.2-.33-.09-.77,.25-.96l2.42-1.43c.33-.2,.77-.09,.96,.25,.2,.33,.09,.77-.25,.96l-2.42,1.43c-.11,.07-.24,.1-.36,.1-.24,0-.47-.12-.6-.34Zm4.84-2.87c-.2-.33-.09-.77,.25-.96l2.42-1.43c.33-.2,.77-.09,.96,.25,.2,.33,.09,.77-.25,.96l-2.42,1.43c-.11,.07-.24,.1-.36,.1-.24,0-.47-.12-.6-.34Zm4.84-2.87c-.2-.33-.09-.77,.25-.96l2.42-1.43c.33-.2,.77-.09,.96,.25,.2,.33,.09,.77-.25,.96l-2.42,1.43c-.11,.07-.24,.1-.36,.1-.24,0-.47-.12-.6-.34Zm4.84-2.87c-.2-.33-.09-.77,.25-.96l2.42-1.43c.33-.2,.77-.09,.96,.25,.2,.33,.09,.77-.25,.96l-2.42,1.43c-.11,.07-.24,.1-.36,.1-.24,0-.47-.12-.6-.34Zm1.75-3.01l-2.42-1.43c-.33-.2-.45-.63-.25-.96,.2-.34,.63-.44,.96-.25l2.42,1.43c.33,.2,.45,.63,.25,.96-.13,.22-.37,.34-.6,.34-.12,0-.25-.03-.36-.1Zm-4.84-2.87l-2.42-1.43c-.33-.2-.45-.63-.25-.96,.2-.34,.63-.45,.96-.25l2.42,1.43c.33,.2,.45,.63,.25,.96-.13,.22-.37,.34-.6,.34-.12,0-.25-.03-.36-.1Zm-4.84-2.87l-2.42-1.43c-.33-.2-.45-.63-.25-.96,.2-.33,.63-.45,.96-.25l2.42,1.43c.33,.2,.45,.63,.25,.96-.13,.22-.37,.34-.6,.34-.12,0-.25-.03-.36-.1Zm-4.84-2.87l-2.42-1.43c-.33-.2-.45-.63-.25-.96,.2-.33,.63-.45,.96-.25l2.42,1.43c.33,.2,.45,.63,.25,.96-.13,.22-.37,.34-.6,.34-.12,0-.25-.03-.36-.1Zm-4.84-2.87l-2.42-1.43c-.33-.2-.45-.63-.25-.96,.2-.33,.63-.45,.96-.25l2.42,1.43c.33,.2,.45,.63,.25,.96-.13,.22-.37,.34-.6,.34-.12,0-.25-.03-.36-.1Z"/>
        <circle class="cls-21" cx="680.01" cy="420.02" r="15.98" transform="translate(-108.6 289.95) rotate(-22.34)"/>
        <path class="cls-29" d="M635.52,549.31c-.12,0-.25-.03-.36-.1l-.93-.55c-.34-.2-.45-.63-.25-.96,.2-.34,.63-.45,.96-.25l.58,.34,1.15-.66c.34-.2,.77-.08,.96,.26,.2,.34,.08,.77-.26,.96l-1.5,.87c-.11,.06-.23,.09-.35,.09Zm-3.36-1.97c-.12,0-.24-.03-.36-.1l-2.43-1.42c-.34-.2-.45-.63-.25-.96,.2-.34,.63-.45,.96-.25l2.43,1.42c.34,.2,.45,.63,.25,.96-.13,.22-.37,.35-.61,.35Zm7.3-.3c-.24,0-.48-.13-.61-.35-.2-.34-.08-.77,.26-.96l2.44-1.41c.34-.2,.77-.08,.96,.26,.2,.34,.08,.77-.26,.96l-2.44,1.41c-.11,.06-.23,.09-.35,.09Zm-12.15-2.54c-.12,0-.24-.03-.36-.1l-2.43-1.42c-.34-.2-.45-.63-.25-.96,.19-.34,.63-.45,.96-.25l2.43,1.42c.34,.2,.45,.63,.25,.96-.13,.22-.37,.35-.61,.35Zm17.02-.27c-.24,0-.48-.13-.61-.35-.19-.34-.08-.77,.26-.96l2.44-1.41c.34-.2,.77-.08,.96,.26,.2,.34,.08,.77-.26,.96l-2.44,1.41c-.11,.06-.23,.09-.35,.09Zm4.87-2.81c-.24,0-.48-.13-.61-.35-.2-.34-.08-.77,.26-.96l2.44-1.41c.34-.2,.77-.08,.96,.26,.19,.34,.08,.77-.26,.96l-2.44,1.41c-.11,.06-.23,.09-.35,.09Zm4.87-2.81c-.24,0-.48-.13-.61-.35-.19-.34-.08-.77,.26-.96l2.44-1.41c.33-.2,.77-.08,.96,.26,.2,.34,.08,.77-.26,.96l-2.44,1.41c-.11,.06-.23,.09-.35,.09Zm4.87-2.81c-.24,0-.48-.13-.61-.35-.2-.34-.08-.77,.26-.96l2.44-1.41c.34-.2,.77-.08,.96,.26,.19,.34,.08,.77-.26,.96l-2.44,1.41c-.11,.06-.23,.09-.35,.09Zm4.87-2.81c-.24,0-.48-.13-.61-.35-.2-.34-.08-.77,.26-.96l2.44-1.41c.34-.2,.77-.08,.96,.26,.2,.34,.08,.77-.26,.96l-2.44,1.41c-.11,.06-.23,.09-.35,.09Zm4.87-2.81c-.24,0-.48-.13-.61-.35-.19-.34-.08-.77,.26-.96l2.44-1.41c.34-.2,.77-.08,.96,.26,.2,.34,.08,.77-.26,.96l-2.44,1.41c-.11,.06-.23,.09-.35,.09Zm4.87-2.81c-.24,0-.48-.13-.61-.35-.2-.34-.08-.77,.26-.96l2.44-1.41c.34-.2,.77-.08,.96,.26,.19,.34,.08,.77-.26,.96l-2.44,1.41c-.11,.06-.23,.09-.35,.09Zm4.87-2.81c-.24,0-.48-.13-.61-.35-.2-.34-.08-.77,.26-.96l2.44-1.41c.34-.2,.77-.08,.96,.26,.2,.34,.08,.77-.26,.96l-2.44,1.41c-.11,.06-.23,.09-.35,.09Zm4.87-2.81c-.24,0-.48-.13-.61-.35-.19-.34-.08-.77,.26-.96l2.44-1.41c.34-.2,.77-.08,.96,.26,.2,.34,.08,.77-.26,.96l-2.44,1.41c-.11,.06-.23,.09-.35,.09Zm4.87-2.81c-.24,0-.48-.13-.61-.35-.2-.34-.08-.77,.26-.96l2.44-1.41c.33-.2,.77-.08,.96,.26,.19,.34,.08,.77-.26,.96l-2.44,1.41c-.11,.06-.23,.09-.35,.09Zm4.87-2.81c-.24,0-.48-.13-.61-.35-.19-.34-.08-.77,.26-.96l1.09-.63c-.04-.17-.02-.36,.07-.52,.2-.34,.63-.45,.96-.26l.51,.29c.22,.13,.35,.36,.35,.61s-.13,.48-.35,.61l-1.93,1.11c-.11,.06-.23,.09-.35,.09Z"/>
        <path class="cls-25" d="M318.28,419.47c.2,.34,.08,.77-.25,.96l-2.43,1.42c-.33,.19-.77,.09-.96-.25-.2-.34-.08-.77,.25-.96l2.43-1.42c.11-.06,.23-.1,.36-.1,.24,0,.48,.12,.61,.35Zm-17.22,11.19l2.44,1.41c.34,.19,.45,.62,.26,.96-.19,.34-.62,.46-.96,.26l-2.44-1.41c-.34-.19-.45-.62-.26-.96,.13-.23,.37-.35,.61-.35,.12,0,.24,.03,.35,.09Zm12.37-8.34c.2,.34,.08,.77-.25,.96l-2.43,1.42c-.34,.19-.77,.08-.96-.25-.2-.34-.08-.77,.25-.96l2.43-1.42c.11-.06,.23-.1,.36-.1,.24,0,.48,.13,.61,.35Zm-4.64,2.43c.2,.34,.08,.77-.25,.96l-2.43,1.42c-.33,.19-.77,.09-.96-.25-.2-.34-.08-.77,.25-.96l2.43-1.42c.11-.06,.23-.1,.36-.1,.24,0,.48,.12,.61,.35Zm-4.85,2.85c.2,.34,.08,.77-.25,.96l-2.43,1.42c-.34,.19-.77,.08-.96-.25-.2-.34-.08-.77,.25-.96l2.43-1.42c.11-.06,.23-.1,.36-.1,.24,0,.48,.13,.61,.35Zm2,5.88l2.44,1.41c.34,.19,.45,.62,.26,.96-.19,.34-.62,.45-.96,.26l-2.44-1.41c-.34-.19-.45-.62-.26-.96,.13-.23,.37-.35,.61-.35,.12,0,.24,.03,.35,.09Zm4.87,2.81l2.44,1.41c.34,.19,.45,.62,.26,.96-.19,.34-.62,.45-.96,.26l-2.44-1.41c-.34-.19-.45-.62-.26-.96,.13-.23,.37-.35,.61-.35,.12,0,.24,.03,.35,.09Zm4.87,2.81l2.44,1.41c.34,.19,.45,.62,.26,.96-.19,.34-.63,.45-.96,.26l-2.44-1.41c-.34-.19-.45-.62-.26-.96,.13-.23,.37-.35,.61-.35,.12,0,.24,.03,.35,.09Zm4.87,2.81l2.44,1.41c.34,.19,.45,.62,.26,.96-.19,.34-.62,.45-.96,.26l-2.44-1.41c-.34-.19-.45-.62-.26-.96,.13-.23,.37-.35,.61-.35,.12,0,.24,.03,.35,.09Zm4.87,2.81l2.44,1.41c.34,.19,.45,.62,.26,.96-.19,.34-.62,.45-.96,.26l-2.44-1.41c-.34-.19-.45-.62-.26-.96,.13-.23,.37-.35,.61-.35,.12,0,.24,.03,.35,.09Zm4.87,2.81l2.44,1.41c.34,.19,.45,.62,.26,.96-.19,.34-.63,.45-.96,.26l-2.44-1.41c-.34-.19-.45-.62-.26-.96,.13-.23,.37-.35,.61-.35,.12,0,.24,.03,.35,.09Zm4.87,2.81l2.44,1.41c.34,.19,.45,.62,.26,.96-.19,.34-.62,.45-.96,.26l-2.44-1.41c-.34-.19-.45-.62-.26-.96,.13-.23,.37-.35,.61-.35,.12,0,.24,.03,.35,.09Zm4.87,2.81l2.44,1.41c.34,.19,.45,.62,.26,.96-.19,.34-.62,.45-.96,.26l-2.44-1.41c-.34-.19-.45-.62-.26-.96,.13-.23,.37-.35,.61-.35,.12,0,.24,.03,.35,.09Zm4.87,2.81l2.44,1.41c.34,.19,.45,.62,.26,.96-.19,.34-.62,.45-.96,.26l-2.44-1.41c-.34-.19-.45-.62-.26-.96,.13-.23,.37-.35,.61-.35,.12,0,.24,.03,.35,.09Zm4.87,2.81l2.44,1.41c.34,.19,.45,.62,.26,.96-.19,.34-.63,.45-.96,.26l-2.44-1.41c-.34-.19-.45-.62-.26-.96,.13-.23,.37-.35,.61-.35,.12,0,.24,.03,.35,.09Z"/>
        <circle class="cls-5" cx="669.58" cy="529.14" r="15.98"/>
        <circle class="cls-14" cx="657.3" cy="360.69" r="15.98"/>
        <circle class="cls-23" cx="416.44" cy="353.22" r="15.98" transform="translate(-127.79 397.92) rotate(-45)"/>
        <circle class="cls-12" cx="498.34" cy="543.34" r="15.98" transform="translate(-141.54 909.54) rotate(-77.26)"/>
        <path class="cls-15" d="M501.18,510.8c-.24,0-.47-.12-.6-.34-.2-.33-.09-.77,.24-.96l2.41-1.44c.33-.2,.76-.09,.96,.24,.2,.33,.09,.77-.24,.96l-2.41,1.44c-.11,.07-.24,.1-.36,.1Zm4.83-2.89c-.24,0-.47-.12-.6-.34-.2-.33-.09-.77,.24-.96l2.41-1.44c.33-.2,.77-.09,.96,.24,.2,.33,.09,.77-.24,.96l-2.41,1.44c-.11,.07-.24,.1-.36,.1Zm4.83-2.89c-.24,0-.47-.12-.6-.34-.2-.33-.09-.77,.24-.96l2.41-1.44c.33-.2,.77-.09,.96,.24,.2,.33,.09,.77-.24,.96l-2.41,1.44c-.11,.07-.24,.1-.36,.1Zm4.83-2.89c-.24,0-.47-.12-.6-.34-.2-.33-.09-.77,.24-.96l2.41-1.44c.33-.2,.76-.09,.96,.24,.2,.33,.09,.77-.24,.96l-2.41,1.44c-.11,.07-.24,.1-.36,.1Zm4.83-2.89c-.24,0-.47-.12-.6-.34-.2-.33-.09-.77,.24-.96l2.41-1.44c.33-.2,.77-.09,.96,.24,.2,.33,.09,.77-.24,.96l-2.41,1.44c-.11,.07-.24,.1-.36,.1Zm.83-3.25c-.13,0-.25-.03-.37-.1l-2.4-1.47c-.33-.2-.43-.64-.23-.97,.2-.33,.63-.44,.97-.23l2.4,1.47c.33,.2,.43,.64,.23,.97-.13,.22-.36,.34-.6,.34Zm-4.8-2.94c-.13,0-.25-.03-.37-.1l-2.4-1.47c-.33-.2-.43-.64-.23-.97,.2-.33,.63-.44,.97-.23l2.4,1.47c.33,.2,.43,.64,.23,.97-.13,.22-.36,.34-.6,.34Zm-4.8-2.94c-.13,0-.25-.03-.37-.1l-2.4-1.47c-.33-.2-.43-.64-.23-.97,.2-.33,.63-.44,.97-.23l2.4,1.47c.33,.2,.43,.64,.23,.97-.13,.22-.36,.34-.6,.34Zm-4.94-2.91c-.13,0-.25-.03-.37-.1l-2.4-1.47c-.33-.2-.43-.64-.23-.97,.2-.33,.63-.44,.97-.23l2.4,1.47c.33,.2,.43,.64,.23,.97-.13,.22-.36,.34-.6,.34Zm-4.8-2.94c-.13,0-.25-.03-.37-.1l-2.4-1.47c-.33-.2-.43-.64-.23-.97,.2-.33,.63-.44,.97-.23l2.4,1.47c.33,.2,.43,.64,.23,.97-.13,.22-.36,.34-.6,.34Zm-4.8-2.94c-.13,0-.25-.03-.37-.1l-2.4-1.47c-.33-.2-.43-.64-.23-.97,.2-.33,.63-.44,.97-.23l2.4,1.47c.33,.2,.43,.64,.23,.97-.13,.22-.36,.34-.6,.34Zm-4.71-2.85c-.13,0-.25-.03-.37-.1l-2.4-1.47c-.33-.2-.43-.64-.23-.97,.2-.33,.63-.44,.97-.23l2.4,1.47c.33,.2,.43,.64,.23,.97-.13,.22-.36,.34-.6,.34Zm-4.8-2.94c-.13,0-.25-.03-.37-.1l-2.4-1.47c-.33-.2-.43-.64-.23-.97,.2-.33,.63-.44,.97-.23l2.4,1.47c.33,.2,.43,.64,.23,.97-.13,.22-.36,.34-.6,.34Zm-4.8-2.94c-.13,0-.25-.03-.37-.1l-2.4-1.47c-.33-.2-.43-.64-.23-.97,.2-.33,.63-.44,.97-.23l2.4,1.47c.33,.2,.43,.64,.23,.97-.13,.22-.36,.34-.6,.34Zm-2.67-3.3c-.24,0-.48-.13-.61-.35-.19-.34-.08-.77,.26-.96l2.44-1.4c.33-.19,.76-.08,.96,.26,.19,.34,.08,.77-.26,.96l-2.44,1.4c-.11,.06-.23,.09-.35,.09Zm4.88-2.81c-.24,0-.48-.13-.61-.35-.19-.34-.08-.77,.26-.96l2.44-1.4c.34-.19,.77-.08,.96,.26,.19,.34,.08,.77-.26,.96l-2.44,1.4c-.11,.06-.23,.09-.35,.09Zm4.87-2.81c-.24,0-.48-.13-.61-.35-.19-.34-.08-.77,.26-.96l2.44-1.4c.33-.19,.77-.08,.96,.26,.19,.34,.08,.77-.26,.96l-2.44,1.4c-.11,.06-.23,.09-.35,.09Zm4.88-2.81c-.24,0-.48-.13-.61-.35-.19-.34-.08-.77,.26-.96l2.44-1.4c.33-.19,.77-.08,.96,.26,.19,.34,.08,.77-.26,.96l-2.44,1.4c-.11,.06-.23,.09-.35,.09Z"/>
        <path class="cls-4" d="M581.58,486.72c-.13,0-.25-.03-.37-.1l-2.4-1.47c-.33-.2-.43-.64-.23-.97,.2-.33,.63-.44,.97-.23l2.4,1.47c.33,.2,.43,.64,.23,.97-.13,.22-.36,.34-.6,.34Zm-4.8-2.94c-.13,0-.25-.03-.37-.1l-2.4-1.47c-.33-.2-.43-.64-.23-.97,.2-.33,.63-.44,.97-.23l2.4,1.47c.33,.2,.43,.64,.23,.97-.13,.22-.36,.34-.6,.34Zm-4.94-2.91c-.13,0-.25-.03-.37-.1l-2.4-1.47c-.33-.2-.43-.64-.23-.97,.2-.33,.63-.44,.97-.23l2.4,1.47c.33,.2,.43,.64,.23,.97-.13,.22-.36,.34-.6,.34Zm-4.8-2.94c-.13,0-.25-.03-.37-.1l-2.4-1.47c-.33-.2-.43-.64-.23-.97,.2-.33,.63-.44,.97-.23l2.4,1.47c.33,.2,.43,.64,.23,.97-.13,.22-.36,.34-.6,.34Zm-4.8-2.94c-.13,0-.25-.03-.37-.1l-2.4-1.47c-.33-.2-.43-.64-.23-.97,.2-.33,.63-.44,.97-.23l2.4,1.47c.33,.2,.43,.64,.23,.97-.13,.22-.36,.34-.6,.34Zm-4.71-2.85c-.13,0-.25-.03-.37-.1l-2.4-1.47c-.33-.2-.43-.64-.23-.97,.2-.33,.63-.44,.97-.23l2.4,1.47c.33,.2,.43,.64,.23,.97-.13,.22-.36,.34-.6,.34Zm-4.8-2.94c-.13,0-.25-.03-.37-.1l-2.4-1.47c-.33-.2-.43-.64-.23-.97,.2-.33,.63-.44,.97-.23l2.4,1.47c.33,.2,.43,.64,.23,.97-.13,.22-.36,.34-.6,.34Zm-4.8-2.94c-.13,0-.25-.03-.37-.1l-2.4-1.47c-.33-.2-.43-.64-.23-.97,.2-.33,.63-.44,.97-.23l2.4,1.47c.33,.2,.43,.64,.23,.97-.13,.22-.36,.34-.6,.34Z"/>
        <circle class="cls-24" cx="491.28" cy="462.03" r="15.98" transform="translate(-43.24 873.26) rotate(-80.82)"/>
        <circle class="cls-11" cx="407.07" cy="426.16" r="15.98"/>
      </g>
      <g>
        <g class="cls-97">
          <g>
            <g class="cls-41">
              <path class="cls-96" d="M542.93,346.05c-55.43-.1-100.23,25.76-100.05,57.77l63.54,.11c-.02-5.44,3.54-10.86,10.7-15,14.33-8.28,37.65-8.23,52.07,.09,14.42,8.32,14.49,21.77,.18,30.05l45.08,26.02c19.54-11.28,29.26-24.92,29.18-40.92-.17-32-45.25-58.03-100.68-58.13Z"/>
              <polygon class="cls-42" points="506.38 328.61 442.87 328.5 442.87 403.92 506.38 403.92 506.38 328.61"/>
              <path class="cls-99" d="M517.11,388.94c14.33-8.28,37.65-8.23,52.07,.09,7.13,4.12,10.74,9.49,10.85,14.87v-74.93c.06-5.51-3.55-11.04-10.85-15.26-14.42-8.33-37.74-8.37-52.07-.09-7.07,4.08-10.62,9.43-10.69,14.8h-.05v75.55h.03c-.04-5.45,3.52-10.89,10.7-15.03Z"/>
              <g>
                <path class="cls-39" d="M581.3,391.86h-75.05v10.59h.01c0,.1-.01,.2-.01,.3,0,12.07,16.8,21.85,37.52,21.85s37.52-9.78,37.52-21.85c0-.1-.01-.2-.01-.3h.01v-10.59Z"/>
                <g class="cls-68">
                  <path class="cls-98" d="M506.25,401.04v.3c0-.1,.01-.2,.01-.3h-.01Z"/>
                  <path class="cls-105" d="M543.78,422.26c-20.72,0-37.52-9.78-37.52-21.85v2.04h.01c0,.1-.01,.2-.01,.3,0,12.07,16.8,21.85,37.52,21.85s37.52-9.78,37.52-21.85c0-.1-.01-.2-.01-.3h.01v-2.04c0,12.07-16.8,21.85-37.52,21.85Z"/>
                  <path class="cls-87" d="M581.3,401.34v-.3h-.01c0,.1,.01,.2,.01,.3Z"/>
                </g>
                <g class="cls-68">
                  <path class="cls-92" d="M555.27,423.54c.36-.07,.7-.15,1.05-.22v-27.75h-1.05v27.97Z"/>
                  <path class="cls-92" d="M559.99,422.43c.35-.1,.71-.19,1.05-.3v-26.56h-1.05v26.86Z"/>
                  <path class="cls-92" d="M564.7,420.89c.36-.14,.7-.3,1.05-.45v-24.86h-1.05v25.31Z"/>
                  <path class="cls-92" d="M550.56,424.22c.35-.04,.7-.07,1.05-.11v-28.54h-1.05v28.65Z"/>
                  <path class="cls-92" d="M574.13,415.56c.36-.29,.72-.57,1.05-.87v-19.12h-1.05v19.99Z"/>
                  <path class="cls-92" d="M578.84,410.47c.4-.61,.75-1.23,1.05-1.86v-13.04h-1.05v14.9Z"/>
                  <path class="cls-92" d="M569.41,418.67c.35-.19,.71-.37,1.05-.57v-22.53h-1.05v23.1Z"/>
                  <path class="cls-92" d="M545.84,424.54c.35-.01,.7-.01,1.05-.03v-28.93h-1.05v28.96Z"/>
                  <path class="cls-92" d="M541.13,424.52c.35,.01,.7,.02,1.05,.03v-28.98h-1.05v28.95Z"/>
                  <path class="cls-92" d="M531.7,423.42c.35,.07,.69,.15,1.05,.22v-28.06h-1.05v27.85Z"/>
                  <path class="cls-92" d="M536.42,424.17c.35,.04,.7,.06,1.05,.09v-28.69h-1.05v28.6Z"/>
                  <path class="cls-92" d="M526.99,422.27c.35,.1,.7,.2,1.05,.29v-26.99h-1.05v26.69Z"/>
                  <path class="cls-92" d="M508.13,409.55c.32,.57,.66,1.13,1.05,1.67v-15.65h-1.05v13.97Z"/>
                  <path class="cls-92" d="M512.85,415.11c.33,.28,.7,.55,1.05,.82v-20.35h-1.05v19.53Z"/>
                  <path class="cls-92" d="M522.27,420.64c.35,.14,.7,.28,1.05,.42v-25.48h-1.05v25.06Z"/>
                  <path class="cls-92" d="M517.56,418.36c.34,.19,.7,.37,1.05,.56v-23.35h-1.05v22.79Z"/>
                </g>
                <ellipse class="cls-72" cx="543.78" cy="392.01" rx="37.52" ry="21.85"/>
                <path class="cls-50" d="M543.78,413.28c-20.28,0-36.76-9.38-37.46-21.09-.02,.25-.07,.5-.07,.76,0,12.07,16.8,21.85,37.52,21.85s37.52-9.78,37.52-21.85c0-.26-.05-.5-.07-.76-.69,11.71-17.17,21.09-37.46,21.09Z"/>
                <ellipse class="cls-91" cx="543.78" cy="392.01" rx="28.05" ry="16.33"/>
                <path class="cls-54" d="M544.71,376.49c14.98,0,27.19,6.85,27.97,15.46,.03-.29,.08-.58,.08-.88,0-9.02-12.56-16.33-28.05-16.33s-28.05,7.31-28.05,16.33c0,.3,.05,.58,.08,.88,.79-8.61,12.99-15.46,27.97-15.46Z"/>
                <path class="cls-64" d="M543.78,377.43c14.98,0,27.19,6.85,27.97,15.46,.03-.29,.08-.58,.08-.88,0-9.02-12.56-16.33-28.05-16.33s-28.05,7.31-28.05,16.33c0,.3,.05,.58,.08,.88,.79-8.61,12.99-15.46,27.97-15.46Z"/>
                <path class="cls-1" d="M526.32,403.22c8.43,2.87,14.11,8.58,12.69,12.76-1.42,4.18-9.41,5.23-17.84,2.36-8.43-2.87-14.11-8.58-12.69-12.76,1.42-4.18,9.41-5.23,17.84-2.36Z"/>
                <path class="cls-2" d="M563.48,370.96c8.43,2.87,14.11,8.58,12.69,12.76-1.42,4.18-9.41,5.23-17.84,2.36-8.43-2.87-14.11-8.58-12.69-12.76,1.42-4.18,9.41-5.23,17.84-2.36Z"/>
                <g class="cls-68">
                  <path class="cls-95" d="M545.94,386.88c-.7,.13-1.42,.3-2.16,.5-.65,.16-1.34,.36-2.07,.6-.74,.24-1.44,.51-2.11,.8l2.25,1.3c.22-.09,.47-.18,.74-.27,.27-.09,.54-.18,.83-.29,1.28-.45,2.48-.83,3.61-1.13,1.13-.31,2.19-.51,3.19-.61,1-.1,1.95-.08,2.84,.08,.9,.16,1.77,.47,2.6,.96,.99,.57,1.61,1.18,1.87,1.83,.26,.65,.26,1.3,0,1.97-.26,.66-.73,1.32-1.41,1.97-.68,.65-1.47,1.27-2.39,1.86l3.03,1.75-2.52,1.45-3.08-1.78c-1.55,.78-3.21,1.48-4.99,2.1-1.78,.62-3.5,1.11-5.17,1.45l-1.64-4c.85-.16,1.73-.36,2.63-.59,.76-.19,1.61-.43,2.54-.73,.93-.3,1.82-.64,2.66-1.03l-2.2-1.27c-.78,.3-1.59,.58-2.43,.85-1.25,.42-2.39,.74-3.42,.97-1.02,.23-1.96,.37-2.82,.41-.85,.04-1.64-.02-2.36-.18-.72-.16-1.41-.43-2.06-.81-.9-.52-1.51-1.09-1.82-1.71-.32-.62-.4-1.26-.25-1.93,.15-.66,.51-1.34,1.08-2.01,.57-.68,1.31-1.32,2.21-1.94l-2.53-1.46,2.52-1.45,2.55,1.48c.76-.36,1.53-.69,2.32-.99,.79-.3,1.56-.57,2.34-.81,.77-.24,1.52-.46,2.24-.66,.72-.19,1.38-.37,1.99-.53l1.39,3.86Zm-8.47,4.02c.25,.14,.56,.2,.93,.17,.37-.03,.83-.13,1.38-.29l-1.9-1.1c-.76,.53-.89,.94-.41,1.22Zm12.05,2.01c-.23-.14-.56-.18-.99-.14-.43,.04-.92,.15-1.47,.31l1.85,1.07c.47-.31,.74-.56,.82-.76,.08-.2,0-.36-.21-.49Z"/>
                </g>
                <path class="cls-78" d="M545.94,385.94c-.7,.13-1.42,.3-2.16,.5-.65,.16-1.34,.36-2.07,.6-.74,.24-1.44,.51-2.11,.8l2.25,1.3c.22-.09,.47-.18,.74-.27,.27-.09,.54-.18,.83-.29,1.28-.45,2.48-.83,3.61-1.13,1.13-.31,2.19-.51,3.19-.61,1-.1,1.95-.08,2.84,.08,.9,.16,1.77,.47,2.6,.96,.99,.57,1.61,1.18,1.87,1.83,.26,.65,.26,1.3,0,1.97-.26,.66-.73,1.32-1.41,1.97-.68,.65-1.47,1.27-2.39,1.86l3.03,1.75-2.52,1.46-3.08-1.78c-1.55,.78-3.21,1.48-4.99,2.1-1.78,.62-3.5,1.11-5.17,1.45l-1.64-4c.85-.16,1.73-.36,2.63-.59,.76-.19,1.61-.43,2.54-.73,.93-.3,1.82-.64,2.66-1.03l-2.2-1.27c-.78,.3-1.59,.58-2.43,.85-1.25,.42-2.39,.74-3.42,.97-1.02,.23-1.96,.37-2.82,.41-.85,.04-1.64-.02-2.36-.18-.72-.16-1.41-.43-2.06-.81-.9-.52-1.51-1.09-1.82-1.71-.32-.62-.4-1.26-.25-1.93,.15-.66,.51-1.34,1.08-2.01,.57-.68,1.31-1.32,2.21-1.94l-2.53-1.46,2.52-1.46,2.55,1.48c.76-.36,1.53-.69,2.32-.99,.79-.3,1.56-.57,2.34-.81,.77-.24,1.52-.46,2.24-.66,.72-.19,1.38-.37,1.99-.53l1.39,3.86Zm-8.47,4.02c.25,.14,.56,.2,.93,.17,.37-.03,.83-.13,1.38-.29l-1.9-1.1c-.76,.53-.89,.94-.41,1.22Zm12.05,2.01c-.23-.14-.56-.18-.99-.14-.43,.04-.92,.15-1.47,.31l1.85,1.07c.47-.31,.74-.56,.82-.76,.08-.2,0-.36-.21-.49Z"/>
                <path class="cls-22" d="M545.94,385.94c-.7,.13-1.42,.3-2.16,.5-.65,.16-1.34,.36-2.07,.6-.74,.24-1.44,.51-2.11,.8l2.25,1.3c.22-.09,.47-.18,.74-.27,.27-.09,.54-.18,.83-.29,1.28-.45,2.48-.83,3.61-1.13,1.13-.31,2.19-.51,3.19-.61,1-.1,1.95-.08,2.84,.08,.9,.16,1.77,.47,2.6,.96,.99,.57,1.61,1.18,1.87,1.83,.26,.65,.26,1.3,0,1.97-.26,.66-.73,1.32-1.41,1.97-.68,.65-1.47,1.27-2.39,1.86l3.03,1.75-2.52,1.46-3.08-1.78c-1.55,.78-3.21,1.48-4.99,2.1-1.78,.62-3.5,1.11-5.17,1.45l-1.64-4c.85-.16,1.73-.36,2.63-.59,.76-.19,1.61-.43,2.54-.73,.93-.3,1.82-.64,2.66-1.03l-2.2-1.27c-.78,.3-1.59,.58-2.43,.85-1.25,.42-2.39,.74-3.42,.97-1.02,.23-1.96,.37-2.82,.41-.85,.04-1.64-.02-2.36-.18-.72-.16-1.41-.43-2.06-.81-.9-.52-1.51-1.09-1.82-1.71-.32-.62-.4-1.26-.25-1.93,.15-.66,.51-1.34,1.08-2.01,.57-.68,1.31-1.32,2.21-1.94l-2.53-1.46,2.52-1.46,2.55,1.48c.76-.36,1.53-.69,2.32-.99,.79-.3,1.56-.57,2.34-.81,.77-.24,1.52-.46,2.24-.66,.72-.19,1.38-.37,1.99-.53l1.39,3.86Zm-8.47,4.02c.25,.14,.56,.2,.93,.17,.37-.03,.83-.13,1.38-.29l-1.9-1.1c-.76,.53-.89,.94-.41,1.22Zm12.05,2.01c-.23-.14-.56-.18-.99-.14-.43,.04-.92,.15-1.47,.31l1.85,1.07c.47-.31,.74-.56,.82-.76,.08-.2,0-.36-.21-.49Z"/>
              </g>
              <ellipse class="cls-67" cx="543.17" cy="379.77" rx="28.01" ry="11.65"/>
              <g>
                <path class="cls-76" d="M581.3,348.84h-75.05v10.59h.01c0,.1-.01,.2-.01,.3,0,12.07,16.8,21.85,37.52,21.85s37.52-9.78,37.52-21.85c0-.1-.01-.2-.01-.3h.01v-10.59Z"/>
                <g class="cls-68">
                  <path class="cls-106" d="M506.25,358.03v.3c0-.1,.01-.2,.01-.3h-.01Z"/>
                  <path class="cls-107" d="M543.78,379.24c-20.72,0-37.52-9.78-37.52-21.85v2.04h.01c0,.1-.01,.2-.01,.3,0,12.07,16.8,21.85,37.52,21.85s37.52-9.78,37.52-21.85c0-.1-.01-.2-.01-.3h.01v-2.04c0,12.07-16.8,21.85-37.52,21.85Z"/>
                  <path class="cls-61" d="M581.3,358.33v-.3h-.01c0,.1,.01,.2,.01,.3Z"/>
                </g>
                <g class="cls-68">
                  <path class="cls-92" d="M555.27,380.53c.36-.07,.7-.15,1.05-.22v-27.75h-1.05v27.97Z"/>
                  <path class="cls-92" d="M559.99,379.41c.35-.1,.71-.19,1.05-.3v-26.56h-1.05v26.86Z"/>
                  <path class="cls-92" d="M564.7,377.87c.36-.14,.7-.3,1.05-.45v-24.86h-1.05v25.31Z"/>
                  <path class="cls-92" d="M550.56,381.21c.35-.04,.7-.07,1.05-.11v-28.54h-1.05v28.65Z"/>
                  <path class="cls-92" d="M574.13,372.54c.36-.29,.72-.57,1.05-.87v-19.12h-1.05v19.99Z"/>
                  <path class="cls-92" d="M578.84,367.46c.4-.61,.75-1.23,1.05-1.86v-13.04h-1.05v14.9Z"/>
                  <path class="cls-92" d="M569.41,375.66c.35-.19,.71-.37,1.05-.57v-22.52h-1.05v23.1Z"/>
                  <path class="cls-92" d="M545.84,381.52c.35-.01,.7-.01,1.05-.03v-28.93h-1.05v28.96Z"/>
                  <path class="cls-92" d="M541.13,381.5c.35,.01,.7,.02,1.05,.03v-28.98h-1.05v28.95Z"/>
                  <path class="cls-92" d="M531.7,380.4c.35,.07,.69,.15,1.05,.22v-28.06h-1.05v27.85Z"/>
                  <path class="cls-92" d="M536.42,381.15c.35,.04,.7,.06,1.05,.09v-28.69h-1.05v28.6Z"/>
                  <path class="cls-92" d="M526.99,379.25c.35,.1,.7,.2,1.05,.29v-26.99h-1.05v26.69Z"/>
                  <path class="cls-92" d="M508.13,366.53c.32,.57,.66,1.13,1.05,1.67v-15.65h-1.05v13.97Z"/>
                  <path class="cls-92" d="M512.85,372.09c.33,.28,.7,.55,1.05,.82v-20.35h-1.05v19.53Z"/>
                  <path class="cls-92" d="M522.27,377.62c.35,.14,.7,.28,1.05,.42v-25.48h-1.05v25.06Z"/>
                  <path class="cls-92" d="M517.56,375.35c.34,.19,.7,.37,1.05,.56v-23.35h-1.05v22.79Z"/>
                </g>
                <ellipse class="cls-45" cx="543.78" cy="348.99" rx="37.52" ry="21.85"/>
                <path class="cls-52" d="M543.78,370.26c-20.28,0-36.76-9.38-37.46-21.09-.02,.25-.07,.5-.07,.76,0,12.07,16.8,21.85,37.52,21.85s37.52-9.78,37.52-21.85c0-.26-.05-.5-.07-.76-.69,11.71-17.17,21.09-37.46,21.09Z"/>
                <ellipse class="cls-80" cx="543.78" cy="348.99" rx="28.05" ry="16.33"/>
                <path class="cls-46" d="M544.71,333.48c14.98,0,27.19,6.85,27.97,15.46,.03-.29,.08-.58,.08-.88,0-9.02-12.56-16.33-28.05-16.33s-28.05,7.31-28.05,16.33c0,.3,.05,.58,.08,.88,.79-8.61,12.99-15.46,27.97-15.46Z"/>
                <path class="cls-62" d="M543.78,334.41c14.98,0,27.19,6.85,27.97,15.46,.03-.29,.08-.58,.08-.88,0-9.02-12.56-16.33-28.05-16.33s-28.05,7.31-28.05,16.33c0,.3,.05,.58,.08,.88,.79-8.61,12.99-15.46,27.97-15.46Z"/>
                <path class="cls-17" d="M526.32,360.2c8.43,2.87,14.11,8.58,12.69,12.76-1.42,4.18-9.41,5.23-17.84,2.36-8.43-2.87-14.11-8.58-12.69-12.76,1.42-4.18,9.41-5.23,17.84-2.36Z"/>
                <path class="cls-10" d="M563.48,327.95c8.43,2.87,14.11,8.58,12.69,12.76-1.42,4.18-9.41,5.23-17.84,2.36-8.43-2.87-14.11-8.58-12.69-12.76,1.42-4.18,9.41-5.23,17.84-2.36Z"/>
                <g class="cls-68">
                  <path class="cls-58" d="M545.94,343.86c-.7,.13-1.42,.3-2.16,.5-.65,.16-1.34,.36-2.07,.6-.74,.24-1.44,.51-2.11,.8l2.25,1.3c.22-.09,.47-.18,.74-.27,.27-.09,.54-.18,.83-.29,1.28-.45,2.48-.83,3.61-1.13,1.13-.31,2.19-.51,3.19-.61,1-.1,1.95-.08,2.84,.08,.9,.16,1.77,.47,2.6,.96,.99,.57,1.61,1.18,1.87,1.83,.26,.65,.26,1.3,0,1.97-.26,.66-.73,1.32-1.41,1.97-.68,.65-1.47,1.27-2.39,1.86l3.03,1.75-2.52,1.46-3.08-1.78c-1.55,.78-3.21,1.48-4.99,2.1-1.78,.62-3.5,1.11-5.17,1.45l-1.64-4c.85-.16,1.73-.36,2.63-.59,.76-.19,1.61-.43,2.54-.73,.93-.3,1.82-.64,2.66-1.03l-2.2-1.27c-.78,.3-1.59,.58-2.43,.85-1.25,.42-2.39,.74-3.42,.97-1.02,.23-1.96,.37-2.82,.41-.85,.04-1.64-.02-2.36-.18-.72-.16-1.41-.43-2.06-.81-.9-.52-1.51-1.09-1.82-1.71-.32-.62-.4-1.26-.25-1.93,.15-.66,.51-1.34,1.08-2.01,.57-.68,1.31-1.32,2.21-1.94l-2.53-1.46,2.52-1.46,2.55,1.48c.76-.36,1.53-.69,2.32-.99,.79-.3,1.56-.57,2.34-.81,.77-.24,1.52-.46,2.24-.66,.72-.19,1.38-.37,1.99-.53l1.39,3.86Zm-8.47,4.02c.25,.14,.56,.2,.93,.17,.37-.03,.83-.13,1.38-.29l-1.9-1.1c-.76,.53-.89,.94-.41,1.22Zm12.05,2.01c-.23-.14-.56-.18-.99-.14-.43,.04-.92,.15-1.47,.31l1.85,1.07c.47-.31,.74-.56,.82-.76,.08-.2,0-.36-.21-.49Z"/>
                </g>
                <path class="cls-104" d="M545.94,342.93c-.7,.13-1.42,.3-2.16,.5-.65,.16-1.34,.36-2.07,.6-.74,.24-1.44,.51-2.11,.8l2.25,1.3c.22-.09,.47-.18,.74-.27,.27-.09,.54-.18,.83-.29,1.28-.45,2.48-.83,3.61-1.13,1.13-.31,2.19-.51,3.19-.61,1-.1,1.95-.08,2.84,.08,.9,.16,1.77,.47,2.6,.96,.99,.57,1.61,1.18,1.87,1.83,.26,.65,.26,1.3,0,1.97-.26,.66-.73,1.32-1.41,1.97-.68,.65-1.47,1.27-2.39,1.86l3.03,1.75-2.52,1.45-3.08-1.78c-1.55,.78-3.21,1.48-4.99,2.1-1.78,.62-3.5,1.11-5.17,1.45l-1.64-4c.85-.16,1.73-.36,2.63-.59,.76-.19,1.61-.43,2.54-.73,.93-.3,1.82-.64,2.66-1.03l-2.2-1.27c-.78,.3-1.59,.58-2.43,.85-1.25,.42-2.39,.74-3.42,.97-1.02,.23-1.96,.37-2.82,.41-.85,.04-1.64-.02-2.36-.18-.72-.16-1.41-.43-2.06-.81-.9-.52-1.51-1.09-1.82-1.71-.32-.62-.4-1.26-.25-1.93,.15-.66,.51-1.34,1.08-2.01,.57-.68,1.31-1.32,2.21-1.94l-2.53-1.46,2.52-1.46,2.55,1.48c.76-.36,1.53-.69,2.32-.99,.79-.3,1.56-.57,2.34-.81,.77-.24,1.52-.46,2.24-.66,.72-.19,1.38-.37,1.99-.53l1.39,3.86Zm-8.47,4.02c.25,.14,.56,.2,.93,.17,.37-.03,.83-.13,1.38-.29l-1.9-1.1c-.76,.53-.89,.94-.41,1.22Zm12.05,2.01c-.23-.14-.56-.18-.99-.14-.43,.04-.92,.15-1.47,.31l1.85,1.07c.47-.31,.74-.56,.82-.76,.08-.2,0-.36-.21-.49Z"/>
                <path class="cls-9" d="M545.94,342.93c-.7,.13-1.42,.3-2.16,.5-.65,.16-1.34,.36-2.07,.6-.74,.24-1.44,.51-2.11,.8l2.25,1.3c.22-.09,.47-.18,.74-.27,.27-.09,.54-.18,.83-.29,1.28-.45,2.48-.83,3.61-1.13,1.13-.31,2.19-.51,3.19-.61,1-.1,1.95-.08,2.84,.08,.9,.16,1.77,.47,2.6,.96,.99,.57,1.61,1.18,1.87,1.83,.26,.65,.26,1.3,0,1.97-.26,.66-.73,1.32-1.41,1.97-.68,.65-1.47,1.27-2.39,1.86l3.03,1.75-2.52,1.45-3.08-1.78c-1.55,.78-3.21,1.48-4.99,2.1-1.78,.62-3.5,1.11-5.17,1.45l-1.64-4c.85-.16,1.73-.36,2.63-.59,.76-.19,1.61-.43,2.54-.73,.93-.3,1.82-.64,2.66-1.03l-2.2-1.27c-.78,.3-1.59,.58-2.43,.85-1.25,.42-2.39,.74-3.42,.97-1.02,.23-1.96,.37-2.82,.41-.85,.04-1.64-.02-2.36-.18-.72-.16-1.41-.43-2.06-.81-.9-.52-1.51-1.09-1.82-1.71-.32-.62-.4-1.26-.25-1.93,.15-.66,.51-1.34,1.08-2.01,.57-.68,1.31-1.32,2.21-1.94l-2.53-1.46,2.52-1.46,2.55,1.48c.76-.36,1.53-.69,2.32-.99,.79-.3,1.56-.57,2.34-.81,.77-.24,1.52-.46,2.24-.66,.72-.19,1.38-.37,1.99-.53l1.39,3.86Zm-8.47,4.02c.25,.14,.56,.2,.93,.17,.37-.03,.83-.13,1.38-.29l-1.9-1.1c-.76,.53-.89,.94-.41,1.22Zm12.05,2.01c-.23-.14-.56-.18-.99-.14-.43,.04-.92,.15-1.47,.31l1.85,1.07c.47-.31,.74-.56,.82-.76,.08-.2,0-.36-.21-.49Z"/>
              </g>
              <path class="cls-84" d="M614.43,369.78v75.42c19.54-11.28,29.26-24.92,29.17-40.92v-75.42c.09,16-9.64,29.64-29.17,40.92Z"/>
              <polygon class="cls-85" points="569.14 343.64 569.34 343.77 569.34 419.05 614.43 445.2 614.43 369.78 569.14 343.64"/>
              <path class="cls-20" d="M614.43,369.02l-43.69-25.22c-.46,.3-.89,.6-1.39,.89l45.08,26.02c19.54-11.28,29.26-24.92,29.18-40.92,0-.23-.03-.45-.03-.68-.32,15.56-10.02,28.87-29.14,39.91Z"/>
              <path class="cls-88" d="M542.93,270.73c-55.43-.1-100.23,25.76-100.05,57.77l63.54,.11c-.02-5.44,3.54-10.86,10.7-15,14.33-8.28,37.65-8.23,52.07,.09,14.42,8.32,14.49,21.77,.18,30.05l45.08,26.02c19.54-11.28,29.26-24.92,29.18-40.92-.17-32-45.25-58.03-100.68-58.13Z"/>
              <path class="cls-7" d="M579.97,328.89c.39-5.73-3.19-11.56-10.8-15.95-14.42-8.33-37.74-8.37-52.07-.09-7.16,4.13-10.72,9.56-10.7,15l-63.47-.11c-.03,.56-.07,1.12-.06,1.69l63.54,.11c-.02-5.44,3.54-10.86,10.7-15,14.33-8.28,37.65-8.23,52.07,.09,6.86,3.96,10.44,9.09,10.8,14.26Z"/>
              <ellipse class="cls-66" cx="543.17" cy="336.17" rx="28.01" ry="11.65"/>
            </g>
            <g class="cls-56">
              <path class="cls-81" d="M569.72,392.56c-.13,.08-.24,.16-.38,.24-7.19,4.15-16.65,6.21-26.11,6.18v26.29c9.46,.03,18.92-2.02,26.11-6.18,.14-.08,.25-.16,.38-.24v-26.29Z"/>
              <path class="cls-57" d="M543.55,434.56l-.2-36.01s.05,0,.07,0l-.19-.22,.31,63.72c27.72,.05,51.34-5.56,70.88-16.84v-27.48c-19.54,11.28-43.16,16.89-70.88,16.84Z"/>
              <path class="cls-55" d="M569.91,392.01c-.2,.12-.37,.25-.57,.36-7.16,4.13-16.56,6.19-25.98,6.18l.2,36.93c27.72,.05,51.34-6.49,70.88-17.77l-44.53-25.71Z"/>
              <path class="cls-8" d="M543.55,434.08l-.31-35.45v.15s.31,36.74,.31,36.74c27.72,.05,51.34-5.56,70.88-16.84l-1.27-.74c-19.29,10.8-42.48,16.19-69.61,16.14Z"/>
            </g>
            <g class="cls-41">
              <path class="cls-71" d="M543.34,377.13c-9.42-.02-18.86-2.11-26.07-6.27-7.31-4.22-10.91-9.75-10.85-15.26h-.05v48.34h.03c.04,5.43,3.66,10.87,10.86,15.03,7.21,4.16,16.65,6.26,26.07,6.27v-48.1Z"/>
              <path class="cls-43" d="M442.87,355.34v48.57c.17,32,45.25,58.03,100.68,58.13v-48.57c-55.43-.1-100.51-26.13-100.68-58.13Z"/>
              <path class="cls-40" d="M517.27,370.86c-7.37-4.25-10.97-9.84-10.84-15.4l-63.56-.11c.17,32,45.25,58.03,100.68,58.13l-.2-36.34c-9.43-.01-18.87-2.11-26.09-6.27Z"/>
              <path class="cls-19" d="M543.24,376.91h-.47s.31,35.85,.31,35.85c-49.55-.09-90.79-20.9-99.12-48.17,7.12,28.09,49.04,49.75,99.6,49.85l-.31-37.53Z"/>
            </g>
            <ellipse class="cls-38" cx="554.36" cy="326.59" rx="17.26" ry="60.7" transform="translate(-.41 .69) rotate(-.07)"/>
          </g>
        </g>
        <path class="cls-51" d="M581.3,133.92h-75.05v180.41h.01c0,.1-.01,.2-.01,.3,0,12.07,16.8,21.85,37.52,21.85s37.52-9.78,37.52-21.85c0-.1-.01-.2-.01-.3h.01V133.92Z"/>
        <g>
          <path class="cls-94" d="M581.3,303.82h-75.05v10.59h.01c0,.1-.01,.2-.01,.3,0,12.07,16.8,21.85,37.52,21.85s37.52-9.78,37.52-21.85c0-.1-.01-.2-.01-.3h.01v-10.59Z"/>
          <g class="cls-68">
            <path class="cls-86" d="M506.25,313v.3c0-.1,.01-.2,.01-.3h-.01Z"/>
            <path class="cls-108" d="M543.78,334.22c-20.72,0-37.52-9.78-37.52-21.85v2.04h.01c0,.1-.01,.2-.01,.3,0,12.07,16.8,21.85,37.52,21.85s37.52-9.78,37.52-21.85c0-.1-.01-.2-.01-.3h.01v-2.04c0,12.07-16.8,21.85-37.52,21.85Z"/>
            <path class="cls-100" d="M581.3,313.3v-.3h-.01c0,.1,.01,.2,.01,.3Z"/>
          </g>
          <g class="cls-68">
            <path class="cls-92" d="M555.27,335.5c.36-.07,.7-.15,1.05-.22v-27.75h-1.05v27.97Z"/>
            <path class="cls-92" d="M559.99,334.39c.35-.1,.71-.19,1.05-.3v-26.56h-1.05v26.86Z"/>
            <path class="cls-92" d="M564.7,332.85c.36-.14,.7-.3,1.05-.45v-24.86h-1.05v25.31Z"/>
            <path class="cls-92" d="M550.56,336.18c.35-.04,.7-.07,1.05-.11v-28.54h-1.05v28.65Z"/>
            <path class="cls-92" d="M574.13,327.52c.36-.29,.72-.57,1.05-.87v-19.12h-1.05v19.99Z"/>
            <path class="cls-92" d="M578.84,322.44c.4-.61,.75-1.23,1.05-1.86v-13.04h-1.05v14.9Z"/>
            <path class="cls-92" d="M569.41,330.63c.35-.19,.71-.37,1.05-.57v-22.53h-1.05v23.1Z"/>
            <path class="cls-92" d="M545.84,336.5c.35-.01,.7-.01,1.05-.03v-28.93h-1.05v28.96Z"/>
            <path class="cls-92" d="M541.13,336.48c.35,.01,.7,.02,1.05,.03v-28.98h-1.05v28.95Z"/>
            <path class="cls-92" d="M531.7,335.38c.35,.07,.69,.15,1.05,.22v-28.06h-1.05v27.85Z"/>
            <path class="cls-92" d="M536.42,336.13c.35,.04,.7,.06,1.05,.09v-28.69h-1.05v28.6Z"/>
            <path class="cls-92" d="M526.99,334.23c.35,.1,.7,.2,1.05,.29v-26.99h-1.05v26.69Z"/>
            <path class="cls-92" d="M508.13,321.51c.32,.57,.66,1.13,1.05,1.67v-15.65h-1.05v13.97Z"/>
            <path class="cls-92" d="M512.85,327.07c.33,.28,.7,.55,1.05,.82v-20.35h-1.05v19.53Z"/>
            <path class="cls-92" d="M522.27,332.6c.35,.14,.7,.28,1.05,.41v-25.48h-1.05v25.06Z"/>
            <path class="cls-92" d="M517.56,330.33c.34,.19,.7,.37,1.05,.56v-23.35h-1.05v22.79Z"/>
          </g>
          <ellipse class="cls-60" cx="543.78" cy="303.97" rx="37.52" ry="21.85"/>
          <path class="cls-48" d="M543.78,325.24c-20.28,0-36.76-9.38-37.46-21.09-.02,.25-.07,.5-.07,.76,0,12.07,16.8,21.85,37.52,21.85s37.52-9.78,37.52-21.85c0-.26-.05-.5-.07-.76-.69,11.71-17.17,21.09-37.46,21.09Z"/>
          <ellipse class="cls-103" cx="543.78" cy="303.97" rx="28.05" ry="16.33"/>
          <path class="cls-53" d="M544.71,288.45c14.98,0,27.19,6.85,27.97,15.46,.03-.29,.08-.58,.08-.88,0-9.02-12.56-16.33-28.05-16.33s-28.05,7.31-28.05,16.33c0,.3,.05,.58,.08,.88,.79-8.61,12.99-15.46,27.97-15.46Z"/>
          <path class="cls-63" d="M543.78,289.39c14.98,0,27.19,6.85,27.97,15.46,.03-.29,.08-.58,.08-.88,0-9.02-12.56-16.33-28.05-16.33s-28.05,7.31-28.05,16.33c0,.3,.05,.58,.08,.88,.79-8.61,12.99-15.46,27.97-15.46Z"/>
          <path class="cls-27" d="M526.32,315.18c8.43,2.87,14.11,8.58,12.69,12.76-1.42,4.18-9.41,5.23-17.84,2.36-8.43-2.87-14.11-8.58-12.69-12.76,1.42-4.18,9.41-5.23,17.84-2.36Z"/>
          <path class="cls-34" d="M563.48,282.92c8.43,2.87,14.11,8.58,12.69,12.76-1.42,4.18-9.41,5.23-17.84,2.36-8.43-2.87-14.11-8.58-12.69-12.76,1.42-4.18,9.41-5.23,17.84-2.36Z"/>
          <g class="cls-68">
            <path class="cls-82" d="M545.94,298.84c-.7,.13-1.42,.3-2.16,.5-.65,.16-1.34,.36-2.07,.6-.74,.24-1.44,.51-2.11,.8l2.25,1.3c.22-.09,.47-.18,.74-.27,.27-.09,.54-.18,.83-.29,1.28-.45,2.48-.83,3.61-1.13,1.13-.31,2.19-.51,3.19-.61,1-.1,1.95-.08,2.84,.08,.9,.16,1.77,.47,2.6,.96,.99,.57,1.61,1.18,1.87,1.83,.26,.65,.26,1.3,0,1.97-.26,.66-.73,1.32-1.41,1.97-.68,.65-1.47,1.27-2.39,1.86l3.03,1.75-2.52,1.45-3.08-1.78c-1.55,.78-3.21,1.48-4.99,2.1-1.78,.62-3.5,1.11-5.17,1.45l-1.64-4c.85-.16,1.73-.36,2.63-.59,.76-.19,1.61-.43,2.54-.73,.93-.3,1.82-.64,2.66-1.03l-2.2-1.27c-.78,.3-1.59,.58-2.43,.85-1.25,.42-2.39,.74-3.42,.97-1.02,.23-1.96,.37-2.82,.41-.85,.04-1.64-.02-2.36-.18-.72-.16-1.41-.43-2.06-.81-.9-.52-1.51-1.09-1.82-1.71-.32-.62-.4-1.26-.25-1.93,.15-.66,.51-1.34,1.08-2.01,.57-.68,1.31-1.32,2.21-1.94l-2.53-1.46,2.52-1.46,2.55,1.48c.76-.36,1.53-.69,2.32-.99,.79-.3,1.56-.57,2.34-.81,.77-.24,1.52-.46,2.24-.66,.72-.19,1.38-.37,1.99-.53l1.39,3.86Zm-8.47,4.02c.25,.14,.56,.2,.93,.17,.37-.03,.83-.13,1.38-.29l-1.9-1.1c-.76,.53-.89,.94-.41,1.22Zm12.05,2.01c-.23-.14-.56-.18-.99-.14-.43,.04-.92,.15-1.47,.31l1.85,1.07c.47-.31,.74-.56,.82-.76,.08-.2,0-.36-.21-.49Z"/>
          </g>
          <path class="cls-75" d="M545.94,297.9c-.7,.13-1.42,.3-2.16,.5-.65,.16-1.34,.36-2.07,.6-.74,.24-1.44,.51-2.11,.8l2.25,1.3c.22-.09,.47-.18,.74-.27,.27-.09,.54-.18,.83-.29,1.28-.45,2.48-.83,3.61-1.13,1.13-.31,2.19-.51,3.19-.61,1-.1,1.95-.08,2.84,.08,.9,.16,1.77,.47,2.6,.96,.99,.57,1.61,1.18,1.87,1.83,.26,.65,.26,1.3,0,1.97-.26,.66-.73,1.32-1.41,1.97-.68,.65-1.47,1.27-2.39,1.86l3.03,1.75-2.52,1.46-3.08-1.78c-1.55,.78-3.21,1.48-4.99,2.1-1.78,.62-3.5,1.11-5.17,1.45l-1.64-4c.85-.16,1.73-.36,2.63-.59,.76-.19,1.61-.43,2.54-.73,.93-.3,1.82-.64,2.66-1.03l-2.2-1.27c-.78,.3-1.59,.58-2.43,.85-1.25,.42-2.39,.74-3.42,.97-1.02,.23-1.96,.37-2.82,.41-.85,.04-1.64-.02-2.36-.18-.72-.16-1.41-.43-2.06-.81-.9-.52-1.51-1.09-1.82-1.71-.32-.62-.4-1.26-.25-1.93,.15-.66,.51-1.34,1.08-2.01,.57-.68,1.31-1.32,2.21-1.94l-2.53-1.46,2.52-1.46,2.55,1.48c.76-.36,1.53-.69,2.32-.99,.79-.3,1.56-.57,2.34-.81,.77-.24,1.52-.46,2.24-.66,.72-.19,1.38-.37,1.99-.53l1.39,3.86Zm-8.47,4.02c.25,.14,.56,.2,.93,.17,.37-.03,.83-.13,1.38-.29l-1.9-1.1c-.76,.53-.89,.94-.41,1.22Zm12.05,2.01c-.23-.14-.56-.18-.99-.14-.43,.04-.92,.15-1.47,.31l1.85,1.07c.47-.31,.74-.56,.82-.76,.08-.2,0-.36-.21-.49Z"/>
          <path class="cls-28" d="M545.94,297.9c-.7,.13-1.42,.3-2.16,.5-.65,.16-1.34,.36-2.07,.6-.74,.24-1.44,.51-2.11,.8l2.25,1.3c.22-.09,.47-.18,.74-.27,.27-.09,.54-.18,.83-.29,1.28-.45,2.48-.83,3.61-1.13,1.13-.31,2.19-.51,3.19-.61,1-.1,1.95-.08,2.84,.08,.9,.16,1.77,.47,2.6,.96,.99,.57,1.61,1.18,1.87,1.83,.26,.65,.26,1.3,0,1.97-.26,.66-.73,1.32-1.41,1.97-.68,.65-1.47,1.27-2.39,1.86l3.03,1.75-2.52,1.46-3.08-1.78c-1.55,.78-3.21,1.48-4.99,2.1-1.78,.62-3.5,1.11-5.17,1.45l-1.64-4c.85-.16,1.73-.36,2.63-.59,.76-.19,1.61-.43,2.54-.73,.93-.3,1.82-.64,2.66-1.03l-2.2-1.27c-.78,.3-1.59,.58-2.43,.85-1.25,.42-2.39,.74-3.42,.97-1.02,.23-1.96,.37-2.82,.41-.85,.04-1.64-.02-2.36-.18-.72-.16-1.41-.43-2.06-.81-.9-.52-1.51-1.09-1.82-1.71-.32-.62-.4-1.26-.25-1.93,.15-.66,.51-1.34,1.08-2.01,.57-.68,1.31-1.32,2.21-1.94l-2.53-1.46,2.52-1.46,2.55,1.48c.76-.36,1.53-.69,2.32-.99,.79-.3,1.56-.57,2.34-.81,.77-.24,1.52-.46,2.24-.66,.72-.19,1.38-.37,1.99-.53l1.39,3.86Zm-8.47,4.02c.25,.14,.56,.2,.93,.17,.37-.03,.83-.13,1.38-.29l-1.9-1.1c-.76,.53-.89,.94-.41,1.22Zm12.05,2.01c-.23-.14-.56-.18-.99-.14-.43,.04-.92,.15-1.47,.31l1.85,1.07c.47-.31,.74-.56,.82-.76,.08-.2,0-.36-.21-.49Z"/>
        </g>
        <g>
          <path class="cls-101" d="M581.3,243.49h-75.05v10.59h.01c0,.1-.01,.2-.01,.3,0,12.07,16.8,21.85,37.52,21.85s37.52-9.78,37.52-21.85c0-.1-.01-.2-.01-.3h.01v-10.59Z"/>
          <g class="cls-68">
            <path class="cls-89" d="M506.25,252.68v.3c0-.1,.01-.2,.01-.3h-.01Z"/>
            <path class="cls-74" d="M543.78,273.89c-20.72,0-37.52-9.78-37.52-21.85v2.04h.01c0,.1-.01,.2-.01,.3,0,12.07,16.8,21.85,37.52,21.85s37.52-9.78,37.52-21.85c0-.1-.01-.2-.01-.3h.01v-2.04c0,12.07-16.8,21.85-37.52,21.85Z"/>
            <path class="cls-70" d="M581.3,252.98v-.3h-.01c0,.1,.01,.2,.01,.3Z"/>
          </g>
          <g class="cls-68">
            <path class="cls-92" d="M555.27,275.18c.36-.07,.7-.15,1.05-.22v-27.75h-1.05v27.97Z"/>
            <path class="cls-92" d="M559.99,274.06c.35-.1,.71-.19,1.05-.3v-26.56h-1.05v26.86Z"/>
            <path class="cls-92" d="M564.7,272.52c.36-.14,.7-.3,1.05-.45v-24.86h-1.05v25.31Z"/>
            <path class="cls-92" d="M550.56,275.86c.35-.04,.7-.07,1.05-.11v-28.54h-1.05v28.65Z"/>
            <path class="cls-92" d="M574.13,267.19c.36-.29,.72-.57,1.05-.87v-19.12h-1.05v19.99Z"/>
            <path class="cls-92" d="M578.84,262.11c.4-.61,.75-1.23,1.05-1.86v-13.04h-1.05v14.9Z"/>
            <path class="cls-92" d="M569.41,270.3c.35-.19,.71-.37,1.05-.57v-22.53h-1.05v23.1Z"/>
            <path class="cls-92" d="M545.84,276.17c.35-.01,.7-.01,1.05-.03v-28.93h-1.05v28.96Z"/>
            <path class="cls-92" d="M541.13,276.15c.35,.01,.7,.02,1.05,.03v-28.98h-1.05v28.95Z"/>
            <path class="cls-92" d="M531.7,275.05c.35,.07,.69,.15,1.05,.22v-28.06h-1.05v27.85Z"/>
            <path class="cls-92" d="M536.42,275.8c.35,.04,.7,.06,1.05,.09v-28.69h-1.05v28.6Z"/>
            <path class="cls-92" d="M526.99,273.9c.35,.1,.7,.2,1.05,.29v-26.99h-1.05v26.69Z"/>
            <path class="cls-92" d="M508.13,261.18c.32,.57,.66,1.13,1.05,1.67v-15.65h-1.05v13.97Z"/>
            <path class="cls-92" d="M512.85,266.74c.33,.28,.7,.55,1.05,.82v-20.35h-1.05v19.53Z"/>
            <path class="cls-92" d="M522.27,272.27c.35,.14,.7,.28,1.05,.41v-25.48h-1.05v25.06Z"/>
            <path class="cls-92" d="M517.56,270c.34,.19,.7,.37,1.05,.56v-23.35h-1.05v22.79Z"/>
          </g>
          <ellipse class="cls-79" cx="543.78" cy="243.64" rx="37.52" ry="21.85"/>
          <path class="cls-47" d="M543.78,264.91c-20.28,0-36.76-9.38-37.46-21.09-.02,.25-.07,.5-.07,.76,0,12.07,16.8,21.85,37.52,21.85s37.52-9.78,37.52-21.85c0-.26-.05-.5-.07-.76-.69,11.71-17.17,21.09-37.46,21.09Z"/>
          <ellipse class="cls-102" cx="543.78" cy="243.64" rx="28.05" ry="16.33"/>
          <path class="cls-49" d="M544.71,228.12c14.98,0,27.19,6.85,27.97,15.46,.03-.29,.08-.58,.08-.88,0-9.02-12.56-16.33-28.05-16.33s-28.05,7.31-28.05,16.33c0,.3,.05,.58,.08,.88,.79-8.61,12.99-15.46,27.97-15.46Z"/>
          <path class="cls-65" d="M543.78,229.06c14.98,0,27.19,6.85,27.97,15.46,.03-.29,.08-.58,.08-.88,0-9.02-12.56-16.33-28.05-16.33s-28.05,7.31-28.05,16.33c0,.3,.05,.58,.08,.88,.79-8.61,12.99-15.46,27.97-15.46Z"/>
          <path class="cls-6" d="M526.32,254.85c8.43,2.87,14.11,8.58,12.69,12.76-1.42,4.18-9.41,5.23-17.84,2.36-8.43-2.87-14.11-8.58-12.69-12.76,1.42-4.18,9.41-5.23,17.84-2.36Z"/>
          <path class="cls-13" d="M563.48,222.59c8.43,2.87,14.11,8.58,12.69,12.76-1.42,4.18-9.41,5.23-17.84,2.36-8.43-2.87-14.11-8.58-12.69-12.76,1.42-4.18,9.41-5.23,17.84-2.36Z"/>
          <g class="cls-68">
            <path class="cls-59" d="M545.94,238.51c-.7,.13-1.42,.3-2.16,.5-.65,.16-1.34,.36-2.07,.6-.74,.24-1.44,.51-2.11,.8l2.25,1.3c.22-.09,.47-.18,.74-.27,.27-.09,.54-.18,.83-.29,1.28-.45,2.48-.83,3.61-1.13,1.13-.31,2.19-.51,3.19-.61,1-.1,1.95-.08,2.84,.08,.9,.16,1.77,.47,2.6,.96,.99,.57,1.61,1.18,1.87,1.83,.26,.65,.26,1.3,0,1.97-.26,.66-.73,1.32-1.41,1.97-.68,.65-1.47,1.27-2.39,1.86l3.03,1.75-2.52,1.45-3.08-1.78c-1.55,.78-3.21,1.48-4.99,2.1-1.78,.62-3.5,1.11-5.17,1.45l-1.64-4c.85-.16,1.73-.36,2.63-.59,.76-.19,1.61-.43,2.54-.73,.93-.3,1.82-.64,2.66-1.03l-2.2-1.27c-.78,.3-1.59,.58-2.43,.85-1.25,.42-2.39,.74-3.42,.97-1.02,.23-1.96,.37-2.82,.41-.85,.04-1.64-.02-2.36-.18-.72-.16-1.41-.43-2.06-.81-.9-.52-1.51-1.09-1.82-1.71-.32-.62-.4-1.26-.25-1.93,.15-.66,.51-1.34,1.08-2.01,.57-.68,1.31-1.32,2.21-1.94l-2.53-1.46,2.52-1.46,2.55,1.48c.76-.36,1.53-.69,2.32-.99,.79-.3,1.56-.57,2.34-.81,.77-.24,1.52-.46,2.24-.66,.72-.19,1.38-.37,1.99-.53l1.39,3.86Zm-8.47,4.02c.25,.14,.56,.2,.93,.17,.37-.03,.83-.13,1.38-.29l-1.9-1.1c-.76,.53-.89,.94-.41,1.22Zm12.05,2.01c-.23-.14-.56-.18-.99-.14-.43,.04-.92,.15-1.47,.31l1.85,1.07c.47-.31,.74-.56,.82-.76,.08-.2,0-.36-.21-.49Z"/>
          </g>
          <path class="cls-83" d="M545.94,237.58c-.7,.13-1.42,.3-2.16,.5-.65,.16-1.34,.36-2.07,.6-.74,.24-1.44,.51-2.11,.8l2.25,1.3c.22-.09,.47-.18,.74-.27,.27-.09,.54-.18,.83-.29,1.28-.45,2.48-.83,3.61-1.13,1.13-.31,2.19-.51,3.19-.61,1-.1,1.95-.08,2.84,.08,.9,.16,1.77,.47,2.6,.96,.99,.57,1.61,1.18,1.87,1.83,.26,.65,.26,1.3,0,1.97-.26,.66-.73,1.32-1.41,1.97-.68,.65-1.47,1.27-2.39,1.86l3.03,1.75-2.52,1.46-3.08-1.78c-1.55,.78-3.21,1.48-4.99,2.1-1.78,.62-3.5,1.11-5.17,1.45l-1.64-4c.85-.16,1.73-.36,2.63-.59,.76-.19,1.61-.43,2.54-.73,.93-.3,1.82-.64,2.66-1.03l-2.2-1.27c-.78,.3-1.59,.58-2.43,.85-1.25,.42-2.39,.74-3.42,.97-1.02,.23-1.96,.37-2.82,.41-.85,.04-1.64-.02-2.36-.18-.72-.16-1.41-.43-2.06-.81-.9-.52-1.51-1.09-1.82-1.71-.32-.62-.4-1.26-.25-1.93,.15-.66,.51-1.34,1.08-2.01,.57-.68,1.31-1.32,2.21-1.94l-2.53-1.46,2.52-1.46,2.55,1.48c.76-.36,1.53-.69,2.32-.99,.79-.3,1.56-.57,2.34-.81,.77-.24,1.52-.46,2.24-.66,.72-.19,1.38-.37,1.99-.53l1.39,3.86Zm-8.47,4.02c.25,.14,.56,.2,.93,.17,.37-.03,.83-.13,1.38-.29l-1.9-1.1c-.76,.53-.89,.94-.41,1.22Zm12.05,2.01c-.23-.14-.56-.18-.99-.14-.43,.04-.92,.15-1.47,.31l1.85,1.07c.47-.31,.74-.56,.82-.76,.08-.2,0-.36-.21-.49Z"/>
          <path class="cls-37" d="M545.94,237.58c-.7,.13-1.42,.3-2.16,.5-.65,.16-1.34,.36-2.07,.6-.74,.24-1.44,.51-2.11,.8l2.25,1.3c.22-.09,.47-.18,.74-.27,.27-.09,.54-.18,.83-.29,1.28-.45,2.48-.83,3.61-1.13,1.13-.31,2.19-.51,3.19-.61,1-.1,1.95-.08,2.84,.08,.9,.16,1.77,.47,2.6,.96,.99,.57,1.61,1.18,1.87,1.83,.26,.65,.26,1.3,0,1.97-.26,.66-.73,1.32-1.41,1.97-.68,.65-1.47,1.27-2.39,1.86l3.03,1.75-2.52,1.46-3.08-1.78c-1.55,.78-3.21,1.48-4.99,2.1-1.78,.62-3.5,1.11-5.17,1.45l-1.64-4c.85-.16,1.73-.36,2.63-.59,.76-.19,1.61-.43,2.54-.73,.93-.3,1.82-.64,2.66-1.03l-2.2-1.27c-.78,.3-1.59,.58-2.43,.85-1.25,.42-2.39,.74-3.42,.97-1.02,.23-1.96,.37-2.82,.41-.85,.04-1.64-.02-2.36-.18-.72-.16-1.41-.43-2.06-.81-.9-.52-1.51-1.09-1.82-1.71-.32-.62-.4-1.26-.25-1.93,.15-.66,.51-1.34,1.08-2.01,.57-.68,1.31-1.32,2.21-1.94l-2.53-1.46,2.52-1.46,2.55,1.48c.76-.36,1.53-.69,2.32-.99,.79-.3,1.56-.57,2.34-.81,.77-.24,1.52-.46,2.24-.66,.72-.19,1.38-.37,1.99-.53l1.39,3.86Zm-8.47,4.02c.25,.14,.56,.2,.93,.17,.37-.03,.83-.13,1.38-.29l-1.9-1.1c-.76,.53-.89,.94-.41,1.22Zm12.05,2.01c-.23-.14-.56-.18-.99-.14-.43,.04-.92,.15-1.47,.31l1.85,1.07c.47-.31,.74-.56,.82-.76,.08-.2,0-.36-.21-.49Z"/>
        </g>
        <ellipse class="cls-69" cx="543.17" cy="297.66" rx="28.01" ry="11.65"/>
      </g>
    </g>
  </g>
</svg>