<?xml version="1.0" encoding="UTF-8"?>
<svg id="Layer_1" data-name="Layer 1" xmlns="http://www.w3.org/2000/svg" viewBox="0 0 160 90">
  <defs>
    <style>
      .cls-1 {
        fill: none;
        stroke: red;
        stroke-linecap: round;
        stroke-miterlimit: 10;
        stroke-width: .49px;
      }
    </style>
  </defs>
  <g>
    <path d="M122.19,4.36s.08,.05,.12,.05c.08,0,.13-.11,.15-.36h.14c-.02,.29-.02,.68-.02,1.38h-.14c-.08-.51-.13-.67-.3-.89-.25-.33-.65-.47-1.06-.47-.78,0-1.3,.81-1.3,2.11s.58,2.08,1.36,2.08c.36,0,.8-.13,1.03-.46,.18-.23,.22-.46,.28-.95h.14c0,.73,0,1.14,.02,1.44h-.14c-.02-.25-.06-.35-.15-.35-.03,0-.07,.02-.12,.05-.3,.21-.59,.39-1.11,.39-1.14,0-1.9-.8-1.9-2.17s.79-2.24,1.91-2.24c.53,0,.84,.19,1.1,.39Z"/>
    <path d="M124.12,7.75c0,.33,.13,.43,.46,.43v.13c-.14,0-.45-.02-.73-.02s-.59,.02-.73,.02v-.13c.33,0,.46-.1,.46-.43v-3.43c0-.36-.11-.53-.46-.53v-.13c.13,.01,.25,.02,.37,.02,.23,0,.45-.02,.62-.08V7.75Z"/>
    <path d="M126.93,5.36c.19,.19,.24,.42,.24,.84v1.67c0,.19,.05,.28,.18,.28,.11,0,.19-.06,.27-.13l.07,.1c-.17,.13-.29,.22-.55,.22-.42,0-.52-.25-.52-.53-.26,.42-.64,.53-.92,.53-.4,0-.76-.2-.76-.67s.37-.69,.97-.94c.4-.17,.72-.27,.72-.51v-.37c0-.5-.25-.6-.56-.6-.21,0-.46,.04-.59,.21,.15,.04,.28,.17,.28,.37s-.14,.33-.35,.33-.33-.16-.33-.37c0-.18,.11-.31,.28-.43,.17-.11,.46-.23,.84-.23,.34,0,.59,.09,.73,.23Zm-.3,1.12c-.06,.1-.2,.16-.57,.34-.26,.13-.58,.3-.58,.76,0,.36,.21,.53,.48,.53,.24,0,.47-.13,.68-.45v-1.18Z"/>
    <path d="M129.59,5.35s.08,.05,.11,.05c.07,0,.11-.08,.13-.26h.14c-.02,.22-.02,.5-.02,1.02h-.14c-.07-.45-.28-.91-.82-.91-.28,0-.49,.16-.49,.46,0,.36,.36,.53,.77,.79,.45,.29,.82,.56,.82,1.05,0,.55-.48,.84-1.03,.84-.17,0-.33-.03-.47-.08-.08-.04-.17-.1-.25-.16-.02-.02-.04-.02-.06-.02-.05,0-.1,.08-.12,.23h-.14c.02-.26,.02-.59,.02-1.2h.14c.08,.67,.23,1.12,.83,1.12,.24,0,.53-.14,.53-.57,0-.35-.29-.54-.68-.79-.44-.28-.83-.51-.83-1.01,0-.53,.41-.77,.89-.77,.32,0,.54,.13,.65,.22Z"/>
    <path d="M132.27,5.35s.08,.05,.11,.05c.07,0,.11-.08,.13-.26h.14c-.02,.22-.02,.5-.02,1.02h-.14c-.07-.45-.28-.91-.82-.91-.28,0-.49,.16-.49,.46,0,.36,.36,.53,.77,.79,.45,.29,.82,.56,.82,1.05,0,.55-.48,.84-1.03,.84-.17,0-.33-.03-.47-.08-.08-.04-.17-.1-.25-.16-.02-.02-.04-.02-.06-.02-.05,0-.1,.08-.12,.23h-.14c.02-.26,.02-.59,.02-1.2h.14c.08,.67,.23,1.12,.83,1.12,.24,0,.53-.14,.53-.57,0-.35-.29-.54-.68-.79-.44-.28-.83-.51-.83-1.01,0-.53,.41-.77,.89-.77,.32,0,.54,.13,.65,.22Z"/>
    <path d="M134.21,7.75c0,.33,.13,.43,.46,.43v.13c-.14,0-.45-.02-.73-.02s-.59,.02-.73,.02v-.13c.33,0,.46-.1,.46-.43v-1.88c0-.36-.11-.53-.46-.53v-.13c.13,.01,.25,.02,.37,.02,.23,0,.45-.02,.62-.08v2.6Zm.07-3.65c0,.21-.18,.38-.38,.38s-.38-.17-.38-.38,.17-.38,.38-.38,.38,.18,.38,.38Z"/>
    <path d="M137.17,5.32c.18,.12,.28,.28,.28,.46,0,.22-.14,.34-.32,.34s-.33-.11-.33-.3c0-.18,.11-.29,.25-.33-.08-.14-.31-.25-.54-.25-.4,0-.86,.34-.86,1.47,0,1.06,.4,1.42,.86,1.42,.31,0,.66-.16,.87-.62l.11,.04c-.12,.39-.46,.83-1.1,.83-.74,0-1.33-.6-1.33-1.59s.58-1.67,1.4-1.67c.25,0,.5,.06,.7,.19Z"/>
  </g>
  <g>
    <path d="M24.26,4.18c-.41,.02-.49,.08-.49,.52v2.98c0,.44,.08,.5,.49,.52v.12c-.19-.01-.49-.02-.76-.02-.31,0-.6,0-.77,.02v-.12c.41-.02,.48-.08,.48-.52v-3.21l-1.44,3.88h-.1l-1.51-3.89v3.17c0,.44,.08,.56,.54,.58v.12c-.14-.01-.41-.02-.61-.02s-.42,0-.56,.02v-.12c.41-.02,.49-.14,.49-.58v-2.92c0-.44-.08-.5-.49-.52v-.12c.13,.01,.35,.02,.56,.02,.18,0,.38,0,.51-.02l1.32,3.48,1.29-3.46h.28c.28,0,.57,0,.76-.02v.12Z"/>
    <path d="M27.41,6.76c0,1.15-.6,1.63-1.36,1.63s-1.36-.47-1.36-1.63,.6-1.63,1.36-1.63,1.36,.48,1.36,1.63Zm-2.14,0c0,1.07,.33,1.51,.78,1.51s.78-.43,.78-1.51-.32-1.51-.78-1.51-.78,.44-.78,1.51Z"/>
    <path d="M30.6,7.65c0,.36,.11,.53,.46,.53v.13c-.13-.01-.25-.02-.37-.02-.23,0-.45,.02-.62,.08v-.53c-.15,.36-.44,.55-.85,.55-.75,0-1.23-.54-1.22-1.63,0-1.09,.64-1.63,1.36-1.63,.28,0,.57,.1,.72,.35v-1.17c0-.36-.11-.53-.46-.53v-.13c.13,.01,.25,.02,.37,.02,.23,0,.45-.02,.62-.08V7.65Zm-.54-.13v-1.78c-.12-.33-.36-.46-.67-.46-.47,0-.83,.48-.82,1.49,0,.97,.28,1.44,.81,1.44,.3,0,.59-.24,.68-.69Z"/>
    <path d="M33.96,7.58c-.13,.4-.53,.81-1.12,.81-.87,0-1.38-.64-1.38-1.56,0-1.05,.53-1.7,1.36-1.7,.7,0,1.12,.41,1.12,1.32h-1.88c-.01,.11-.02,.25-.02,.38,0,.82,.46,1.3,.92,1.3,.36,0,.67-.15,.88-.6l.12,.05Zm-1.91-1.25h1.31c.02-.59-.17-1.09-.57-1.09-.36,0-.67,.33-.74,1.09Z"/>
    <path d="M36.8,5.6c0,.21-.13,.38-.34,.38-.17,0-.32-.11-.32-.31,0-.15,.1-.26,.21-.33-.03-.04-.07-.06-.13-.06-.5,0-.83,.68-.83,1.13v1.27c0,.39,.24,.49,.64,.49v.13c-.18,0-.55-.02-.92-.02-.28,0-.57,.02-.71,.02v-.13c.33,0,.46-.1,.46-.43v-1.88c0-.36-.11-.53-.46-.53v-.13c.13,.01,.25,.02,.37,.02,.23,0,.45-.02,.62-.08v.75c.13-.35,.45-.77,.87-.77,.33,0,.55,.21,.55,.47Z"/>
    <path d="M39.71,5.36c.15,.16,.21,.38,.21,.79v1.6c0,.33,.13,.43,.46,.43v.13c-.14,0-.46-.02-.72-.02s-.54,.02-.67,.02v-.13c.29,0,.4-.1,.4-.43v-1.73c0-.37-.05-.69-.49-.69-.5,0-.84,.48-.84,1.09v1.33c0,.33,.11,.43,.4,.43v.13c-.13,0-.41-.02-.67-.02s-.58,.02-.72,.02v-.13c.33,0,.46-.1,.46-.43v-1.88c0-.36-.11-.53-.46-.53v-.13c.13,.01,.25,.02,.37,.02,.23,0,.45-.02,.62-.08v.71c.21-.54,.61-.72,1.02-.72,.3,0,.5,.08,.64,.23Z"/>
  </g>
  <g>
    <path d="M123.84,23.3c-.41,.02-.49,.08-.49,.52v2.98c0,.44,.08,.5,.49,.52v.12c-.19-.01-.49-.02-.76-.02-.31,0-.6,0-.77,.02v-.12c.41-.02,.48-.08,.48-.52v-3.21l-1.44,3.88h-.1l-1.51-3.89v3.17c0,.44,.08,.56,.54,.58v.12c-.14-.01-.41-.02-.61-.02s-.42,0-.56,.02v-.12c.41-.02,.49-.14,.49-.58v-2.92c0-.44-.08-.5-.49-.52v-.12c.13,.01,.35,.02,.56,.02,.18,0,.38,0,.51-.02l1.32,3.48,1.29-3.46h.28c.28,0,.57,0,.76-.02v.12Z"/>
    <path d="M126.28,24.48c.19,.19,.24,.42,.24,.84v1.67c0,.19,.05,.28,.18,.28,.11,0,.19-.06,.27-.13l.07,.1c-.17,.13-.29,.22-.55,.22-.42,0-.52-.25-.52-.53-.26,.42-.64,.53-.92,.53-.4,0-.76-.2-.76-.67s.37-.69,.97-.94c.4-.17,.72-.27,.72-.51v-.37c0-.5-.25-.6-.56-.6-.21,0-.46,.04-.59,.21,.15,.04,.28,.17,.28,.37s-.14,.33-.35,.33-.33-.16-.33-.37c0-.18,.11-.31,.28-.43,.17-.11,.46-.23,.84-.23,.34,0,.59,.09,.73,.23Zm-.3,1.12c-.06,.1-.2,.16-.57,.34-.26,.13-.58,.3-.58,.76,0,.36,.21,.53,.48,.53,.24,0,.47-.13,.68-.45v-1.18Z"/>
    <path d="M129.08,24.35v.12h-.89v2.32c0,.38,.14,.51,.38,.51s.42-.17,.54-.64l.12,.03c-.08,.47-.29,.83-.78,.83-.28,0-.44-.07-.57-.2-.18-.18-.23-.41-.23-.84v-2.01h-.58v-.12h.58v-.92c.2,0,.39-.03,.54-.08v1h.89Z"/>
    <path d="M132.07,26.78c0,.36,.11,.53,.46,.53v.13c-.13-.01-.25-.02-.37-.02-.23,0-.45,.02-.62,.08v-.71c-.21,.52-.6,.72-.98,.72-.28,0-.49-.08-.62-.23-.15-.16-.2-.41-.2-.79v-1.51c0-.36-.11-.53-.45-.53v-.13c.13,.01,.25,.02,.37,.02,.23,0,.45-.02,.62-.08v2.36c0,.37,.02,.69,.45,.69,.47,0,.81-.47,.81-1.09v-1.24c0-.36-.11-.53-.46-.53v-.13c.13,.01,.25,.02,.37,.02,.23,0,.45-.02,.62-.08v2.51Z"/>
    <path d="M135.25,24.73c0,.21-.13,.38-.34,.38-.17,0-.32-.11-.32-.31,0-.15,.1-.26,.21-.33-.03-.04-.07-.06-.13-.06-.5,0-.83,.68-.83,1.13v1.27c0,.39,.24,.49,.64,.49v.13c-.18,0-.55-.02-.92-.02-.28,0-.57,.02-.71,.02v-.13c.33,0,.46-.1,.46-.43v-1.88c0-.36-.11-.53-.46-.53v-.13c.13,.01,.25,.02,.37,.02,.23,0,.45-.02,.62-.08v.75c.13-.35,.45-.77,.87-.77,.33,0,.55,.21,.55,.47Z"/>
    <path d="M137.99,26.71c-.13,.4-.53,.81-1.12,.81-.87,0-1.38-.64-1.38-1.56,0-1.05,.53-1.7,1.36-1.7,.7,0,1.12,.41,1.12,1.32h-1.88c-.01,.11-.02,.25-.02,.38,0,.82,.46,1.3,.92,1.3,.36,0,.67-.15,.88-.6l.12,.05Zm-1.91-1.25h1.31c.02-.59-.17-1.09-.57-1.09-.36,0-.67,.33-.74,1.09Z"/>
  </g>
  <g>
    <path d="M21.23,23.18v.12c-.16,.04-.3,.18-.48,.53l-.94,1.87v1.09c0,.44,.08,.5,.49,.52v.12c-.19-.01-.49-.02-.76-.02-.31,0-.6,0-.77,.02v-.12c.41-.02,.49-.08,.49-.52v-.91l-1.22-2.24c-.16-.3-.26-.34-.35-.34v-.13c.16,.01,.32,.02,.53,.02,.26,0,.58,0,.84-.02v.13c-.23,0-.42,.05-.42,.23,0,.06,.02,.12,.06,.21l1,1.91,.76-1.52c.11-.23,.16-.39,.16-.52,0-.24-.2-.31-.53-.32v-.12c.23,.01,.48,.02,.69,.02s.33,0,.45-.02Z"/>
    <path d="M23.85,25.89c0,1.15-.6,1.63-1.36,1.63s-1.36-.47-1.36-1.63,.6-1.63,1.36-1.63,1.36,.48,1.36,1.63Zm-2.14,0c0,1.07,.33,1.51,.78,1.51s.78-.43,.78-1.51-.32-1.51-.78-1.51-.78,.44-.78,1.51Z"/>
    <path d="M27.03,26.78c0,.36,.11,.53,.46,.53v.13c-.13-.01-.25-.02-.37-.02-.23,0-.45,.02-.62,.08v-.71c-.21,.52-.6,.72-.98,.72-.28,0-.49-.08-.62-.23-.15-.16-.2-.41-.2-.79v-1.51c0-.36-.11-.53-.45-.53v-.13c.13,.01,.25,.02,.37,.02,.23,0,.45-.02,.62-.08v2.36c0,.37,.02,.69,.45,.69,.47,0,.81-.47,.81-1.09v-1.24c0-.36-.11-.53-.46-.53v-.13c.13,.01,.25,.02,.37,.02,.23,0,.45-.02,.62-.08v2.51Z"/>
    <path d="M29.65,24.35v.12h-.89v2.32c0,.38,.14,.51,.38,.51s.42-.17,.54-.64l.12,.03c-.08,.47-.29,.83-.78,.83-.28,0-.44-.07-.57-.2-.18-.18-.23-.41-.23-.84v-2.01h-.58v-.12h.58v-.92c.2,0,.39-.03,.54-.08v1h.89Z"/>
    <path d="M30.86,24.98c.21-.54,.61-.72,1.02-.72,.31,0,.5,.08,.64,.23,.15,.16,.21,.38,.21,.79v1.6c0,.33,.13,.43,.46,.43v.13c-.14,0-.46-.02-.72-.02s-.55,.02-.67,.02v-.13c.29,0,.4-.1,.4-.43v-1.73c0-.37-.06-.69-.49-.69-.49,0-.84,.45-.84,1.09v1.34c0,.33,.11,.43,.4,.43v.13c-.13,0-.41-.02-.67-.02s-.58,.02-.72,.02v-.13c.33,0,.46-.1,.46-.43v-3.42c0-.36-.11-.53-.46-.53v-.13c.13,.01,.25,.02,.37,.02,.23,0,.45-.02,.62-.08v2.24Z"/>
    <path d="M35.45,22.9c.12,.1,.19,.23,.19,.37,0,.18-.13,.32-.32,.32s-.33-.12-.33-.32c0-.17,.1-.28,.25-.31-.02-.07-.13-.13-.3-.13-.18,0-.32,.09-.39,.22-.09,.17-.11,.46-.11,1.14v.16h.64v.12h-.64v2.35c0,.39,.24,.49,.64,.49v.13c-.18,0-.55-.02-.92-.02-.28,0-.57,.02-.71,.02v-.13c.33,0,.46-.1,.46-.43v-2.41h-.48v-.12h.48c0-.71,.08-1.04,.31-1.31,.16-.19,.42-.3,.71-.3,.22,0,.4,.07,.52,.16Z"/>
    <path d="M38.16,26.78c0,.36,.11,.53,.46,.53v.13c-.13-.01-.25-.02-.37-.02-.23,0-.45,.02-.62,.08v-.71c-.21,.52-.6,.72-.98,.72-.28,0-.49-.08-.62-.23-.15-.16-.2-.41-.2-.79v-1.51c0-.36-.11-.53-.45-.53v-.13c.13,.01,.25,.02,.37,.02,.23,0,.45-.02,.62-.08v2.36c0,.37,.02,.69,.45,.69,.47,0,.81-.47,.81-1.09v-1.24c0-.36-.11-.53-.46-.53v-.13c.13,.01,.25,.02,.37,.02,.23,0,.45-.02,.62-.08v2.51Z"/>
    <path d="M39.88,26.88c0,.33,.13,.43,.46,.43v.13c-.14,0-.45-.02-.73-.02s-.59,.02-.73,.02v-.13c.33,0,.46-.1,.46-.43v-3.43c0-.36-.11-.53-.46-.53v-.13c.13,.01,.25,.02,.37,.02,.23,0,.45-.02,.62-.08v4.15Z"/>
  </g>
  <g>
    <path d="M122.07,43.08c0,.19,0,.37,.02,.49h-.14c-.08-.83-.18-1.12-.93-1.12h-.38c-.41,0-.49,.06-.49,.5v1.48h.44c.52,0,.51-.5,.56-.79h.14c-.02,.25-.02,.42-.02,.57,0,.11,0,.2,0,.28,0,.2,0,.4,.04,.85h-.14c-.05-.38-.05-.79-.57-.79h-.44v1.38c0,.44,.1,.5,.61,.52v.12c-.21-.01-.56-.02-.88-.02s-.6,0-.77,.02v-.12c.41-.02,.49-.08,.49-.52v-2.98c0-.44-.08-.5-.49-.52v-.12c.59,.02,1.38,.02,1.74,.02s.88,0,1.25-.02c-.03,.3-.04,.62-.04,.77Z"/>
    <path d="M124.91,45.84c-.13,.4-.53,.81-1.12,.81-.87,0-1.38-.64-1.38-1.56,0-1.05,.53-1.7,1.36-1.7,.7,0,1.12,.41,1.12,1.32h-1.88c-.01,.11-.02,.25-.02,.38,0,.82,.46,1.3,.92,1.3,.36,0,.67-.15,.88-.6l.12,.05Zm-1.91-1.25h1.31c.02-.59-.17-1.09-.57-1.09-.36,0-.67,.33-.74,1.09Z"/>
    <path d="M129.95,46c0,.33,.13,.43,.46,.43v.13c-.14,0-.46-.02-.72-.02s-.54,.02-.67,.02v-.13c.29,0,.4-.1,.4-.43v-1.73c0-.37-.02-.69-.46-.69-.47,0-.81,.47-.81,1.09v1.34c0,.33,.13,.43,.45,.43v.13c-.14,0-.45-.02-.72-.02s-.55,.02-.67,.02v-.13c.29,0,.4-.1,.4-.43v-1.73c0-.37-.02-.69-.45-.69-.47,0-.81,.48-.81,1.09v1.33c0,.33,.11,.43,.4,.43v.13c-.13,0-.41-.02-.67-.02s-.58,.02-.72,.02v-.13c.33,0,.46-.1,.46-.43v-1.88c0-.36-.11-.53-.46-.53v-.13c.13,.01,.25,.02,.37,.02,.23,0,.45-.02,.62-.08v.71c.21-.52,.6-.72,.98-.72,.28,0,.49,.08,.62,.23,.11,.11,.16,.27,.18,.48,.21-.54,.62-.71,1-.71,.28,0,.49,.08,.62,.23,.15,.16,.2,.41,.2,.79v1.6Z"/>
    <path d="M131.67,46c0,.33,.13,.43,.46,.43v.13c-.14,0-.45-.02-.73-.02s-.59,.02-.73,.02v-.13c.33,0,.46-.1,.46-.43v-1.88c0-.36-.11-.53-.46-.53v-.13c.13,.01,.25,.02,.37,.02,.23,0,.45-.02,.62-.08v2.6Zm.07-3.65c0,.21-.18,.38-.38,.38s-.38-.17-.38-.38,.17-.38,.38-.38,.38,.18,.38,.38Z"/>
    <path d="M135.08,43.61c.15,.16,.21,.38,.21,.79v1.6c0,.33,.13,.43,.46,.43v.13c-.14,0-.46-.02-.72-.02s-.54,.02-.67,.02v-.13c.29,0,.4-.1,.4-.43v-1.73c0-.37-.05-.69-.49-.69-.5,0-.84,.48-.84,1.09v1.33c0,.33,.11,.43,.4,.43v.13c-.13,0-.41-.02-.67-.02s-.58,.02-.72,.02v-.13c.33,0,.46-.1,.46-.43v-1.88c0-.36-.11-.53-.46-.53v-.13c.13,.01,.25,.02,.37,.02,.23,0,.45-.02,.62-.08v.71c.21-.54,.61-.72,1.02-.72,.3,0,.5,.08,.64,.23Z"/>
    <path d="M137.01,46c0,.33,.13,.43,.46,.43v.13c-.14,0-.45-.02-.73-.02s-.59,.02-.73,.02v-.13c.33,0,.46-.1,.46-.43v-1.88c0-.36-.11-.53-.46-.53v-.13c.13,.01,.25,.02,.37,.02,.23,0,.45-.02,.62-.08v2.6Zm.07-3.65c0,.21-.18,.38-.38,.38s-.38-.17-.38-.38,.17-.38,.38-.38,.38,.18,.38,.38Z"/>
    <path d="M140.42,43.61c.15,.16,.21,.38,.21,.79v1.6c0,.33,.13,.43,.46,.43v.13c-.14,0-.46-.02-.72-.02s-.54,.02-.67,.02v-.13c.29,0,.4-.1,.4-.43v-1.73c0-.37-.05-.69-.49-.69-.5,0-.84,.48-.84,1.09v1.33c0,.33,.11,.43,.4,.43v.13c-.13,0-.41-.02-.67-.02s-.58,.02-.72,.02v-.13c.33,0,.46-.1,.46-.43v-1.88c0-.36-.11-.53-.46-.53v-.13c.13,.01,.25,.02,.37,.02,.23,0,.45-.02,.62-.08v.71c.21-.54,.61-.72,1.02-.72,.3,0,.5,.08,.64,.23Z"/>
    <path d="M143.96,45.84c-.13,.4-.53,.81-1.12,.81-.87,0-1.38-.64-1.38-1.56,0-1.05,.53-1.7,1.36-1.7,.7,0,1.12,.41,1.12,1.32h-1.88c-.01,.11-.02,.25-.02,.38,0,.82,.46,1.3,.92,1.3,.36,0,.67-.15,.88-.6l.12,.05Zm-1.91-1.25h1.31c.02-.59-.17-1.09-.57-1.09-.36,0-.67,.33-.74,1.09Z"/>
  </g>
  <g>
    <path d="M18.09,42.43c-.41,.02-.49,.08-.49,.52v2.98c0,.44,.08,.5,.49,.52v.12c-.19-.01-.49-.02-.76-.02-.31,0-.6,0-.77,.02v-.12c.41-.02,.48-.08,.48-.52v-3.21l-1.44,3.88h-.1l-1.51-3.89v3.17c0,.44,.08,.56,.54,.58v.12c-.14-.01-.41-.02-.61-.02s-.42,0-.56,.02v-.12c.41-.02,.49-.14,.49-.58v-2.92c0-.44-.08-.5-.49-.52v-.12c.13,.01,.35,.02,.56,.02,.18,0,.38,0,.51-.02l1.32,3.48,1.29-3.46h.28c.28,0,.57,0,.76-.02v.12Z"/>
    <path d="M20.53,43.61c.19,.19,.24,.42,.24,.84v1.67c0,.19,.05,.28,.18,.28,.11,0,.19-.06,.27-.13l.07,.1c-.17,.13-.29,.22-.55,.22-.42,0-.52-.25-.52-.53-.26,.42-.64,.53-.92,.53-.4,0-.76-.2-.76-.67s.37-.69,.97-.94c.4-.17,.72-.27,.72-.51v-.37c0-.5-.25-.6-.56-.6-.21,0-.46,.04-.59,.21,.15,.04,.28,.17,.28,.37s-.14,.33-.35,.33-.33-.16-.33-.37c0-.18,.11-.31,.28-.43,.17-.11,.46-.23,.84-.23,.34,0,.59,.09,.73,.23Zm-.3,1.12c-.06,.1-.2,.16-.57,.34-.26,.13-.58,.3-.58,.76,0,.36,.21,.53,.48,.53,.24,0,.47-.13,.68-.45v-1.18Z"/>
    <path d="M23.19,43.61s.08,.05,.11,.05c.07,0,.11-.08,.13-.26h.14c-.02,.22-.02,.5-.02,1.02h-.14c-.07-.45-.28-.91-.82-.91-.28,0-.49,.16-.49,.46,0,.36,.36,.53,.77,.79,.45,.29,.82,.56,.82,1.05,0,.55-.48,.84-1.03,.84-.17,0-.33-.03-.47-.08-.08-.04-.17-.1-.25-.16-.02-.02-.04-.02-.06-.02-.05,0-.1,.08-.12,.23h-.14c.02-.26,.02-.59,.02-1.2h.14c.08,.67,.23,1.12,.83,1.12,.24,0,.53-.14,.53-.57,0-.35-.29-.54-.68-.79-.44-.28-.83-.51-.83-1.01,0-.53,.41-.77,.89-.77,.32,0,.54,.13,.65,.22Z"/>
    <path d="M26.34,43.58c.18,.12,.28,.28,.28,.46,0,.22-.14,.34-.32,.34s-.33-.11-.33-.3c0-.18,.11-.29,.25-.33-.08-.14-.31-.25-.54-.25-.4,0-.86,.34-.86,1.47,0,1.06,.4,1.42,.86,1.42,.31,0,.66-.16,.87-.62l.11,.04c-.12,.39-.46,.83-1.1,.83-.74,0-1.33-.6-1.33-1.59s.58-1.67,1.4-1.67c.25,0,.5,.06,.7,.19Z"/>
    <path d="M29.79,45.91c0,.36,.11,.53,.46,.53v.13c-.13-.01-.25-.02-.37-.02-.23,0-.45,.02-.62,.08v-.71c-.21,.52-.6,.72-.98,.72-.28,0-.49-.08-.62-.23-.15-.16-.2-.41-.2-.79v-1.51c0-.36-.11-.53-.45-.53v-.13c.13,.01,.25,.02,.37,.02,.23,0,.45-.02,.62-.08v2.36c0,.37,.02,.69,.45,.69,.47,0,.81-.47,.81-1.09v-1.24c0-.36-.11-.53-.46-.53v-.13c.13,.01,.25,.02,.37,.02,.23,0,.45-.02,.62-.08v2.51Z"/>
    <path d="M31.5,46c0,.33,.13,.43,.46,.43v.13c-.14,0-.45-.02-.73-.02s-.59,.02-.73,.02v-.13c.33,0,.46-.1,.46-.43v-3.43c0-.36-.11-.53-.46-.53v-.13c.13,.01,.25,.02,.37,.02,.23,0,.45-.02,.62-.08v4.15Z"/>
    <path d="M33.26,46c0,.33,.13,.43,.46,.43v.13c-.14,0-.45-.02-.73-.02s-.59,.02-.73,.02v-.13c.33,0,.46-.1,.46-.43v-1.88c0-.36-.11-.53-.46-.53v-.13c.13,.01,.25,.02,.37,.02,.23,0,.45-.02,.62-.08v2.6Zm.07-3.65c0,.21-.18,.38-.38,.38s-.38-.17-.38-.38,.17-.38,.38-.38,.38,.18,.38,.38Z"/>
    <path d="M36.68,43.61c.15,.16,.21,.38,.21,.79v1.6c0,.33,.13,.43,.46,.43v.13c-.14,0-.46-.02-.72-.02s-.54,.02-.67,.02v-.13c.29,0,.4-.1,.4-.43v-1.73c0-.37-.05-.69-.49-.69-.5,0-.84,.48-.84,1.09v1.33c0,.33,.11,.43,.4,.43v.13c-.13,0-.41-.02-.67-.02s-.58,.02-.72,.02v-.13c.33,0,.46-.1,.46-.43v-1.88c0-.36-.11-.53-.46-.53v-.13c.13,.01,.25,.02,.37,.02,.23,0,.45-.02,.62-.08v.71c.21-.54,.61-.72,1.02-.72,.3,0,.5,.08,.64,.23Z"/>
    <path d="M40.21,45.84c-.13,.4-.53,.81-1.12,.81-.87,0-1.38-.64-1.38-1.56,0-1.05,.53-1.7,1.36-1.7,.7,0,1.12,.41,1.12,1.32h-1.88c-.01,.11-.02,.25-.02,.38,0,.82,.46,1.3,.92,1.3,.36,0,.67-.15,.88-.6l.12,.05Zm-1.91-1.25h1.31c.02-.59-.17-1.09-.57-1.09-.36,0-.67,.33-.74,1.09Z"/>
  </g>
  <g>
    <path d="M121.13,61.59c.1,.06,.15,.08,.21,.08,.08,0,.11-.09,.13-.26h.14c-.02,.21-.03,.47-.03,1.22h-.14c-.04-.57-.32-1.15-.98-1.15-.43,0-.73,.28-.73,.7,0,.54,.47,.76,1.01,1.1,.62,.39,1.08,.71,1.08,1.35,0,.76-.58,1.14-1.27,1.14-.42,0-.65-.11-.82-.22-.1-.06-.16-.08-.21-.08-.08,0-.11,.09-.13,.26h-.14c.02-.25,.02-.59,.02-1.44h.14c.05,.73,.33,1.36,1.09,1.36,.39,0,.78-.23,.78-.8,0-.49-.38-.76-.93-1.1s-1.07-.67-1.07-1.34,.54-1.04,1.13-1.04c.4,0,.57,.11,.73,.22Z"/>
    <path d="M125.11,64.14c0,1.15-.6,1.63-1.36,1.63s-1.36-.47-1.36-1.63,.6-1.63,1.36-1.63,1.36,.48,1.36,1.63Zm-2.14,0c0,1.07,.33,1.51,.78,1.51s.78-.43,.78-1.51-.32-1.51-.78-1.51-.78,.44-.78,1.51Z"/>
    <path d="M128.6,64c0,.87-.4,1.77-1.37,1.77-.31,0-.57-.14-.7-.33v.77c0,.34,.22,.43,.58,.43v.13c-.18,0-.52-.03-.86-.03-.25,0-.52,.02-.65,.03v-.13c.29,0,.4-.08,.4-.37v-3.02c0-.36-.11-.53-.46-.53v-.13c.13,.01,.25,.02,.37,.02,.23,0,.45-.02,.62-.08v.63c.18-.42,.54-.65,.96-.65,.63,0,1.12,.52,1.12,1.49Zm-.58,.08c0-.95-.24-1.39-.7-1.39-.35,0-.67,.25-.8,.76v1.8c.11,.22,.32,.39,.64,.39,.67,0,.86-.7,.86-1.55Z"/>
    <path d="M129.99,63.23c.21-.54,.61-.72,1.02-.72,.31,0,.5,.08,.64,.23,.15,.16,.21,.38,.21,.79v1.6c0,.33,.13,.43,.46,.43v.13c-.14,0-.46-.02-.72-.02s-.55,.02-.67,.02v-.13c.29,0,.4-.1,.4-.43v-1.73c0-.37-.06-.69-.49-.69-.49,0-.84,.45-.84,1.09v1.34c0,.33,.11,.43,.4,.43v.13c-.13,0-.41-.02-.67-.02s-.58,.02-.72,.02v-.13c.33,0,.46-.1,.46-.43v-3.42c0-.36-.11-.53-.46-.53v-.13c.13,.01,.25,.02,.37,.02,.23,0,.45-.02,.62-.08v2.24Z"/>
    <path d="M133.57,65.13c0,.33,.13,.43,.46,.43v.13c-.14,0-.45-.02-.73-.02s-.59,.02-.73,.02v-.13c.33,0,.46-.1,.46-.43v-1.88c0-.36-.11-.53-.46-.53v-.13c.13,.01,.25,.02,.37,.02,.23,0,.45-.02,.62-.08v2.6Zm.07-3.65c0,.21-.18,.38-.38,.38s-.38-.17-.38-.38,.17-.38,.38-.38,.38,.18,.38,.38Z"/>
    <path d="M136.06,62.73s.08,.05,.11,.05c.07,0,.11-.08,.13-.26h.14c-.02,.22-.02,.5-.02,1.02h-.14c-.07-.45-.28-.91-.82-.91-.28,0-.49,.16-.49,.46,0,.36,.36,.53,.77,.79,.45,.29,.82,.56,.82,1.05,0,.55-.48,.84-1.03,.84-.17,0-.33-.03-.47-.08-.08-.04-.17-.1-.25-.16-.02-.02-.04-.02-.06-.02-.05,0-.1,.08-.12,.23h-.14c.02-.26,.02-.59,.02-1.2h.14c.08,.67,.23,1.12,.83,1.12,.24,0,.53-.14,.53-.57,0-.35-.29-.54-.68-.79-.44-.28-.83-.51-.83-1.01,0-.53,.41-.77,.89-.77,.32,0,.54,.13,.65,.22Z"/>
    <path d="M138.86,62.6v.12h-.89v2.32c0,.38,.14,.51,.38,.51s.42-.17,.54-.64l.12,.03c-.08,.47-.29,.83-.78,.83-.28,0-.44-.07-.57-.2-.18-.18-.23-.41-.23-.84v-2.01h-.58v-.12h.58v-.92c.2,0,.39-.03,.54-.08v1h.89Z"/>
    <path d="M140.13,65.13c0,.33,.13,.43,.46,.43v.13c-.14,0-.45-.02-.73-.02s-.59,.02-.73,.02v-.13c.33,0,.46-.1,.46-.43v-1.88c0-.36-.11-.53-.46-.53v-.13c.13,.01,.25,.02,.37,.02,.23,0,.45-.02,.62-.08v2.6Zm.07-3.65c0,.21-.18,.38-.38,.38s-.38-.17-.38-.38,.17-.38,.38-.38,.38,.18,.38,.38Z"/>
    <path d="M143.09,62.7c.18,.12,.28,.28,.28,.46,0,.22-.14,.34-.32,.34s-.33-.11-.33-.3c0-.18,.11-.29,.25-.33-.08-.14-.31-.25-.54-.25-.4,0-.86,.34-.86,1.47,0,1.06,.4,1.42,.86,1.42,.31,0,.66-.16,.87-.62l.11,.04c-.12,.39-.46,.83-1.1,.83-.74,0-1.33-.6-1.33-1.59s.58-1.67,1.4-1.67c.25,0,.5,.06,.7,.19Z"/>
    <path d="M145.85,62.74c.19,.19,.24,.42,.24,.84v1.67c0,.19,.05,.28,.18,.28,.11,0,.19-.06,.27-.13l.07,.1c-.17,.13-.29,.22-.55,.22-.42,0-.52-.25-.52-.53-.26,.42-.64,.53-.92,.53-.4,0-.76-.2-.76-.67s.37-.69,.97-.94c.4-.17,.72-.27,.72-.51v-.37c0-.5-.25-.6-.56-.6-.21,0-.46,.04-.59,.21,.15,.04,.28,.17,.28,.37s-.14,.33-.35,.33-.33-.16-.33-.37c0-.18,.11-.31,.28-.43,.17-.11,.46-.23,.84-.23,.34,0,.59,.09,.73,.23Zm-.3,1.12c-.06,.1-.2,.16-.57,.34-.26,.13-.58,.3-.58,.76,0,.36,.21,.53,.48,.53,.24,0,.47-.13,.68-.45v-1.18Z"/>
    <path d="M148.65,62.6v.12h-.89v2.32c0,.38,.14,.51,.38,.51s.42-.17,.54-.64l.12,.03c-.08,.47-.29,.83-.78,.83-.28,0-.44-.07-.57-.2-.18-.18-.23-.41-.23-.84v-2.01h-.58v-.12h.58v-.92c.2,0,.39-.03,.54-.08v1h.89Z"/>
    <path d="M151.52,64.96c-.13,.4-.53,.81-1.12,.81-.87,0-1.38-.64-1.38-1.56,0-1.05,.53-1.7,1.36-1.7,.7,0,1.12,.41,1.12,1.32h-1.88c-.01,.11-.02,.25-.02,.38,0,.82,.46,1.3,.92,1.3,.36,0,.67-.15,.88-.6l.12,.05Zm-1.91-1.25h1.31c.02-.59-.17-1.09-.57-1.09-.36,0-.67,.33-.74,1.09Z"/>
    <path d="M154.68,65.03c0,.36,.11,.53,.46,.53v.13c-.13-.01-.25-.02-.37-.02-.23,0-.45,.02-.62,.08v-.53c-.15,.36-.44,.55-.85,.55-.75,0-1.23-.54-1.22-1.63,0-1.09,.64-1.63,1.36-1.63,.28,0,.57,.1,.72,.35v-1.17c0-.36-.11-.53-.46-.53v-.13c.13,.01,.25,.02,.37,.02,.23,0,.45-.02,.62-.08v4.05Zm-.54-.13v-1.78c-.12-.33-.36-.46-.67-.46-.47,0-.83,.48-.82,1.49,0,.97,.28,1.44,.81,1.44,.3,0,.59-.24,.68-.69Z"/>
  </g>
  <g>
    <path d="M23.46,65.05c0,.44,.1,.5,.61,.52v.12c-.21-.01-.56-.02-.88-.02s-.6,0-.77,.02v-.12c.41-.02,.49-.08,.49-.52v-2.98c0-.44-.08-.5-.49-.52v-.12c.17,.01,.47,.02,.73,.02,.38,0,.76-.01,.91-.01,.97,0,1.45,.49,1.45,1.18,0,.58-.34,1.34-1.58,1.34h-.46v1.08Zm0-2.98v1.78h.4c.85,0,1.04-.54,1.04-1.16,0-.76-.27-1.13-1-1.13-.37,0-.45,.1-.45,.52Z"/>
    <path d="M26.75,65.13c0,.33,.13,.43,.46,.43v.13c-.14,0-.45-.02-.73-.02s-.59,.02-.73,.02v-.13c.33,0,.46-.1,.46-.43v-3.43c0-.36-.11-.53-.46-.53v-.13c.13,.01,.25,.02,.37,.02,.23,0,.45-.02,.62-.08v4.15Z"/>
    <path d="M29.56,62.74c.19,.19,.24,.42,.24,.84v1.67c0,.19,.05,.28,.18,.28,.11,0,.19-.06,.27-.13l.07,.1c-.17,.13-.29,.22-.55,.22-.42,0-.52-.25-.52-.53-.26,.42-.64,.53-.92,.53-.4,0-.76-.2-.76-.67s.37-.69,.97-.94c.4-.17,.72-.27,.72-.51v-.37c0-.5-.25-.6-.56-.6-.21,0-.46,.04-.59,.21,.15,.04,.28,.17,.28,.37s-.14,.33-.35,.33-.33-.16-.33-.37c0-.18,.11-.31,.28-.43,.17-.11,.46-.23,.84-.23,.34,0,.59,.09,.73,.23Zm-.3,1.12c-.06,.1-.2,.16-.57,.34-.26,.13-.58,.3-.58,.76,0,.36,.21,.53,.48,.53,.24,0,.47-.13,.68-.45v-1.18Z"/>
    <path d="M33.25,62.59v.12c-.15,.02-.28,.11-.39,.42l-.98,2.58-.21,.52c-.08,.21-.16,.34-.26,.42-.13,.12-.33,.16-.47,.16-.23,0-.41-.13-.41-.36,0-.19,.12-.32,.32-.32,.17,0,.3,.09,.3,.28,0,.14-.08,.22-.16,.27,.01,0,.02,0,.04,0,.22,0,.38-.14,.51-.47l.21-.55-1.09-2.62c-.16-.31-.31-.34-.41-.34v-.13c.17,.02,.36,.04,.59,.04,.24,0,.54-.02,.78-.04v.13c-.23,0-.42,0-.42,.21,0,.07,.02,.17,.08,.3l.72,1.79,.66-1.74c.04-.11,.06-.2,.06-.28,0-.19-.14-.27-.45-.29v-.12c.21,.01,.32,.02,.5,.02s.33,0,.46-.02Z"/>
    <path d="M35.45,61.16c.12,.1,.19,.23,.19,.37,0,.18-.13,.32-.32,.32s-.33-.12-.33-.32c0-.17,.1-.28,.25-.31-.02-.07-.13-.13-.3-.13-.18,0-.32,.09-.39,.22-.09,.17-.11,.46-.11,1.14v.16h.64v.12h-.64v2.35c0,.39,.24,.49,.64,.49v.13c-.18,0-.55-.02-.92-.02-.28,0-.57,.02-.71,.02v-.13c.33,0,.46-.1,.46-.43v-2.41h-.48v-.12h.48c0-.71,.08-1.04,.31-1.31,.16-.19,.42-.3,.71-.3,.22,0,.4,.07,.52,.16Z"/>
    <path d="M38.16,65.04c0,.36,.11,.53,.46,.53v.13c-.13-.01-.25-.02-.37-.02-.23,0-.45,.02-.62,.08v-.71c-.21,.52-.6,.72-.98,.72-.28,0-.49-.08-.62-.23-.15-.16-.2-.41-.2-.79v-1.51c0-.36-.11-.53-.45-.53v-.13c.13,.01,.25,.02,.37,.02,.23,0,.45-.02,.62-.08v2.36c0,.37,.02,.69,.45,.69,.47,0,.81-.47,.81-1.09v-1.24c0-.36-.11-.53-.46-.53v-.13c.13,.01,.25,.02,.37,.02,.23,0,.45-.02,.62-.08v2.51Z"/>
    <path d="M39.88,65.13c0,.33,.13,.43,.46,.43v.13c-.14,0-.45-.02-.73-.02s-.59,.02-.73,.02v-.13c.33,0,.46-.1,.46-.43v-3.43c0-.36-.11-.53-.46-.53v-.13c.13,.01,.25,.02,.37,.02,.23,0,.45-.02,.62-.08v4.15Z"/>
  </g>
  <g>
    <path d="M120.64,80.69c-.41,.02-.49,.08-.49,.52v2.98c0,.44,.08,.5,.49,.5h.44c.75,0,.9-.29,.98-1.12h.14c-.01,.13-.02,.3-.02,.49,0,.15,.01,.46,.04,.77-.41-.02-.97-.02-1.37-.02-.36,0-1.15,0-1.74,.02v-.12c.41-.02,.49-.08,.49-.52v-2.98c0-.44-.08-.5-.49-.52v-.12c.17,.01,.46,.02,.77,.02,.28,0,.58,0,.76-.02v.12Z"/>
    <path d="M125.29,84.17c0,.36,.11,.53,.46,.53v.13c-.13-.01-.25-.02-.37-.02-.23,0-.45,.02-.62,.08v-.71c-.21,.52-.6,.72-.98,.72-.28,0-.49-.08-.62-.23-.15-.16-.2-.41-.2-.79v-1.51c0-.36-.11-.53-.45-.53v-.13c.13,.01,.25,.02,.37,.02,.23,0,.45-.02,.62-.08v2.36c0,.37,.02,.69,.45,.69,.47,0,.81-.47,.81-1.09v-1.24c0-.36-.11-.53-.46-.53v-.13c.13,.01,.25,.02,.37,.02,.23,0,.45-.02,.62-.08v2.51Z"/>
    <path d="M128.54,84.39c.14,.2,.22,.27,.37,.3v.13c-.08,0-.27-.02-.42-.02-.25,0-.58,.02-.71,.02v-.13c.12,0,.24-.05,.24-.13,0-.02,0-.04-.03-.07l-.68-1-.44,.57c-.11,.15-.17,.27-.17,.36,0,.17,.17,.26,.44,.28v.12c-.21-.01-.5-.02-.68-.02s-.33,0-.46,.02v-.12c.15-.02,.3-.12,.53-.42l.69-.91-.83-1.21c-.16-.23-.23-.28-.37-.3v-.13c.08,0,.27,.02,.43,.02,.25,0,.58-.02,.71-.02v.13c-.12,0-.23,.05-.23,.13,0,.02,0,.04,.02,.07l.64,.93,.42-.58c.12-.16,.18-.29,.18-.38,0-.11-.11-.17-.34-.19v-.12c.21,.01,.32,.02,.5,.02s.33,0,.45-.02v.12c-.15,.02-.33,.16-.53,.42l-.61,.84,.88,1.29Z"/>
    <path d="M131.89,84.17c0,.36,.11,.53,.46,.53v.13c-.13-.01-.25-.02-.37-.02-.23,0-.45,.02-.62,.08v-.71c-.21,.52-.6,.72-.98,.72-.28,0-.49-.08-.62-.23-.15-.16-.2-.41-.2-.79v-1.51c0-.36-.11-.53-.45-.53v-.13c.13,.01,.25,.02,.37,.02,.23,0,.45-.02,.62-.08v2.36c0,.37,.02,.69,.45,.69,.47,0,.81-.47,.81-1.09v-1.24c0-.36-.11-.53-.46-.53v-.13c.13,.01,.25,.02,.37,.02,.23,0,.45-.02,.62-.08v2.51Z"/>
    <path d="M135.06,82.11c0,.21-.13,.38-.34,.38-.17,0-.32-.11-.32-.31,0-.15,.1-.26,.21-.33-.03-.04-.07-.06-.13-.06-.5,0-.83,.68-.83,1.13v1.27c0,.39,.24,.49,.64,.49v.13c-.18,0-.55-.02-.92-.02-.28,0-.57,.02-.71,.02v-.13c.33,0,.46-.1,.46-.43v-1.88c0-.36-.11-.53-.46-.53v-.13c.13,.01,.25,.02,.37,.02,.23,0,.45-.02,.62-.08v.75c.13-.35,.45-.77,.87-.77,.33,0,.55,.21,.55,.47Z"/>
    <path d="M136.32,84.26c0,.33,.13,.43,.46,.43v.13c-.14,0-.45-.02-.73-.02s-.59,.02-.73,.02v-.13c.33,0,.46-.1,.46-.43v-1.88c0-.36-.11-.53-.46-.53v-.13c.13,.01,.25,.02,.37,.02,.23,0,.45-.02,.62-.08v2.6Zm.07-3.65c0,.21-.18,.38-.38,.38s-.38-.17-.38-.38,.17-.38,.38-.38,.38,.18,.38,.38Z"/>
    <path d="M139.91,83.27c0,1.15-.6,1.63-1.36,1.63s-1.36-.47-1.36-1.63,.6-1.63,1.36-1.63,1.36,.48,1.36,1.63Zm-2.14,0c0,1.07,.33,1.51,.78,1.51s.78-.43,.78-1.51-.32-1.51-.78-1.51-.78,.44-.78,1.51Z"/>
    <path d="M143.09,84.17c0,.36,.11,.53,.46,.53v.13c-.13-.01-.25-.02-.37-.02-.23,0-.45,.02-.62,.08v-.71c-.21,.52-.6,.72-.98,.72-.28,0-.49-.08-.62-.23-.15-.16-.2-.41-.2-.79v-1.51c0-.36-.11-.53-.45-.53v-.13c.13,.01,.25,.02,.37,.02,.23,0,.45-.02,.62-.08v2.36c0,.37,.02,.69,.45,.69,.47,0,.81-.47,.81-1.09v-1.24c0-.36-.11-.53-.46-.53v-.13c.13,.01,.25,.02,.37,.02,.23,0,.45-.02,.62-.08v2.51Z"/>
    <path d="M145.57,81.86s.08,.05,.11,.05c.07,0,.11-.08,.13-.26h.14c-.02,.22-.02,.5-.02,1.02h-.14c-.07-.45-.28-.91-.82-.91-.28,0-.49,.16-.49,.46,0,.36,.36,.53,.77,.79,.45,.29,.82,.56,.82,1.05,0,.55-.48,.84-1.03,.84-.17,0-.33-.03-.47-.08-.08-.04-.17-.1-.25-.16-.02-.02-.04-.02-.06-.02-.05,0-.1,.08-.12,.23h-.14c.02-.26,.02-.59,.02-1.2h.14c.08,.67,.23,1.12,.83,1.12,.24,0,.53-.14,.53-.57,0-.35-.29-.54-.68-.79-.44-.28-.83-.51-.83-1.01,0-.53,.41-.77,.89-.77,.32,0,.54,.13,.65,.22Z"/>
  </g>
  <g>
    <path d="M12.4,84.81c-.41-.02-.97-.02-1.37-.02-.36,0-1.15,0-1.74,.02v-.12c.41-.02,.49-.08,.49-.52v-2.98c0-.44-.08-.5-.49-.52v-.12c.59,.02,1.38,.02,1.74,.02s.88,0,1.25-.02c-.03,.28-.04,.57-.04,.71s0,.28,.02,.37h-.14c-.08-.71-.17-.94-.81-.94h-.5c-.41,0-.49,.06-.49,.5v1.42h.4c.52,0,.51-.5,.56-.79h.14c-.02,.25-.02,.43-.02,.57,0,.11,0,.2,0,.29,0,.2,0,.4,.04,.85h-.14c-.05-.38-.05-.79-.57-.79h-.4v1.44c0,.44,.08,.5,.49,.5h.44c.75,0,.9-.27,.98-1.06h.14c-.01,.11-.02,.27-.02,.43,0,.15,.01,.46,.04,.77Z"/>
    <path d="M15.06,81.83c.18,.12,.28,.28,.28,.46,0,.22-.14,.34-.32,.34s-.33-.11-.33-.3c0-.18,.11-.29,.25-.33-.08-.14-.31-.25-.54-.25-.4,0-.86,.34-.86,1.47,0,1.06,.4,1.42,.86,1.42,.31,0,.66-.16,.87-.62l.11,.04c-.12,.39-.46,.83-1.1,.83-.74,0-1.33-.6-1.33-1.59s.58-1.67,1.4-1.67c.25,0,.5,.06,.7,.19Z"/>
    <path d="M18.61,83.27c0,1.15-.6,1.63-1.36,1.63s-1.36-.47-1.36-1.63,.6-1.63,1.36-1.63,1.36,.48,1.36,1.63Zm-2.14,0c0,1.07,.33,1.51,.78,1.51s.78-.43,.78-1.51-.32-1.51-.78-1.51-.78,.44-.78,1.51Z"/>
    <path d="M21.72,81.87c.15,.16,.21,.38,.21,.79v1.6c0,.33,.13,.43,.46,.43v.13c-.14,0-.46-.02-.72-.02s-.54,.02-.67,.02v-.13c.29,0,.4-.1,.4-.43v-1.73c0-.37-.05-.69-.49-.69-.5,0-.84,.48-.84,1.09v1.33c0,.33,.11,.43,.4,.43v.13c-.13,0-.41-.02-.67-.02s-.58,.02-.72,.02v-.13c.33,0,.46-.1,.46-.43v-1.88c0-.36-.11-.53-.46-.53v-.13c.13,.01,.25,.02,.37,.02,.23,0,.45-.02,.62-.08v.71c.21-.54,.61-.72,1.02-.72,.3,0,.5,.08,.64,.23Z"/>
    <path d="M25.48,83.27c0,1.15-.6,1.63-1.36,1.63s-1.36-.47-1.36-1.63,.6-1.63,1.36-1.63,1.36,.48,1.36,1.63Zm-2.14,0c0,1.07,.33,1.51,.78,1.51s.78-.43,.78-1.51-.32-1.51-.78-1.51-.78,.44-.78,1.51Z"/>
    <path d="M30.54,84.26c0,.33,.13,.43,.46,.43v.13c-.14,0-.46-.02-.72-.02s-.54,.02-.67,.02v-.13c.29,0,.4-.1,.4-.43v-1.73c0-.37-.02-.69-.46-.69-.47,0-.81,.47-.81,1.09v1.34c0,.33,.13,.43,.45,.43v.13c-.14,0-.45-.02-.72-.02s-.55,.02-.67,.02v-.13c.29,0,.4-.1,.4-.43v-1.73c0-.37-.02-.69-.45-.69-.47,0-.81,.48-.81,1.09v1.33c0,.33,.11,.43,.4,.43v.13c-.13,0-.41-.02-.67-.02s-.58,.02-.72,.02v-.13c.33,0,.46-.1,.46-.43v-1.88c0-.36-.11-.53-.46-.53v-.13c.13,.01,.25,.02,.37,.02,.23,0,.45-.02,.62-.08v.71c.21-.52,.6-.72,.98-.72,.28,0,.49,.08,.62,.23,.11,.11,.16,.27,.18,.48,.21-.54,.62-.71,1-.71,.28,0,.49,.08,.62,.23,.15,.16,.2,.41,.2,.79v1.6Z"/>
    <path d="M32.26,84.26c0,.33,.13,.43,.46,.43v.13c-.14,0-.45-.02-.73-.02s-.59,.02-.73,.02v-.13c.33,0,.46-.1,.46-.43v-1.88c0-.36-.11-.53-.46-.53v-.13c.13,.01,.25,.02,.37,.02,.23,0,.45-.02,.62-.08v2.6Zm.07-3.65c0,.21-.18,.38-.38,.38s-.38-.17-.38-.38,.17-.38,.38-.38,.38,.18,.38,.38Z"/>
    <path d="M35.22,81.83c.18,.12,.28,.28,.28,.46,0,.22-.14,.34-.32,.34s-.33-.11-.33-.3c0-.18,.11-.29,.25-.33-.08-.14-.31-.25-.54-.25-.4,0-.86,.34-.86,1.47,0,1.06,.4,1.42,.86,1.42,.31,0,.66-.16,.87-.62l.11,.04c-.12,.39-.46,.83-1.1,.83-.74,0-1.33-.6-1.33-1.59s.58-1.67,1.4-1.67c.25,0,.5,.06,.7,.19Z"/>
    <path d="M37.98,81.87c.19,.19,.24,.42,.24,.84v1.67c0,.19,.05,.28,.18,.28,.11,0,.19-.06,.27-.13l.07,.1c-.17,.13-.29,.22-.55,.22-.42,0-.52-.25-.52-.53-.26,.42-.64,.53-.92,.53-.4,0-.76-.2-.76-.67s.37-.69,.97-.94c.4-.17,.72-.27,.72-.51v-.37c0-.5-.25-.6-.56-.6-.21,0-.46,.04-.59,.21,.15,.04,.28,.17,.28,.37s-.14,.33-.35,.33-.33-.16-.33-.37c0-.18,.11-.31,.28-.43,.17-.11,.46-.23,.84-.23,.34,0,.59,.09,.73,.23Zm-.3,1.12c-.06,.1-.2,.16-.57,.34-.26,.13-.58,.3-.58,.76,0,.36,.21,.53,.48,.53,.24,0,.47-.13,.68-.45v-1.18Z"/>
    <path d="M39.88,84.26c0,.33,.13,.43,.46,.43v.13c-.14,0-.45-.02-.73-.02s-.59,.02-.73,.02v-.13c.33,0,.46-.1,.46-.43v-3.43c0-.36-.11-.53-.46-.53v-.13c.13,.01,.25,.02,.37,.02,.23,0,.45-.02,.62-.08v4.15Z"/>
  </g>
  <line class="cls-1" x1="46.5" y1="7.16" x2="113.5" y2="7.16"/>
  <circle cx="85.93" cy="7.16" r="1"/>
  <line class="cls-1" x1="46.5" y1="26.16" x2="113.5" y2="26.16"/>
  <line class="cls-1" x1="46.5" y1="45.16" x2="113.5" y2="45.16"/>
  <line class="cls-1" x1="113.5" y1="64.16" x2="46.5" y2="64.16"/>
  <line class="cls-1" x1="113.5" y1="83.16" x2="46.5" y2="83.16"/>
  <circle cx="99.42" cy="26" r="1"/>
  <circle cx="105.42" cy="45" r="1"/>
  <circle cx="98.58" cy="64" r="1"/>
  <circle cx="101.58" cy="83" r="1"/>
</svg>