<?xml version="1.0" encoding="UTF-8"?>
<svg id="Layer_2" data-name="Layer 2" xmlns="http://www.w3.org/2000/svg" xmlns:xlink="http://www.w3.org/1999/xlink" viewBox="0 0 502.9 286">
  <defs>
    <style>
      .cls-1 {
        fill: #fff;
      }

      .cls-2 {
        filter: url(#drop-shadow-1);
      }

      .cls-3 {
        filter: url(#drop-shadow-2);
      }

      .cls-3, .cls-4 {
        fill: red;
      }
    </style>
    <filter id="drop-shadow-1" filterUnits="userSpaceOnUse">
      <feOffset dx="-4" dy="-4"/>
      <feGaussianBlur result="blur" stdDeviation="2"/>
      <feFlood flood-color="#000" flood-opacity=".3"/>
      <feComposite in2="blur" operator="in"/>
      <feComposite in="SourceGraphic"/>
    </filter>
    <filter id="drop-shadow-2" filterUnits="userSpaceOnUse">
      <feOffset dx="-4" dy="-4"/>
      <feGaussianBlur result="blur-2" stdDeviation="2"/>
      <feFlood flood-color="#000" flood-opacity=".3"/>
      <feComposite in2="blur-2" operator="in"/>
      <feComposite in="SourceGraphic"/>
    </filter>
  </defs>
  <g id="Layer_1-2" data-name="Layer 1">
    <rect class="cls-4" x="252.23" y="145" width="250.67" height="141"/>
    <rect y="145" width="252.23" height="141" transform="translate(252.23 431) rotate(180)"/>
    <g>
      <path class="cls-1" d="M280.24,221.86h-1.19c-.62,0-1.23-.13-1.84-.38-.6-.25-1.05-.6-1.33-1.03-.29-.43-.43-1.63-.43-3.59v-21.56c0-2.29,.35-3.69,1.06-4.22,.71-.52,1.55-.78,2.54-.78h1.19v-.91h-14.31v.91h1.19c1.29,0,2.21,.31,2.76,.92,.55,.62,.82,1.97,.82,4.08v21.56c0,1.89-.21,3.2-.64,3.92-.43,.72-1.41,1.08-2.94,1.08h-1.19v.91h14.31v-.91Z"/>
      <path class="cls-1" d="M218.7,208.15l5.66,8.57c1.04,1.58,1.57,2.68,1.57,3.3,0,1.25-1.1,1.88-3.3,1.88v.91h14.33v-.91c-1.57-.09-2.85-.58-3.86-1.49-1.01-.91-2.41-2.7-4.21-5.38l-7.15-10.68,6.61-8.46c1.27-1.61,2.52-2.94,3.77-3.96,1.25-1.03,2.61-1.54,4.07-1.56v-.91h-11.83v.91c1.34,.01,2.27,.16,2.79,.45,.51,.29,.77,.76,.77,1.42s-.5,1.58-1.49,2.83l-5.92,7.51-5.12-7.66c-.78-1.17-1.17-2.05-1.17-2.65,0-1.18,1.14-1.81,3.41-1.9v-.91h-15.43v.91c1.91,.06,3.5,.6,4.76,1.62,1.26,1.02,2.63,2.61,4.11,4.79l6.56,9.63-7.86,9.93c-2.72,3.44-5.46,5.29-8.22,5.55v.91h11.83v-.91c-2.14-.09-3.21-.71-3.21-1.88,0-.62,.52-1.59,1.55-2.91l6.99-8.96Z"/>
      <path class="cls-1" d="M291.1,189.47v.91c1.34,.01,2.27,.16,2.79,.45,.51,.29,.77,.76,.77,1.42s-.5,1.58-1.49,2.83l-5.68,7.2,1.2,1.8,6.4-8.18c1.27-1.61,2.53-2.94,3.77-3.96,1.25-1.03,2.61-1.54,4.07-1.56v-.91h-11.83Z"/>
      <path class="cls-1" d="M261.58,209.95c-.84-1.33-1.88-2.42-3.14-3.26-1.25-.84-3.1-1.91-5.53-3.21-3.96-2.14-6.34-3.72-7.13-4.76-.79-1.04-1.18-2.02-1.18-2.93,0-1.43,.58-2.64,1.74-3.62,1.16-.99,2.55-1.48,4.16-1.48,2.17,0,4.13,.74,5.88,2.23,1.75,1.48,2.86,3.93,3.35,7.33h.91v-11.53h-.91c-.27,1.28-.84,1.92-1.7,1.92-.37,0-1.03-.21-1.96-.62-1.96-.87-3.84-1.3-5.63-1.3-2.76,0-5.08,.84-6.95,2.52-1.88,1.68-2.81,3.76-2.81,6.26,0,3.03,1.41,5.47,4.22,7.31,2.81,1.84,6.41,4.04,10.78,6.59,1.85,1.42,2.78,3.02,2.78,4.83,0,1.6-.63,2.91-1.89,3.93-1.26,1.02-2.84,1.53-4.74,1.53-5.48,0-8.78-3.17-9.91-9.52h-.91v11.44h.91c.19-1.27,.68-1.9,1.49-1.9,.55,0,1.55,.24,3,.73,2.36,.78,4.34,1.17,5.94,1.17,2.96,0,5.44-.88,7.46-2.65,2.02-1.76,3.03-3.98,3.03-6.63,0-1.56-.42-3.01-1.26-4.35Z"/>
      <path class="cls-1" d="M291.45,215.8c1.03,1.7,2.95,2.65,4.93,2.44l-12.23-19.22c-.81-1.29-2.23-2.06-3.75-2.06h-.41l11.47,18.84Z"/>
      <path class="cls-1" d="M301.51,221.77l-4.39-2.63c-2.55,.55-5.17-.58-6.53-2.81l-11.65-19.14c-.78,.63-2.37,2.11-2.37,3.79,0,2.09,1.13,3.42,1.33,3.64l2.38,1.59c1.45,.97,2.64,2.28,3.46,3.81l6.15,11.54c.35,.66,1.03,1.07,1.78,1.07h9.61c.25,0,.46-.21,.46-.46,0-.16-.08-.31-.22-.39Z"/>
      <path class="cls-4" d="M206.53,228.96h-2.46c-.18,0-.26,.08-.26,.26v7.02c0,.18,.08,.26,.26,.26h2.29c2.67,0,4.26-1.51,4.26-3.85s-1.53-3.68-4.09-3.68Zm-.17,6.14h-.9c-.1,0-.14-.04-.14-.14v-4.46c0-.1,.04-.14,.14-.14h.95c1.69,0,2.66,.9,2.66,2.34s-.97,2.4-2.7,2.4Z"/>
      <path class="cls-4" d="M225.13,235.09h-2.94c-.1,0-.14-.04-.14-.14v-1.41c0-.12,.04-.14,.14-.14h2.56c.18,0,.27-.08,.27-.26v-.87c0-.18-.09-.27-.27-.27h-2.56c-.1,0-.14-.04-.14-.14v-1.37c0-.1,.04-.14,.14-.14h2.93c.18,0,.27-.08,.27-.26v-.88c0-.18-.09-.26-.27-.26h-4.32c-.18,0-.26,.08-.26,.26v7.02c0,.18,.08,.26,.26,.26h4.33c.18,0,.27-.08,.27-.26v-.88c0-.18-.09-.26-.27-.26Z"/>
      <path class="cls-4" d="M238.01,232.04c-1.05-.27-1.44-.44-1.44-.99,0-.51,.44-.83,1.14-.83,.63,0,1.18,.24,1.78,.66,.08,.05,.14,.09,.19,.09,.06,0,.13-.04,.18-.14l.45-.71c.05-.08,.08-.14,.08-.19,0-.08-.04-.14-.12-.19-.74-.59-1.59-.89-2.55-.89-1.58,0-2.72,.86-2.72,2.31,0,1.3,.82,1.86,2.36,2.24,1.16,.29,1.51,.48,1.51,.99s-.47,.86-1.32,.86c-.68,0-1.35-.27-1.89-.7-.08-.06-.14-.1-.19-.1s-.13,.05-.18,.14l-.45,.7c-.05,.1-.09,.16-.09,.2,0,.06,.05,.14,.15,.22,.69,.57,1.61,.93,2.65,.93,1.71,0,2.9-.9,2.9-2.35,0-1.23-.76-1.83-2.41-2.24Z"/>
      <path class="cls-4" d="M251.57,228.96h-.98c-.18,0-.26,.08-.26,.26v7.02c0,.18,.08,.26,.26,.26h.98c.18,0,.27-.08,.27-.26v-7.02c0-.18-.09-.26-.27-.26Z"/>
      <path d="M268.54,232.81h-.99c-.18,0-.26,.08-.26,.26v1.7c0,.13-.02,.17-.15,.23-.39,.16-.85,.24-1.4,.24-1.36,0-2.41-1.01-2.41-2.49s.99-2.52,2.47-2.52c.7,0,1.37,.2,2.01,.6,.08,.04,.14,.06,.19,.06,.08,0,.14-.04,.2-.14l.43-.66c.05-.08,.08-.14,.08-.19,0-.08-.05-.15-.16-.22-.73-.52-1.71-.86-2.76-.86-2.26-.03-4.06,1.63-4.03,3.96-.04,2.25,1.75,3.86,3.92,3.83,1,0,1.97-.24,2.88-.7,.17-.09,.23-.17,.23-.38v-2.48c0-.18-.08-.26-.26-.26Z"/>
      <path d="M285.03,228.96h-.98c-.18,0-.26,.08-.26,.26v4.29l-4.1-4.34c-.26-.26-.39-.34-.52-.34-.16,0-.24,.13-.24,.39v7.02c0,.18,.08,.26,.26,.26h.98c.18,0,.27-.08,.27-.26v-4.29l4.1,4.34c.26,.26,.38,.34,.51,.34,.17,0,.25-.13,.25-.39v-7.02c0-.18-.09-.26-.27-.26Z"/>
      <path d="M298.25,232.04c-1.05-.27-1.44-.44-1.44-.99,0-.51,.44-.83,1.14-.83,.64,0,1.18,.24,1.78,.66,.08,.05,.14,.09,.19,.09,.06,0,.13-.04,.18-.14l.45-.71c.05-.08,.08-.14,.08-.19,0-.08-.04-.14-.12-.19-.74-.59-1.59-.89-2.55-.89-1.58,0-2.72,.86-2.72,2.31,0,1.3,.82,1.86,2.36,2.24,1.16,.29,1.51,.48,1.51,.99s-.47,.86-1.32,.86c-.68,0-1.35-.27-1.89-.7-.08-.06-.14-.1-.19-.1s-.13,.05-.18,.14l-.45,.7c-.05,.1-.09,.16-.09,.2,0,.06,.05,.14,.15,.22,.69,.57,1.61,.93,2.65,.93,1.71,0,2.9-.9,2.9-2.35,0-1.23-.76-1.83-2.41-2.24Z"/>
    </g>
    <rect class="cls-2" x="117.6" y="31.45" width="252.23" height="70.5" transform="translate(495.3 90.06) rotate(170)"/>
    <g>
      <path class="cls-1" d="M175.81,82.7c.28,1.57,.69,1.73,2.51,1.47l.08,.43c-.76,.09-2.02,.29-3.19,.5-1.12,.2-2.16,.4-2.75,.55l-.08-.43c1.46-.32,1.7-.59,1.42-2.17l-1.89-10.72c-.28-1.57-.6-1.74-2.08-1.55l-.08-.43c.61-.06,1.7-.23,2.65-.4,1.36-.24,2.73-.53,3.25-.62,3.48-.61,5.52,.83,5.96,3.34,.37,2.09-.36,5.05-4.83,5.83l-1.67,.29,.69,3.89Zm-1.89-10.72l1.13,6.39,1.46-.26c3.06-.54,3.39-2.62,3-4.82-.48-2.72-1.69-3.91-4.31-3.45-1.32,.23-1.54,.65-1.28,2.14Z"/>
      <path class="cls-1" d="M191.79,72.21c.13,.74-.23,1.45-.99,1.58-.6,.11-1.22-.2-1.35-.92-.09-.54,.18-.99,.53-1.3-.13-.13-.3-.17-.49-.13-1.81,.32-2.57,2.99-2.29,4.59l.81,4.58c.25,1.4,1.18,1.62,2.6,1.37l.08,.45c-.67,.1-2,.27-3.34,.5-.99,.17-2.04,.43-2.54,.53l-.08-.45c1.19-.21,1.58-.64,1.37-1.84l-1.19-6.76c-.23-1.3-.73-1.84-1.98-1.62l-.08-.45c.46-.04,.92-.1,1.35-.17,.84-.15,1.61-.37,2.2-.69l.48,2.7c.23-1.33,1.14-3.05,2.64-3.32,1.17-.21,2.11,.42,2.27,1.35Z"/>
      <path class="cls-1" d="M202.91,77.61c-.22,1.53-1.39,3.24-3.53,3.61-3.13,.55-5.37-1.41-5.96-4.73-.67-3.8,.84-6.47,3.8-6.99,2.53-.45,4.3,.77,4.88,4.03l-6.75,1.19c.02,.42,.09,.92,.17,1.39,.52,2.96,2.47,4.4,4.13,4.11,1.3-.23,2.33-.98,2.79-2.72l.46,.09Zm-7.66-3.28l4.7-.83c-.3-2.12-1.29-3.82-2.74-3.56-1.29,.23-2.21,1.63-1.97,4.39Z"/>
      <path class="cls-1" d="M221.15,75c.21,1.2,.73,1.47,1.92,1.26l.08,.45c-.5,.07-1.66,.21-2.61,.37-.95,.17-1.95,.41-2.4,.51l-.08-.45c1.03-.18,1.36-.6,1.15-1.8l-1.1-6.24c-.24-1.34-.52-2.47-2.08-2.2-1.68,.29-2.61,2.22-2.22,4.43l.85,4.82c.21,1.2,.73,1.47,1.91,1.26l.08,.45c-.5,.07-1.65,.2-2.6,.37-.95,.17-1.96,.41-2.41,.51l-.08-.45c1.04-.18,1.36-.6,1.15-1.8l-1.1-6.25c-.24-1.34-.52-2.47-2.07-2.2-1.69,.3-2.62,2.25-2.23,4.45l.85,4.8c.21,1.2,.66,1.48,1.71,1.3l.08,.45c-.46,.06-1.49,.18-2.44,.34-.95,.17-2.09,.43-2.58,.54l-.08-.45c1.19-.21,1.58-.64,1.37-1.84l-1.19-6.76c-.23-1.3-.73-1.84-1.98-1.62l-.08-.45c.46-.04,.92-.1,1.35-.17,.84-.15,1.61-.37,2.19-.69l.45,2.54c.41-2.01,1.7-2.99,3.08-3.23,1.01-.18,1.8-.01,2.39,.42,.45,.34,.75,.87,.97,1.62,.42-2.1,1.78-2.95,3.15-3.19,1.01-.18,1.8-.01,2.39,.42,.64,.5,.97,1.35,1.21,2.71l1.02,5.77Z"/>
      <path class="cls-1" d="M227.33,73.91c.21,1.2,.73,1.47,1.92,1.26l.08,.45c-.5,.07-1.64,.2-2.63,.38-.99,.17-2.11,.44-2.6,.55l-.08-.45c1.19-.21,1.58-.64,1.37-1.84l-1.19-6.76c-.23-1.3-.73-1.84-1.98-1.62l-.08-.45c.46-.04,.92-.1,1.35-.17,.84-.15,1.61-.37,2.19-.69l1.65,9.36Zm-2.05-13.19c.13,.76-.39,1.49-1.14,1.62-.76,.13-1.49-.38-1.62-1.14-.13-.75,.38-1.49,1.14-1.63,.75-.13,1.49,.39,1.63,1.14Z"/>
      <path class="cls-1" d="M239.82,71.37c.23,1.3,.73,1.83,1.98,1.61l.08,.45c-.46,.04-.92,.1-1.35,.17-.84,.15-1.61,.37-2.19,.7l-.45-2.55c-.41,2.01-1.7,2.98-3.09,3.22-1.01,.18-1.8,0-2.39-.43-.64-.49-.98-1.34-1.22-2.7l-.96-5.42c-.23-1.3-.72-1.84-1.97-1.62l-.08-.45c.46-.04,.92-.1,1.35-.17,.84-.15,1.6-.37,2.19-.69l1.5,8.49c.24,1.34,.52,2.46,2.07,2.19,1.69-.3,2.62-2.22,2.23-4.43l-.79-4.46c-.23-1.3-.73-1.84-1.98-1.62l-.08-.45c.46-.04,.92-.1,1.35-.17,.84-.15,1.61-.37,2.19-.69l1.59,9.03Z"/>
      <path class="cls-1" d="M259.22,68.29c.21,1.2,.73,1.47,1.92,1.26l.08,.45c-.5,.07-1.66,.21-2.61,.37-.95,.17-1.95,.41-2.4,.51l-.08-.45c1.03-.18,1.36-.6,1.15-1.8l-1.1-6.25c-.24-1.34-.52-2.47-2.08-2.2-1.68,.3-2.61,2.22-2.22,4.43l.85,4.82c.21,1.2,.73,1.47,1.91,1.26l.08,.45c-.5,.07-1.65,.2-2.6,.37-.95,.17-1.96,.41-2.41,.51l-.08-.45c1.04-.18,1.36-.6,1.15-1.8l-1.1-6.24c-.24-1.34-.52-2.48-2.07-2.2-1.69,.3-2.62,2.25-2.23,4.45l.85,4.8c.21,1.2,.66,1.48,1.71,1.3l.08,.45c-.46,.06-1.49,.18-2.44,.34-.95,.17-2.09,.43-2.58,.54l-.08-.45c1.19-.21,1.58-.64,1.37-1.84l-1.19-6.76c-.23-1.3-.73-1.84-1.98-1.62l-.08-.45c.46-.04,.92-.1,1.35-.17,.84-.15,1.61-.37,2.2-.69l.45,2.54c.41-2.01,1.7-2.99,3.08-3.23,1.01-.18,1.8-.01,2.39,.42,.45,.34,.75,.87,.97,1.62,.42-2.1,1.78-2.95,3.15-3.19,1.01-.18,1.8-.01,2.39,.42,.64,.5,.97,1.35,1.21,2.71l1.02,5.77Z"/>
      <path class="cls-1" d="M277.09,61.48c.68,3.88-1.19,6.25-3.79,6.7-1.03,.18-2.16-.05-3.07-.76l-1.31,1.58-.39-.09c.04-.4,0-.84-.07-1.27l-2.34-13.27c-.23-1.3-.73-1.83-1.98-1.61l-.08-.45c.46-.04,.92-.1,1.35-.17,.84-.15,1.61-.37,2.19-.7l1.38,7.81c.38-1.59,1.49-2.64,2.97-2.91,2.35-.41,4.45,1.22,5.14,5.15Zm-2.1,.37c-.62-3.5-1.77-5.08-3.56-4.77-1.15,.2-2.14,1.32-2.27,3.17l1.2,6.83c.82,.59,1.78,.79,2.68,.64,1.92-.34,2.59-2.2,1.95-5.87Z"/>
      <path class="cls-1" d="M282.57,64.17c.21,1.2,.73,1.47,1.92,1.26l.08,.45c-.5,.07-1.64,.2-2.63,.38-.99,.17-2.11,.44-2.6,.55l-.08-.45c1.19-.21,1.58-.64,1.37-1.84l-2.18-12.34c-.23-1.3-.73-1.83-1.98-1.61l-.08-.45c.46-.04,.92-.1,1.35-.17,.84-.15,1.61-.37,2.19-.7l2.63,14.94Z"/>
      <path class="cls-1" d="M291.17,53.78c.81,.58,1.13,1.35,1.4,2.88l1.06,6c.12,.7,.35,.99,.84,.91,.39-.07,.64-.32,.89-.62l.31,.33c-.52,.56-.92,.98-1.83,1.14-1.51,.27-2.02-.58-2.19-1.59-.66,1.69-1.95,2.32-2.99,2.51-1.44,.25-2.87-.24-3.17-1.93-.3-1.71,.88-2.7,2.88-3.99,1.34-.86,2.41-1.43,2.26-2.29l-.24-1.34c-.32-1.81-1.27-2.02-2.39-1.82-.74,.13-1.62,.44-2,1.15,.56,.04,1.12,.43,1.25,1.14,.13,.74-.29,1.26-1.06,1.39-.74,.13-1.27-.35-1.41-1.13-.11-.63,.21-1.2,.74-1.72,.54-.51,1.5-1.1,2.88-1.35,1.21-.21,2.18-.06,2.76,.35Zm-.38,4.21c-.17,.39-.61,.7-1.85,1.6-.87,.62-1.91,1.45-1.62,3.11,.23,1.3,1.07,1.77,2.06,1.59,.87-.15,1.63-.75,2.15-2.06l-.75-4.24Z"/>
      <path class="cls-1" d="M302.45,51.66c.72,.32,1.19,.83,1.31,1.49,.14,.78-.28,1.3-.93,1.41-.65,.12-1.26-.18-1.38-.88-.11-.64,.23-1.13,.7-1.35-.38-.47-1.28-.71-2.1-.57-1.42,.25-2.88,1.76-2.16,5.84,.67,3.83,2.35,4.87,4.02,4.58,1.12-.2,2.27-1.01,2.74-2.78l.44,.08c-.19,1.48-1.14,3.3-3.45,3.71-2.68,.47-5.16-1.32-5.79-4.88-.62-3.54,1.02-6.37,3.97-6.89,.91-.16,1.86-.09,2.63,.24Z"/>
      <path class="cls-1" d="M316.24,58.67c.61,.59,1.05,.89,1.71,.86l.08,.45c-.33,.04-1.11,.11-1.77,.22-.91,.16-1.93,.41-2.38,.51l-.08-.45c.41-.07,.63-.29,.59-.53-.02-.09-.08-.2-.18-.3l-3.12-3.19c-.66-.65-1.03-.77-1.79-.66l.66,3.77c.21,1.2,.66,1.48,1.7,1.3l.08,.45c-.46,.06-1.5,.18-2.41,.34-.99,.17-2.11,.44-2.6,.55l-.08-.45c1.19-.21,1.58-.64,1.37-1.84l-2.18-12.34c-.23-1.3-.72-1.83-1.98-1.61l-.08-.45c.46-.04,.92-.1,1.35-.17,.84-.15,1.61-.37,2.19-.7l1.89,10.73c.83-.27,1.29-.62,1.7-1.22l1.31-1.94c.39-.59,.53-1.02,.48-1.31-.09-.53-.82-.62-1.72-.46l-.08-.43c.76-.09,1.83-.24,2.45-.35,.72-.13,1.44-.3,1.86-.42l.08,.43c-.7,.19-1.27,.63-1.76,1.36l-2.14,3.23,4.85,4.65Z"/>
    </g>
    <rect class="cls-3" x="133.57" y="122.05" width="252.23" height="70.5" transform="translate(542.75 267.12) rotate(170)"/>
    <g>
      <path class="cls-1" d="M209.95,157.26c.39,.16,.59,.21,.79,.18,.27-.05,.33-.4,.31-1.03l.5-.09c.07,.77,.19,1.71,.67,4.43l-.5,.09c-.52-2.03-1.88-3.95-4.28-3.53-1.54,.27-2.46,1.49-2.19,2.98,.35,1.96,2.17,2.44,4.33,3.32,2.49,1.01,4.34,1.86,4.75,4.18,.48,2.74-1.35,4.47-3.87,4.91-1.53,.27-2.4,0-3.09-.28-.39-.16-.61-.21-.79-.18-.27,.05-.33,.4-.31,1.03l-.5,.09c-.09-.9-.29-2.14-.83-5.19l.5-.09c.64,2.58,2.04,4.7,4.8,4.21,1.4-.25,2.66-1.34,2.3-3.38-.31-1.75-1.84-2.5-4.06-3.35-2.28-.87-4.27-1.73-4.7-4.16-.45-2.55,1.27-4.09,3.4-4.46,1.42-.25,2.13,.05,2.78,.34Z"/>
      <path class="cls-1" d="M225.59,167.02c-.22,1.53-1.39,3.24-3.53,3.61-3.13,.55-5.37-1.41-5.96-4.73-.67-3.8,.84-6.47,3.8-6.99,2.53-.45,4.3,.78,4.88,4.04l-6.75,1.19c.02,.42,.09,.92,.17,1.39,.52,2.96,2.47,4.4,4.13,4.11,1.3-.23,2.33-.98,2.79-2.72l.46,.09Zm-7.66-3.28l4.7-.83c-.3-2.12-1.29-3.82-2.74-3.56-1.29,.23-2.21,1.63-1.97,4.39Z"/>
      <path class="cls-1" d="M235.29,157.05c.64,.5,.99,1.23,1.25,2.71l1.02,5.77c.21,1.2,.73,1.47,1.92,1.26l.08,.45c-.5,.07-1.66,.21-2.61,.37-.95,.17-1.95,.41-2.4,.51l-.08-.45c1.03-.18,1.36-.6,1.15-1.8l-1.1-6.25c-.24-1.34-.63-2.46-2.19-2.18-1.81,.32-2.72,2.26-2.33,4.47l.85,4.8c.21,1.2,.66,1.48,1.71,1.3l.08,.45c-.46,.06-1.49,.18-2.44,.34-.95,.17-2.09,.43-2.58,.54l-.08-.45c1.19-.21,1.58-.64,1.37-1.84l-1.19-6.76c-.23-1.3-.73-1.84-1.98-1.62l-.08-.45c.46-.04,.92-.1,1.35-.17,.84-.15,1.61-.37,2.19-.69l.45,2.54c.42-2.07,1.75-2.99,3.22-3.25,1.1-.19,1.84-.02,2.43,.41Z"/>
      <path class="cls-1" d="M244.83,155.34c.17,.09,.31,.13,.41,.11,.25-.04,.36-.38,.32-1.04l.5-.09c.08,.8,.23,1.83,.56,3.69l-.5,.09c-.55-1.56-1.57-3.11-3.52-2.76-1.01,.18-1.67,.89-1.48,1.97,.23,1.3,1.63,1.67,3.28,2.37,1.82,.77,3.31,1.48,3.62,3.26,.35,1.98-1.2,3.33-3.16,3.68-.62,.11-1.21,.12-1.76,0-.33-.09-.66-.24-.99-.42-.08-.05-.15-.06-.21-.05-.19,.03-.31,.34-.3,.89l-.5,.09c-.1-.94-.29-2.15-.68-4.33l.5-.09c.71,2.37,1.56,3.89,3.72,3.51,.87-.15,1.83-.86,1.56-2.4-.22-1.26-1.38-1.76-2.95-2.4-1.75-.71-3.3-1.31-3.61-3.1-.34-1.92,1-3.05,2.71-3.35,1.14-.2,2.05,.13,2.49,.38Z"/>
      <path class="cls-1" d="M259.53,161.31c.23,1.3,.72,1.83,1.98,1.61l.08,.45c-.46,.04-.92,.1-1.35,.17-.84,.15-1.61,.37-2.19,.7l-.45-2.55c-.41,2.01-1.71,2.98-3.09,3.22-1.01,.18-1.8,0-2.39-.43-.64-.49-.98-1.34-1.22-2.7l-.96-5.42c-.23-1.3-.72-1.84-1.97-1.62l-.08-.45c.46-.04,.92-.1,1.35-.17,.84-.15,1.6-.37,2.19-.69l1.5,8.49c.24,1.34,.52,2.46,2.07,2.19,1.69-.3,2.62-2.22,2.23-4.43l-.79-4.46c-.23-1.3-.73-1.84-1.98-1.62l-.08-.45c.46-.04,.92-.1,1.35-.17,.84-.15,1.61-.37,2.19-.69l1.59,9.03Z"/>
      <path class="cls-1" d="M268.18,151.25c.81,.58,1.13,1.35,1.4,2.88l1.06,6c.12,.7,.35,.99,.85,.91,.39-.07,.64-.32,.89-.62l.31,.33c-.52,.56-.92,.98-1.83,1.14-1.51,.27-2.02-.58-2.19-1.59-.66,1.69-1.95,2.32-2.99,2.51-1.44,.25-2.87-.25-3.17-1.93-.3-1.71,.88-2.7,2.89-3.99,1.34-.86,2.41-1.43,2.26-2.29l-.24-1.34c-.32-1.81-1.27-2.02-2.39-1.82-.74,.13-1.62,.44-2,1.15,.56,.04,1.12,.43,1.25,1.14,.13,.74-.29,1.26-1.06,1.39-.74,.13-1.27-.35-1.41-1.13-.11-.63,.21-1.2,.74-1.72,.54-.51,1.5-1.1,2.88-1.35,1.21-.21,2.18-.06,2.76,.35Zm-.38,4.21c-.17,.39-.61,.69-1.85,1.6-.87,.62-1.91,1.45-1.62,3.11,.23,1.3,1.07,1.77,2.07,1.59,.86-.15,1.63-.75,2.15-2.07l-.75-4.24Z"/>
      <path class="cls-1" d="M276.52,158.65c.21,1.2,.73,1.47,1.92,1.26l.08,.45c-.5,.07-1.64,.2-2.63,.38-.99,.17-2.11,.44-2.6,.55l-.08-.45c1.19-.21,1.58-.64,1.37-1.84l-2.18-12.34c-.23-1.3-.73-1.83-1.98-1.61l-.08-.45c.46-.04,.92-.1,1.35-.17,.84-.15,1.61-.37,2.19-.7l2.63,14.94Z"/>
      <path class="cls-1" d="M291.97,147.97c.13,.74-.23,1.44-.99,1.58-.6,.11-1.22-.2-1.35-.92-.09-.54,.19-.99,.53-1.3-.13-.13-.3-.17-.49-.13-1.81,.32-2.57,2.99-2.29,4.59l.81,4.58c.25,1.4,1.18,1.62,2.6,1.37l.08,.45c-.67,.1-2,.27-3.34,.5-.99,.17-2.05,.43-2.54,.53l-.08-.45c1.19-.21,1.58-.64,1.37-1.84l-1.19-6.76c-.23-1.3-.73-1.84-1.98-1.62l-.08-.45c.46-.04,.92-.1,1.35-.17,.84-.15,1.61-.37,2.19-.69l.48,2.7c.23-1.33,1.14-3.05,2.65-3.32,1.17-.21,2.11,.42,2.27,1.35Z"/>
      <path class="cls-1" d="M303.09,153.36c-.22,1.53-1.39,3.24-3.53,3.61-3.13,.55-5.37-1.41-5.96-4.73-.67-3.8,.84-6.47,3.8-6.99,2.53-.45,4.3,.78,4.88,4.04l-6.75,1.19c.02,.42,.09,.92,.17,1.39,.52,2.96,2.47,4.4,4.13,4.11,1.3-.23,2.33-.98,2.79-2.72l.46,.09Zm-7.66-3.28l4.71-.83c-.3-2.12-1.29-3.82-2.74-3.56-1.29,.23-2.21,1.63-1.97,4.39Z"/>
      <path class="cls-1" d="M314.52,151.59c.23,1.3,.73,1.83,1.98,1.61l.08,.45c-.46,.04-.92,.1-1.35,.17-.84,.15-1.61,.37-2.19,.7l-.34-1.92c-.3,1.38-1.22,2.26-2.72,2.52-2.7,.48-4.77-1.15-5.44-5.08-.72-3.93,1.25-6.28,3.85-6.74,1.02-.18,2.1,0,2.82,.82l-.74-4.2c-.23-1.3-.73-1.83-1.98-1.61l-.08-.45c.46-.04,.92-.1,1.35-.17,.84-.15,1.61-.37,2.19-.7l2.57,14.59Zm-2.03-.14l-1.13-6.42c-.63-1.1-1.59-1.44-2.71-1.24-1.71,.3-2.68,2.26-2.01,5.9,.59,3.5,1.93,5.02,3.85,4.68,1.09-.19,1.96-1.23,2.01-2.92Z"/>
    </g>
  </g>
</svg>