<?xml version="1.0" encoding="UTF-8"?>
<svg id="Layer_1" data-name="Layer 1" xmlns="http://www.w3.org/2000/svg" viewBox="0 0 160 90">
  <defs>
    <style>
      .cls-1 {
        font-family: Bookmania-SemiBold, Bookmania;
        font-size: 24px;
        font-weight: 600;
      }

      .cls-2 {
        fill: red;
      }
    </style>
  </defs>
  <text class="cls-1" transform="translate(-7.38 -9.71)"><tspan x="0" y="0">Classic yet simple</tspan></text>
  <g>
    <path d="M124.54,59.42h-1.87c-.98,0-1.93-.2-2.88-.6-.95-.4-1.64-.94-2.09-1.61-.45-.67-.67-2.55-.67-5.63V17.77c0-3.59,.56-5.79,1.67-6.61,1.11-.82,2.44-1.23,3.98-1.23h1.87v-1.43h-22.44v1.43h1.87c2.03,0,3.47,.48,4.33,1.45,.86,.97,1.29,3.1,1.29,6.39V51.58c0,2.97-.33,5.01-1.01,6.15-.67,1.13-2.21,1.69-4.61,1.69h-1.87v1.43h22.44v-1.43Z"/>
    <path d="M28.03,37.93l8.88,13.44c1.64,2.47,2.46,4.2,2.46,5.17,0,1.97-1.72,2.95-5.17,2.95v1.43h22.47v-1.43c-2.46-.14-4.47-.91-6.05-2.34-1.58-1.42-3.78-4.24-6.6-8.44l-11.22-16.74,10.37-13.26c1.99-2.53,3.96-4.6,5.92-6.21,1.96-1.61,4.09-2.42,6.38-2.44v-1.43h-18.55v1.43c2.1,.02,3.56,.25,4.37,.7,.81,.45,1.21,1.19,1.21,2.22s-.78,2.47-2.34,4.44l-9.29,11.77-8.03-12.01c-1.23-1.83-1.84-3.21-1.84-4.15,0-1.85,1.78-2.85,5.35-2.98v-1.43H2.14v1.43c3,.1,5.49,.95,7.46,2.54,1.98,1.6,4.13,4.1,6.44,7.51l10.29,15.11-12.33,15.57c-4.27,5.39-8.56,8.3-12.89,8.71v1.43H19.67v-1.43c-3.35-.14-5.03-1.12-5.03-2.95,0-.97,.81-2.5,2.43-4.56l10.95-14.06Z"/>
    <path d="M141.56,8.62v1.43c2.11,.02,3.56,.25,4.37,.7,.81,.45,1.21,1.19,1.21,2.22s-.78,2.47-2.34,4.44l-8.91,11.29,1.88,2.82,10.03-12.83c1.99-2.53,3.96-4.6,5.92-6.21,1.96-1.61,4.09-2.42,6.38-2.44v-1.43h-18.56Z"/>
    <path d="M95.27,40.75c-1.31-2.09-2.96-3.8-4.92-5.11-1.97-1.31-4.86-3-8.68-5.04-6.21-3.35-9.94-5.84-11.18-7.47-1.24-1.63-1.85-3.16-1.85-4.6,0-2.24,.91-4.13,2.73-5.68,1.82-1.55,4-2.32,6.53-2.32,3.41,0,6.48,1.16,9.22,3.49,2.74,2.33,4.49,6.16,5.25,11.5h1.43V7.42h-1.43c-.43,2.01-1.31,3.01-2.66,3.01-.58,0-1.61-.32-3.07-.97-3.08-1.36-6.02-2.04-8.82-2.04-4.32,0-7.96,1.32-10.9,3.94-2.94,2.63-4.41,5.9-4.41,9.82,0,4.75,2.2,8.58,6.62,11.47,4.41,2.89,10.05,6.34,16.9,10.33,2.9,2.22,4.35,4.74,4.35,7.57,0,2.51-.99,4.57-2.96,6.16-1.98,1.6-4.46,2.4-7.44,2.4-8.59,0-13.77-4.98-15.54-14.93h-1.43v17.94h1.43c.29-1.99,1.07-2.98,2.34-2.98,.86,0,2.43,.38,4.71,1.14,3.7,1.23,6.81,1.84,9.32,1.84,4.63,0,8.54-1.38,11.7-4.15,3.16-2.77,4.75-6.23,4.75-10.4,0-2.45-.66-4.73-1.97-6.82Z"/>
    <path d="M142.12,49.92c1.61,2.67,4.63,4.16,7.73,3.82l-19.18-30.14c-1.28-2.02-3.5-3.24-5.88-3.23h-.65l17.99,29.55Z"/>
    <path d="M157.9,59.29l-6.89-4.13c-4,.86-8.11-.91-10.24-4.41l-18.27-30.01c-1.22,.98-3.72,3.32-3.72,5.95,0,3.28,1.78,5.37,2.09,5.71l3.73,2.49c2.27,1.52,4.13,3.57,5.42,5.98l9.65,18.1c.55,1.03,1.62,1.67,2.79,1.67h15.06c.4,0,.72-.32,.72-.72,0-.25-.13-.49-.35-.62Z"/>
    <path class="cls-2" d="M8.94,70.56h-3.87c-.29,0-.41,.12-.41,.41v11.01c0,.29,.12,.4,.41,.4h3.6c4.19,0,6.68-2.36,6.68-6.04s-2.4-5.77-6.41-5.77Zm-.27,9.62h-1.42c-.15,0-.22-.07-.22-.22v-6.99c0-.15,.07-.22,.22-.22h1.49c2.65,0,4.17,1.42,4.17,3.66s-1.52,3.76-4.24,3.76Z"/>
    <path class="cls-2" d="M38.11,80.18h-4.61c-.15,0-.22-.07-.22-.22v-2.21c0-.19,.07-.22,.22-.22h4.02c.29,0,.42-.12,.42-.4v-1.37c0-.29-.13-.42-.42-.42h-4.02c-.15,0-.22-.07-.22-.22v-2.14c0-.15,.07-.22,.22-.22h4.59c.29,0,.42-.12,.42-.41v-1.38c0-.29-.14-.41-.42-.41h-6.77c-.29,0-.41,.12-.41,.41v11.01c0,.29,.12,.4,.41,.4h6.79c.29,0,.42-.12,.42-.4v-1.38c0-.29-.13-.41-.42-.41Z"/>
    <path class="cls-2" d="M58.31,75.38c-1.65-.42-2.26-.69-2.26-1.55,0-.79,.69-1.3,1.79-1.3,1,0,1.86,.37,2.78,1.03,.12,.08,.22,.13,.3,.13,.1,0,.2-.07,.29-.22l.71-1.11c.08-.12,.12-.22,.12-.3,0-.12-.07-.22-.19-.3-1.16-.93-2.5-1.4-4-1.4-2.48,0-4.27,1.35-4.27,3.63,0,2.04,1.28,2.92,3.7,3.51,1.82,.46,2.36,.76,2.36,1.55s-.74,1.35-2.08,1.35c-1.06,0-2.11-.42-2.97-1.1-.12-.1-.22-.15-.3-.15s-.2,.08-.29,.22l-.71,1.1c-.08,.15-.14,.25-.14,.32,0,.1,.08,.22,.24,.34,1.08,.89,2.53,1.45,4.15,1.45,2.68,0,4.54-1.42,4.54-3.68,0-1.92-1.2-2.87-3.78-3.51Z"/>
    <path class="cls-2" d="M79.58,70.56h-1.54c-.29,0-.41,.12-.41,.41v11.01c0,.29,.12,.4,.41,.4h1.54c.29,0,.42-.12,.42-.4v-11.01c0-.29-.13-.41-.42-.41Z"/>
    <path class="cls-2" d="M106.18,76.6h-1.55c-.29,0-.41,.12-.41,.41v2.67c0,.2-.03,.27-.24,.35-.61,.25-1.33,.37-2.19,.37-2.13,0-3.78-1.59-3.78-3.9s1.55-3.95,3.87-3.95c1.1,0,2.14,.32,3.16,.95,.12,.07,.22,.1,.3,.1,.12,0,.22-.07,.32-.22l.68-1.03c.08-.12,.12-.22,.12-.3,0-.12-.08-.24-.25-.34-1.15-.81-2.68-1.35-4.32-1.35-3.54-.05-6.36,2.55-6.31,6.21-.07,3.53,2.75,6.06,6.14,6.01,1.57,0,3.09-.37,4.52-1.1,.27-.13,.36-.27,.36-.59v-3.88c0-.29-.12-.41-.41-.41Z"/>
    <path class="cls-2" d="M132.05,70.56h-1.54c-.29,0-.41,.12-.41,.41v6.73l-6.43-6.8c-.4-.4-.61-.54-.81-.54-.25,0-.37,.2-.37,.61v11.01c0,.29,.12,.4,.41,.4h1.54c.29,0,.42-.12,.42-.4v-6.74l6.43,6.8c.41,.4,.59,.54,.79,.54,.27,0,.39-.2,.39-.61v-11.01c0-.29-.13-.41-.42-.41Z"/>
    <path class="cls-2" d="M152.78,75.38c-1.65-.42-2.26-.69-2.26-1.55,0-.79,.69-1.3,1.79-1.3,1,0,1.86,.37,2.78,1.03,.12,.08,.22,.13,.3,.13,.1,0,.2-.07,.29-.22l.71-1.11c.08-.12,.12-.22,.12-.3,0-.12-.07-.22-.19-.3-1.16-.93-2.5-1.4-4-1.4-2.48,0-4.27,1.35-4.27,3.63,0,2.04,1.28,2.92,3.7,3.51,1.82,.46,2.36,.76,2.36,1.55s-.74,1.35-2.08,1.35c-1.06,0-2.11-.42-2.97-1.1-.12-.1-.22-.15-.3-.15s-.2,.08-.29,.22l-.71,1.1c-.08,.15-.14,.25-.14,.32,0,.1,.08,.22,.24,.34,1.08,.89,2.53,1.45,4.15,1.45,2.68,0,4.54-1.42,4.54-3.68,0-1.92-1.2-2.87-3.78-3.51Z"/>
  </g>
</svg>