<?xml version="1.0" encoding="UTF-8"?>
<svg id="Layer_1" data-name="Layer 1" xmlns="http://www.w3.org/2000/svg" viewBox="0 0 160 90">
  <defs>
    <style>
      .cls-1 {
        fill: #fff;
      }

      .cls-2 {
        font-family: Bookmania-SemiBold, Bookmania;
        font-size: 24px;
        font-weight: 600;
      }

      .cls-3 {
        fill: red;
      }
    </style>
  </defs>
  <text class="cls-2" transform="translate(-7.38 -9.71)"><tspan x="0" y="0">Meaningful yet dynamic</tspan></text>
  <g>
    <path d="M76.76,33.41h-.5c-.26,0-.51-.05-.77-.16-.25-.11-.44-.25-.56-.43-.12-.18-.18-.68-.18-1.5v-9c0-.95,.15-1.54,.44-1.76,.3-.22,.65-.33,1.06-.33h.5v-.38h-5.97v.38h.5c.54,0,.92,.13,1.15,.38,.23,.26,.34,.82,.34,1.7v9c0,.79-.09,1.33-.27,1.64-.18,.3-.59,.45-1.23,.45h-.5v.38h5.97v-.38Z"/>
    <path d="M51.07,27.69l2.36,3.58c.44,.66,.65,1.12,.65,1.38,0,.52-.46,.79-1.38,.79v.38h5.98v-.38c-.65-.04-1.19-.24-1.61-.62-.42-.38-1.01-1.13-1.76-2.25l-2.99-4.46,2.76-3.53c.53-.67,1.05-1.23,1.57-1.65,.52-.43,1.09-.64,1.7-.65v-.38h-4.94v.38c.56,0,.95,.07,1.16,.19,.21,.12,.32,.32,.32,.59s-.21,.66-.62,1.18l-2.47,3.13-2.14-3.2c-.33-.49-.49-.86-.49-1.1,0-.49,.47-.76,1.42-.79v-.38h-6.44v.38c.8,.03,1.46,.25,1.99,.68,.53,.42,1.1,1.09,1.71,2l2.74,4.02-3.28,4.14c-1.14,1.44-2.28,2.21-3.43,2.32v.38h4.94v-.38c-.89-.04-1.34-.3-1.34-.79,0-.26,.22-.66,.65-1.21l2.92-3.74Z"/>
    <path d="M81.29,19.89v.38c.56,0,.95,.07,1.16,.19,.21,.12,.32,.32,.32,.59s-.21,.66-.62,1.18l-2.37,3,.5,.75,2.67-3.41c.53-.67,1.05-1.23,1.57-1.65,.52-.43,1.09-.64,1.7-.65v-.38h-4.94Z"/>
    <path d="M68.97,28.44c-.35-.56-.79-1.01-1.31-1.36-.52-.35-1.29-.8-2.31-1.34-1.65-.89-2.65-1.55-2.97-1.99-.33-.43-.49-.84-.49-1.22,0-.6,.24-1.1,.73-1.51,.48-.41,1.06-.62,1.74-.62,.91,0,1.73,.31,2.45,.93,.73,.62,1.19,1.64,1.4,3.06h.38v-4.81h-.38c-.11,.53-.35,.8-.71,.8-.16,0-.43-.09-.82-.26-.82-.36-1.6-.54-2.35-.54-1.15,0-2.12,.35-2.9,1.05-.78,.7-1.17,1.57-1.17,2.61,0,1.26,.59,2.28,1.76,3.05,1.17,.77,2.67,1.69,4.5,2.75,.77,.59,1.16,1.26,1.16,2.01,0,.67-.26,1.22-.79,1.64-.53,.42-1.19,.64-1.98,.64-2.29,0-3.67-1.32-4.14-3.97h-.38v4.77h.38c.08-.53,.29-.79,.62-.79,.23,0,.65,.1,1.25,.3,.99,.33,1.81,.49,2.48,.49,1.23,0,2.27-.37,3.11-1.1,.84-.74,1.26-1.66,1.26-2.77,0-.65-.17-1.26-.53-1.82Z"/>
    <path d="M81.43,30.88c.43,.71,1.23,1.11,2.06,1.02l-5.1-8.02c-.34-.54-.93-.86-1.57-.86h-.17l4.79,7.86Z"/>
    <path d="M85.63,33.37l-1.83-1.1c-1.07,.23-2.16-.24-2.73-1.17l-4.86-7.99c-.33,.26-.99,.88-.99,1.58,0,.87,.47,1.43,.56,1.52l.99,.66c.6,.4,1.1,.95,1.44,1.59l2.57,4.82c.15,.27,.43,.45,.74,.44h4.01c.11,0,.19-.09,.19-.19,0-.07-.04-.13-.09-.16Z"/>
    <path class="cls-3" d="M45.99,36.37h-1.03c-.08,0-.11,.03-.11,.11v2.93c0,.08,.03,.11,.11,.11h.96c1.11,0,1.78-.63,1.78-1.61s-.64-1.54-1.71-1.54Zm-.07,2.56h-.38s-.06-.02-.06-.06v-1.86s.02-.06,.06-.06h.4c.71,0,1.11,.38,1.11,.97s-.4,1-1.13,1Z"/>
    <path class="cls-3" d="M53.76,38.93h-1.23s-.06-.02-.06-.06v-.59s.02-.06,.06-.06h1.07c.08,0,.11-.03,.11-.11v-.36c0-.08-.04-.11-.11-.11h-1.07s-.06-.02-.06-.06v-.57s.02-.06,.06-.06h1.22c.08,0,.11-.03,.11-.11v-.37c0-.08-.04-.11-.11-.11h-1.8c-.08,0-.11,.03-.11,.11v2.93c0,.08,.03,.11,.11,.11h1.81c.08,0,.11-.03,.11-.11v-.37c0-.08-.04-.11-.11-.11Z"/>
    <path class="cls-3" d="M59.13,37.66c-.44-.11-.6-.18-.6-.41,0-.21,.18-.35,.48-.35,.26,0,.49,.1,.74,.27,.03,.02,.06,.04,.08,.04,.03,0,.05-.02,.08-.06l.19-.3s.03-.06,.03-.08c0-.03-.02-.06-.05-.08-.31-.25-.66-.37-1.06-.37-.66,0-1.14,.36-1.14,.97,0,.54,.34,.78,.98,.93,.49,.12,.63,.2,.63,.41s-.2,.36-.55,.36c-.28,0-.56-.11-.79-.29-.03-.03-.06-.04-.08-.04s-.05,.02-.08,.06l-.19,.29s-.04,.07-.04,.09c0,.03,.02,.06,.06,.09,.29,.24,.67,.39,1.11,.39,.71,0,1.21-.38,1.21-.98,0-.51-.32-.76-1.01-.93Z"/>
    <path class="cls-3" d="M64.79,36.37h-.41c-.08,0-.11,.03-.11,.11v2.93c0,.08,.03,.11,.11,.11h.41c.08,0,.11-.03,.11-.11v-2.93c0-.08-.04-.11-.11-.11Z"/>
    <path class="cls-3" d="M71.87,37.98h-.41c-.08,0-.11,.03-.11,.11v.71c0,.05,0,.07-.06,.09-.16,.07-.35,.1-.58,.1-.57,0-1.01-.42-1.01-1.04s.41-1.05,1.03-1.05c.29,0,.57,.09,.84,.25,.03,.02,.06,.03,.08,.03,.03,0,.06-.02,.09-.06l.18-.27s.03-.06,.03-.08c0-.03-.02-.06-.07-.09-.31-.22-.71-.36-1.15-.36-.94-.01-1.69,.68-1.68,1.65-.02,.94,.73,1.61,1.64,1.6,.42,0,.82-.1,1.2-.29,.07-.04,.09-.07,.09-.16v-1.03c0-.08-.03-.11-.11-.11Z"/>
    <path class="cls-3" d="M78.75,36.37h-.41c-.08,0-.11,.03-.11,.11v1.79l-1.71-1.81c-.11-.11-.16-.14-.22-.14-.07,0-.1,.05-.1,.16v2.93c0,.08,.03,.11,.11,.11h.41c.08,0,.11-.03,.11-.11v-1.79l1.71,1.81c.11,.11,.16,.14,.21,.14,.07,0,.1-.05,.1-.16v-2.93c0-.08-.04-.11-.11-.11Z"/>
    <path class="cls-3" d="M84.27,37.66c-.44-.11-.6-.18-.6-.41,0-.21,.18-.35,.48-.35,.27,0,.49,.1,.74,.27,.03,.02,.06,.04,.08,.04,.03,0,.05-.02,.08-.06l.19-.3s.03-.06,.03-.08c0-.03-.02-.06-.05-.08-.31-.25-.66-.37-1.06-.37-.66,0-1.14,.36-1.14,.97,0,.54,.34,.78,.98,.93,.49,.12,.63,.2,.63,.41s-.2,.36-.55,.36c-.28,0-.56-.11-.79-.29-.03-.03-.06-.04-.08-.04s-.05,.02-.08,.06l-.19,.29s-.04,.07-.04,.09c0,.03,.02,.06,.06,.09,.29,.24,.67,.39,1.11,.39,.71,0,1.21-.38,1.21-.98,0-.51-.32-.76-1.01-.93Z"/>
  </g>
  <rect x="130" y="30" width="30" height="30"/>
  <rect class="cls-3" x="130" width="30" height="30"/>
  <rect class="cls-3" y="60" width="65.25" height="30" transform="translate(65.25 150) rotate(180)"/>
  <g>
    <path class="cls-1" d="M45.05,81.76h-.51c-.27,0-.53-.05-.79-.16-.26-.11-.45-.26-.57-.44-.12-.18-.18-.7-.18-1.54v-9.27c0-.98,.15-1.59,.46-1.81,.3-.22,.67-.34,1.09-.34h.51v-.39h-6.15v.39h.51c.56,0,.95,.13,1.19,.4,.23,.27,.35,.85,.35,1.75v9.27c0,.81-.09,1.37-.28,1.69-.18,.31-.61,.46-1.26,.46h-.51v.39h6.15v-.39Z"/>
    <path class="cls-1" d="M18.58,75.87l2.44,3.69c.45,.68,.67,1.15,.67,1.42,0,.54-.47,.81-1.42,.81v.39h6.16v-.39c-.67-.04-1.23-.25-1.66-.64-.43-.39-1.04-1.16-1.81-2.32l-3.08-4.59,2.84-3.64c.54-.69,1.09-1.26,1.62-1.7,.54-.44,1.12-.66,1.75-.67v-.39h-5.09v.39c.58,0,.98,.07,1.2,.19,.22,.12,.33,.33,.33,.61s-.21,.68-.64,1.22l-2.55,3.23-2.2-3.29c-.34-.5-.51-.88-.51-1.14,0-.51,.49-.78,1.47-.82v-.39h-6.63v.39c.82,.03,1.51,.26,2.05,.7,.54,.44,1.13,1.12,1.77,2.06l2.82,4.14-3.38,4.27c-1.17,1.48-2.35,2.28-3.53,2.39v.39h5.09v-.39c-.92-.04-1.38-.31-1.38-.81,0-.27,.22-.68,.67-1.25l3-3.85Z"/>
    <path class="cls-1" d="M49.71,67.83v.39c.58,0,.98,.07,1.2,.19,.22,.12,.33,.33,.33,.61s-.21,.68-.64,1.22l-2.44,3.1,.52,.77,2.75-3.52c.55-.69,1.09-1.26,1.62-1.7,.54-.44,1.12-.66,1.75-.67v-.39h-5.09Z"/>
    <path class="cls-1" d="M37.02,76.64c-.36-.57-.81-1.04-1.35-1.4-.54-.36-1.33-.82-2.38-1.38-1.7-.92-2.73-1.6-3.06-2.05-.34-.45-.51-.87-.51-1.26,0-.61,.25-1.13,.75-1.56,.5-.42,1.1-.64,1.79-.64,.94,0,1.78,.32,2.53,.96,.75,.64,1.23,1.69,1.44,3.15h.39v-4.96h-.39c-.12,.55-.36,.83-.73,.83-.16,0-.44-.09-.84-.27-.84-.37-1.65-.56-2.42-.56-1.19,0-2.18,.36-2.99,1.08-.81,.72-1.21,1.62-1.21,2.69,0,1.3,.6,2.35,1.81,3.14,1.21,.79,2.76,1.74,4.64,2.83,.8,.61,1.19,1.3,1.19,2.08,0,.69-.27,1.25-.81,1.69-.54,.44-1.22,.66-2.04,.66-2.36,0-3.78-1.37-4.26-4.1h-.39v4.92h.39c.08-.55,.29-.82,.64-.82,.24,0,.67,.1,1.29,.31,1.02,.34,1.87,.51,2.56,.51,1.27,0,2.34-.38,3.21-1.14,.87-.76,1.3-1.71,1.3-2.85,0-.67-.18-1.3-.54-1.87Z"/>
    <path class="cls-1" d="M49.87,79.15c.44,.73,1.27,1.14,2.12,1.05l-5.26-8.27c-.35-.55-.96-.89-1.61-.89h-.18l4.93,8.1Z"/>
    <path class="cls-1" d="M54.19,81.72l-1.89-1.13c-1.1,.23-2.22-.25-2.81-1.21l-5.01-8.23c-.34,.27-1.02,.91-1.02,1.63,0,.9,.49,1.47,.57,1.57l1.02,.68c.62,.42,1.13,.98,1.49,1.64l2.65,4.96c.15,.28,.44,.46,.76,.46h4.13c.11,0,.2-.09,.2-.2,0-.07-.04-.13-.1-.17Z"/>
  </g>
  <rect x="65" y="60" width="65.25" height="30" transform="translate(195.25 150) rotate(180)"/>
  <g>
    <path class="cls-1" d="M106.03,79.51h-.34c-.18,0-.35-.04-.53-.11-.17-.07-.3-.17-.38-.29-.08-.12-.12-.47-.12-1.03v-6.18c0-.66,.1-1.06,.3-1.21,.2-.15,.45-.22,.73-.22h.34v-.26h-4.1v.26h.34c.37,0,.63,.09,.79,.26,.16,.18,.24,.57,.24,1.17v6.18c0,.54-.06,.92-.18,1.12-.12,.21-.4,.31-.84,.31h-.34v.26h4.1v-.26Z"/>
    <path class="cls-1" d="M88.39,75.58l1.62,2.46c.3,.45,.45,.77,.45,.95,0,.36-.32,.54-.95,.54v.26h4.11v-.26c-.45-.02-.82-.17-1.11-.43-.29-.26-.69-.77-1.21-1.54l-2.05-3.06,1.9-2.42c.36-.46,.72-.84,1.08-1.14,.36-.29,.75-.44,1.17-.45v-.26h-3.39v.26c.38,0,.65,.05,.8,.13,.15,.08,.22,.22,.22,.41s-.14,.45-.43,.81l-1.7,2.15-1.47-2.2c-.22-.34-.34-.59-.34-.76,0-.34,.33-.52,.98-.54v-.26h-4.42v.26c.55,.02,1,.17,1.36,.46,.36,.29,.75,.75,1.18,1.37l1.88,2.76-2.25,2.85c-.78,.99-1.57,1.52-2.36,1.59v.26h3.39v-.26c-.61-.02-.92-.2-.92-.54,0-.18,.15-.46,.44-.83l2-2.57Z"/>
    <path class="cls-1" d="M109.14,70.22v.26c.38,0,.65,.05,.8,.13,.15,.08,.22,.22,.22,.41s-.14,.45-.43,.81l-1.63,2.06,.34,.52,1.83-2.35c.36-.46,.72-.84,1.08-1.14,.36-.29,.75-.44,1.17-.45v-.26h-3.39Z"/>
    <path class="cls-1" d="M100.68,76.09c-.24-.38-.54-.69-.9-.93-.36-.24-.89-.55-1.59-.92-1.14-.61-1.82-1.07-2.04-1.36-.23-.3-.34-.58-.34-.84,0-.41,.17-.76,.5-1.04,.33-.28,.73-.42,1.19-.42,.62,0,1.19,.21,1.69,.64,.5,.43,.82,1.13,.96,2.1h.26v-3.31h-.26c-.08,.37-.24,.55-.49,.55-.11,0-.29-.06-.56-.18-.56-.25-1.1-.37-1.61-.37-.79,0-1.46,.24-1.99,.72-.54,.48-.81,1.08-.81,1.8,0,.87,.4,1.57,1.21,2.1,.81,.53,1.84,1.16,3.09,1.89,.53,.41,.8,.87,.8,1.38,0,.46-.18,.84-.54,1.13-.36,.29-.81,.44-1.36,.44-1.57,0-2.52-.91-2.84-2.73h-.26v3.28h.26c.05-.36,.2-.54,.43-.54,.16,0,.44,.07,.86,.21,.68,.22,1.24,.34,1.7,.34,.85,0,1.56-.25,2.14-.76,.58-.51,.87-1.14,.87-1.9,0-.45-.12-.86-.36-1.25Z"/>
    <path class="cls-1" d="M109.24,77.77c.29,.49,.85,.76,1.41,.7l-3.51-5.51c-.23-.37-.64-.59-1.08-.59h-.12l3.29,5.4Z"/>
    <path class="cls-1" d="M112.13,79.48l-1.26-.76c-.73,.16-1.48-.17-1.87-.81l-3.34-5.49c-.22,.18-.68,.61-.68,1.09,0,.6,.32,.98,.38,1.04l.68,.46c.42,.28,.76,.65,.99,1.09l1.76,3.31c.1,.19,.3,.31,.51,.31h2.75c.07,0,.13-.06,.13-.13,0-.05-.02-.09-.06-.11Z"/>
  </g>
  <g>
    <path class="cls-1" d="M143.12,22.34h-.54c-.28,0-.55-.06-.83-.17-.27-.11-.47-.27-.6-.46-.13-.19-.19-.73-.19-1.61V10.4c0-1.03,.16-1.66,.48-1.89,.32-.23,.7-.35,1.14-.35h.54v-.41h-6.43v.41h.54c.58,0,.99,.14,1.24,.41,.25,.28,.37,.89,.37,1.83v9.69c0,.85-.1,1.44-.29,1.76-.19,.32-.63,.49-1.32,.49h-.54v.41h6.43v-.41Z"/>
    <path class="cls-1" d="M147.99,7.79v.41c.6,0,1.02,.07,1.25,.2,.23,.13,.35,.34,.35,.64s-.22,.71-.67,1.27l-2.55,3.23,.54,.81,2.87-3.67c.57-.73,1.13-1.32,1.7-1.78,.56-.46,1.17-.69,1.83-.7v-.41h-5.32Z"/>
    <path class="cls-1" d="M148.15,19.62c.46,.76,1.33,1.19,2.21,1.09l-5.5-8.64c-.37-.58-1-.93-1.69-.93h-.19l5.15,8.47Z"/>
    <path class="cls-1" d="M152.67,22.3l-1.97-1.18c-1.15,.25-2.32-.26-2.93-1.26l-5.23-8.6c-.35,.28-1.07,.95-1.07,1.7,0,.94,.51,1.54,.6,1.64l1.07,.71c.65,.43,1.18,1.02,1.55,1.71l2.76,5.18c.16,.3,.46,.48,.8,.48h4.32c.11,0,.21-.09,.21-.21,0-.07-.04-.14-.1-.18Z"/>
  </g>
  <g>
    <path class="cls-1" d="M143.75,49.97h-.36c-.19,0-.37-.04-.55-.11-.18-.08-.31-.18-.4-.31-.09-.13-.13-.49-.13-1.08v-6.46c0-.69,.11-1.11,.32-1.26,.21-.16,.47-.23,.76-.23h.36v-.27h-4.28v.27h.36c.39,0,.66,.09,.83,.28,.16,.18,.25,.59,.25,1.22v6.46c0,.57-.06,.96-.19,1.17-.13,.22-.42,.32-.88,.32h-.36v.27h4.28v-.27Z"/>
    <path class="cls-1" d="M147,40.27v.27c.4,0,.68,.05,.83,.13,.15,.09,.23,.23,.23,.42s-.15,.47-.45,.85l-1.7,2.16,.36,.54,1.92-2.45c.38-.48,.76-.88,1.13-1.19,.37-.31,.78-.46,1.22-.47v-.27h-3.54Z"/>
    <path class="cls-1" d="M147.1,48.16c.31,.51,.88,.79,1.48,.73l-3.66-5.76c-.24-.39-.67-.62-1.12-.62h-.12l3.44,5.64Z"/>
    <path class="cls-1" d="M150.12,49.95l-1.32-.79c-.76,.16-1.55-.17-1.96-.84l-3.49-5.73c-.23,.19-.71,.63-.71,1.14,0,.63,.34,1.02,.4,1.09l.71,.48c.43,.29,.79,.68,1.04,1.14l1.84,3.46c.1,.2,.31,.32,.53,.32h2.88c.08,0,.14-.06,.14-.14,0-.05-.03-.09-.07-.12Z"/>
  </g>
  <g>
    <path d="M144.37,77.36h-.18c-.09,0-.18-.02-.28-.06-.09-.04-.16-.09-.2-.15-.04-.06-.06-.24-.06-.54v-3.23c0-.34,.05-.55,.16-.63,.11-.08,.23-.12,.38-.12h.18v-.14h-2.14v.14h.18c.19,0,.33,.05,.41,.14,.08,.09,.12,.3,.12,.61v3.23c0,.28-.03,.48-.1,.59-.06,.11-.21,.16-.44,.16h-.18v.14h2.14v-.14Z"/>
    <path d="M146,72.51v.14c.2,0,.34,.02,.42,.07,.08,.04,.12,.11,.12,.21s-.07,.24-.22,.42l-.85,1.08,.18,.27,.96-1.22c.19-.24,.38-.44,.57-.59,.19-.15,.39-.23,.61-.23v-.14h-1.77Z"/>
    <path d="M146.05,76.46c.15,.25,.44,.4,.74,.36l-1.83-2.88c-.12-.19-.33-.31-.56-.31h-.06l1.72,2.82Z"/>
    <path d="M147.56,77.35l-.66-.39c-.38,.08-.77-.09-.98-.42l-1.74-2.87c-.12,.09-.36,.32-.36,.57,0,.31,.17,.51,.2,.55l.36,.24c.22,.14,.39,.34,.52,.57l.92,1.73c.05,.1,.15,.16,.27,.16h1.44s.07-.03,.07-.07c0-.02-.01-.05-.03-.06Z"/>
  </g>
</svg>