<svg width="1505" height="224" viewBox="0 0 1505 224" fill="none" xmlns="http://www.w3.org/2000/svg">
<path fill-rule="evenodd" clip-rule="evenodd" d="M0 223.714V118.671L118.68 0H223.734V73.9248L297.665 0H402.719V104.4H477.303V223.714H357.977V149.782L284.04 223.714H178.985V149.79L105.055 223.714H0Z" fill="white"/>
<path fill-rule="evenodd" clip-rule="evenodd" d="M692.061 158.604L631.018 18.6426H581.712V205.397H618.545L618.62 79.5488L674.32 205.397H709.81L765.586 79.5767V205.397H802.418V18.6426H753.084L692.061 158.604ZM891.362 65.4919C829.975 65.4919 817.091 103.784 817.091 135.887C817.091 184.946 841.627 208.772 892.08 208.772C942.542 208.772 966.593 185.151 966.593 136.549C966.593 87.9475 941.283 65.4641 891.39 65.4641L891.362 65.4919ZM855.359 135.226C855.359 110.692 860.925 98.229 891.362 98.229C919.693 98.229 928.325 107.289 928.325 137.053C928.325 166.825 919.795 176.109 891.847 176.109C863.889 176.109 855.359 166.574 855.359 135.254V135.226ZM1062.52 65.7158H1063.24V65.7437C1108.35 65.7437 1128.48 89.4482 1128.48 138.628C1128.48 187.808 1108.67 208.8 1062.31 208.8C1041.08 208.8 1024.86 196.188 1018.79 186.316L1018.6 204.13V205.397H981.295V18.6426H1018.6V88.6558C1023.15 81.5249 1040.42 65.8184 1062.52 65.7158ZM1052.97 176.063C1073.74 176.063 1090.93 173.043 1090.93 135.887V135.86C1090.93 107.849 1080.77 98.406 1053.46 98.406C1026.14 98.406 1015.51 109.163 1015.51 136.773C1015.51 173.089 1032.21 176.063 1052.97 176.063ZM1225.2 65.7158H1224.48C1202.37 65.8184 1185.11 81.5249 1180.57 88.6558V18.6426H1143.26V205.397H1180.57V204.13L1180.75 186.316C1186.82 196.16 1203.04 208.772 1224.26 208.772C1270.63 208.772 1290.44 187.789 1290.44 138.6C1290.44 89.4202 1270.31 65.7158 1225.2 65.7158ZM1252.89 135.887C1252.89 173.043 1235.7 176.063 1214.94 176.063C1194.17 176.063 1177.46 173.089 1177.46 136.773C1177.46 109.163 1188.1 98.406 1215.42 98.406C1242.73 98.406 1252.89 107.849 1252.89 135.86V135.887ZM1306.23 68.6614H1343.54V205.397H1306.23V68.6614ZM1443.52 65.6689C1422.81 65.6689 1406.08 78.6353 1400.71 88.6558V68.6611H1363.4V205.397H1400.71V125.708C1400.71 107.849 1406.03 99.3193 1436.28 99.3193C1459.18 99.3193 1467.31 106.45 1467.31 126.603V205.369H1504.62V134.75C1504.62 83.3518 1489.2 65.9207 1443.52 65.6411V65.6689ZM1306.23 18.6426H1343.54V54.0732H1306.23V18.6426Z" fill="white"/>
</svg>
