<svg width="44" height="34" viewBox="0 0 44 34" fill="none" xmlns="http://www.w3.org/2000/svg">
<path fill-rule="evenodd" clip-rule="evenodd" d="M3.5 0.5C1.84315 0.5 0.5 1.84314 0.5 3.5V30.5C0.5 32.1569 1.84314 33.5 3.5 33.5H40.5C42.1569 33.5 43.5 32.1569 43.5 30.5V3.5C43.5 1.84315 42.1569 0.5 40.5 0.5H3.5ZM25.5323 4.76219C25.7027 3.69301 24.9567 2.69083 23.8661 2.52377C22.7754 2.35671 21.7531 3.08803 21.5827 4.15721L17.5851 29.2378C17.4147 30.307 18.1607 31.3092 19.2514 31.4762C20.342 31.6433 21.3643 30.912 21.5348 29.8428L25.5323 4.76219ZM13.669 13.6829C14.4496 12.9177 14.4496 11.6771 13.669 10.9119C12.8884 10.1467 11.6229 10.1467 10.8423 10.9119L6.3196 15.3455C5.2268 16.4168 5.2268 18.1537 6.3196 19.225L10.8423 23.6586C11.6229 24.4238 12.8884 24.4238 13.669 23.6586C14.4496 22.8934 14.4496 21.6528 13.669 20.8876L9.9943 17.2852L13.669 13.6829ZM32.0577 10.9119C31.2771 10.1467 30.0116 10.1467 29.231 10.9119C28.4504 11.6771 28.4504 12.9177 29.231 13.6829L32.9057 17.2853L29.231 20.8876C28.4504 21.6528 28.4504 22.8935 29.231 23.6587C30.0116 24.4239 31.2771 24.4239 32.0577 23.6587L36.5804 19.225C37.6732 18.1537 37.6732 16.4168 36.5804 15.3455L32.0577 10.9119Z" fill="#537FE7"/>
</svg>
