<svg width="100" height="100" viewBox="0 0 100 100" fill="none" xmlns="http://www.w3.org/2000/svg">
<circle cx="50" cy="50" r="50" fill="white"/>
<path d="M49.9982 70.4998C50.8381 70.4998 51.6436 70.8335 52.2375 71.4273C52.8314 72.0212 53.165 72.8266 53.165 73.6665V76.8332C53.165 77.673 52.8314 78.4785 52.2375 79.0723C51.6436 79.6662 50.8381 79.9998 49.9982 79.9998C49.1583 79.9998 48.3528 79.6662 47.7589 79.0723C47.165 78.4785 46.8313 77.673 46.8313 76.8332V73.6665C46.8313 72.8266 47.165 72.0212 47.7589 71.4273C48.3528 70.8335 49.1583 70.4998 49.9982 70.4998ZM70.1519 64.0082L72.3909 66.247C72.9678 66.8442 73.287 67.6441 73.2798 68.4744C73.2725 69.3047 72.9395 70.099 72.3523 70.6861C71.7652 71.2732 70.9709 71.6063 70.1405 71.6135C69.3102 71.6207 68.5103 71.3015 67.913 70.7247L65.674 68.4858C65.0972 67.8886 64.778 67.0887 64.7852 66.2584C64.7924 65.4281 65.1254 64.6339 65.7126 64.0467C66.2998 63.4596 67.094 63.1266 67.9244 63.1194C68.7547 63.1122 69.5547 63.4313 70.1519 64.0082ZM29.8444 64.0082C30.4143 63.4402 31.179 63.1105 31.9832 63.0859C32.7874 63.0614 33.5708 63.3438 34.1743 63.876C34.7778 64.4081 35.1561 65.1499 35.2324 65.9508C35.3087 66.7518 35.0773 67.5517 34.5851 68.1882L34.3223 68.4858L32.0833 70.7247C31.5134 71.2926 30.7487 71.6223 29.9445 71.6469C29.1403 71.6714 28.3569 71.389 27.7534 70.8569C27.1499 70.3248 26.7716 69.5829 26.6953 68.782C26.619 67.9811 26.8504 67.1811 27.3426 66.5447L27.6054 66.247L29.8444 64.0082ZM49.9982 29.3332C55.0376 29.3332 59.8705 31.335 63.4339 34.8981C66.9973 38.4613 68.9992 43.2941 68.9992 48.3332C68.9992 53.3723 66.9973 58.205 63.4339 61.7682C59.8705 65.3314 55.0376 67.3332 49.9982 67.3332C44.9588 67.3332 40.1258 65.3314 36.5624 61.7682C32.999 58.205 30.9971 53.3723 30.9971 48.3332C30.9971 43.2941 32.999 38.4613 36.5624 34.8981C40.1258 31.335 44.9588 29.3332 49.9982 29.3332ZM24.6634 45.1665C25.4706 45.1674 26.247 45.4765 26.8339 46.0305C27.4208 46.5846 27.774 47.3419 27.8213 48.1476C27.8686 48.9533 27.6065 49.7467 27.0884 50.3656C26.5703 50.9846 25.8355 51.3823 25.0339 51.4777L24.6634 51.4998H21.4966C20.6894 51.4989 19.9131 51.1899 19.3261 50.6358C18.7392 50.0817 18.386 49.3245 18.3387 48.5188C18.2914 47.713 18.5536 46.9196 19.0716 46.3007C19.5897 45.6818 20.3246 45.284 21.1261 45.1887L21.4966 45.1665H24.6634ZM78.4997 45.1665C79.3396 45.1665 80.1451 45.5001 80.739 46.094C81.3329 46.6879 81.6666 47.4933 81.6666 48.3332C81.6666 49.173 81.3329 49.9785 80.739 50.5723C80.1451 51.1662 79.3396 51.4998 78.4997 51.4998H75.3329C74.493 51.4998 73.6875 51.1662 73.0936 50.5723C72.4997 49.9785 72.1661 49.173 72.1661 48.3332C72.1661 47.4933 72.4997 46.6879 73.0936 46.094C73.6875 45.5001 74.493 45.1665 75.3329 45.1665H78.4997ZM27.6054 25.9417C28.1507 25.3964 28.8763 25.0689 29.6459 25.0205C30.4155 24.9721 31.1763 25.2062 31.7857 25.6788L32.0833 25.9417L34.3223 28.1805C34.8903 28.7504 35.22 29.515 35.2446 30.3192C35.2691 31.1234 34.9867 31.9068 34.4545 32.5102C33.9224 33.1137 33.1805 33.492 32.3795 33.5683C31.5786 33.6446 30.7786 33.4131 30.1421 32.921L29.8444 32.6582L27.6054 30.4193C27.0117 29.8255 26.6782 29.0202 26.6782 28.1805C26.6782 27.3408 27.0117 26.5355 27.6054 25.9417ZM72.3909 25.9417C72.9846 26.5355 73.3181 27.3408 73.3181 28.1805C73.3181 29.0202 72.9846 29.8255 72.3909 30.4193L70.1519 32.6582C69.8598 32.9606 69.5104 33.2019 69.124 33.3678C68.7376 33.5338 68.3221 33.6211 67.9016 33.6248C67.4811 33.6285 67.0641 33.5483 66.6749 33.3891C66.2857 33.2299 65.9321 32.9947 65.6348 32.6974C65.3374 32.4001 65.1023 32.0465 64.9431 31.6574C64.7838 31.2682 64.7037 30.8512 64.7073 30.4307C64.711 30.0103 64.7984 29.5947 64.9643 29.2084C65.1303 28.822 65.3716 28.4726 65.674 28.1805L67.913 25.9417C68.5069 25.348 69.3122 25.0145 70.1519 25.0145C70.9917 25.0145 71.797 25.348 72.3909 25.9417ZM49.9982 16.6665C50.8381 16.6665 51.6436 17.0001 52.2375 17.594C52.8314 18.1879 53.165 18.9933 53.165 19.8332V22.9998C53.165 23.8397 52.8314 24.6451 52.2375 25.239C51.6436 25.8329 50.8381 26.1665 49.9982 26.1665C49.1583 26.1665 48.3528 25.8329 47.7589 25.239C47.165 24.6451 46.8313 23.8397 46.8313 22.9998V19.8332C46.8313 18.9933 47.165 18.1879 47.7589 17.594C48.3528 17.0001 49.1583 16.6665 49.9982 16.6665Z" fill="#333333"/>
</svg>
