<svg width="42" height="22" viewBox="0 0 42 22" fill="none" xmlns="http://www.w3.org/2000/svg">
<rect x="1" y="1" width="40" height="20" rx="10" fill="white"/>
<circle cx="11" cy="11" r="10" fill="#333333"/>
<path d="M30.9997 14.5C31.1323 14.5 31.2595 14.5527 31.3533 14.6464C31.4471 14.7402 31.4998 14.8674 31.4998 15V15.5C31.4998 15.6326 31.4471 15.7598 31.3533 15.8536C31.2595 15.9473 31.1323 16 30.9997 16C30.8671 16 30.7399 15.9473 30.6462 15.8536C30.5524 15.7598 30.4997 15.6326 30.4997 15.5V15C30.4997 14.8674 30.5524 14.7402 30.6462 14.6464C30.7399 14.5527 30.8671 14.5 30.9997 14.5ZM34.1819 13.475L34.5354 13.8285C34.6265 13.9228 34.6769 14.0491 34.6758 14.1802C34.6746 14.3113 34.622 14.4367 34.5293 14.5294C34.4366 14.6221 34.3112 14.6747 34.1801 14.6758C34.049 14.677 33.9227 14.6266 33.8284 14.5355L33.4749 14.182C33.3838 14.0877 33.3334 13.9614 33.3345 13.8303C33.3357 13.6992 33.3882 13.5738 33.481 13.4811C33.5737 13.3884 33.6991 13.3358 33.8302 13.3347C33.9613 13.3335 34.0876 13.3839 34.1819 13.475ZM27.8175 13.475C27.9075 13.3853 28.0283 13.3333 28.1553 13.3294C28.2822 13.3255 28.4059 13.3701 28.5012 13.4541C28.5965 13.5381 28.6562 13.6553 28.6683 13.7817C28.6803 13.9082 28.6438 14.0345 28.5661 14.135L28.5246 14.182L28.1711 14.5355C28.0811 14.6252 27.9603 14.6772 27.8334 14.6811C27.7064 14.685 27.5827 14.6404 27.4874 14.5564C27.3921 14.4724 27.3324 14.3552 27.3203 14.2288C27.3083 14.1023 27.3448 13.976 27.4225 13.8755L27.464 13.8285L27.8175 13.475ZM30.9997 8C31.7954 8 32.5585 8.31607 33.1212 8.87868C33.6838 9.44129 33.9999 10.2044 33.9999 11C33.9999 11.7956 33.6838 12.5587 33.1212 13.1213C32.5585 13.6839 31.7954 14 30.9997 14C30.204 14 29.4409 13.6839 28.8783 13.1213C28.3156 12.5587 27.9996 11.7956 27.9996 11C27.9996 10.2044 28.3156 9.44129 28.8783 8.87868C29.4409 8.31607 30.204 8 30.9997 8ZM26.9995 10.5C27.1269 10.5001 27.2495 10.5489 27.3422 10.6364C27.4349 10.7239 27.4906 10.8435 27.4981 10.9707C27.5056 11.0979 27.4642 11.2232 27.3824 11.3209C27.3006 11.4186 27.1846 11.4814 27.058 11.4965L26.9995 11.5H26.4995C26.372 11.4999 26.2494 11.4511 26.1568 11.3636C26.0641 11.2761 26.0083 11.1565 26.0009 11.0293C25.9934 10.9021 26.0348 10.7768 26.1166 10.6791C26.1984 10.5814 26.3144 10.5186 26.441 10.5035L26.4995 10.5H26.9995ZM35.5 10.5C35.6326 10.5 35.7598 10.5527 35.8535 10.6464C35.9473 10.7402 36 10.8674 36 11C36 11.1326 35.9473 11.2598 35.8535 11.3536C35.7598 11.4473 35.6326 11.5 35.5 11.5H34.9999C34.8673 11.5 34.7401 11.4473 34.6464 11.3536C34.5526 11.2598 34.4999 11.1326 34.4999 11C34.4999 10.8674 34.5526 10.7402 34.6464 10.6464C34.7401 10.5527 34.8673 10.5 34.9999 10.5H35.5ZM27.464 7.4645C27.5501 7.37841 27.6647 7.3267 27.7862 7.31906C27.9077 7.31141 28.0279 7.34837 28.1241 7.423L28.1711 7.4645L28.5246 7.818C28.6143 7.90798 28.6663 8.02872 28.6702 8.15569C28.6741 8.28267 28.6295 8.40636 28.5455 8.50164C28.4614 8.59692 28.3443 8.65665 28.2178 8.6687C28.0914 8.68075 27.9651 8.64421 27.8645 8.5665L27.8175 8.525L27.464 8.1715C27.3703 8.07774 27.3176 7.95058 27.3176 7.818C27.3176 7.68542 27.3703 7.55826 27.464 7.4645ZM34.5354 7.4645C34.6292 7.55826 34.6818 7.68542 34.6818 7.818C34.6818 7.95058 34.6292 8.07774 34.5354 8.1715L34.1819 8.525C34.1358 8.57276 34.0806 8.61085 34.0196 8.63705C33.9586 8.66326 33.893 8.67705 33.8266 8.67763C33.7602 8.6782 33.6943 8.66555 33.6329 8.64041C33.5714 8.61527 33.5156 8.57814 33.4687 8.5312C33.4217 8.48425 33.3846 8.42843 33.3594 8.36698C33.3343 8.30553 33.3216 8.23969 33.3222 8.1733C33.3228 8.10691 33.3366 8.0413 33.3628 7.9803C33.389 7.9193 33.4271 7.86412 33.4749 7.818L33.8284 7.4645C33.9221 7.37076 34.0493 7.31811 34.1819 7.31811C34.3145 7.31811 34.4416 7.37076 34.5354 7.4645ZM30.9997 6C31.1323 6 31.2595 6.05268 31.3533 6.14645C31.4471 6.24021 31.4998 6.36739 31.4998 6.5V7C31.4998 7.13261 31.4471 7.25979 31.3533 7.35355C31.2595 7.44732 31.1323 7.5 30.9997 7.5C30.8671 7.5 30.7399 7.44732 30.6462 7.35355C30.5524 7.25979 30.4997 7.13261 30.4997 7V6.5C30.4997 6.36739 30.5524 6.24021 30.6462 6.14645C30.7399 6.05268 30.8671 6 30.9997 6Z" fill="#333333"/>
<rect x="0.5" y="0.5" width="41" height="21" rx="10.5" stroke="#333333"/>
</svg>
