<svg width="68" height="42" viewBox="0 0 68 42" fill="none" xmlns="http://www.w3.org/2000/svg">
<path d="M67.7586 1C67.7586 0.447715 67.3109 0 66.7586 0L57.7586 0C57.2064 0 56.7586 0.447715 56.7586 1C56.7586 1.55228 57.2064 2 57.7586 2L65.7586 2V10C65.7586 10.5523 66.2064 11 66.7586 11C67.3109 11 67.7586 10.5523 67.7586 10V1ZM40.5168 24.4134L41.2239 23.7063L40.5168 24.4134ZM43.3453 24.4134L44.0524 25.1205L43.3453 24.4134ZM28.7946 15.4149L28.1142 14.6821L28.7946 15.4149ZM1.92185 41.7328L29.4751 16.1477L28.1142 14.6821L0.560943 40.2672L1.92185 41.7328ZM30.8626 16.1734L39.8097 25.1205L41.2239 23.7063L32.2768 14.7591L30.8626 16.1734ZM44.0524 25.1205L67.4657 1.70711L66.0515 0.292893L42.6382 23.7063L44.0524 25.1205ZM39.8097 25.1205C40.9813 26.2921 42.8808 26.2921 44.0524 25.1205L42.6382 23.7063C42.2476 24.0968 41.6145 24.0968 41.2239 23.7063L39.8097 25.1205ZM29.4751 16.1477C29.8692 15.7817 30.4823 15.793 30.8626 16.1734L32.2768 14.7591C31.1358 13.6181 29.2966 13.5841 28.1142 14.6821L29.4751 16.1477Z" fill="#537FE7"/>
</svg>
