<svg width="11" height="10" viewBox="0 0 11 10" fill="none" xmlns="http://www.w3.org/2000/svg">
<path d="M5.8193 8.5C5.95192 8.5 6.0791 8.55268 6.17288 8.64645C6.26665 8.74021 6.31933 8.86739 6.31933 9V9.5C6.31933 9.63261 6.26665 9.75979 6.17288 9.85355C6.0791 9.94732 5.95192 10 5.8193 10C5.68669 10 5.5595 9.94732 5.46573 9.85355C5.37196 9.75979 5.31928 9.63261 5.31928 9.5V9C5.31928 8.86739 5.37196 8.74021 5.46573 8.64645C5.5595 8.55268 5.68669 8.5 5.8193 8.5ZM9.00148 7.475L9.355 7.8285C9.44608 7.9228 9.49648 8.0491 9.49534 8.1802C9.4942 8.3113 9.44162 8.43671 9.34891 8.52941C9.2562 8.62211 9.13079 8.6747 8.99968 8.67584C8.86857 8.67698 8.74227 8.62658 8.64796 8.5355L8.29444 8.182C8.20336 8.0877 8.15296 7.9614 8.1541 7.8303C8.15524 7.6992 8.20782 7.57379 8.30053 7.48109C8.39324 7.38839 8.51865 7.3358 8.64976 7.33466C8.78087 7.33352 8.90717 7.38392 9.00148 7.475ZM2.63713 7.475C2.72711 7.38533 2.84786 7.33326 2.97484 7.32939C3.10182 7.32551 3.22552 7.37011 3.3208 7.45412C3.41609 7.53814 3.47583 7.65528 3.48787 7.78174C3.49992 7.9082 3.46338 8.0345 3.38567 8.135L3.34417 8.182L2.99065 8.5355C2.90066 8.62517 2.77992 8.67724 2.65294 8.68111C2.52595 8.68499 2.40226 8.64039 2.30697 8.55638C2.21168 8.47236 2.15195 8.35522 2.1399 8.22876C2.12785 8.1023 2.16439 7.976 2.24211 7.8755L2.28361 7.8285L2.63713 7.475ZM5.8193 2C6.615 2 7.3781 2.31607 7.94074 2.87868C8.50338 3.44129 8.81947 4.20435 8.81947 5C8.81947 5.79565 8.50338 6.55871 7.94074 7.12132C7.3781 7.68393 6.615 8 5.8193 8C5.02361 8 4.26051 7.68393 3.69787 7.12132C3.13523 6.55871 2.81914 5.79565 2.81914 5C2.81914 4.20435 3.13523 3.44129 3.69787 2.87868C4.26051 2.31607 5.02361 2 5.8193 2ZM1.81908 4.5C1.94653 4.50014 2.06911 4.54894 2.16178 4.63642C2.25446 4.72391 2.31023 4.84348 2.3177 4.9707C2.32516 5.09792 2.28377 5.22319 2.20197 5.32092C2.12017 5.41864 2.00414 5.48145 1.87758 5.4965L1.81908 5.5H1.31905C1.19161 5.49986 1.06902 5.45106 0.976351 5.36358C0.883678 5.27609 0.827909 5.15652 0.82044 5.0293C0.812971 4.90208 0.854365 4.77681 0.936165 4.67908C1.01796 4.58136 1.134 4.51855 1.26055 4.5035L1.31905 4.5H1.81908ZM10.3196 4.5C10.4522 4.5 10.5794 4.55268 10.6731 4.64645C10.7669 4.74021 10.8196 4.86739 10.8196 5C10.8196 5.13261 10.7669 5.25979 10.6731 5.35355C10.5794 5.44732 10.4522 5.5 10.3196 5.5H9.81952C9.68691 5.5 9.55972 5.44732 9.46595 5.35355C9.37218 5.25979 9.3195 5.13261 9.3195 5C9.3195 4.86739 9.37218 4.74021 9.46595 4.64645C9.55972 4.55268 9.68691 4.5 9.81952 4.5H10.3196ZM2.28361 1.4645C2.36971 1.37841 2.48426 1.3267 2.60578 1.31906C2.7273 1.31141 2.84744 1.34837 2.94364 1.423L2.99065 1.4645L3.34417 1.818C3.43385 1.90798 3.48591 2.02872 3.48979 2.15569C3.49367 2.28267 3.44906 2.40636 3.36504 2.50164C3.28102 2.59692 3.16388 2.65665 3.03741 2.6687C2.91094 2.68075 2.78463 2.64421 2.68413 2.5665L2.63713 2.525L2.28361 2.1715C2.18987 2.07774 2.13721 1.95058 2.13721 1.818C2.13721 1.68542 2.18987 1.55826 2.28361 1.4645ZM9.355 1.4645C9.44874 1.55826 9.5014 1.68542 9.5014 1.818C9.5014 1.95058 9.44874 2.07774 9.355 2.1715L9.00148 2.525C8.95535 2.57276 8.90018 2.61085 8.83917 2.63705C8.77817 2.66326 8.71255 2.67705 8.64616 2.67763C8.57977 2.6782 8.51392 2.66555 8.45247 2.64041C8.39102 2.61527 8.33519 2.57814 8.28824 2.5312C8.24129 2.48425 8.20417 2.42843 8.17902 2.36698C8.15388 2.30553 8.14123 2.23969 8.14181 2.1733C8.14238 2.10691 8.15618 2.0413 8.18238 1.9803C8.20859 1.9193 8.24668 1.86412 8.29444 1.818L8.64796 1.4645C8.74173 1.37076 8.86889 1.31811 9.00148 1.31811C9.13407 1.31811 9.26123 1.37076 9.355 1.4645ZM5.8193 0C5.95192 0 6.0791 0.0526784 6.17288 0.146447C6.26665 0.240215 6.31933 0.367392 6.31933 0.5V1C6.31933 1.13261 6.26665 1.25979 6.17288 1.35355C6.0791 1.44732 5.95192 1.5 5.8193 1.5C5.68669 1.5 5.5595 1.44732 5.46573 1.35355C5.37196 1.25979 5.31928 1.13261 5.31928 1V0.5C5.31928 0.367392 5.37196 0.240215 5.46573 0.146447C5.5595 0.0526784 5.68669 0 5.8193 0Z" fill="#333333"/>
</svg>
